<svg width="1438" height="624" viewBox="0 0 1438 624" fill="none" xmlns="http://www.w3.org/2000/svg">
<g opacity="0.44" clip-path="url(#clip0_1922_27194)">
<path d="M6.19056 538.583C5.39893 538.251 3.9265 537.508 2.54906 536.226C1.01329 534.787 0.110828 533.221 -2.32831e-08 531.354C-0.0791632 529.694 0.633306 527.843 2.12157 526.261C4.95562 523.256 9.10377 522.987 12.5078 526.15C13.6794 527.242 14.3602 528.365 14.5977 528.982L13.2836 529.757C12.9669 529.013 12.4761 528.175 11.447 527.226C8.97711 524.917 5.93724 524.948 3.56235 527.495C1.15578 530.057 1.28244 533.031 3.65734 535.23C4.5123 536.036 5.20894 536.464 5.65225 536.59L8.4863 533.569L6.42805 531.639L7.40968 530.579L10.7504 533.695L6.19056 538.567V538.583Z" fill="#FDEFCC"/>
<path d="M12.5236 535.815C13.2994 534.929 13.9486 534.154 14.5027 533.427L15.6902 534.471L14.4552 535.989L14.5185 536.037C15.7376 535.325 17.1151 535.404 18.0334 536.211C18.1917 536.337 18.2867 536.464 18.3817 536.59L17.2576 537.872C17.1468 537.713 17.0201 537.587 16.8301 537.413C15.8643 536.575 14.5502 536.701 13.4736 537.571C13.2836 537.729 13.0619 537.919 12.8561 538.156L9.37293 542.158L8.02715 540.988L12.5395 535.831L12.5236 535.815Z" fill="#FDEFCC"/>
<path d="M17.2418 548.817L17.9384 547.758L17.8909 547.71C16.9568 547.963 15.6902 547.805 14.5977 546.903C13.0461 545.606 13.1569 543.866 14.0911 542.759C15.6268 540.908 18.1125 541.272 21.0733 543.74L21.1999 543.582C21.7224 542.949 22.4982 541.668 20.9308 540.371C20.2183 539.769 19.2842 539.374 18.4609 539.279L18.9042 538.093C19.8858 538.203 21.0258 538.71 21.9915 539.501C24.3348 541.446 23.5748 543.518 22.2924 545.053L19.9016 547.916C19.3475 548.58 18.8408 549.26 18.5084 549.861L17.2418 548.802V548.817ZM20.2816 544.736C18.7934 543.439 16.8459 542.285 15.5952 543.756C14.851 544.657 15.0885 545.59 15.801 546.176C16.7984 546.998 17.9542 546.903 18.7142 546.429C18.8725 546.318 19.0467 546.192 19.1575 546.049L20.2658 544.72L20.2816 544.736Z" fill="#FDEFCC"/>
<path d="M30.2404 542.823L28.4513 545.069L30.4778 546.682L29.6229 547.758L27.5963 546.144L24.2556 550.352C23.4798 551.317 23.3215 552.076 24.1131 552.709C24.4773 553.009 24.7939 553.167 25.0156 553.262L24.2398 554.37C23.8756 554.259 23.3848 554.006 22.8307 553.563C22.1657 553.041 21.8016 552.408 21.7699 551.744C21.7066 551 22.1024 550.194 22.8307 549.276L26.2189 545.021L25.0156 544.056L25.8705 542.981L27.0738 543.946L28.5621 542.079L30.2404 542.807V542.823Z" fill="#FDEFCC"/>
<path d="M29.3379 552.519C27.8813 554.496 28.5146 556.236 29.9554 557.344C30.9845 558.134 31.7445 558.419 32.4569 558.609L31.9186 559.827C31.2378 559.669 30.177 559.273 28.9104 558.308C26.4722 556.458 26.2347 553.737 28.0554 551.349C29.8762 548.96 32.7102 548.153 35.0218 549.909C37.6025 551.871 36.5576 554.67 35.4493 556.126C35.2276 556.426 35.0218 556.616 34.8952 556.758L29.3221 552.519H29.3379ZM34.3568 554.702C35.0693 553.8 35.7659 552.076 34.1352 550.842C32.6786 549.735 31.0162 550.589 30.1454 551.507L34.3568 554.702Z" fill="#FDEFCC"/>
<path d="M34.056 561.868L39.1066 554.939L37.9825 554.117L38.79 553.009L39.9141 553.832L40.1991 553.452C41.0224 552.329 42.0198 551.475 43.1756 551.317C44.1097 551.19 44.9964 551.507 45.6772 551.997C46.1997 552.377 46.5638 552.82 46.7538 553.136L45.7247 554.117C45.5822 553.864 45.3447 553.563 44.933 553.263C43.6823 552.361 42.574 553.231 41.6715 554.449L41.3549 554.876L43.3023 556.284L42.4948 557.407L40.5474 555.999L35.4968 562.927L34.056 561.868Z" fill="#FDEFCC"/>
<path d="M47.1021 567.767C46.5163 568.606 46.0097 569.365 45.6138 570.045L44.2997 569.128L45.1389 567.736H45.1072C44.2681 568.1 42.7956 568.369 41.339 567.356C40.0566 566.47 39.0116 564.683 41.0065 561.82L44.3314 557.043L45.8197 558.071L42.669 562.595C41.5924 564.145 41.339 565.521 42.6848 566.47C43.6823 567.166 44.8539 566.945 45.5822 566.47C45.8197 566.312 46.0572 566.075 46.2472 565.806L49.7303 560.792L51.2186 561.82L47.0863 567.767H47.1021Z" fill="#FDEFCC"/>
<path d="M56.0792 559.447L57.5833 560.444L49.5087 572.608L48.0046 571.611L56.0792 559.447Z" fill="#FDEFCC"/>
<path d="M55.9051 575.455C56.3167 574.806 57.0292 574.632 57.6467 575.012C58.2641 575.392 58.3908 576.103 57.9791 576.752C57.5833 577.385 56.8867 577.59 56.2376 577.195C55.6359 576.815 55.5093 576.072 55.9051 575.455Z" fill="#FDEFCC"/>
<path d="M72.561 585.926C71.7219 585.768 70.107 585.388 68.492 584.455C66.6713 583.411 65.4363 582.082 64.9138 580.279C64.4547 578.682 64.7397 576.72 65.8163 574.838C67.9062 571.263 71.8802 570.061 75.9017 572.386C77.295 573.193 78.1974 574.126 78.5774 574.664L77.4691 575.708C76.9942 575.059 76.3292 574.363 75.1101 573.667C72.181 571.975 69.2362 572.702 67.4946 575.708C65.7371 578.761 66.5288 581.608 69.3312 583.221C70.3444 583.807 71.1202 584.06 71.5794 584.091L73.6535 580.517L71.2152 579.109L71.9435 577.859L75.9017 580.137L72.561 585.91V585.926Z" fill="#FDEFCC"/>
<path d="M85.338 587.666C83.628 590.925 80.6198 591.162 78.4824 590.039C76.0917 588.789 75.1734 586.068 76.6458 583.285C78.1974 580.342 81.0473 579.631 83.4855 580.912C86.0188 582.241 86.7629 584.977 85.338 587.682V587.666ZM78.2924 584.075C77.2791 586.005 77.6275 588.046 79.1791 588.868C80.7148 589.675 82.6147 588.837 83.6597 586.859C84.4513 585.373 84.6888 583.079 82.8047 582.082C80.9048 581.086 79.1632 582.399 78.2924 584.075Z" fill="#FDEFCC"/>
<path d="M95.6292 592.649C94.0301 595.971 91.0377 596.303 88.8686 595.275C86.4304 594.104 85.4171 591.431 86.7787 588.599C88.2195 585.594 91.0377 584.772 93.5234 585.974C96.1042 587.207 96.9433 589.928 95.6292 592.665V592.649ZM88.457 589.311C87.507 591.273 87.9345 593.297 89.5336 594.072C91.0852 594.816 92.9693 593.914 93.9351 591.89C94.6634 590.371 94.8375 588.077 92.906 587.144C90.9744 586.227 89.2803 587.603 88.4728 589.295L88.457 589.311Z" fill="#FDEFCC"/>
<path d="M109.53 588.315L104.733 599.356C104.385 600.163 104.005 601.096 103.783 601.744L102.295 601.096L102.912 599.482H102.881C101.931 600.258 100.474 600.558 98.9857 599.91C96.7691 598.945 95.8825 596.351 97.0858 593.567C98.3841 590.514 101.091 589.47 103.308 590.435C104.701 591.036 105.366 592.111 105.461 593.029H105.493L107.868 587.587L109.53 588.315ZM104.4 595.575C104.495 595.37 104.59 595.069 104.622 594.848C104.828 593.677 104.305 592.428 103.055 591.89C101.329 591.146 99.6665 592.206 98.7799 594.231C97.9724 596.082 98.2257 597.996 100.015 598.786C101.123 599.277 102.469 598.976 103.308 597.853C103.466 597.648 103.577 597.426 103.688 597.173L104.369 595.591L104.4 595.575Z" fill="#FDEFCC"/>
<path d="M115.784 591.826C116.861 592.032 118.127 592.364 119.473 592.839C121.896 593.709 123.415 594.879 124.175 596.366C124.951 597.853 125.094 599.593 124.334 601.712C123.574 603.848 122.291 605.35 120.629 606.11C118.966 606.885 116.718 606.822 114.185 605.92C112.982 605.493 112 605.066 111.177 604.67L115.784 591.842V591.826ZM113.33 603.959C113.726 604.196 114.343 604.433 115.008 604.67C118.618 605.967 121.294 604.654 122.561 601.127C123.685 598.058 122.64 595.48 119.077 594.199C118.207 593.882 117.526 593.724 117.035 593.661L113.33 603.959Z" fill="#FDEFCC"/>
<path d="M126.835 605.193C126.155 607.549 127.358 608.957 129.099 609.495C130.334 609.875 131.158 609.89 131.886 609.811L131.807 611.14C131.11 611.235 129.97 611.219 128.45 610.76C125.521 609.875 124.35 607.407 125.22 604.528C126.091 601.649 128.482 599.909 131.253 600.748C134.372 601.697 134.356 604.686 133.818 606.426C133.707 606.774 133.58 607.043 133.517 607.217L126.819 605.177L126.835 605.193ZM132.282 605.509C132.63 604.417 132.678 602.551 130.73 601.966C128.973 601.428 127.722 602.82 127.215 603.975L132.282 605.509Z" fill="#FDEFCC"/>
<path d="M136.921 608.15C136.351 610.523 137.617 611.899 139.375 612.342C140.626 612.659 141.449 612.643 142.177 612.532V613.861C141.465 613.987 140.325 614.035 138.789 613.639C135.812 612.88 134.546 610.476 135.29 607.565C136.034 604.655 138.33 602.804 141.148 603.532C144.299 604.338 144.425 607.312 143.966 609.084C143.871 609.448 143.76 609.716 143.697 609.89L136.921 608.166V608.15ZM142.383 608.214C142.684 607.106 142.652 605.256 140.673 604.75C138.9 604.291 137.697 605.73 137.253 606.917L142.367 608.23L142.383 608.214Z" fill="#FDEFCC"/>
<path d="M156.553 602.393L154.162 614.177C153.988 615.047 153.814 616.028 153.735 616.708L152.136 616.391L152.405 614.683H152.358C151.598 615.648 150.236 616.233 148.637 615.917C146.278 615.442 144.869 613.085 145.47 610.112C146.104 606.869 148.526 605.271 150.917 605.762C152.405 606.062 153.276 606.98 153.561 607.85H153.608L154.796 602.029L156.569 602.393H156.553ZM153.054 610.555C153.102 610.333 153.133 610.033 153.118 609.795C153.086 608.609 152.31 607.486 150.964 607.217C149.128 606.853 147.719 608.245 147.275 610.396C146.879 612.374 147.513 614.193 149.428 614.588C150.616 614.825 151.867 614.256 152.453 613.006C152.563 612.769 152.627 612.532 152.69 612.263L153.038 610.57L153.054 610.555Z" fill="#FDEFCC"/>
<path d="M161.161 616.818C161.271 616.059 161.857 615.601 162.57 615.711C163.282 615.822 163.694 616.407 163.599 617.166C163.504 617.894 162.95 618.384 162.19 618.274C161.477 618.179 161.066 617.562 161.161 616.818Z" fill="#FDEFCC"/>
<path d="M173.447 605.414L173.035 611.203L179.732 611.678L180.144 605.889L181.949 606.015L180.967 619.84L179.162 619.714L179.621 613.228L172.924 612.754L172.465 619.239L170.676 619.112L171.658 605.288L173.447 605.414Z" fill="#FDEFCC"/>
<path d="M190.087 619.951L189.944 618.701H189.881C189.327 619.476 188.25 620.172 186.825 620.156C184.814 620.156 183.785 618.717 183.801 617.277C183.801 614.873 185.97 613.56 189.818 613.608V613.402C189.818 612.579 189.612 611.093 187.569 611.093C186.651 611.093 185.669 611.361 184.973 611.82L184.561 610.618C185.384 610.096 186.588 609.748 187.839 609.748C190.878 609.764 191.607 611.852 191.607 613.845V617.562C191.575 618.432 191.607 619.27 191.733 619.951H190.087ZM189.849 614.873C187.87 614.826 185.622 615.158 185.622 617.088C185.622 618.258 186.398 618.828 187.316 618.828C188.614 618.828 189.438 618.021 189.738 617.182C189.802 616.993 189.849 616.787 189.849 616.613V614.889V614.873Z" fill="#FDEFCC"/>
<path d="M194.726 613.244C194.631 611.978 194.504 610.95 194.393 610.017L196.008 609.89L196.214 611.583H196.261C196.911 610.317 198.019 609.511 199.65 609.384C202.056 609.21 204.019 611.092 204.241 614.114C204.51 617.689 202.468 619.618 200.125 619.792C198.811 619.887 197.623 619.397 196.942 618.464H196.895L197.306 623.858L195.517 623.984L194.71 613.228L194.726 613.244ZM196.705 615.759C196.721 616.028 196.784 616.265 196.847 616.486C197.275 617.72 198.431 618.495 199.713 618.4C201.629 618.258 202.61 616.613 202.436 614.335C202.294 612.342 201.106 610.713 199.206 610.871C197.971 610.966 196.895 611.931 196.641 613.307C196.594 613.544 196.562 613.813 196.578 614.05L196.705 615.759Z" fill="#FDEFCC"/>
<path d="M206.664 612.137C206.394 610.887 206.141 609.891 205.904 608.973L207.487 608.625L207.93 610.27H207.978C208.453 608.926 209.434 607.961 211.033 607.629C213.392 607.122 215.593 608.736 216.226 611.678C216.986 615.174 215.229 617.372 212.933 617.863C211.651 618.148 210.4 617.815 209.608 616.977H209.561L210.701 622.276L208.943 622.656L206.664 612.121V612.137ZM208.975 614.367C209.038 614.636 209.118 614.857 209.213 615.079C209.798 616.234 211.049 616.85 212.316 616.582C214.184 616.17 214.944 614.415 214.453 612.184C214.026 610.239 212.648 608.783 210.78 609.195C209.577 609.464 208.627 610.571 208.579 611.963C208.579 612.2 208.563 612.469 208.611 612.706L208.975 614.367Z" fill="#FDEFCC"/>
<path d="M217.683 606.078L221.815 610.792C222.259 611.33 222.765 611.963 223.145 612.469H223.177C223.129 611.836 223.05 611.045 223.034 610.286L222.797 604.133L224.586 603.453V611.045C224.586 614.699 224.38 616.645 223.62 618.084C223.066 619.128 222.354 619.729 221.958 619.967L220.992 618.701C221.356 618.401 221.815 617.926 222.164 617.309C222.48 616.771 222.813 615.901 222.86 614.889C222.86 614.683 222.876 614.525 222.844 614.43C222.813 614.335 222.718 614.209 222.56 614.035L215.846 606.774L217.699 606.063L217.683 606.078Z" fill="#FDEFCC"/>
<path d="M233.943 608.309C233.547 607.66 233.706 606.933 234.307 606.553C234.925 606.173 235.621 606.363 236.017 607.012C236.413 607.644 236.302 608.356 235.653 608.768C235.036 609.147 234.323 608.926 233.943 608.309Z" fill="#FDEFCC"/>
<path d="M244.947 601.507L240.941 597.205L232.297 594.342L233.785 592.95L237.822 594.421C238.93 594.832 239.801 595.164 240.783 595.575L240.815 595.544C240.482 594.61 240.213 593.63 239.896 592.507L238.756 588.347L240.245 586.955L242.255 595.939L246.277 600.257L244.947 601.491V601.507Z" fill="#FDEFCC"/>
<path d="M252.119 585.8C255.016 588.062 254.716 591.067 253.227 592.965C251.565 595.085 248.731 595.512 246.245 593.566C243.617 591.51 243.427 588.6 245.121 586.417C246.878 584.171 249.712 583.918 252.119 585.8ZM247.322 592.08C249.048 593.424 251.106 593.456 252.198 592.048C253.259 590.688 252.784 588.663 251.011 587.287C249.681 586.243 247.48 585.594 246.15 587.287C244.836 588.979 245.818 590.909 247.306 592.08H247.322Z" fill="#FDEFCC"/>
<path d="M259.719 577.163C260.621 577.654 261.429 578.081 262.141 578.397L261.365 579.805L259.893 579.109V579.141C260.352 579.947 260.764 581.371 259.893 582.921C259.133 584.297 257.47 585.515 254.415 583.823L249.317 581.023L250.187 579.441L255.016 582.099C256.679 583.016 258.072 583.127 258.864 581.687C259.45 580.627 259.117 579.473 258.579 578.808C258.389 578.587 258.135 578.381 257.85 578.223L252.499 575.281L253.37 573.699L259.719 577.195V577.163Z" fill="#FDEFCC"/>
<path d="M251.454 567.672C252.847 568.795 254.494 570.504 255.127 571.405L254.795 572.513C253.861 571.611 252.119 570.251 250.868 569.46L251.454 567.672Z" fill="#FDEFCC"/>
<path d="M258.579 569.397C257.486 568.97 256.536 568.637 255.65 568.369L256.22 566.897L258.072 567.546L258.104 567.467C257.011 566.565 256.616 565.252 257.059 564.114C257.138 563.924 257.201 563.797 257.296 563.655L258.895 564.272C258.785 564.43 258.705 564.604 258.61 564.825C258.151 566.012 258.737 567.214 259.909 567.926C260.13 568.052 260.384 568.195 260.669 568.305L265.624 570.203L264.991 571.88L258.595 569.428L258.579 569.397Z" fill="#FDEFCC"/>
<path d="M263.313 562.832C265.672 563.481 267.081 562.279 267.603 560.539C267.968 559.289 267.983 558.482 267.888 557.755L269.218 557.834C269.313 558.53 269.313 559.669 268.87 561.187C267.999 564.129 265.545 565.3 262.664 564.461C259.782 563.623 258.009 561.235 258.832 558.466C259.75 555.35 262.743 555.335 264.5 555.857C264.848 555.967 265.118 556.078 265.292 556.157L263.297 562.864L263.313 562.832ZM263.566 557.375C262.474 557.027 260.605 556.995 260.035 558.941C259.513 560.697 260.906 561.946 262.062 562.437L263.566 557.375Z" fill="#FDEFCC"/>
<path d="M267.572 546.888L271.641 549.039L271.34 550.858L258.452 543.898L258.816 541.763L273.287 539.406L272.971 541.288L268.427 542.016L267.603 546.856L267.572 546.888ZM266.954 542.174L262.79 542.854C261.84 543.012 261.001 543.075 260.178 543.139V543.186C260.954 543.518 261.745 543.882 262.537 544.293L266.273 546.302L266.97 542.19L266.954 542.174Z" fill="#FDEFCC"/>
<path d="M266.384 536.163C265.355 536.084 264.516 536.037 263.693 536.021L263.819 534.439L265.418 534.487V534.423C264.532 533.791 263.724 532.794 263.851 531.165C263.962 529.82 264.864 528.855 266.068 528.523V528.476C265.545 528.128 265.149 527.701 264.864 527.258C264.469 526.625 264.263 525.945 264.342 525.012C264.453 523.699 265.466 521.816 268.917 522.101L274.76 522.576L274.617 524.331L268.997 523.873C267.097 523.715 265.878 524.316 265.767 525.771C265.688 526.799 266.384 527.653 267.239 528.033C267.477 528.128 267.809 528.223 268.126 528.254L274.253 528.745L274.111 530.5L268.158 530.01C266.574 529.884 265.371 530.485 265.26 531.861C265.165 532.984 266.004 533.885 266.891 534.233C267.144 534.36 267.461 534.423 267.762 534.455L273.746 534.945L273.604 536.701L266.368 536.116L266.384 536.163Z" fill="#FDEFCC"/>
<path d="M274.886 513.591L273.636 513.717V513.781C274.411 514.35 275.092 515.426 275.076 516.849C275.045 518.858 273.604 519.871 272.163 519.855C269.757 519.823 268.474 517.656 268.553 513.812H268.348C267.524 513.797 266.036 514.002 266.004 516.043C266.004 516.96 266.258 517.941 266.701 518.653L265.498 519.048C264.975 518.226 264.643 517.023 264.659 515.758C264.706 512.721 266.796 512.009 268.791 512.041L272.511 512.104C273.382 512.104 274.221 512.104 274.902 511.978L274.871 513.623L274.886 513.591ZM269.804 513.781C269.741 515.758 270.042 518.004 271.989 518.036C273.161 518.052 273.731 517.277 273.746 516.359C273.762 515.062 272.955 514.224 272.116 513.923C271.926 513.86 271.72 513.812 271.546 513.812L269.82 513.781H269.804Z" fill="#FDEFCC"/>
<path d="M273.857 509.969L267.873 505.603C267.334 505.192 266.843 504.781 266.289 504.354H266.242L266.368 509.748L264.912 509.779L264.722 502.187H265.862L271.752 506.473C272.322 506.869 272.828 507.264 273.351 507.707H273.398L273.256 501.886L274.696 501.854L274.902 509.937L273.857 509.969Z" fill="#FDEFCC"/>
<path d="M261.729 498.422C262.347 498.374 262.869 498.802 262.901 499.513C262.933 500.146 262.458 500.621 261.84 500.652C261.207 500.684 260.684 500.241 260.653 499.577C260.621 498.896 261.096 498.438 261.729 498.406V498.422ZM274.586 499.782L264.627 500.304L264.532 498.501L274.491 497.979L274.586 499.782Z" fill="#FDEFCC"/>
<path d="M267.081 495.29C266.052 495.369 265.213 495.464 264.405 495.591L264.279 493.993L265.909 493.756V493.708C264.928 493.297 263.899 492.221 263.772 490.592C263.661 489.216 264.294 487.017 267.698 486.733L273.62 486.242L273.778 488.045L268.063 488.52C266.463 488.647 265.181 489.358 265.323 491.067C265.418 492.253 266.337 493.107 267.366 493.329C267.603 493.392 267.904 493.408 268.221 493.376L274.19 492.87L274.348 494.673L267.113 495.274L267.081 495.29Z" fill="#FDEFCC"/>
<path d="M262.315 475.707C263.028 475.66 263.835 475.596 265.038 475.438L270.77 474.711C273.034 474.426 274.475 474.711 275.456 475.549C276.47 476.387 276.945 477.748 277.103 478.981C277.245 480.168 277.135 481.512 276.707 482.366L275.282 482.098C275.615 481.386 275.852 480.326 275.694 479.108C275.456 477.273 274.332 476.055 271.847 476.356L270.738 476.498V476.545C271.736 476.972 272.606 477.953 272.796 479.472C273.113 481.924 271.245 483.932 268.506 484.28C265.165 484.707 262.98 482.762 262.695 480.5C262.474 478.792 263.249 477.732 264.025 477.21V477.162L262.521 477.273L262.315 475.707ZM266.448 477.067C266.147 477.099 265.878 477.162 265.64 477.273C264.643 477.732 263.899 478.712 264.057 480.025C264.279 481.734 265.878 482.778 268.157 482.493C270.089 482.256 271.593 481.069 271.34 479.124C271.197 478.016 270.374 477.115 269.187 476.862C268.87 476.799 268.522 476.798 268.205 476.846L266.432 477.067H266.448Z" fill="#FDEFCC"/>
<path d="M269.931 467.356C269.187 467.498 268.569 467.087 268.427 466.391C268.284 465.695 268.727 465.094 269.472 464.951C270.2 464.809 270.833 465.173 270.976 465.916C271.102 466.628 270.659 467.213 269.931 467.356Z" fill="#FDEFCC"/>
<path d="M267.223 448.738C267.667 449.323 268.221 450.573 268.506 452.234C269.187 456.077 267.271 459.415 262.79 460.206C258.515 460.965 255.096 458.577 254.351 454.353C254.051 452.645 254.225 451.522 254.383 451L255.903 451.174C255.697 451.901 255.618 452.898 255.824 454.021C256.394 457.216 258.816 458.988 262.41 458.355C265.751 457.754 267.556 455.46 266.97 452.139C266.78 451.063 266.368 450.019 265.893 449.37L267.223 448.754V448.738Z" fill="#FDEFCC"/>
<path d="M252.895 449.054L252.578 447.267L258.705 446.175V446.128C258.135 445.938 257.613 445.574 257.217 445.068C256.821 444.594 256.505 444.008 256.394 443.344C256.156 442.031 256.6 439.785 259.988 439.184L265.83 438.156L266.147 439.943L260.51 440.94C258.927 441.224 257.692 442.047 257.993 443.724C258.199 444.878 259.165 445.638 260.194 445.796C260.463 445.859 260.716 445.827 261.064 445.764L266.986 444.72L267.303 446.508L252.911 449.054H252.895Z" fill="#FDEFCC"/>
<path d="M260.542 435.103C262.949 434.628 263.661 432.92 263.344 431.133C263.123 429.851 262.759 429.124 262.363 428.507L263.582 427.985C263.978 428.57 264.5 429.582 264.769 431.133C265.308 434.154 263.645 436.305 260.684 436.827C257.724 437.349 255.08 436.02 254.573 433.173C254.003 429.978 256.663 428.618 258.468 428.301C258.832 428.238 259.117 428.222 259.307 428.222L260.526 435.103H260.542ZM258.341 430.104C257.201 430.294 255.523 431.085 255.887 433.094C256.204 434.897 258.009 435.388 259.275 435.309L258.357 430.104H258.341Z" fill="#FDEFCC"/>
<path d="M258.737 424.948C261.144 424.473 261.856 422.765 261.539 420.977C261.318 419.696 260.954 418.969 260.558 418.352L261.777 417.83C262.173 418.415 262.695 419.427 262.964 420.977C263.503 423.999 261.84 426.15 258.88 426.672C255.919 427.194 253.275 425.865 252.768 423.018C252.198 419.823 254.858 418.462 256.663 418.146C257.027 418.083 257.312 418.067 257.502 418.067L258.721 424.948H258.737ZM256.536 419.949C255.396 420.139 253.718 420.93 254.082 422.939C254.399 424.742 256.204 425.232 257.47 425.153L256.552 419.949H256.536Z" fill="#FDEFCC"/>
<path d="M254.953 416.2C253.797 416.406 252.816 416.596 251.913 416.817L251.628 415.251L253.544 414.856V414.777C252.135 414.571 251.106 413.638 250.9 412.451C250.868 412.246 250.852 412.103 250.868 411.929L252.547 411.629C252.547 411.819 252.547 412.009 252.594 412.246C252.816 413.495 253.924 414.223 255.301 414.223C255.555 414.223 255.84 414.223 256.141 414.16L261.365 413.226L261.682 414.982L254.937 416.184L254.953 416.2Z" fill="#FDEFCC"/>
<path d="M247.591 408.529C248.193 408.402 248.763 408.766 248.889 409.462C249 410.095 248.588 410.617 247.987 410.727C247.353 410.838 246.783 410.458 246.673 409.81C246.546 409.145 246.958 408.624 247.591 408.513V408.529ZM260.51 408.291L250.694 410.031L250.377 408.244L260.194 406.504L260.51 408.291Z" fill="#FDEFCC"/>
<path d="M252.515 404.796C251.502 404.97 250.678 405.144 249.871 405.349L249.586 403.768L251.185 403.372V403.325C250.156 403.008 249.047 402.028 248.763 400.414C248.525 399.054 248.952 396.808 252.325 396.207L258.183 395.163L258.5 396.95L252.847 397.947C251.264 398.231 250.061 399.054 250.346 400.73C250.552 401.901 251.549 402.676 252.594 402.803C252.831 402.85 253.148 402.834 253.449 402.771L259.355 401.727L259.671 403.514L252.515 404.78V404.796Z" fill="#FDEFCC"/>
<path d="M246.356 385.593C247.068 385.514 247.876 385.403 249.063 385.197L254.763 384.185C257.011 383.79 258.468 383.979 259.497 384.786C260.558 385.577 261.08 386.906 261.302 388.14C261.508 389.31 261.46 390.655 261.064 391.54L259.624 391.335C259.909 390.607 260.099 389.531 259.877 388.329C259.545 386.51 258.357 385.34 255.887 385.783L254.795 385.972V386.02C255.808 386.4 256.726 387.333 256.996 388.851C257.423 391.287 255.666 393.391 252.958 393.866C249.633 394.451 247.369 392.616 246.958 390.37C246.657 388.661 247.385 387.586 248.113 387.016V386.969L246.609 387.159L246.34 385.593H246.356ZM250.567 386.748C250.267 386.795 249.997 386.874 249.776 386.985C248.794 387.491 248.098 388.519 248.335 389.816C248.636 391.525 250.298 392.474 252.562 392.078C254.494 391.73 255.919 390.481 255.571 388.551C255.381 387.459 254.51 386.589 253.306 386.4C252.99 386.352 252.626 386.368 252.325 386.431L250.567 386.748Z" fill="#FDEFCC"/>
<path d="M253.924 377.304C253.18 377.431 252.562 377.019 252.436 376.323C252.309 375.612 252.752 375.042 253.496 374.9C254.225 374.773 254.858 375.137 254.985 375.88C255.111 376.592 254.652 377.178 253.924 377.304Z" fill="#FDEFCC"/>
<path d="M245.343 357.706C243.459 358.149 241.195 358.671 239.485 358.955V359.019C241.179 359.193 242.984 359.461 244.994 359.825L252.056 361.059L252.293 362.388L246.182 365.741C244.377 366.738 242.699 367.592 241.147 368.256V368.304C242.857 368.035 245.169 367.734 247.243 367.497L253.164 366.817L253.465 368.493L239.627 369.965L239.231 367.718L245.422 364.223C247.005 363.353 248.414 362.625 249.776 362.024V361.961C248.319 361.866 246.736 361.644 244.915 361.344L237.87 360.094L237.474 357.848L250.979 354.574L251.28 356.298L245.343 357.706Z" fill="#FDEFCC"/>
<path d="M245.723 351.6C248.129 351.125 248.842 349.417 248.525 347.63C248.303 346.348 247.939 345.621 247.543 345.004L248.763 344.482C249.158 345.067 249.681 346.08 249.95 347.63C250.488 350.651 248.826 352.802 245.865 353.324C242.904 353.846 240.26 352.517 239.754 349.67C239.184 346.475 241.844 345.115 243.649 344.798C244.013 344.735 244.298 344.719 244.488 344.719L245.707 351.6H245.723ZM243.522 346.602C242.382 346.791 240.704 347.582 241.068 349.591C241.384 351.394 243.189 351.885 244.456 351.806L243.538 346.602H243.522Z" fill="#FDEFCC"/>
<path d="M241.163 342.489C240.134 342.537 239.295 342.6 238.471 342.711L238.392 341.129L239.991 340.971V340.907C239.01 340.401 238.076 339.515 237.996 337.886C237.933 336.526 238.693 335.466 239.849 334.976V334.928C239.279 334.644 238.82 334.28 238.487 333.884C237.996 333.315 237.727 332.666 237.68 331.717C237.616 330.404 238.376 328.411 241.828 328.221L247.686 327.921L247.781 329.692L242.144 329.977C240.229 330.072 239.12 330.831 239.2 332.287C239.247 333.315 240.055 334.074 240.957 334.343C241.21 334.406 241.543 334.454 241.875 334.438L248.018 334.122L248.113 335.893L242.144 336.209C240.561 336.289 239.453 337.048 239.516 338.424C239.58 339.547 240.514 340.322 241.448 340.575C241.717 340.67 242.034 340.686 242.334 340.67L248.335 340.354L248.43 342.125L241.179 342.505L241.163 342.489Z" fill="#FDEFCC"/>
<path d="M242.762 316.152C246.451 316.184 248.018 318.762 248.003 321.166C247.971 323.855 245.976 325.912 242.825 325.88C239.485 325.848 237.553 323.65 237.585 320.881C237.616 318.018 239.706 316.104 242.762 316.136V316.152ZM242.778 324.045C244.963 324.061 246.625 322.827 246.641 321.071C246.657 319.347 245.042 318.034 242.809 318.003C241.115 317.987 238.978 318.809 238.946 320.945C238.93 323.08 240.894 324.029 242.778 324.045Z" fill="#FDEFCC"/>
<path d="M241.1 313.716C239.928 313.669 238.915 313.637 237.996 313.653L238.075 312.071L240.039 312.103V312.024C238.725 311.502 237.933 310.379 237.996 309.177C237.996 308.971 238.028 308.829 238.075 308.67L239.785 308.75C239.738 308.939 239.706 309.113 239.69 309.366C239.627 310.648 240.561 311.581 241.907 311.897C242.144 311.945 242.445 312.008 242.746 312.024L248.05 312.261L247.971 314.048L241.131 313.732L241.1 313.716Z" fill="#FDEFCC"/>
<path d="M235.701 304.431C236.318 304.447 236.777 304.937 236.73 305.665C236.682 306.298 236.16 306.725 235.542 306.677C234.909 306.63 234.45 306.124 234.497 305.475C234.545 304.795 235.067 304.4 235.701 304.447V304.431ZM248.303 307.326L238.36 306.63L238.487 304.827L248.43 305.523L248.303 307.326Z" fill="#FDEFCC"/>
<path d="M244.108 301.141C246.546 301.347 247.718 299.892 247.892 298.088C248.018 296.791 247.892 296 247.654 295.289L248.968 295.115C249.19 295.779 249.412 296.902 249.253 298.468C248.937 301.521 246.752 303.134 243.759 302.834C240.767 302.533 238.598 300.524 238.883 297.646C239.215 294.419 242.144 293.833 243.965 294.023C244.329 294.055 244.614 294.134 244.804 294.166L244.092 301.125L244.108 301.141ZM243.348 295.732C242.208 295.589 240.371 295.906 240.165 297.93C239.975 299.749 241.574 300.714 242.809 300.983L243.348 295.716V295.732Z" fill="#FDEFCC"/>
<path d="M247.86 292.505C248.288 292.03 248.778 291.144 248.905 290.243C249.095 288.946 248.525 288.234 247.718 288.123C246.863 287.996 246.324 288.439 245.643 289.705C244.757 291.381 243.664 292.077 242.477 291.919C240.894 291.698 239.77 290.227 240.07 288.107C240.213 287.111 240.625 286.272 241.02 285.766L242.255 286.399C241.954 286.747 241.527 287.411 241.4 288.329C241.242 289.388 241.78 290.069 242.509 290.163C243.316 290.274 243.775 289.736 244.44 288.534C245.343 286.921 246.308 286.162 247.781 286.367C249.507 286.62 250.536 288.123 250.203 290.464C250.045 291.54 249.649 292.505 249.143 293.137L247.844 292.489L247.86 292.505Z" fill="#FDEFCC"/>
<path d="M250.552 280.578C249.807 280.436 249.38 279.835 249.507 279.123C249.649 278.411 250.267 278.031 251.011 278.174C251.739 278.316 252.198 278.885 252.056 279.629C251.913 280.341 251.28 280.72 250.552 280.578Z" fill="#FDEFCC"/>
<path d="M255.539 261.723C255.602 262.577 255.65 264.222 255.175 266.025C254.636 268.05 253.671 269.584 252.056 270.549C250.631 271.403 248.652 271.641 246.562 271.071C242.572 269.98 240.387 266.452 241.59 261.96C242.002 260.41 242.667 259.287 243.11 258.781L244.409 259.572C243.902 260.204 243.395 261.027 243.031 262.371C242.16 265.63 243.617 268.303 246.973 269.205C250.377 270.122 252.927 268.604 253.766 265.488C254.066 264.349 254.114 263.542 254.035 263.083L250.045 262.008L249.317 264.728L247.923 264.349L249.111 259.935L255.555 261.66L255.539 261.723Z" fill="#FDEFCC"/>
<path d="M250.425 257.42C249.317 257.041 248.351 256.74 247.448 256.503L247.955 255L249.823 255.57L249.855 255.49C248.731 254.636 248.272 253.339 248.668 252.184C248.731 251.995 248.794 251.852 248.889 251.71L250.504 252.248C250.409 252.406 250.33 252.58 250.251 252.817C249.839 254.019 250.472 255.19 251.692 255.854C251.913 255.965 252.167 256.107 252.467 256.202L257.502 257.895L256.932 259.587L250.425 257.404V257.42Z" fill="#FDEFCC"/>
<path d="M261.064 248.388L259.845 248.056V248.119C260.336 248.926 260.589 250.176 260.067 251.489C259.323 253.355 257.613 253.782 256.283 253.26C254.051 252.374 253.623 249.891 255.064 246.332L254.874 246.253C254.114 245.952 252.657 245.604 251.897 247.503C251.549 248.357 251.47 249.369 251.628 250.176L250.362 250.112C250.172 249.148 250.282 247.914 250.757 246.743C251.882 243.912 254.098 244.007 255.951 244.734L259.402 246.111C260.21 246.427 261.001 246.712 261.682 246.838L261.064 248.373V248.388ZM256.236 246.743C255.46 248.562 254.953 250.777 256.758 251.489C257.85 251.916 258.658 251.41 258.99 250.54C259.465 249.337 259.006 248.262 258.341 247.692C258.199 247.566 258.009 247.455 257.85 247.376L256.251 246.727L256.236 246.743Z" fill="#FDEFCC"/>
<path d="M252.056 237.142L254.636 238.36L255.745 236.019L256.996 236.604L255.887 238.945L260.748 241.238C261.872 241.76 262.648 241.745 263.075 240.843C263.281 240.416 263.376 240.068 263.408 239.846L264.674 240.353C264.658 240.732 264.516 241.27 264.215 241.903C263.851 242.662 263.329 243.168 262.695 243.342C261.999 243.579 261.112 243.374 260.051 242.868L255.143 240.542L254.478 241.934L253.227 241.349L253.892 239.957L251.739 238.929L252.072 237.126L252.056 237.142Z" fill="#FDEFCC"/>
<path d="M261.935 235.639C264.089 236.81 265.735 235.94 266.622 234.358C267.255 233.235 267.445 232.444 267.524 231.701L268.807 232.064C268.743 232.76 268.49 233.868 267.714 235.244C266.21 237.917 263.55 238.518 260.938 237.047C258.325 235.576 257.122 232.871 258.547 230.356C260.146 227.525 263.059 228.173 264.659 229.075C264.975 229.249 265.213 229.439 265.355 229.549L261.919 235.639H261.935ZM263.408 230.388C262.41 229.802 260.605 229.359 259.608 231.131C258.705 232.729 259.782 234.247 260.811 234.991L263.408 230.388Z" fill="#FDEFCC"/>
<path d="M270.675 229.976L263.534 225.215L262.759 226.385L261.603 225.626L262.379 224.456L261.983 224.187C260.811 223.412 259.925 222.447 259.735 221.292C259.56 220.359 259.845 219.457 260.305 218.761C260.653 218.223 261.08 217.844 261.397 217.638L262.426 218.619C262.173 218.777 261.888 219.03 261.603 219.457C260.748 220.739 261.666 221.814 262.933 222.668L263.376 222.969L264.706 220.96L265.846 221.719L264.516 223.728L271.657 228.489L270.659 229.976H270.675Z" fill="#FDEFCC"/>
<path d="M276.818 217.211C277.625 217.86 278.338 218.398 278.987 218.841L277.99 220.09L276.66 219.157L276.628 219.189C276.96 220.059 277.119 221.53 276.011 222.922C275.029 224.14 273.192 225.057 270.453 222.874L265.909 219.236L267.049 217.828L271.356 221.277C272.828 222.463 274.19 222.811 275.219 221.53C275.979 220.581 275.852 219.394 275.425 218.635C275.282 218.382 275.061 218.129 274.807 217.923L270.042 214.095L271.182 212.688L276.834 217.211H276.818Z" fill="#FDEFCC"/>
<path d="M270.247 206.882L271.498 205.569L282.059 215.661L280.808 216.974L270.247 206.882Z" fill="#FDEFCC"/>
<path d="M286.191 210.283C285.7 209.698 285.748 208.97 286.286 208.496C286.84 208.037 287.553 208.116 288.043 208.701C288.518 209.271 288.518 209.998 287.948 210.489C287.394 210.947 286.666 210.853 286.191 210.283Z" fill="#FDEFCC"/>
<path d="M302.214 199.685C301.675 200.35 300.567 201.583 298.968 202.548C297.179 203.64 295.421 204.083 293.585 203.687C291.97 203.323 290.371 202.137 289.247 200.286C287.109 196.743 287.948 192.694 291.922 190.274C293.3 189.435 294.551 189.087 295.2 189.024L295.595 190.495C294.788 190.606 293.87 190.859 292.666 191.586C289.785 193.342 288.993 196.284 290.814 199.242C292.651 202.248 295.548 202.912 298.303 201.235C299.3 200.618 299.902 200.065 300.155 199.669L298.002 196.142L295.595 197.613L294.851 196.379L298.746 194.007L302.214 199.685Z" fill="#FDEFCC"/>
<path d="M310.937 191.096C312.378 194.481 310.652 196.949 308.436 197.898C305.95 198.942 303.274 197.945 302.039 195.051C300.741 191.982 301.992 189.34 304.525 188.265C307.153 187.157 309.75 188.312 310.937 191.112V191.096ZM303.718 194.275C304.573 196.284 306.362 197.313 307.992 196.617C309.576 195.936 310.146 193.943 309.275 191.887C308.61 190.337 307.011 188.692 305.032 189.53C303.053 190.368 302.974 192.536 303.718 194.275Z" fill="#FDEFCC"/>
<path d="M322.02 187.869C323.018 191.412 320.991 193.643 318.679 194.307C316.083 195.035 313.55 193.706 312.695 190.669C311.792 187.458 313.36 184.99 316.02 184.247C318.774 183.472 321.197 184.943 322.02 187.869ZM314.452 190.115C315.038 192.219 316.7 193.453 318.395 192.978C320.057 192.504 320.864 190.59 320.263 188.439C319.804 186.809 318.41 184.99 316.352 185.56C314.294 186.145 313.93 188.296 314.452 190.115Z" fill="#FDEFCC"/>
<path d="M331.425 176.607L333.341 188.486C333.483 189.356 333.657 190.353 333.831 191.017L332.232 191.27L331.884 189.578H331.836C331.456 190.764 330.396 191.792 328.797 192.045C326.422 192.425 324.268 190.716 323.793 187.727C323.255 184.468 324.949 182.127 327.356 181.748C328.86 181.51 329.984 182.048 330.57 182.776H330.617L329.667 176.907L331.456 176.623L331.425 176.607ZM331.013 185.481C330.981 185.259 330.902 184.959 330.807 184.737C330.364 183.646 329.24 182.871 327.894 183.076C326.042 183.377 325.203 185.18 325.551 187.347C325.868 189.34 327.102 190.827 329.034 190.511C330.237 190.321 331.203 189.356 331.314 187.964C331.33 187.711 331.314 187.458 331.266 187.173L330.997 185.465L331.013 185.481Z" fill="#FDEFCC"/>
<path d="M340.449 176.717C341.542 176.543 342.84 176.401 344.249 176.369C346.83 176.338 348.667 176.907 349.886 178.014C351.136 179.122 351.881 180.719 351.912 182.965C351.944 185.227 351.263 187.094 349.996 188.375C348.714 189.688 346.592 190.416 343.885 190.463C342.603 190.479 341.542 190.432 340.624 190.337L340.434 176.702L340.449 176.717ZM342.413 188.945C342.872 189.024 343.521 189.04 344.233 189.024C348.065 188.976 350.107 186.809 350.06 183.06C350.028 179.786 348.16 177.746 344.36 177.793C343.442 177.793 342.729 177.904 342.27 178.014L342.428 188.96L342.413 188.945Z" fill="#FDEFCC"/>
<path d="M355.38 185.845C355.253 188.296 356.741 189.404 358.546 189.53C359.844 189.625 360.636 189.451 361.333 189.214L361.554 190.527C360.889 190.764 359.781 191.017 358.198 190.906C355.142 190.685 353.448 188.549 353.67 185.544C353.891 182.554 355.823 180.308 358.72 180.53C361.966 180.767 362.615 183.677 362.488 185.497C362.457 185.86 362.393 186.145 362.362 186.335L355.38 185.829V185.845ZM360.778 184.927C360.873 183.772 360.509 181.953 358.483 181.811C356.662 181.684 355.728 183.298 355.506 184.547L360.778 184.927Z" fill="#FDEFCC"/>
<path d="M365.734 186.746C365.449 189.182 366.858 190.384 368.663 190.621C369.946 190.795 370.753 190.669 371.466 190.479L371.592 191.808C370.927 192.013 369.803 192.187 368.22 191.982C365.18 191.571 363.644 189.324 364.04 186.351C364.436 183.377 366.51 181.273 369.391 181.653C372.605 182.08 373.08 185.038 372.843 186.841C372.795 187.205 372.716 187.489 372.669 187.663L365.734 186.73V186.746ZM371.165 186.177C371.339 185.038 371.086 183.203 369.075 182.934C367.254 182.697 366.241 184.247 365.924 185.481L371.165 186.192V186.177Z" fill="#FDEFCC"/>
<path d="M385.367 179.96L383.055 191.76C382.881 192.63 382.707 193.627 382.643 194.291L381.044 193.975L381.298 192.267H381.25C380.49 193.247 379.144 193.833 377.545 193.532C375.186 193.073 373.761 190.716 374.331 187.759C374.949 184.5 377.355 182.902 379.73 183.361C381.218 183.646 382.105 184.547 382.39 185.433H382.438L383.578 179.612L385.351 179.96H385.367ZM381.931 188.154C381.978 187.933 382.01 187.632 381.994 187.395C381.947 186.208 381.171 185.101 379.825 184.832C377.989 184.468 376.579 185.876 376.168 188.027C375.788 190.005 376.437 191.824 378.353 192.203C379.54 192.441 380.791 191.855 381.377 190.59C381.488 190.353 381.551 190.115 381.614 189.831L381.947 188.138L381.931 188.154Z" fill="#FDEFCC"/>
<path d="M389.404 194.829C389.594 194.085 390.227 193.706 390.924 193.88C391.62 194.054 391.969 194.702 391.779 195.43C391.589 196.142 391.003 196.569 390.259 196.379C389.562 196.205 389.214 195.541 389.404 194.829Z" fill="#FDEFCC"/>
<path d="M403.606 185.417L401.896 190.954L408.308 192.931L410.018 187.395L411.744 187.932L407.643 201.172L405.917 200.634L407.833 194.433L401.421 192.456L399.489 198.673L397.779 198.151L401.88 184.911L403.59 185.433L403.606 185.417Z" fill="#FDEFCC"/>
<path d="M415.591 203.956L415.876 202.722H415.813C415.021 203.26 413.786 203.56 412.44 203.086C410.541 202.422 410.034 200.729 410.509 199.385C411.316 197.107 413.77 196.585 417.396 197.882L417.459 197.692C417.729 196.917 418.013 195.446 416.082 194.766C415.211 194.465 414.198 194.402 413.39 194.608V193.342C414.356 193.105 415.591 193.184 416.779 193.595C419.66 194.608 419.66 196.806 418.995 198.689L417.76 202.2C417.475 203.023 417.238 203.829 417.127 204.51L415.575 203.956H415.591ZM417.032 199.068C415.179 198.372 412.947 197.961 412.298 199.78C411.902 200.887 412.456 201.662 413.343 201.979C414.562 202.406 415.623 201.9 416.177 201.204C416.304 201.045 416.399 200.871 416.462 200.697L417.032 199.068Z" fill="#FDEFCC"/>
<path d="M422.067 199.163C422.526 197.977 422.858 196.996 423.175 196.11L424.695 196.696L424.157 198.309H424.188C425.312 197.455 426.674 197.218 428.194 197.803C430.442 198.673 431.392 201.235 430.284 204.051C428.986 207.389 426.31 208.243 424.125 207.389C422.89 206.914 422.035 205.965 421.829 204.826H421.798L419.834 209.856L418.172 209.208L422.082 199.163H422.067ZM422.763 202.295C422.668 202.548 422.621 202.786 422.573 203.023C422.431 204.304 423.127 205.506 424.331 205.981C426.12 206.677 427.719 205.617 428.542 203.497C429.271 201.631 428.906 199.669 427.117 198.973C425.961 198.53 424.568 198.926 423.745 200.065C423.602 200.255 423.444 200.476 423.365 200.713L422.747 202.311L422.763 202.295Z" fill="#FDEFCC"/>
<path d="M433.023 203.481C433.514 202.311 433.878 201.346 434.21 200.46L435.714 201.093L435.129 202.69H435.16C436.316 201.884 437.678 201.678 439.182 202.311C441.398 203.244 442.269 205.838 441.082 208.606C439.688 211.896 436.981 212.671 434.828 211.754C433.609 211.232 432.785 210.267 432.611 209.112H432.58L430.458 214.079L428.811 213.383L433.023 203.465V203.481ZM433.64 206.629C433.53 206.882 433.482 207.119 433.419 207.341C433.229 208.622 433.894 209.84 435.097 210.346C436.854 211.09 438.485 210.093 439.388 207.989C440.163 206.154 439.863 204.177 438.105 203.434C436.965 202.959 435.556 203.307 434.701 204.43C434.559 204.62 434.4 204.842 434.305 205.063L433.64 206.629Z" fill="#FDEFCC"/>
<path d="M445.689 205.411L445.23 211.659C445.166 212.355 445.072 213.162 444.961 213.779H444.992C445.404 213.336 445.911 212.719 446.433 212.165L450.66 207.673L452.402 208.464L446.987 213.795C444.391 216.357 442.855 217.591 441.287 218.05C440.163 218.398 439.229 218.303 438.786 218.192L439.008 216.626C439.483 216.689 440.148 216.674 440.813 216.484C441.43 216.326 442.269 215.946 443.029 215.282C443.187 215.155 443.298 215.044 443.346 214.949C443.393 214.854 443.409 214.712 443.425 214.475L443.884 204.604L445.689 205.427V205.411Z" fill="#FDEFCC"/>
<path d="M453.716 218.936C454.049 218.255 454.745 217.986 455.394 218.303C456.044 218.619 456.249 219.315 455.917 219.995C455.6 220.66 454.919 220.96 454.239 220.628C453.589 220.312 453.384 219.6 453.716 218.936Z" fill="#FDEFCC"/>
<path d="M463.279 224.867L465.955 219.631L465.686 210.536L467.506 211.469V215.772C467.506 216.942 467.491 217.891 467.427 218.951H467.459C468.219 218.334 469.058 217.749 470.008 217.053L473.523 214.554L475.344 215.487L467.57 220.454L464.878 225.705L463.263 224.883L463.279 224.867Z" fill="#FDEFCC"/>
<path d="M479.286 227.556C477.544 230.799 474.536 231.02 472.414 229.881C470.04 228.616 469.137 225.895 470.61 223.111C472.177 220.169 475.027 219.473 477.465 220.77C479.982 222.115 480.727 224.851 479.286 227.54V227.556ZM472.272 223.934C471.243 225.864 471.575 227.904 473.143 228.727C474.663 229.533 476.578 228.727 477.639 226.733C478.431 225.247 478.7 222.953 476.8 221.956C474.9 220.96 473.159 222.257 472.272 223.934Z" fill="#FDEFCC"/>
<path d="M487.424 234.753C486.917 235.655 486.506 236.446 486.173 237.158L484.764 236.382L485.461 234.911H485.429C484.621 235.354 483.196 235.766 481.645 234.911C480.283 234.152 479.064 232.491 480.774 229.438L483.608 224.361L485.191 225.247L482.5 230.055C481.582 231.7 481.455 233.108 482.896 233.899C483.956 234.484 485.096 234.168 485.777 233.63C485.999 233.44 486.205 233.187 486.379 232.903L489.355 227.572L490.939 228.458L487.408 234.785L487.424 234.753Z" fill="#FDEFCC"/>
<path d="M497.288 227.271C496.021 228.537 494.153 230.008 493.187 230.546L492.11 230.103C493.108 229.28 494.628 227.683 495.562 226.512L497.288 227.287V227.271Z" fill="#FDEFCC"/>
<path d="M494.691 234.168C495.277 233.156 495.752 232.27 496.163 231.432L497.541 232.223L496.623 233.947L496.686 233.994C497.747 233.061 499.108 232.871 500.169 233.472C500.343 233.567 500.47 233.662 500.581 233.789L499.726 235.275C499.583 235.149 499.441 235.038 499.219 234.912C498.111 234.279 496.844 234.674 495.958 235.718C495.799 235.908 495.625 236.145 495.467 236.414L492.823 241.017L491.271 240.131L494.675 234.184L494.691 234.168Z" fill="#FDEFCC"/>
<path d="M500.042 239.862C498.871 242.014 499.742 243.659 501.309 244.544C502.433 245.177 503.225 245.367 503.969 245.462L503.605 246.743C502.908 246.68 501.8 246.427 500.422 245.652C497.763 244.133 497.161 241.492 498.633 238.882C500.106 236.272 502.829 235.085 505.346 236.509C508.18 238.107 507.515 241.017 506.613 242.615C506.423 242.931 506.249 243.168 506.138 243.311L500.058 239.862H500.042ZM505.299 241.349C505.885 240.353 506.344 238.565 504.571 237.553C502.972 236.651 501.452 237.727 500.707 238.739L505.315 241.349H505.299Z" fill="#FDEFCC"/>
<path d="M513.69 247.914L510.349 251.062L508.719 250.176L519.469 240.242L521.369 241.27L518.915 255.712L517.237 254.795L518.012 250.255L513.69 247.914ZM518.361 248.847L519.073 244.687C519.232 243.738 519.437 242.931 519.643 242.125H519.612C519.042 242.726 518.44 243.358 517.807 243.975L514.703 246.854L518.377 248.847H518.361Z" fill="#FDEFCC"/>
<path d="M523.791 250.081C524.251 249.164 524.615 248.404 524.931 247.645L526.34 248.357L525.691 249.828L525.739 249.86C526.657 249.258 527.892 248.895 529.365 249.622C530.584 250.239 531.122 251.426 530.979 252.675H531.011C531.534 252.343 532.088 252.121 532.594 252.042C533.339 251.9 534.035 251.979 534.874 252.406C536.046 252.991 537.407 254.652 535.856 257.737L533.212 262.973L531.629 262.182L534.162 257.152C535.017 255.443 534.922 254.099 533.608 253.45C532.689 252.991 531.629 253.308 530.964 253.956C530.774 254.146 530.568 254.399 530.425 254.7L527.655 260.189L526.071 259.398L528.747 254.067C529.459 252.659 529.349 251.315 528.114 250.698C527.1 250.192 525.96 250.635 525.295 251.299C525.09 251.489 524.916 251.742 524.773 252.027L522.066 257.389L520.482 256.598L523.744 250.113L523.791 250.081Z" fill="#FDEFCC"/>
<path d="M540.811 266.468L541.207 265.266L541.144 265.234C540.305 265.709 539.038 265.883 537.756 265.297C535.935 264.443 535.603 262.719 536.204 261.422C537.218 259.239 539.719 258.954 543.202 260.6L543.281 260.41C543.63 259.666 544.057 258.227 542.205 257.373C541.366 256.977 540.368 256.835 539.545 256.946L539.672 255.696C540.637 255.554 541.872 255.743 543.012 256.281C545.767 257.563 545.561 259.761 544.722 261.564L543.155 264.934C542.791 265.709 542.474 266.5 542.3 267.164L540.811 266.468ZM542.711 261.754C540.938 260.884 538.753 260.252 537.946 262.007C537.455 263.067 537.93 263.905 538.769 264.301C539.941 264.855 541.033 264.443 541.651 263.811C541.777 263.668 541.904 263.494 541.983 263.336L542.711 261.77V261.754Z" fill="#FDEFCC"/>
<path d="M544.152 266.864L550.644 263.305C551.261 262.988 551.815 262.72 552.448 262.419V262.387L547.525 260.22L548.11 258.892L555.061 261.944L554.586 262.973L548.189 266.468C547.588 266.816 547.018 267.101 546.385 267.386V267.417L551.704 269.758L551.119 271.071L543.709 267.813L544.136 266.848L544.152 266.864Z" fill="#FDEFCC"/>
<path d="M552.781 271.751L556.644 262.577L558.322 263.273L554.459 272.447L552.781 271.751ZM559.573 260.774C559.352 261.343 558.75 261.628 558.085 261.359C557.499 261.106 557.262 260.489 557.515 259.919C557.768 259.334 558.386 259.065 559.003 259.318C559.637 259.587 559.842 260.204 559.589 260.789L559.573 260.774Z" fill="#FDEFCC"/>
<path d="M559.858 266.864C560.238 265.915 560.523 265.124 560.776 264.333L562.265 264.918L561.758 266.484H561.79C562.597 265.804 564.006 265.361 565.542 265.962C566.825 266.468 568.519 268.019 567.252 271.198L565.067 276.718L563.389 276.054L565.495 270.723C566.08 269.237 566.017 267.765 564.434 267.149C563.326 266.706 562.154 267.149 561.489 267.971C561.331 268.145 561.172 268.43 561.061 268.715L558.861 274.282L557.182 273.618L559.858 266.864Z" fill="#FDEFCC"/>
<path d="M579.206 271.261C578.921 271.926 578.62 272.669 578.208 273.808L576.261 279.249C575.485 281.4 574.583 282.555 573.379 283.046C572.16 283.568 570.751 283.362 569.564 282.951C568.439 282.555 567.3 281.828 566.73 281.052L567.616 279.914C568.091 280.531 568.946 281.226 570.102 281.638C571.843 282.27 573.458 281.812 574.298 279.455L574.678 278.411H574.646C573.807 279.075 572.556 279.407 571.099 278.901C568.772 278.063 567.822 275.5 568.756 272.906C569.896 269.727 572.619 268.667 574.773 269.442C576.403 270.027 576.989 271.198 577.116 272.115H577.147L577.733 270.739L579.221 271.277L579.206 271.261ZM576.102 274.33C576.213 274.045 576.277 273.776 576.277 273.523C576.324 272.432 575.786 271.309 574.535 270.866C572.904 270.281 571.258 271.245 570.466 273.412C569.801 275.247 570.181 277.114 572.033 277.778C573.078 278.158 574.266 277.841 575.026 276.892C575.232 276.639 575.39 276.323 575.485 276.038L576.087 274.362L576.102 274.33Z" fill="#FDEFCC"/>
<path d="M582.974 281.859C583.211 281.132 583.86 280.784 584.541 281.005C585.222 281.226 585.539 281.875 585.301 282.603C585.08 283.314 584.462 283.694 583.734 283.457C583.053 283.235 582.752 282.555 582.974 281.859Z" fill="#FDEFCC"/>
<path d="M601.181 287.775C600.453 287.917 599.107 287.886 597.477 287.443C593.708 286.415 591.508 283.267 592.711 278.869C593.851 274.678 597.461 272.621 601.609 273.744C603.271 274.203 604.237 274.836 604.617 275.2L603.81 276.497C603.24 276.006 602.369 275.516 601.261 275.2C598.126 274.346 595.497 275.785 594.532 279.297C593.645 282.571 594.959 285.181 598.205 286.067C599.25 286.351 600.39 286.43 601.181 286.272V287.743V287.775Z" fill="#FDEFCC"/>
<path d="M606.77 274.567L608.544 274.962L607.166 281.021H607.214C607.609 280.594 608.148 280.246 608.765 280.072C609.351 279.882 610.016 279.834 610.681 279.977C611.979 280.277 613.895 281.543 613.135 284.896L611.821 290.669L610.048 290.274L611.314 284.706C611.663 283.14 611.393 281.685 609.731 281.305C608.591 281.052 607.499 281.637 606.96 282.539C606.802 282.761 606.723 283.014 606.644 283.362L605.314 289.214L603.54 288.819L606.786 274.583L606.77 274.567Z" fill="#FDEFCC"/>
<path d="M616.872 286.953C616.476 289.373 617.821 290.638 619.611 290.97C620.893 291.208 621.7 291.129 622.413 290.97L622.476 292.299C621.795 292.473 620.671 292.6 619.104 292.299C616.08 291.745 614.655 289.436 615.193 286.478C615.732 283.52 617.901 281.511 620.766 282.049C623.965 282.634 624.297 285.608 623.965 287.411C623.901 287.775 623.806 288.044 623.759 288.234L616.872 286.968V286.953ZM622.334 286.636C622.555 285.513 622.397 283.662 620.402 283.283C618.597 282.951 617.505 284.469 617.141 285.671L622.35 286.62L622.334 286.636Z" fill="#FDEFCC"/>
<path d="M627.21 288.74C626.909 291.176 628.318 292.378 630.123 292.631C631.406 292.805 632.213 292.694 632.926 292.504L633.052 293.833C632.387 294.023 631.248 294.213 629.68 293.991C626.64 293.564 625.104 291.318 625.516 288.344C625.928 285.37 628.018 283.267 630.883 283.678C634.097 284.121 634.572 287.079 634.319 288.898C634.272 289.262 634.192 289.546 634.145 289.72L627.21 288.755V288.74ZM632.657 288.186C632.831 287.047 632.593 285.212 630.583 284.927C628.762 284.674 627.733 286.24 627.416 287.458L632.657 288.186Z" fill="#FDEFCC"/>
<path d="M636.821 287.775C636.947 286.605 637.026 285.608 637.058 284.675L638.641 284.833L638.499 286.779H638.578C639.164 285.497 640.336 284.77 641.539 284.896C641.745 284.912 641.887 284.96 642.045 285.007L641.871 286.699C641.697 286.636 641.507 286.605 641.27 286.573C640.003 286.446 639.006 287.316 638.61 288.645C638.546 288.882 638.467 289.167 638.436 289.483L637.897 294.767L636.108 294.577L636.805 287.759L636.821 287.775Z" fill="#FDEFCC"/>
<path d="M643.138 295.257L643.882 285.323L645.687 285.466L644.943 295.399L643.138 295.257ZM646.114 282.682C646.083 283.299 645.592 283.757 644.879 283.71C644.246 283.662 643.835 283.14 643.882 282.523C643.93 281.891 644.436 281.432 645.101 281.479C645.782 281.527 646.178 282.049 646.13 282.697L646.114 282.682Z" fill="#FDEFCC"/>
<path d="M648.568 288.392C648.6 287.363 648.616 286.525 648.584 285.703L650.183 285.766L650.231 287.411H650.278C650.801 286.493 651.988 285.608 653.635 285.655C655.012 285.703 657.118 286.604 656.991 290.021L656.77 295.953L654.965 295.889L655.171 290.163C655.234 288.566 654.68 287.205 652.97 287.142C651.783 287.095 650.817 287.901 650.484 288.898C650.389 289.119 650.342 289.42 650.326 289.736L650.104 295.715L648.299 295.652L648.568 288.407V288.392Z" fill="#FDEFCC"/>
<path d="M668.597 285.845C668.565 286.573 668.549 287.364 668.565 288.582L668.692 294.355C668.739 296.633 668.312 298.041 667.362 298.927C666.412 299.844 665.019 300.176 663.768 300.192C662.58 300.224 661.25 299.955 660.443 299.433L660.87 298.041C661.535 298.436 662.58 298.784 663.815 298.768C665.668 298.737 667.014 297.74 666.95 295.225L666.919 294.118H666.871C666.333 295.051 665.288 295.826 663.736 295.858C661.266 295.905 659.446 293.849 659.398 291.097C659.335 287.727 661.488 285.766 663.768 285.719C665.494 285.687 666.459 286.573 666.919 287.379H666.966L667.014 285.877L668.597 285.845ZM666.808 289.8C666.808 289.499 666.776 289.23 666.681 288.977C666.333 287.933 665.43 287.095 664.116 287.126C662.39 287.158 661.187 288.645 661.235 290.954C661.282 292.916 662.295 294.513 664.259 294.466C665.367 294.45 666.364 293.722 666.729 292.568C666.824 292.251 666.855 291.903 666.855 291.603L666.824 289.815L666.808 289.8Z" fill="#FDEFCC"/>
<path d="M676.101 294.228C676.038 293.469 676.497 292.9 677.226 292.837C677.938 292.773 678.476 293.264 678.54 294.023C678.603 294.766 678.176 295.352 677.416 295.415C676.703 295.478 676.165 294.972 676.101 294.228Z" fill="#FDEFCC"/>
<path d="M696.541 286.399C696.114 284.517 695.607 282.239 695.338 280.531H695.275C695.085 282.223 694.8 284.026 694.436 286.019L693.153 293.058L691.807 293.28L688.483 287.142C687.501 285.323 686.662 283.662 685.997 282.097H685.949C686.203 283.805 686.488 286.114 686.709 288.186L687.343 294.102L685.664 294.387L684.287 280.562L686.535 280.183L690.002 286.399C690.857 287.981 691.586 289.404 692.172 290.765H692.235C692.346 289.309 692.583 287.728 692.9 285.909L694.214 278.885L696.462 278.506L699.645 292.03L697.919 292.331L696.557 286.383L696.541 286.399Z" fill="#FDEFCC"/>
<path d="M702.874 286.446C703.508 288.803 705.281 289.404 707.038 288.961C708.289 288.645 709.002 288.233 709.588 287.79L710.205 288.977C709.651 289.42 708.685 290.005 707.149 290.385C704.173 291.128 701.909 289.625 701.165 286.715C700.42 283.804 701.56 281.084 704.379 280.372C707.529 279.581 709.065 282.128 709.524 283.915C709.619 284.279 709.651 284.564 709.667 284.753L702.874 286.462V286.446ZM707.703 283.899C707.434 282.776 706.516 281.163 704.553 281.669C702.779 282.112 702.415 283.947 702.574 285.196L707.703 283.899Z" fill="#FDEFCC"/>
<path d="M711.377 281.637C711.044 280.657 710.759 279.866 710.427 279.122L711.931 278.616L712.532 280.103H712.596C712.817 279.012 713.403 277.873 714.971 277.351C716.253 276.908 717.488 277.351 718.28 278.332H718.311C718.422 277.699 718.66 277.161 718.945 276.734C719.356 276.117 719.91 275.674 720.797 275.358C722.048 274.931 724.169 275.121 725.294 278.395L727.193 283.931L725.515 284.501L723.694 279.17C723.077 277.367 722.048 276.497 720.655 276.971C719.673 277.303 719.166 278.284 719.166 279.217C719.166 279.47 719.214 279.803 719.325 280.119L721.304 285.94L719.625 286.509L717.694 280.862C717.187 279.36 716.142 278.506 714.844 278.948C713.767 279.312 713.292 280.435 713.308 281.384C713.308 281.669 713.356 281.97 713.451 282.27L715.382 287.949L713.704 288.518L711.361 281.653L711.377 281.637Z" fill="#FDEFCC"/>
<path d="M736.788 274.203C738.26 277.572 736.582 280.072 734.366 281.036C731.896 282.112 729.204 281.147 727.937 278.268C726.608 275.216 727.811 272.558 730.344 271.451C732.956 270.296 735.569 271.435 736.788 274.219V274.203ZM729.584 277.477C730.455 279.471 732.276 280.483 733.891 279.771C735.474 279.075 736.012 277.066 735.11 275.026C734.429 273.476 732.798 271.862 730.835 272.716C728.872 273.57 728.824 275.753 729.584 277.477Z" fill="#FDEFCC"/>
<path d="M738.229 271.451C737.706 270.407 737.231 269.505 736.756 268.714L738.165 268.003L739.1 269.727L739.179 269.695C738.989 268.303 739.574 267.054 740.667 266.516C740.857 266.421 740.984 266.373 741.158 266.342L741.918 267.86C741.728 267.908 741.554 267.971 741.332 268.082C740.192 268.651 739.812 269.932 740.208 271.245C740.287 271.483 740.382 271.767 740.509 272.036L742.899 276.782L741.3 277.588L738.213 271.467L738.229 271.451Z" fill="#FDEFCC"/>
<path d="M743.264 262.166C743.58 262.704 743.422 263.352 742.789 263.7C742.234 264.001 741.601 263.795 741.3 263.241C740.999 262.688 741.174 262.023 741.744 261.707C742.345 261.375 742.963 261.612 743.264 262.166ZM747.633 274.314L742.852 265.582L744.435 264.712L749.217 273.444L747.633 274.314Z" fill="#FDEFCC"/>
<path d="M750.641 267.307C751.94 269.379 753.808 269.426 755.36 268.493C756.468 267.829 757.022 267.228 757.45 266.626L758.384 267.576C757.988 268.145 757.228 268.999 755.866 269.822C753.238 271.403 750.626 270.628 749.074 268.066C747.522 265.503 747.808 262.561 750.293 261.059C753.08 259.382 755.296 261.375 756.246 262.941C756.436 263.257 756.547 263.526 756.626 263.7L750.641 267.322V267.307ZM754.505 263.447C753.919 262.451 752.573 261.169 750.832 262.229C749.264 263.178 749.454 265.029 749.977 266.184L754.505 263.447Z" fill="#FDEFCC"/>
<path d="M760.078 264.744C760.711 264.744 761.709 264.507 762.453 264C763.545 263.257 763.688 262.371 763.228 261.691C762.738 260.979 762.057 260.868 760.664 261.216C758.827 261.691 757.576 261.343 756.895 260.362C755.993 259.034 756.325 257.215 758.099 256.012C758.938 255.443 759.824 255.19 760.474 255.158L760.838 256.503C760.379 256.503 759.587 256.645 758.827 257.167C757.94 257.768 757.798 258.607 758.21 259.223C758.669 259.904 759.381 259.872 760.727 259.556C762.532 259.128 763.751 259.35 764.574 260.568C765.556 262.007 765.128 263.795 763.165 265.123C762.263 265.74 761.281 266.073 760.474 266.136L760.078 264.744Z" fill="#FDEFCC"/>
<path d="M770.923 258.037C770.464 257.436 770.543 256.693 771.113 256.266C771.683 255.823 772.396 255.949 772.871 256.566C773.314 257.151 773.282 257.879 772.681 258.338C772.111 258.781 771.382 258.638 770.923 258.037Z" fill="#FDEFCC"/>
<path d="M786.756 245.478C786.344 246.221 785.458 247.629 784.048 248.863C782.465 250.255 780.819 250.982 778.935 250.903C777.272 250.824 775.499 249.923 774.074 248.293C771.366 245.177 771.509 241.017 775.008 237.964C776.211 236.905 777.399 236.335 778.032 236.161L778.665 237.537C777.89 237.775 777.019 238.186 775.958 239.103C773.425 241.334 773.14 244.355 775.435 246.965C777.763 249.606 780.724 249.78 783.162 247.645C784.048 246.87 784.539 246.221 784.713 245.794L781.99 242.678L779.869 244.529L778.919 243.437L782.354 240.432L786.756 245.446V245.478Z" fill="#FDEFCC"/>
<path d="M784.618 238.85C783.811 238.012 783.083 237.3 782.402 236.683L783.542 235.576L784.951 236.936L785.014 236.873C784.413 235.592 784.603 234.231 785.473 233.393C785.616 233.251 785.743 233.172 785.885 233.077L787.072 234.295C786.914 234.39 786.756 234.5 786.582 234.674C785.663 235.56 785.679 236.889 786.455 238.028C786.598 238.233 786.772 238.471 786.977 238.692L790.666 242.504L789.384 243.754L784.618 238.834V238.85Z" fill="#FDEFCC"/>
<path d="M798.171 234.943L797.174 234.184L797.126 234.231C797.3 235.164 797.079 236.43 796.097 237.458C794.704 238.913 792.962 238.676 791.933 237.679C790.191 236.019 790.73 233.567 793.406 230.799L793.263 230.656C792.661 230.087 791.442 229.233 790.033 230.704C789.4 231.368 788.925 232.27 788.782 233.092L787.642 232.57C787.832 231.605 788.402 230.498 789.273 229.596C791.379 227.398 793.39 228.299 794.83 229.676L797.522 232.254C798.139 232.855 798.789 233.409 799.359 233.788L798.219 234.975L798.171 234.943ZM794.324 231.621C792.931 233.013 791.632 234.88 793.026 236.208C793.881 237.015 794.815 236.841 795.448 236.177C796.35 235.243 796.319 234.073 795.907 233.282C795.812 233.108 795.701 232.934 795.559 232.807L794.308 231.621H794.324Z" fill="#FDEFCC"/>
<path d="M793.216 221.355L795.353 223.254L797.079 221.324L798.108 222.241L796.382 224.171L800.404 227.73C801.322 228.553 802.082 228.758 802.747 227.999C803.063 227.651 803.253 227.35 803.348 227.129L804.425 227.967C804.298 228.331 804.013 228.806 803.538 229.328C802.984 229.96 802.319 230.292 801.67 230.277C800.926 230.308 800.15 229.85 799.264 229.075L795.195 225.468L794.166 226.623L793.136 225.705L794.166 224.551L792.376 222.969L793.2 221.34L793.216 221.355Z" fill="#FDEFCC"/>
<path d="M803.032 222.51C804.948 224.029 806.721 223.475 807.877 222.083C808.7 221.087 809.016 220.343 809.238 219.632L810.441 220.217C810.251 220.897 809.824 221.941 808.811 223.159C806.863 225.516 804.14 225.658 801.828 223.744C799.517 221.83 798.804 218.967 800.657 216.737C802.731 214.238 805.486 215.376 806.895 216.547C807.18 216.784 807.37 216.99 807.512 217.132L803.063 222.526L803.032 222.51ZM805.422 217.591C804.552 216.848 802.858 216.088 801.559 217.654C800.388 219.062 801.179 220.755 802.066 221.672L805.422 217.591Z" fill="#FDEFCC"/>
<path d="M812.769 217.876L805.977 212.64L805.122 213.747L804.029 212.909L804.884 211.802L804.504 211.517C803.396 210.663 802.573 209.635 802.446 208.48C802.335 207.547 802.683 206.661 803.19 205.997C803.586 205.49 804.029 205.142 804.362 204.953L805.312 205.997C805.058 206.139 804.742 206.36 804.425 206.772C803.491 207.99 804.314 209.129 805.533 210.062L805.961 210.394L807.433 208.48L808.526 209.318L807.053 211.232L813.845 216.468L812.753 217.892L812.769 217.876Z" fill="#FDEFCC"/>
<path d="M819.149 204.684C819.989 205.285 820.733 205.791 821.398 206.202L820.464 207.499L819.086 206.629V206.661C819.434 207.515 819.688 208.97 818.643 210.41C817.724 211.675 815.935 212.703 813.101 210.663L808.367 207.278L809.428 205.807L813.909 209.018C815.445 210.125 816.822 210.394 817.772 209.065C818.484 208.084 818.279 206.898 817.819 206.171C817.661 205.933 817.424 205.696 817.17 205.506L812.199 201.947L813.26 200.476L819.149 204.684Z" fill="#FDEFCC"/>
<path d="M811.059 195.383L812.072 193.88L824.216 202.01L823.203 203.513L811.059 195.383Z" fill="#FDEFCC"/>
<path d="M827.24 195.351C826.591 194.955 826.417 194.228 826.797 193.627C827.177 193.01 827.889 192.883 828.538 193.279C829.171 193.674 829.393 194.37 828.982 195.003C828.602 195.62 827.873 195.746 827.24 195.351Z" fill="#FDEFCC"/>
<path d="M837.721 178.268C837.579 179.106 837.214 180.719 836.312 182.349C835.283 184.184 833.985 185.433 832.18 185.987C830.596 186.461 828.617 186.208 826.717 185.164C823.108 183.14 821.857 179.185 824.121 175.12C824.897 173.712 825.815 172.795 826.369 172.415L827.43 173.506C826.781 173.997 826.1 174.677 825.419 175.895C823.773 178.837 824.533 181.779 827.572 183.472C830.644 185.18 833.494 184.342 835.061 181.526C835.631 180.498 835.885 179.723 835.9 179.264L832.291 177.255L830.913 179.723L829.662 179.027L831.895 175.041L837.721 178.283V178.268Z" fill="#FDEFCC"/>
<path d="M839.225 165.439C842.518 167.084 842.819 170.09 841.727 172.241C840.523 174.645 837.816 175.626 834.998 174.218C832.021 172.731 831.246 169.9 832.48 167.432C833.763 164.87 836.486 164.079 839.209 165.439H839.225ZM835.79 172.542C837.737 173.522 839.779 173.143 840.571 171.561C841.347 170.011 840.476 168.128 838.465 167.116C836.961 166.357 834.665 166.151 833.7 168.065C832.734 169.979 834.095 171.688 835.79 172.542Z" fill="#FDEFCC"/>
<path d="M843.975 155.015C847.331 156.518 847.759 159.507 846.761 161.706C845.653 164.158 843.009 165.249 840.128 163.952C837.088 162.592 836.201 159.792 837.325 157.293C838.497 154.683 841.188 153.781 843.959 155.015H843.975ZM840.824 162.26C842.819 163.146 844.83 162.687 845.558 161.073C846.271 159.492 845.321 157.657 843.262 156.739C841.727 156.043 839.431 155.948 838.544 157.894C837.674 159.84 839.083 161.5 840.824 162.276V162.26Z" fill="#FDEFCC"/>
<path d="M839.162 141.27L850.371 145.651C851.195 145.967 852.145 146.315 852.794 146.505L852.208 148.024L850.561 147.47V147.502C851.385 148.419 851.717 149.859 851.131 151.377C850.261 153.623 847.68 154.604 844.862 153.497C841.774 152.31 840.618 149.653 841.505 147.391C842.059 145.967 843.104 145.287 844.023 145.145V145.113L838.497 142.946L839.162 141.27ZM846.603 146.11C846.397 146.031 846.097 145.936 845.859 145.904C844.687 145.73 843.452 146.315 842.962 147.565C842.281 149.305 843.405 150.934 845.463 151.741C847.347 152.469 849.247 152.168 849.96 150.349C850.403 149.226 850.055 147.897 848.915 147.091C848.709 146.948 848.487 146.837 848.218 146.727L846.603 146.094V146.11Z" fill="#FDEFCC"/>
<path d="M844.228 132.506C844.719 131.51 845.352 130.387 846.16 129.216C847.632 127.113 849.168 125.942 850.783 125.594C852.414 125.23 854.14 125.547 855.992 126.828C857.844 128.125 858.968 129.754 859.285 131.542C859.618 133.345 858.969 135.496 857.433 137.711C856.704 138.755 856.039 139.609 855.438 140.289L844.228 132.506ZM855.327 138.027C855.659 137.695 856.039 137.173 856.451 136.603C858.636 133.456 858.066 130.529 854.979 128.394C852.303 126.511 849.532 126.844 847.379 129.96C846.857 130.719 846.524 131.336 846.334 131.795L855.327 138.027Z" fill="#FDEFCC"/>
<path d="M860.33 125.642C862.262 127.144 864.019 126.559 865.159 125.151C865.967 124.139 866.283 123.396 866.489 122.684L867.692 123.253C867.518 123.933 867.091 124.977 866.093 126.211C864.178 128.6 861.454 128.758 859.111 126.876C856.768 124.993 856.04 122.13 857.86 119.884C859.903 117.353 862.673 118.476 864.098 119.615C864.383 119.852 864.589 120.058 864.716 120.185L860.33 125.626V125.642ZM862.642 120.691C861.755 119.947 860.061 119.22 858.778 120.801C857.639 122.225 858.446 123.902 859.333 124.803L862.642 120.691Z" fill="#FDEFCC"/>
<path d="M866.917 117.685C868.769 119.298 870.558 118.808 871.777 117.464C872.648 116.499 872.996 115.771 873.234 115.075L874.405 115.708C874.2 116.372 873.709 117.4 872.648 118.587C870.59 120.864 867.866 120.88 865.634 118.871C863.402 116.862 862.832 113.968 864.763 111.817C866.932 109.396 869.64 110.678 871.001 111.896C871.271 112.149 871.461 112.37 871.587 112.512L866.901 117.701L866.917 117.685ZM869.513 112.876C868.674 112.085 867.012 111.263 865.65 112.766C864.431 114.126 865.143 115.85 865.982 116.799L869.529 112.876H869.513Z" fill="#FDEFCC"/>
<path d="M872.395 97.6279L880.849 106.201C881.467 106.834 882.195 107.53 882.717 107.973L881.562 109.112L880.295 107.941L880.263 107.973C880.643 109.159 880.374 110.599 879.218 111.753C877.508 113.446 874.754 113.288 872.632 111.136C870.289 108.795 870.32 105.901 872.062 104.192C873.154 103.117 874.389 102.911 875.276 103.164L875.308 103.133L871.128 98.8934L872.426 97.6279H872.395ZM877.223 105.094C877.065 104.936 876.828 104.73 876.622 104.604C875.624 103.971 874.247 103.987 873.281 104.936C871.951 106.249 872.315 108.194 873.851 109.776C875.26 111.215 877.144 111.706 878.538 110.33C879.408 109.476 879.63 108.131 878.918 106.929C878.791 106.707 878.633 106.518 878.427 106.312L877.208 105.078L877.223 105.094Z" fill="#FDEFCC"/>
<path d="M886.945 102.753C886.454 102.183 886.486 101.44 887.04 100.965C887.594 100.491 888.306 100.586 888.813 101.155C889.304 101.709 889.304 102.452 888.718 102.943C888.18 103.417 887.436 103.307 886.945 102.753Z" fill="#FDEFCC"/>
<path d="M887.641 85.6538L891.077 90.3201L896.476 86.3498L893.04 81.6835L894.497 80.6079L902.714 91.7753L901.257 92.851L897.41 87.6152L892.011 91.5855L895.859 96.8213L894.418 97.8811L886.201 86.7136L887.641 85.6538Z" fill="#FDEFCC"/>
<path d="M909.744 87.2833L908.952 86.3026L908.905 86.3343C908.857 87.2833 908.319 88.4539 907.116 89.2131C905.406 90.2887 903.775 89.6402 903.015 88.4222C901.732 86.3817 902.841 84.1356 906.102 82.0951L905.991 81.9211C905.548 81.2251 904.566 80.102 902.841 81.1776C902.065 81.668 901.4 82.4272 901.052 83.1865L900.07 82.3956C900.482 81.5098 901.305 80.5765 902.366 79.8964C904.946 78.2671 906.672 79.6275 907.749 81.32L909.744 84.4678C910.203 85.1954 910.694 85.8914 911.153 86.3975L909.76 87.2833H909.744ZM906.799 83.139C905.105 84.1514 903.395 85.6541 904.424 87.2833C905.057 88.2799 906.007 88.3273 906.799 87.837C907.891 87.141 908.145 86.0179 907.939 85.1479C907.891 84.9581 907.812 84.7683 907.717 84.6101L906.799 83.1549V83.139Z" fill="#FDEFCC"/>
<path d="M910.108 79.2161C909.506 78.0931 908.984 77.2073 908.493 76.4006L909.918 75.6255L910.805 77.0965H910.836C910.915 75.6571 911.612 74.4708 913.037 73.6957C915.159 72.5568 917.723 73.4901 919.148 76.1475C920.842 79.2952 919.766 81.8894 917.692 82.9966C916.536 83.6135 915.238 83.661 914.256 83.0757H914.224L916.789 87.8527L915.206 88.7069L910.092 79.2161H910.108ZM912.942 80.703C913.069 80.9403 913.227 81.1301 913.369 81.3199C914.256 82.269 915.618 82.5063 916.773 81.9052C918.452 81.0036 918.689 79.0896 917.613 77.0807C916.663 75.3249 914.937 74.3126 913.243 75.23C912.15 75.8153 911.565 77.144 911.897 78.5043C911.945 78.7258 912.024 78.9947 912.134 79.2161L912.942 80.7188V80.703Z" fill="#FDEFCC"/>
<path d="M920.7 73.6479C920.178 72.4774 919.734 71.5599 919.307 70.7058L920.795 70.0414L921.555 71.5757H921.587C921.777 70.1521 922.552 69.0132 924.041 68.3647C926.241 67.384 928.727 68.5229 929.946 71.291C931.403 74.5653 930.12 77.0646 927.967 78.0136C926.764 78.5514 925.481 78.4882 924.532 77.8238H924.5L926.685 82.7906L925.054 83.5183L920.684 73.6637L920.7 73.6479ZM923.423 75.3404C923.534 75.5777 923.677 75.7991 923.803 75.9889C924.611 77.0013 925.956 77.3493 927.144 76.8273C928.901 76.0522 929.281 74.1699 928.347 72.0819C927.54 70.2629 925.893 69.124 924.136 69.899C923.012 70.4052 922.315 71.6707 922.537 73.0626C922.568 73.2999 922.616 73.5688 922.727 73.7903L923.423 75.3562V75.3404Z" fill="#FDEFCC"/>
<path d="M931.055 65.7233L935.092 70.5162C935.535 71.054 936.026 71.7183 936.374 72.2245H936.406C936.374 71.5918 936.311 70.8009 936.311 70.0416L936.2 63.8727L938.005 63.2241L937.847 70.8167C937.783 74.4706 937.546 76.4162 936.739 77.8398C936.169 78.868 935.44 79.4691 935.044 79.6905L934.11 78.4093C934.49 78.1246 934.949 77.65 935.298 77.049C935.63 76.5111 935.979 75.6412 936.042 74.6446C936.042 74.439 936.074 74.2808 936.042 74.1859C936.01 74.091 935.915 73.9645 935.773 73.7905L929.202 66.4035L931.055 65.7392V65.7233Z" fill="#FDEFCC"/>
<path d="M946.222 70.1206C946.016 69.393 946.381 68.7286 947.077 68.5546C947.774 68.3648 948.391 68.7603 948.581 69.4879C948.771 70.1997 948.471 70.864 947.726 71.0539C947.03 71.2437 946.412 70.8324 946.222 70.1206Z" fill="#FDEFCC"/>
<path d="M957.194 68.618L956.102 62.8445L950.307 55.8214L952.302 55.4417L954.93 58.8426C955.659 59.7758 956.213 60.5193 956.814 61.3893H956.862C957.083 60.4244 957.368 59.4437 957.701 58.3206L958.952 54.1921L960.947 53.8125L957.859 62.4965L958.952 68.3017L957.178 68.6339L957.194 68.618Z" fill="#FDEFCC"/>
<path d="M971.634 61.4207C972.077 65.0747 969.718 66.9728 967.327 67.2575C964.651 67.5739 962.356 65.8656 961.976 62.7336C961.58 59.4277 963.511 57.229 966.25 56.8968C969.085 56.5646 971.254 58.3837 971.618 61.4207H971.634ZM963.796 62.4647C964.05 64.6318 965.49 66.1186 967.248 65.8972C968.958 65.6916 970.066 63.92 969.797 61.7055C969.591 60.0288 968.499 58.0041 966.377 58.2572C964.256 58.5102 963.559 60.5824 963.796 62.4647Z" fill="#FDEFCC"/>
<path d="M982.463 63.2716C982.511 64.2998 982.558 65.2014 982.653 65.9765L981.054 66.0398L980.88 64.4263H980.832C980.389 65.2489 979.392 66.3403 977.618 66.4036C976.051 66.4669 974.151 65.676 974.009 62.1802L973.771 56.375L975.576 56.296L975.798 61.8006C975.877 63.6829 976.494 64.9483 978.141 64.8692C979.36 64.8218 980.167 63.9518 980.452 63.1293C980.547 62.8604 980.595 62.5282 980.579 62.196L980.342 56.0903L982.147 56.0112L982.432 63.24L982.463 63.2716Z" fill="#FDEFCC"/>
<path d="M987.355 51.9777C986.865 53.7019 985.962 55.9006 985.376 56.8338L984.221 56.9604C984.68 55.7582 985.234 53.6228 985.487 52.1359L987.355 51.9619V51.9777Z" fill="#FDEFCC"/>
<path d="M988.575 59.2378C988.622 58.0673 988.638 57.055 988.622 56.1375L990.205 56.2008V58.1464H990.269C990.775 56.8335 991.899 56.0268 993.103 56.0743C993.309 56.0743 993.451 56.1059 993.609 56.1533L993.546 57.8617C993.356 57.8142 993.182 57.7826 992.929 57.7826C991.646 57.7351 990.712 58.6684 990.411 60.0129C990.364 60.2502 990.3 60.5507 990.3 60.8513L990.094 66.1502L988.305 66.087L988.575 59.2536V59.2378Z" fill="#FDEFCC"/>
<path d="M996.032 61.8162C995.842 64.2522 997.314 65.4069 999.119 65.5651C1000.4 65.6916 1001.21 65.5334 1001.91 65.312L1002.1 66.6249C1001.43 66.8463 1000.32 67.0836 998.739 66.9254C995.683 66.6407 994.053 64.4736 994.322 61.484C994.607 58.4945 996.586 56.3116 999.467 56.5805C1002.7 56.881 1003.3 59.8074 1003.12 61.6264C1003.09 61.9902 1003.03 62.2749 1002.98 62.4648L996.016 61.8162H996.032ZM1001.45 61.0253C1001.57 59.8864 1001.24 58.0516 999.214 57.8618C997.393 57.6878 996.443 59.3012 996.174 60.535L1001.45 61.0253Z" fill="#FDEFCC"/>
<path d="M1011.96 64.1257L1009.73 68.1434L1007.91 67.7954L1015.14 55.062L1017.26 55.4733L1019.31 69.9783L1017.42 69.6145L1016.79 65.0589L1011.96 64.1415V64.1257ZM1016.69 63.6037L1016.11 59.4277C1015.98 58.4787 1015.93 57.6403 1015.87 56.802H1015.82C1015.46 57.5612 1015.08 58.3521 1014.67 59.1272L1012.58 62.8128L1016.68 63.6037H1016.69Z" fill="#FDEFCC"/>
<path d="M1022.87 63.3033C1023.14 62.3068 1023.34 61.5001 1023.5 60.6934L1025.02 61.1204L1024.67 62.6864H1024.74C1025.53 61.943 1026.65 61.3261 1028.24 61.769C1029.55 62.1328 1030.31 63.1926 1030.42 64.4422H1030.45C1030.9 63.9993 1031.39 63.6829 1031.88 63.4931C1032.57 63.2084 1033.27 63.161 1034.19 63.3982C1035.45 63.7462 1037.12 65.1066 1036.18 68.4283L1034.62 74.0753L1032.91 73.6008L1034.41 68.1752C1034.92 66.3245 1034.55 65.0433 1033.14 64.6478C1032.15 64.3789 1031.18 64.9009 1030.64 65.6602C1030.5 65.8816 1030.36 66.1822 1030.26 66.4985L1028.62 72.4302L1026.91 71.9557L1028.49 66.2138C1028.92 64.6953 1028.55 63.3982 1027.22 63.0186C1026.13 62.7181 1025.1 63.3666 1024.58 64.1733C1024.4 64.4106 1024.29 64.6953 1024.2 64.98L1022.6 70.7694L1020.89 70.2948L1022.82 63.3033H1022.87Z" fill="#FDEFCC"/>
<path d="M1042.36 76.8431L1042.64 75.6093H1042.58C1041.79 76.1471 1040.55 76.4477 1039.21 75.9731C1037.31 75.3088 1036.8 73.6321 1037.28 72.2717C1038.07 69.994 1040.52 69.472 1044.15 70.7532L1044.21 70.5634C1044.48 69.7883 1044.76 68.3173 1042.83 67.6371C1041.96 67.3365 1040.95 67.2891 1040.14 67.4789V66.2135C1041.11 65.9762 1042.34 66.0395 1043.53 66.4666C1046.41 67.4789 1046.41 69.6776 1045.76 71.5599L1044.53 75.0715C1044.24 75.894 1044 76.7007 1043.89 77.3809L1042.34 76.8431H1042.36ZM1043.8 71.9554C1041.95 71.2594 1039.71 70.8481 1039.08 72.683C1038.68 73.7903 1039.25 74.5653 1040.13 74.8817C1041.34 75.3088 1042.41 74.8026 1042.94 74.1066C1043.07 73.9484 1043.17 73.7744 1043.23 73.6004L1043.8 71.9712V71.9554Z" fill="#FDEFCC"/>
<path d="M1045.7 76.9225L1052.06 73.1578C1052.67 72.8257 1053.22 72.5409 1053.84 72.2088V72.1771L1048.85 70.1841L1049.39 68.8237L1056.43 71.6393L1055.99 72.6833L1049.72 76.4005C1049.13 76.7643 1048.56 77.0649 1047.95 77.3812V77.4128L1053.35 79.5641L1052.81 80.9086L1045.3 77.9032L1045.7 76.9225Z" fill="#FDEFCC"/>
<path d="M1054.44 81.6043L1058.4 72.4773L1060.06 73.205L1056.1 82.3477L1054.44 81.6201V81.6043ZM1061.37 70.7057C1061.15 71.2752 1060.53 71.5599 1059.87 71.2594C1059.28 71.0063 1059.06 70.3736 1059.31 69.8041C1059.57 69.2189 1060.2 68.95 1060.8 69.2189C1061.42 69.4878 1061.63 70.1205 1061.37 70.7057Z" fill="#FDEFCC"/>
<path d="M1061.86 76.9066C1062.31 75.9733 1062.66 75.1982 1062.94 74.439L1064.4 75.1191L1063.78 76.6535H1063.81C1064.67 76.0208 1066.11 75.6886 1067.6 76.3846C1068.85 76.9698 1070.43 78.6307 1068.96 81.7152L1066.41 87.0933L1064.78 86.3182L1067.23 81.1299C1067.91 79.6747 1067.96 78.2194 1066.41 77.4918C1065.33 76.9856 1064.13 77.3495 1063.42 78.1245C1063.24 78.2985 1063.07 78.5516 1062.94 78.8363L1060.38 84.2461L1058.74 83.471L1061.86 76.9066Z" fill="#FDEFCC"/>
<path d="M1081.16 83.5662C1080.78 84.1831 1080.37 84.8791 1079.82 85.9389L1077.11 91.048C1076.05 93.0727 1074.99 94.0851 1073.74 94.4014C1072.46 94.7494 1071.09 94.354 1069.99 93.7687C1068.93 93.2151 1067.9 92.3451 1067.44 91.4909L1068.48 90.4786C1068.88 91.1429 1069.61 91.9497 1070.7 92.5349C1072.33 93.4049 1073.99 93.1834 1075.16 90.9689L1075.69 89.9882H1075.65C1074.74 90.526 1073.44 90.6842 1072.08 89.9566C1069.89 88.8019 1069.31 86.1287 1070.6 83.6927C1072.19 80.7189 1075.02 80.0546 1077.05 81.1144C1078.58 81.9211 1078.99 83.1549 1078.99 84.0882H1079.03L1079.8 82.8227L1081.2 83.5662H1081.16ZM1077.68 86.1603C1077.82 85.8914 1077.93 85.6383 1077.97 85.3852C1078.17 84.3096 1077.79 83.1233 1076.62 82.5064C1075.08 81.6997 1073.31 82.4115 1072.23 84.452C1071.32 86.1761 1071.44 88.0743 1073.17 88.9917C1074.15 89.5137 1075.37 89.3555 1076.26 88.533C1076.49 88.3115 1076.68 88.011 1076.84 87.7421L1077.68 86.1603Z" fill="#FDEFCC"/>
<path d="M1082.86 94.7331C1083.24 94.0688 1083.95 93.879 1084.58 94.2428C1085.2 94.6066 1085.36 95.3184 1084.98 95.9669C1084.6 96.5996 1083.92 96.8527 1083.25 96.4573C1082.64 96.0935 1082.48 95.3658 1082.86 94.7331Z" fill="#FDEFCC"/>
<path d="M1098.47 105.062C1097.74 104.983 1096.44 104.556 1095.02 103.655C1091.72 101.551 1090.57 97.8969 1093.01 94.0531C1095.33 90.3992 1099.4 89.4976 1103.04 91.807C1104.5 92.7402 1105.23 93.626 1105.5 94.1006L1104.34 95.0971C1103.95 94.4486 1103.27 93.7209 1102.28 93.104C1099.55 91.3641 1096.6 91.9493 1094.64 95.018C1092.82 97.881 1093.29 100.776 1096.14 102.579C1097.06 103.164 1098.12 103.575 1098.91 103.67L1098.47 105.062Z" fill="#FDEFCC"/>
<path d="M1108.21 94.5593L1109.69 95.5874L1106.18 100.712H1106.21C1106.73 100.475 1107.37 100.364 1108 100.412C1108.62 100.459 1109.27 100.649 1109.82 101.029C1110.93 101.788 1112.23 103.67 1110.28 106.502L1106.92 111.39L1105.44 110.361L1108.67 105.648C1109.57 104.319 1109.85 102.864 1108.44 101.899C1107.48 101.234 1106.24 101.393 1105.42 102.025C1105.2 102.168 1105.02 102.373 1104.83 102.674L1101.43 107.625L1099.94 106.597L1108.21 94.5435V94.5593Z" fill="#FDEFCC"/>
<path d="M1112.8 109.871C1111.39 111.88 1112.05 113.604 1113.53 114.68C1114.57 115.439 1115.35 115.724 1116.06 115.882L1115.54 117.116C1114.86 116.973 1113.78 116.594 1112.5 115.661C1110.01 113.857 1109.73 111.152 1111.5 108.716C1113.27 106.281 1116.09 105.411 1118.45 107.119C1121.08 109.033 1120.1 111.848 1119.02 113.335C1118.8 113.636 1118.59 113.841 1118.47 113.984L1112.81 109.871H1112.8ZM1117.86 111.959C1118.56 111.042 1119.21 109.302 1117.56 108.1C1116.07 107.024 1114.44 107.91 1113.59 108.843L1117.86 111.959Z" fill="#FDEFCC"/>
<path d="M1121.13 116.024C1119.67 117.986 1120.29 119.741 1121.73 120.849C1122.76 121.64 1123.52 121.94 1124.23 122.114L1123.69 123.332C1123.01 123.174 1121.95 122.763 1120.68 121.798C1118.24 119.931 1118.02 117.211 1119.86 114.838C1121.7 112.465 1124.53 111.658 1126.84 113.43C1129.42 115.407 1128.36 118.207 1127.25 119.662C1127.03 119.963 1126.83 120.153 1126.68 120.295L1121.13 116.04V116.024ZM1126.13 118.223C1126.84 117.321 1127.55 115.597 1125.92 114.363C1124.47 113.256 1122.8 114.094 1121.93 115.012L1126.13 118.239V118.223Z" fill="#FDEFCC"/>
<path d="M1129.85 120.011C1130.58 119.093 1131.19 118.302 1131.72 117.543L1132.95 118.524L1131.78 120.09L1131.84 120.137C1133.03 119.378 1134.41 119.394 1135.36 120.153C1135.52 120.279 1135.61 120.39 1135.72 120.517L1134.66 121.845C1134.54 121.703 1134.41 121.561 1134.22 121.418C1133.22 120.627 1131.91 120.817 1130.86 121.719C1130.67 121.893 1130.47 122.083 1130.28 122.32L1126.97 126.464L1125.57 125.341L1129.85 119.995V120.011Z" fill="#FDEFCC"/>
<path d="M1130.85 129.596L1137.18 121.909L1138.57 123.063L1132.24 130.751L1130.85 129.596ZM1140.5 121.039C1140.12 121.529 1139.46 121.624 1138.91 121.165C1138.41 120.754 1138.38 120.089 1138.76 119.615C1139.17 119.125 1139.86 119.045 1140.36 119.457C1140.88 119.884 1140.9 120.548 1140.5 121.039Z" fill="#FDEFCC"/>
<path d="M1139.11 127.128C1139.76 126.322 1140.27 125.657 1140.74 124.977L1141.99 125.989L1141.04 127.334L1141.07 127.366C1142.06 126.938 1143.53 126.938 1144.81 127.967C1145.89 128.837 1147.04 130.814 1144.89 133.471L1141.17 138.106L1139.76 136.967L1143.35 132.491C1144.37 131.241 1144.73 129.817 1143.4 128.758C1142.47 128.014 1141.22 128.093 1140.35 128.678C1140.14 128.805 1139.92 129.011 1139.71 129.264L1135.96 133.93L1134.55 132.791L1139.11 127.128Z" fill="#FDEFCC"/>
<path d="M1156.4 137.521C1155.93 138.059 1155.4 138.675 1154.66 139.64L1151.13 144.212C1149.74 146.015 1148.52 146.853 1147.22 146.932C1145.9 147.059 1144.62 146.426 1143.62 145.667C1142.67 144.939 1141.82 143.911 1141.5 142.994L1142.71 142.187C1142.97 142.915 1143.56 143.832 1144.54 144.591C1146.01 145.73 1147.68 145.793 1149.21 143.8L1149.89 142.915L1149.86 142.883C1148.85 143.278 1147.55 143.215 1146.33 142.266C1144.38 140.763 1144.26 138.011 1145.95 135.844C1148.01 133.171 1150.92 133.013 1152.74 134.405C1154.1 135.464 1154.31 136.761 1154.14 137.663L1154.17 137.695L1155.15 136.556L1156.4 137.521ZM1152.51 139.482C1152.7 139.245 1152.84 139.008 1152.93 138.77C1153.31 137.742 1153.14 136.508 1152.09 135.717C1150.73 134.658 1148.85 135.069 1147.44 136.888C1146.24 138.438 1146.03 140.32 1147.58 141.523C1148.47 142.203 1149.69 142.266 1150.7 141.586C1150.97 141.412 1151.22 141.159 1151.41 140.906L1152.51 139.498V139.482Z" fill="#FDEFCC"/>
<path d="M1156.89 148.752C1157.32 148.119 1158.05 147.976 1158.65 148.388C1159.25 148.799 1159.35 149.511 1158.92 150.144C1158.49 150.76 1157.79 150.934 1157.16 150.507C1156.56 150.096 1156.48 149.368 1156.89 148.752Z" fill="#FDEFCC"/>
<path d="M1177.55 155.775C1178.44 154.051 1179.5 151.978 1180.4 150.507L1180.36 150.476C1179.12 151.646 1177.76 152.848 1176.19 154.145L1170.68 158.717L1169.51 158.037L1170.9 151.203C1171.31 149.179 1171.74 147.36 1172.23 145.746H1172.2C1171.3 147.201 1170.03 149.147 1168.88 150.887L1165.55 155.838L1164.08 154.984L1171.92 143.5L1173.9 144.655L1172.55 151.646C1172.19 153.418 1171.82 154.968 1171.39 156.392L1171.44 156.423C1172.45 155.395 1173.64 154.319 1175.07 153.133L1180.59 148.593L1182.57 149.748L1176.32 162.149L1174.8 161.263L1177.57 155.822L1177.55 155.775Z" fill="#FDEFCC"/>
<path d="M1182.37 159.872C1181.34 162.086 1182.3 163.684 1183.93 164.459C1185.11 165.028 1185.9 165.155 1186.64 165.186L1186.36 166.483C1185.66 166.468 1184.54 166.294 1183.11 165.598C1180.36 164.269 1179.58 161.659 1180.88 158.954C1182.18 156.249 1184.8 154.889 1187.42 156.154C1190.35 157.562 1189.89 160.52 1189.08 162.165C1188.92 162.497 1188.76 162.735 1188.65 162.893L1182.35 159.856L1182.37 159.872ZM1187.72 161.01C1188.24 159.982 1188.57 158.163 1186.74 157.277C1185.09 156.487 1183.63 157.657 1182.95 158.717L1187.72 161.01Z" fill="#FDEFCC"/>
<path d="M1191.99 161.643C1192.36 160.678 1192.63 159.887 1192.86 159.096L1194.35 159.65L1193.86 161.184H1193.92C1194.78 160.52 1195.95 160.014 1197.5 160.583C1198.77 161.058 1199.45 162.181 1199.45 163.43H1199.48C1199.97 163.035 1200.48 162.766 1200.97 162.624C1201.68 162.402 1202.39 162.402 1203.28 162.734C1204.52 163.193 1206.05 164.68 1204.83 167.923L1202.77 173.411L1201.11 172.794L1203.09 167.511C1203.76 165.724 1203.5 164.395 1202.14 163.889C1201.18 163.525 1200.16 163.968 1199.56 164.68C1199.4 164.886 1199.23 165.17 1199.1 165.471L1196.95 171.229L1195.29 170.612L1197.38 165.028C1197.93 163.541 1197.68 162.228 1196.39 161.738C1195.33 161.342 1194.24 161.896 1193.65 162.655C1193.46 162.877 1193.32 163.146 1193.21 163.43L1191.11 169.061L1189.44 168.445L1191.99 161.643Z" fill="#FDEFCC"/>
<path d="M1216.55 171.783C1215.63 175.342 1212.76 176.275 1210.44 175.674C1207.83 175.009 1206.31 172.573 1207.08 169.536C1207.9 166.31 1210.5 164.965 1213.18 165.645C1215.95 166.357 1217.31 168.84 1216.55 171.783ZM1208.87 169.932C1208.33 172.036 1209.14 173.95 1210.85 174.377C1212.53 174.804 1214.19 173.554 1214.74 171.387C1215.16 169.758 1214.87 167.48 1212.8 166.942C1210.72 166.42 1209.34 168.097 1208.87 169.932Z" fill="#FDEFCC"/>
<path d="M1219.4 170.453C1219.6 169.299 1219.76 168.302 1219.86 167.385L1221.43 167.669L1221.14 169.599H1221.22C1221.9 168.381 1223.12 167.733 1224.32 167.954C1224.53 167.986 1224.66 168.033 1224.81 168.112L1224.51 169.789C1224.34 169.71 1224.16 169.663 1223.91 169.615C1222.66 169.394 1221.6 170.185 1221.11 171.482C1221.03 171.719 1220.93 171.988 1220.89 172.304L1219.95 177.524L1218.2 177.208L1219.4 170.469V170.453Z" fill="#FDEFCC"/>
<path d="M1225.35 178.362L1226.6 168.492L1228.39 168.714L1227.14 178.584L1225.35 178.362ZM1228.95 165.977C1228.88 166.594 1228.38 167.021 1227.66 166.926C1227.03 166.847 1226.65 166.293 1226.71 165.692C1226.79 165.06 1227.33 164.632 1227.98 164.712C1228.66 164.791 1229.03 165.344 1228.95 165.977Z" fill="#FDEFCC"/>
<path d="M1232 174.44C1231.89 176.876 1233.39 177.983 1235.2 178.094C1236.5 178.173 1237.29 177.999 1237.99 177.746L1238.22 179.059C1237.57 179.312 1236.47 179.565 1234.88 179.47C1231.83 179.28 1230.12 177.161 1230.29 174.171C1230.47 171.181 1232.38 168.919 1235.28 169.093C1238.52 169.283 1239.22 172.194 1239.11 174.013C1239.09 174.377 1239.03 174.661 1239 174.851L1232.02 174.44H1232ZM1237.38 173.459C1237.48 172.304 1237.08 170.501 1235.06 170.375C1233.24 170.264 1232.33 171.893 1232.11 173.143L1237.38 173.459Z" fill="#FDEFCC"/>
<path d="M1241.44 177.635C1241.98 177.967 1242.94 178.315 1243.84 178.299C1245.16 178.268 1245.76 177.603 1245.74 176.781C1245.73 175.911 1245.21 175.452 1243.84 174.994C1242.04 174.392 1241.17 173.428 1241.15 172.241C1241.12 170.644 1242.39 169.299 1244.53 169.252C1245.54 169.236 1246.42 169.505 1246.99 169.821L1246.57 171.15C1246.17 170.913 1245.44 170.596 1244.53 170.612C1243.45 170.644 1242.88 171.261 1242.89 172.004C1242.91 172.826 1243.51 173.19 1244.83 173.649C1246.57 174.266 1247.47 175.12 1247.5 176.591C1247.53 178.331 1246.2 179.597 1243.84 179.66C1242.75 179.691 1241.74 179.438 1241.03 179.043L1241.45 177.651L1241.44 177.635Z" fill="#FDEFCC"/>
<path d="M1254.5 177.682C1254.4 176.923 1254.86 176.338 1255.58 176.259C1256.29 176.179 1256.84 176.654 1256.94 177.397C1257.02 178.125 1256.62 178.742 1255.86 178.821C1255.15 178.9 1254.59 178.41 1254.5 177.682Z" fill="#FDEFCC"/>
<path d="M1274.8 174.297C1274.08 174.756 1272.64 175.578 1270.82 176.021C1268.78 176.496 1266.98 176.385 1265.36 175.436C1263.94 174.598 1262.78 172.953 1262.29 170.865C1261.36 166.831 1263.43 163.241 1267.96 162.181C1269.52 161.817 1270.82 161.864 1271.47 162.007L1271.39 163.525C1270.6 163.383 1269.64 163.335 1268.27 163.652C1265 164.427 1263.33 166.974 1264.13 170.359C1264.93 173.775 1267.48 175.31 1270.62 174.566C1271.76 174.297 1272.5 173.949 1272.85 173.665L1271.9 169.647L1269.16 170.295L1268.83 168.888L1273.28 167.844L1274.81 174.329L1274.8 174.297Z" fill="#FDEFCC"/>
<path d="M1276.06 167.337C1275.7 166.23 1275.37 165.265 1275.02 164.411L1276.52 163.921L1277.19 165.755L1277.27 165.724C1277.28 164.316 1278.06 163.177 1279.21 162.798C1279.4 162.734 1279.55 162.703 1279.72 162.703L1280.24 164.332C1280.05 164.348 1279.88 164.395 1279.64 164.458C1278.42 164.854 1277.87 166.056 1278.06 167.416C1278.09 167.669 1278.14 167.954 1278.25 168.239L1279.9 173.285L1278.19 173.838L1276.06 167.321V167.337Z" fill="#FDEFCC"/>
<path d="M1290.12 169.536L1289.52 168.429H1289.46C1289.24 169.378 1288.49 170.422 1287.18 170.944C1285.31 171.687 1283.82 170.754 1283.28 169.41C1282.4 167.179 1283.9 165.155 1287.48 163.763L1287.4 163.573C1287.1 162.814 1286.34 161.516 1284.44 162.26C1283.58 162.608 1282.79 163.225 1282.3 163.905L1281.48 162.956C1282.05 162.149 1283.03 161.39 1284.19 160.931C1287.02 159.808 1288.48 161.469 1289.2 163.32L1290.58 166.784C1290.9 167.591 1291.25 168.35 1291.61 168.935L1290.08 169.536H1290.12ZM1288 164.917C1286.15 165.613 1284.19 166.752 1284.9 168.555C1285.33 169.647 1286.26 169.868 1287.13 169.536C1288.33 169.062 1288.79 167.986 1288.76 167.1C1288.76 166.91 1288.71 166.705 1288.65 166.531L1288.02 164.917H1288Z" fill="#FDEFCC"/>
<path d="M1291.12 155.094L1292.32 157.688L1294.67 156.597L1295.25 157.847L1292.91 158.938L1295.17 163.794C1295.7 164.917 1296.31 165.392 1297.22 164.965C1297.64 164.759 1297.93 164.569 1298.12 164.411L1298.77 165.613C1298.51 165.898 1298.06 166.214 1297.42 166.515C1296.66 166.879 1295.93 166.91 1295.33 166.657C1294.64 166.388 1294.1 165.661 1293.61 164.601L1291.31 159.681L1289.92 160.33L1289.33 159.08L1290.72 158.432L1289.71 156.265L1291.12 155.094Z" fill="#FDEFCC"/>
<path d="M1299.77 159.966C1300.95 162.102 1302.82 162.26 1304.42 161.39C1305.56 160.773 1306.15 160.204 1306.6 159.634L1307.49 160.631C1307.06 161.184 1306.26 161.991 1304.86 162.734C1302.16 164.19 1299.59 163.272 1298.17 160.631C1296.74 157.989 1297.18 155.063 1299.75 153.687C1302.62 152.152 1304.74 154.256 1305.59 155.87C1305.77 156.202 1305.86 156.471 1305.94 156.645L1299.77 159.951V159.966ZM1303.83 156.312C1303.31 155.284 1302.03 153.94 1300.22 154.905C1298.61 155.775 1298.7 157.641 1299.16 158.812L1303.82 156.312H1303.83Z" fill="#FDEFCC"/>
<path d="M1310.64 159.223L1306.21 151.883L1305.01 152.611L1304.29 151.425L1305.5 150.697L1305.24 150.286C1304.52 149.084 1304.12 147.834 1304.44 146.711C1304.67 145.793 1305.31 145.097 1306.03 144.67C1306.57 144.338 1307.13 144.18 1307.51 144.117L1308.01 145.445C1307.73 145.477 1307.35 145.588 1306.91 145.841C1305.59 146.632 1305.96 148.008 1306.73 149.305L1307 149.764L1309.06 148.514L1309.77 149.7L1307.71 150.95L1312.15 158.29L1310.61 159.207L1310.64 159.223Z" fill="#FDEFCC"/>
<path d="M1321.38 149.068C1321.95 149.922 1322.47 150.666 1322.96 151.283L1321.63 152.184L1320.63 150.887H1320.6C1320.66 151.836 1320.38 153.291 1318.91 154.288C1317.61 155.158 1315.57 155.49 1313.62 152.595L1310.37 147.771L1311.88 146.759L1314.96 151.33C1316.03 152.896 1317.21 153.639 1318.57 152.722C1319.59 152.042 1319.81 150.871 1319.64 150.017C1319.57 149.732 1319.45 149.432 1319.26 149.163L1315.84 144.101L1317.34 143.089L1321.39 149.1L1321.38 149.068Z" fill="#FDEFCC"/>
<path d="M1316.94 137.584L1318.4 136.508L1327.06 148.261L1325.6 149.337L1316.94 137.584Z" fill="#FDEFCC"/>
<path d="M1332.24 142.93C1331.76 142.345 1331.83 141.602 1332.38 141.143C1332.95 140.684 1333.66 140.795 1334.14 141.396C1334.6 141.965 1334.58 142.709 1334 143.183C1333.44 143.642 1332.7 143.516 1332.24 142.93Z" fill="#FDEFCC"/>
<path d="M1344.44 133.187C1344.03 133.93 1343.15 135.322 1341.74 136.556C1340.15 137.932 1338.51 138.66 1336.62 138.581C1334.96 138.502 1333.19 137.584 1331.76 135.955C1329.06 132.823 1329.21 128.679 1332.71 125.626C1333.92 124.566 1335.1 124.012 1335.74 123.838L1336.37 125.23C1335.59 125.468 1334.72 125.879 1333.66 126.796C1331.11 129.011 1330.84 132.032 1333.12 134.658C1335.44 137.315 1338.4 137.473 1340.84 135.354C1341.72 134.579 1342.21 133.93 1342.39 133.503L1339.66 130.387L1337.54 132.238L1336.59 131.146L1340.03 128.141L1344.41 133.155L1344.44 133.187Z" fill="#FDEFCC"/>
<path d="M1350.16 121.576C1352.71 124.234 1352 127.16 1350.26 128.821C1348.31 130.687 1345.44 130.703 1343.26 128.441C1340.95 126.037 1341.15 123.126 1343.15 121.212C1345.2 119.235 1348.04 119.393 1350.16 121.576ZM1344.54 127.128C1346.06 128.694 1348.1 129.011 1349.37 127.793C1350.62 126.59 1350.43 124.518 1348.86 122.905C1347.69 121.687 1345.6 120.738 1344.05 122.209C1342.51 123.696 1343.21 125.752 1344.52 127.112L1344.54 127.128Z" fill="#FDEFCC"/>
<path d="M1358.12 113.335C1360.78 115.882 1360.18 118.824 1358.52 120.564C1356.65 122.51 1353.79 122.636 1351.52 120.469C1349.12 118.16 1349.21 115.249 1351.13 113.256C1353.11 111.2 1355.94 111.231 1358.14 113.335H1358.12ZM1352.73 119.109C1354.31 120.611 1356.35 120.849 1357.59 119.567C1358.77 118.318 1358.5 116.262 1356.89 114.711C1355.67 113.541 1353.55 112.671 1352.06 114.221C1350.59 115.771 1351.36 117.796 1352.73 119.109Z" fill="#FDEFCC"/>
<path d="M1358.33 98.7668L1367.34 106.755C1368 107.34 1368.76 107.989 1369.32 108.4L1368.24 109.618L1366.9 108.526L1366.86 108.558C1367.32 109.713 1367.15 111.184 1366.07 112.386C1364.47 114.189 1361.72 114.221 1359.45 112.212C1356.97 110.029 1356.81 107.134 1358.43 105.331C1359.44 104.192 1360.66 103.908 1361.56 104.097L1361.59 104.066L1357.14 100.111L1358.35 98.751L1358.33 98.7668ZM1363.63 105.901C1363.46 105.758 1363.22 105.568 1363.02 105.458C1361.97 104.888 1360.61 104.999 1359.71 106.011C1358.46 107.403 1358.96 109.333 1360.61 110.788C1362.11 112.133 1364.01 112.497 1365.33 111.041C1366.14 110.14 1366.28 108.764 1365.47 107.625C1365.33 107.419 1365.15 107.229 1364.95 107.04L1363.65 105.885L1363.63 105.901Z" fill="#FDEFCC"/>
<path d="M1363.48 94.1479C1364.03 93.1989 1364.76 92.1074 1365.64 91.0002C1367.26 89.0071 1368.87 87.9473 1370.52 87.7101C1372.18 87.457 1373.88 87.8999 1375.62 89.3077C1377.38 90.7313 1378.39 92.4396 1378.56 94.2429C1378.75 96.0619 1377.96 98.1657 1376.27 100.269C1375.46 101.266 1374.75 102.057 1374.1 102.69L1363.48 94.1321V94.1479ZM1374.16 100.459C1374.51 100.159 1374.94 99.6526 1375.38 99.1148C1377.79 96.141 1377.42 93.1831 1374.51 90.8262C1371.98 88.754 1369.19 88.8964 1366.82 91.8385C1366.23 92.5662 1365.87 93.1514 1365.64 93.5943L1374.16 100.459Z" fill="#FDEFCC"/>
<path d="M1379.51 88.5011C1381.49 89.9405 1383.23 89.3078 1384.33 87.8684C1385.1 86.8402 1385.4 86.081 1385.58 85.3692L1386.8 85.907C1386.64 86.5872 1386.24 87.6628 1385.29 88.9124C1383.44 91.3483 1380.73 91.6014 1378.34 89.7824C1375.95 87.9633 1375.13 85.1319 1376.89 82.8225C1378.85 80.2284 1381.65 81.2723 1383.11 82.3796C1383.41 82.601 1383.61 82.8067 1383.74 82.9332L1379.51 88.5011ZM1381.68 83.4868C1380.78 82.775 1379.06 82.0949 1377.82 83.7083C1376.71 85.1635 1377.58 86.8244 1378.49 87.6944L1381.68 83.4868Z" fill="#FDEFCC"/>
<path d="M1385.56 80.4181C1387.57 81.8101 1389.31 81.1299 1390.38 79.6589C1391.14 78.5991 1391.4 77.8398 1391.56 77.128L1392.8 77.6342C1392.66 78.3143 1392.29 79.3899 1391.36 80.687C1389.57 83.1704 1386.86 83.4868 1384.42 81.731C1381.98 79.9752 1381.1 77.1596 1382.79 74.8028C1384.69 72.1612 1387.53 73.1261 1389.01 74.2017C1389.31 74.4231 1389.52 74.6129 1389.66 74.7395L1385.58 80.4181H1385.56ZM1387.6 75.3406C1386.69 74.6446 1384.94 74.0119 1383.74 75.6569C1382.66 77.1438 1383.57 78.7731 1384.5 79.6272L1387.59 75.3406H1387.6Z" fill="#FDEFCC"/>
<path d="M1387.49 60.2979L1397.44 67.0837C1398.17 67.5899 1399 68.1277 1399.61 68.4599L1398.69 69.8044L1397.22 68.9028V68.9344C1397.8 70.0259 1397.8 71.4969 1396.88 72.8414C1395.52 74.8187 1392.8 75.1983 1390.3 73.5058C1387.56 71.6551 1387.03 68.8079 1388.4 66.799C1389.25 65.5494 1390.44 65.1065 1391.36 65.1856V65.1539L1386.48 61.8006L1387.51 60.3137L1387.49 60.2979ZM1393.67 66.7041C1393.48 66.5776 1393.21 66.4194 1392.99 66.3403C1391.88 65.9132 1390.55 66.1979 1389.77 67.3052C1388.71 68.8553 1389.44 70.6902 1391.26 71.9398C1392.92 73.0787 1394.86 73.2052 1395.96 71.5918C1396.65 70.5953 1396.61 69.2191 1395.68 68.191C1395.51 68.0012 1395.32 67.843 1395.08 67.6848L1393.65 66.7041H1393.67Z" fill="#FDEFCC"/>
<path d="M1402.44 62.1958C1401.81 61.7845 1401.63 61.0569 1402.03 60.4558C1402.42 59.8547 1403.14 59.7282 1403.77 60.1394C1404.39 60.5349 1404.61 61.2467 1404.18 61.8794C1403.79 62.4805 1403.06 62.5912 1402.44 62.1958Z" fill="#FDEFCC"/>
<path d="M1397.31 46.4413L1402.27 49.4625L1405.76 43.7364L1400.81 40.7152L1401.76 39.165L1413.6 46.3938L1412.65 47.944L1407.11 44.5589L1403.61 50.285L1409.17 53.67L1408.23 55.1886L1396.39 47.9598L1397.33 46.4255L1397.31 46.4413Z" fill="#FDEFCC"/>
<path d="M1417.88 39.07L1416.72 38.5638L1416.69 38.6113C1417.09 39.4813 1417.15 40.7625 1416.44 41.9805C1415.42 43.7204 1413.68 43.8944 1412.43 43.1668C1410.36 41.9488 1410.29 39.4496 1412.24 36.1279L1412.07 36.0171C1411.35 35.6059 1409.96 35.0522 1408.93 36.808C1408.47 37.6147 1408.22 38.5796 1408.27 39.418L1407.03 39.1649C1406.98 38.1842 1407.28 36.982 1407.92 35.8906C1409.45 33.2648 1411.62 33.6603 1413.35 34.6726L1416.56 36.5549C1417.31 36.982 1418.07 37.3775 1418.72 37.6147L1417.89 39.0384L1417.88 39.07ZM1413.35 36.7448C1412.32 38.4215 1411.5 40.541 1413.16 41.5218C1414.17 42.107 1415.04 41.7116 1415.52 40.9207C1416.17 39.7976 1415.87 38.6745 1415.3 38.0102C1415.17 37.8678 1415.01 37.7255 1414.85 37.6306L1413.36 36.7606L1413.35 36.7448Z" fill="#FDEFCC"/>
<path d="M1414.17 32.047C1413.06 31.4301 1412.15 30.9555 1411.29 30.5285L1412.08 29.1049L1413.62 29.8641V29.8325C1412.94 28.5987 1412.87 27.2225 1413.68 25.7989C1414.85 23.6951 1417.51 23.1099 1420.16 24.5809C1423.28 26.3209 1423.77 29.089 1422.63 31.1295C1421.98 32.2843 1420.92 33.0119 1419.76 33.0435V33.0751L1424.46 35.7167L1423.59 37.2827L1414.17 32.0312V32.047ZM1417.37 31.7781C1417.61 31.9046 1417.85 31.9995 1418.05 32.0628C1419.3 32.3792 1420.6 31.8572 1421.22 30.7183C1422.15 29.0416 1421.33 27.3174 1419.33 26.2102C1417.59 25.2453 1415.58 25.3244 1414.65 27.0011C1414.05 28.0767 1414.25 29.5161 1415.28 30.481C1415.45 30.6392 1415.64 30.829 1415.87 30.9556L1417.35 31.7939L1417.37 31.7781Z" fill="#FDEFCC"/>
<path d="M1419.74 22.0027C1418.62 21.4016 1417.69 20.9587 1416.83 20.5475L1417.59 19.108L1419.14 19.8357V19.804C1418.43 18.5861 1418.35 17.2099 1419.11 15.7705C1420.24 13.6509 1422.9 13.0023 1425.56 14.4259C1428.72 16.1026 1429.26 18.855 1428.15 20.9271C1427.53 22.0818 1426.49 22.8411 1425.33 22.9043V22.936L1430.08 25.4827L1429.24 27.0644L1419.73 22.0027H1419.74ZM1422.93 21.6705C1423.16 21.7971 1423.4 21.8762 1423.62 21.9394C1424.89 22.24 1426.16 21.6864 1426.77 20.5317C1427.68 18.8391 1426.82 17.1308 1424.8 16.0552C1423.04 15.1219 1421.03 15.2485 1420.14 16.9252C1419.55 18.0166 1419.81 19.4402 1420.84 20.3893C1421.01 20.5475 1421.22 20.7373 1421.44 20.848L1422.94 21.6547L1422.93 21.6705Z" fill="#FDEFCC"/>
<path d="M1422.47 9.87058L1428.71 10.5982C1429.4 10.6931 1430.21 10.8355 1430.81 10.9462V10.9146C1430.38 10.4875 1429.8 9.94967 1429.28 9.41186L1424.97 5.01448L1425.84 3.30615L1430.94 8.93732C1433.39 11.6422 1434.55 13.224 1434.94 14.8058C1435.25 15.9446 1435.12 16.8779 1434.98 17.3208L1433.41 17.0361C1433.49 16.5615 1433.5 15.913 1433.35 15.217C1433.22 14.6001 1432.87 13.7301 1432.24 12.9551C1432.11 12.7969 1432.02 12.6703 1431.92 12.6387C1431.83 12.5913 1431.68 12.5596 1431.45 12.528L1421.6 11.658L1422.5 9.90221L1422.47 9.87058Z" fill="#FDEFCC"/>
<path d="M1436.16 2.35694C1435.48 2.02477 1435.21 1.32878 1435.53 0.680247C1435.85 0.0317135 1436.54 -0.173919 1437.22 0.158257C1437.89 0.474614 1438.19 1.15478 1437.86 1.83495C1437.54 2.48349 1436.83 2.68912 1436.16 2.35694Z" fill="#FDEFCC"/>
</g>
<defs>
<clipPath id="clip0_1922_27194">
<rect width="1438" height="624" fill="white"/>
</clipPath>
</defs>
</svg>
