<svg width="55" height="55" viewBox="0 0 55 55" fill="none" xmlns="http://www.w3.org/2000/svg">
<g clip-path="url(#clip0_3714_75454)">
<path fill-rule="evenodd" clip-rule="evenodd" d="M55 11.9167V43.0834C55.0032 44.6492 54.6971 46.2002 54.0993 47.6474C53.5015 49.0946 52.6239 50.4095 51.5167 51.5167C50.4095 52.6239 49.0946 53.5015 47.6474 54.0993C46.2002 54.6971 44.6492 55.0032 43.0834 55H11.9167C10.3509 55.0032 8.79989 54.6971 7.35268 54.0993C5.90547 53.5015 4.59055 52.6239 3.48336 51.5167C2.37617 50.4095 1.49851 49.0946 0.900754 47.6474C0.302994 46.2002 -0.00310457 44.6492 2.3738e-05 43.0834V11.9167C-0.00310457 10.3509 0.302994 8.79989 0.900754 7.35268C1.49851 5.90547 2.37617 4.59055 3.48336 3.48336C4.59055 2.37617 5.90547 1.49851 7.35268 0.900754C8.79989 0.302994 10.3509 -0.00310457 11.9167 2.3738e-05H43.0834C44.6492 -0.00310457 46.2002 0.302994 47.6474 0.900754C49.0946 1.49851 50.4095 2.37617 51.5167 3.48336C52.6239 4.59055 53.5015 5.90547 54.0993 7.35268C54.6971 8.79989 55.0032 10.3509 55 11.9167Z" fill="url(#paint0_linear_3714_75454)"/>
<path fill-rule="evenodd" clip-rule="evenodd" d="M37.8584 31.625H44.6876C45.3561 31.625 45.9973 31.8906 46.4701 32.3633C46.9428 32.8361 47.2084 33.4773 47.2084 34.1458C47.2084 34.8144 46.9428 35.4556 46.4701 35.9283C45.9973 36.4011 45.3561 36.6667 44.6876 36.6667H37.8584V31.625Z" fill="white"/>
<path fill-rule="evenodd" clip-rule="evenodd" d="M29.4712 31.6248C29.9475 31.622 30.4196 31.7137 30.8602 31.8947C31.3007 32.0756 31.701 32.3422 32.0378 32.679C32.3746 33.0158 32.6412 33.4161 32.8222 33.8567C33.0031 34.2973 33.0948 34.7694 33.092 35.2457C33.0938 35.7327 33.0004 36.2153 32.817 36.6665H10.3128C9.64426 36.6665 9.00307 36.4009 8.53033 35.9282C8.05758 35.4554 7.79199 34.8142 7.79199 34.1457C7.79199 33.4771 8.05758 32.8359 8.53033 32.3632C9.00307 31.8904 9.64426 31.6248 10.3128 31.6248H29.4712ZM28.8295 15.0332V19.4332H25.8962L22.3212 13.2915C22.1641 13.0206 22.062 12.7214 22.0207 12.4111C21.9794 12.1007 21.9997 11.7853 22.0804 11.4827C22.1612 11.1802 22.3007 10.8966 22.4912 10.6481C22.6816 10.3995 22.9192 10.191 23.1903 10.0344C23.4614 9.87772 23.7607 9.77606 24.0711 9.73521C24.3815 9.69435 24.697 9.7151 24.9994 9.79626C25.3018 9.87741 25.5852 10.0174 25.8335 10.2082C26.0817 10.399 26.2899 10.6368 26.4462 10.9082L28.8295 15.0332ZM31.3503 19.2957L43.8628 40.9748C44.1971 41.5522 44.2883 42.2388 44.1164 42.8834C43.9445 43.5281 43.5236 44.0781 42.9462 44.4123C42.3688 44.7466 41.6822 44.8378 41.0376 44.6659C40.3929 44.494 39.8429 44.0731 39.5087 43.4957L31.9462 30.3415C31.2587 29.0582 30.7545 28.0498 30.4337 27.4998C29.6805 26.2166 29.3627 24.7241 29.5279 23.2453C29.6932 21.7666 30.3325 20.381 31.3503 19.2957Z" fill="white"/>
<path fill-rule="evenodd" clip-rule="evenodd" d="M21.0833 33.9172H15.2625L28.4167 11.138C28.7509 10.5606 29.3009 10.1397 29.9456 9.96776C30.5902 9.79585 31.2768 9.88707 31.8542 10.2214C32.4316 10.5556 32.8525 11.1056 33.0244 11.7503C33.1963 12.3949 33.1051 13.0815 32.7708 13.6589L21.0833 33.9172ZM18.0125 39.188L15.5833 43.4505C15.4178 43.7364 15.1976 43.9869 14.9353 44.1877C14.6729 44.3885 14.3736 44.5357 14.0544 44.6208C13.7352 44.7059 13.4024 44.7273 13.0749 44.6838C12.7474 44.6403 12.4317 44.5327 12.1458 44.3672C11.8599 44.2017 11.6094 43.9815 11.4086 43.7191C11.2078 43.4568 11.0607 43.1575 10.9756 42.8383C10.8904 42.5191 10.869 42.1862 10.9125 41.8588C10.9561 41.5313 11.0636 41.2156 11.2292 40.9297L13.0167 37.813C13.5718 37.5368 14.1842 37.3955 14.8042 37.4005C15.4508 37.3793 16.091 37.5344 16.6562 37.8493C17.2214 38.1642 17.6903 38.627 18.0125 39.188Z" fill="white"/>
</g>
<defs>
<linearGradient id="paint0_linear_3714_75454" x1="27.4996" y1="55" x2="27.4996" y2="2.6226e-05" gradientUnits="userSpaceOnUse">
<stop stop-color="#1D6FF2"/>
<stop offset="1" stop-color="#1AC8FC"/>
</linearGradient>
<clipPath id="clip0_3714_75454">
<rect width="55" height="55" fill="white"/>
</clipPath>
</defs>
</svg>
