<svg width="23" height="23" viewBox="0 0 23 23" fill="none" xmlns="http://www.w3.org/2000/svg">
<path fill-rule="evenodd" clip-rule="evenodd" d="M11.3343 3.88092C10.5818 3.8763 9.8358 4.02064 9.13933 4.30562C8.44273 4.59065 7.80944 5.01074 7.27595 5.54166C6.74246 6.07259 6.31934 6.70385 6.03096 7.39907C5.74258 8.09428 5.59465 8.8397 5.5957 9.59236L5.5957 9.59325L5.5957 10.2989C5.5957 13.5479 4.91499 15.4966 4.26553 16.6138L4.26439 16.6158C4.25841 16.626 4.25523 16.6376 4.25516 16.6494C4.2551 16.6612 4.25815 16.6729 4.26402 16.6831C4.26988 16.6934 4.27835 16.7019 4.28857 16.7079C4.29867 16.7138 4.31013 16.7169 4.3218 16.717H18.2587C18.2704 16.7169 18.2819 16.7138 18.292 16.7079C18.3022 16.702 18.3107 16.6934 18.3165 16.6832C18.3224 16.6729 18.3254 16.6613 18.3254 16.6494C18.3253 16.6376 18.3221 16.626 18.3162 16.6158L18.315 16.6139C17.6659 15.4967 16.9856 13.548 16.9856 10.2989V9.67297C16.9856 6.50979 14.4634 3.9044 11.3343 3.88092ZM13.4745 17.9937H9.10602V18.061C9.10602 18.6403 9.33614 19.1959 9.74577 19.6055C10.1554 20.0151 10.711 20.2452 11.2903 20.2452C11.8696 20.2452 12.4251 20.0151 12.8348 19.6055C13.2444 19.1959 13.4745 18.6403 13.4745 18.061V17.9937ZM7.82937 17.9937V18.061C7.82937 18.9789 8.194 19.8592 8.84305 20.5082C9.49209 21.1573 10.3724 21.5219 11.2903 21.5219C12.2082 21.5219 13.0885 21.1573 13.7375 20.5082C14.3865 19.8592 14.7512 18.9789 14.7512 18.061V17.9937H18.26L18.2616 17.9937C18.4979 17.9931 18.7299 17.9301 18.9341 17.8113C19.1384 17.6924 19.3077 17.5218 19.4249 17.3166C19.5422 17.1114 19.6033 16.8789 19.602 16.6426C19.6007 16.4067 19.5374 16.1753 19.4184 15.9717C18.9033 15.0847 18.2622 13.3671 18.2622 10.2989V9.67297C18.2622 5.83266 15.1982 2.63297 11.3434 2.60431L11.3426 2.60431C10.4215 2.59859 9.50838 2.77523 8.65586 3.12406C7.80334 3.47289 7.0283 3.98701 6.3754 4.63677C5.7225 5.28653 5.20467 6.05909 4.85174 6.90992C4.49887 7.76061 4.31783 8.67272 4.31906 9.59369L4.31905 10.2989C4.31905 13.3666 3.67775 15.0842 3.16242 15.9712C3.04326 16.1749 2.97984 16.4064 2.97854 16.6424C2.97723 16.8787 3.03828 17.1112 3.15552 17.3164C3.27277 17.5217 3.44206 17.6923 3.64632 17.8112C3.85058 17.9301 4.08259 17.9931 4.31894 17.9937L4.32059 17.9937H7.82937Z" fill="black"/>
</svg>
