<svg width="23" height="25" viewBox="0 0 23 25" fill="none" xmlns="http://www.w3.org/2000/svg">
<path fill-rule="evenodd" clip-rule="evenodd" d="M11.3343 5.88027C10.5818 5.87565 9.8358 6.01999 9.13933 6.30497C8.44273 6.59 7.80944 7.01008 7.27595 7.54101C6.74246 8.07193 6.31934 8.70319 6.03096 9.39841C5.74258 10.0936 5.59465 10.839 5.5957 11.5917L5.5957 11.5926L5.5957 12.2982C5.5957 15.5473 4.91499 17.4959 4.26553 18.6132L4.26439 18.6151C4.25841 18.6253 4.25523 18.6369 4.25516 18.6488C4.2551 18.6606 4.25815 18.6722 4.26402 18.6825C4.26988 18.6928 4.27835 18.7013 4.28857 18.7072C4.29867 18.7131 4.31013 18.7163 4.3218 18.7164H18.2587C18.2704 18.7163 18.2819 18.7131 18.292 18.7072C18.3022 18.7013 18.3107 18.6928 18.3165 18.6825C18.3224 18.6722 18.3254 18.6606 18.3254 18.6488C18.3253 18.637 18.3221 18.6254 18.3162 18.6152L18.315 18.6132C17.6659 17.496 16.9856 15.5474 16.9856 12.2982V11.6723C16.9856 8.50914 14.4634 5.90374 11.3343 5.88027ZM13.4745 19.993H9.10602V20.0603C9.10602 20.6396 9.33614 21.1952 9.74577 21.6048C10.1554 22.0145 10.711 22.2446 11.2903 22.2446C11.8696 22.2446 12.4251 22.0145 12.8348 21.6048C13.2444 21.1952 13.4745 20.6396 13.4745 20.0603V19.993ZM7.82937 19.993V20.0603C7.82937 20.9782 8.194 21.8585 8.84305 22.5076C9.49209 23.1566 10.3724 23.5212 11.2903 23.5212C12.2082 23.5212 13.0885 23.1566 13.7375 22.5076C14.3865 21.8585 14.7512 20.9782 14.7512 20.0603V19.993H18.26L18.2616 19.993C18.4979 19.9924 18.7299 19.9295 18.9341 19.8106C19.1384 19.6917 19.3077 19.5211 19.4249 19.3159C19.5422 19.1107 19.6033 18.8783 19.602 18.6419C19.6007 18.4061 19.5374 18.1747 19.4184 17.971C18.9033 17.0841 18.2622 15.3664 18.2622 12.2982V11.6723C18.2622 7.832 15.1982 4.63231 11.3434 4.60366L11.3426 4.60365C10.4215 4.59793 9.50838 4.77458 8.65586 5.12341C7.80334 5.47224 7.0283 5.98635 6.3754 6.63611C5.7225 7.28587 5.20467 8.05844 4.85174 8.90926C4.49887 9.75995 4.31783 10.6721 4.31906 11.593L4.31905 12.2982C4.31905 15.366 3.67775 17.0835 3.16242 17.9706C3.04326 18.1742 2.97984 18.4057 2.97854 18.6417C2.97723 18.878 3.03828 19.1106 3.15552 19.3158C3.27277 19.521 3.44206 19.6917 3.64632 19.8106C3.85058 19.9295 4.08259 19.9924 4.31894 19.993L4.32059 19.993H7.82937Z" fill="black"/>
<circle cx="15.7255" cy="4.43548" r="4.43548" fill="#E80707"/>
</svg>
