<svg width="16" height="16" viewBox="0 0 16 16" fill="none" xmlns="http://www.w3.org/2000/svg">
<path d="M14.0002 9.33301C13.8234 9.33301 13.6538 9.40324 13.5288 9.52827C13.4037 9.65329 13.3335 9.82286 13.3335 9.99967V12.6663C13.3335 12.8432 13.2633 13.0127 13.1382 13.1377C13.0132 13.2628 12.8436 13.333 12.6668 13.333H3.3335C3.15668 13.333 2.98712 13.2628 2.86209 13.1377C2.73707 13.0127 2.66683 12.8432 2.66683 12.6663V9.99967C2.66683 9.82286 2.59659 9.65329 2.47157 9.52827C2.34654 9.40324 2.17697 9.33301 2.00016 9.33301C1.82335 9.33301 1.65378 9.40324 1.52876 9.52827C1.40373 9.65329 1.3335 9.82286 1.3335 9.99967V12.6663C1.3335 13.1968 1.54421 13.7055 1.91928 14.0806C2.29436 14.4556 2.80306 14.6663 3.3335 14.6663H12.6668C13.1973 14.6663 13.706 14.4556 14.081 14.0806C14.4561 13.7055 14.6668 13.1968 14.6668 12.6663V9.99967C14.6668 9.82286 14.5966 9.65329 14.4716 9.52827C14.3465 9.40324 14.177 9.33301 14.0002 9.33301ZM7.52683 10.473C7.59023 10.5337 7.66499 10.5813 7.74683 10.613C7.82663 10.6483 7.91292 10.6665 8.00016 10.6665C8.08741 10.6665 8.1737 10.6483 8.2535 10.613C8.33533 10.5813 8.41009 10.5337 8.4735 10.473L11.1402 7.80634C11.2657 7.68081 11.3362 7.51054 11.3362 7.33301C11.3362 7.15547 11.2657 6.98521 11.1402 6.85967C11.0146 6.73414 10.8444 6.66361 10.6668 6.66361C10.4893 6.66361 10.319 6.73414 10.1935 6.85967L8.66683 8.39301V1.99967C8.66683 1.82286 8.59659 1.65329 8.47157 1.52827C8.34654 1.40325 8.17697 1.33301 8.00016 1.33301C7.82335 1.33301 7.65378 1.40325 7.52876 1.52827C7.40373 1.65329 7.3335 1.82286 7.3335 1.99967V8.39301L5.80683 6.85967C5.74467 6.79751 5.67088 6.74821 5.58966 6.71457C5.50845 6.68093 5.4214 6.66361 5.3335 6.66361C5.24559 6.66361 5.15854 6.68093 5.07733 6.71457C4.99611 6.74821 4.92232 6.79751 4.86016 6.85967C4.798 6.92183 4.7487 6.99563 4.71506 7.07684C4.68142 7.15806 4.6641 7.2451 4.6641 7.33301C4.6641 7.42091 4.68142 7.50796 4.71506 7.58917C4.7487 7.67039 4.798 7.74418 4.86016 7.80634L7.52683 10.473Z" fill="#60A6E4"/>
</svg>
