<svg width="19" height="20" viewBox="0 0 19 20" fill="none" xmlns="http://www.w3.org/2000/svg">
<path d="M15.4632 15.399H3.53645C3.29189 15.399 3.08496 15.6059 3.08496 15.8505C3.08496 16.0951 3.29189 16.302 3.53645 16.302H15.4632C15.7077 16.302 15.9147 16.0951 15.9147 15.8505C15.9147 15.6059 15.7077 15.399 15.4632 15.399ZM3.10377 11.4485L3.08496 13.5743C3.08496 13.6871 3.12258 13.8188 3.21664 13.8941C3.3107 13.9693 3.42357 14.0257 3.53645 14.0257L5.66219 14.0069C5.77506 14.0069 5.88793 13.9505 5.98199 13.8753L13.281 6.57624C13.4503 6.40694 13.4503 6.10595 13.281 5.93664L11.1741 3.82971C11.0048 3.6604 10.7038 3.6604 10.5345 3.82971L9.06714 5.29703L3.23546 11.1287C3.1414 11.2228 3.10377 11.3356 3.10377 11.4485ZM12.3216 6.25644L11.4939 7.08416L10.0265 5.61684L10.8543 4.78911L12.3216 6.25644ZM4.00674 11.6366L9.38694 6.25644L10.8543 7.72377L5.47407 13.104H4.00674V11.6366Z" fill="#3E7DB4"/>
</svg>
