<svg width="25" height="25" viewBox="0 0 25 25" fill="none" xmlns="http://www.w3.org/2000/svg">
<path d="M20.3467 19.604H4.65363C4.33185 19.604 4.05957 19.8762 4.05957 20.198C4.05957 20.5198 4.33185 20.7921 4.65363 20.7921H20.3467C20.6685 20.7921 20.9408 20.5198 20.9408 20.198C20.9408 19.8762 20.6685 19.604 20.3467 19.604ZM4.08432 14.4059L4.05957 17.203C4.05957 17.3515 4.10908 17.5248 4.23284 17.6238C4.3566 17.7228 4.50511 17.797 4.65363 17.797L7.45066 17.7723C7.59917 17.7723 7.74769 17.698 7.87145 17.599L17.4754 7.99505C17.6982 7.77228 17.6982 7.37624 17.4754 7.15347L14.7031 4.38119C14.4804 4.15842 14.0843 4.15842 13.8616 4.38119L11.9309 6.31188L4.25759 13.9852C4.13383 14.1089 4.08432 14.2574 4.08432 14.4059ZM16.213 7.57426L15.1239 8.66337L13.1932 6.73268L14.2823 5.64357L16.213 7.57426ZM5.27244 14.6535L12.3516 7.57426L14.2823 9.50495L7.20313 16.5842H5.27244V14.6535Z" fill="white"/>
</svg>
