<svg width="15" height="16" viewBox="0 0 15 16" fill="none" xmlns="http://www.w3.org/2000/svg">
<path d="M10.0509 10.309C10.6572 10.3093 11.2511 10.3063 11.8459 10.3109C12.8985 10.3186 13.6814 11.0038 13.8117 12.0256C13.8605 12.4078 13.7491 12.5489 13.3714 12.5512C11.3584 12.5606 9.3461 12.5686 7.33321 12.57C6.79233 12.5712 6.29004 12.4273 5.82234 12.1573C5.15817 11.7749 4.48695 11.4045 3.82356 11.0208C3.4123 10.7829 2.98434 10.7122 2.52041 10.8433C2.15825 10.9459 1.79384 11.0402 1.42972 11.1355C1.07835 11.2274 0.94431 11.1567 0.854752 10.8224C0.608938 9.91355 0.363906 9.00333 0.123407 8.09302C0.0268298 7.73259 0.0997039 7.61761 0.473898 7.51734C1.37855 7.27494 2.27962 7.02339 3.18736 6.79252C4.14401 6.54854 5.0685 6.65232 5.92835 7.12716C7.07705 7.76155 8.21537 8.41669 9.35575 9.06679C9.82367 9.33333 9.98325 9.61848 10.053 10.3084L10.0509 10.309ZM2.72154 10.1482C3.33674 10.0799 3.85318 10.2852 4.35056 10.5809C4.94286 10.9331 5.54795 11.2651 6.14834 11.6051C6.53132 11.8225 6.94275 11.9335 7.38654 11.9314C8.74404 11.9247 10.1016 11.9226 11.4596 11.9181C12.0048 11.9157 12.5486 11.9126 13.0993 11.9099C13.005 11.358 12.5158 10.9613 11.9121 10.949C11.2579 10.9356 10.6024 10.9428 9.94834 10.9552C9.84409 10.9573 9.72286 11.0066 9.6416 11.0733C9.15586 11.4674 8.62801 11.5257 8.08942 11.2208C7.00554 10.6073 5.92429 9.99074 4.84225 9.37554C4.78447 9.34274 4.69686 9.31343 4.68126 9.26371C4.64225 9.1394 4.58054 8.97289 4.63324 8.88465C4.68487 8.7967 4.86593 8.7538 4.99201 8.74809C5.08317 8.74388 5.18063 8.83119 5.272 8.88307C6.32151 9.4789 7.3718 10.0734 8.4208 10.6716C8.65999 10.8074 8.89533 10.814 9.12906 10.6615C9.33847 10.5246 9.44404 10.302 9.36898 10.0941C9.29862 9.89963 9.13693 9.6959 8.95815 9.58995C7.95319 8.99453 6.90749 8.46393 5.92137 7.841C4.64906 7.03871 3.38879 7.31464 2.08911 7.77518L2.72501 10.1484L2.72154 10.1482ZM0.813556 8.10462L1.43934 10.4401L2.05697 10.2746L1.43119 7.93912L0.813556 8.10462Z" fill="black"/>
<path fill-rule="evenodd" clip-rule="evenodd" d="M7.24468 1.95308C7.37366 1.78694 7.56209 1.77725 7.75602 1.81098C8.20734 1.89188 8.6589 1.96446 9.10822 2.05694C9.48232 2.13567 9.7905 2.10936 10.0602 1.77741C10.3681 1.39993 10.7319 1.06896 11.071 0.717317C11.206 0.577973 11.3498 0.480486 11.5666 0.539822C11.5716 0.539963 11.5765 0.543431 11.5815 0.545236C11.5866 0.545377 11.5915 0.548844 11.5965 0.550648C11.8078 0.62481 11.8688 0.786292 11.897 0.978476C11.9692 1.45982 12.0733 1.93873 12.1051 2.42393C12.1318 2.84907 12.3682 3.04543 12.7201 3.19676C13.1401 3.37664 13.5528 3.57794 13.9674 3.76931C14.1465 3.85256 14.2945 3.96821 14.3037 4.17817C14.3126 4.39811 14.1747 4.52406 13.9823 4.61685C13.4782 4.85902 12.9804 5.11634 12.478 5.36021C12.2856 5.45301 12.1844 5.58498 12.1581 5.80393C12.0978 6.33814 12.0206 6.87187 11.9369 7.4021C11.9062 7.59929 11.8714 7.81966 11.6342 7.89123C11.4072 7.95809 11.2479 7.82714 11.0993 7.67485C10.7287 7.29332 10.3512 6.91658 9.97712 6.53662C9.8938 6.45273 9.80967 6.39712 9.71469 6.36949C9.62148 6.33858 9.51913 6.33405 9.4026 6.35574C8.87574 6.45248 8.34901 6.54422 7.82373 6.64432C7.61432 6.68338 7.40719 6.70087 7.2612 6.51537C7.10868 6.32303 7.2101 6.12117 7.29907 5.94392C7.5394 5.46136 7.78635 4.98231 8.04818 4.512C8.15608 4.31864 8.14899 4.15201 8.04669 3.96607C7.77811 3.47922 7.52319 2.98443 7.25125 2.49749C7.14727 2.3115 7.10866 2.13068 7.24295 1.9547L7.24468 1.95308Z" fill="black"/>
</svg>
