<svg width="18" height="15" viewBox="0 0 18 15" fill="none" xmlns="http://www.w3.org/2000/svg">
<path d="M7.08067 4.99785L8.4165 3.65618V9.25035C8.4165 9.40506 8.47796 9.55343 8.58736 9.66282C8.69675 9.77222 8.84513 9.83368 8.99984 9.83368C9.15455 9.83368 9.30292 9.77222 9.41232 9.66282C9.52171 9.55343 9.58317 9.40506 9.58317 9.25035V3.65618L10.919 4.99785C10.9732 5.05252 11.0377 5.09592 11.1088 5.12553C11.1799 5.15515 11.2562 5.1704 11.3332 5.1704C11.4102 5.1704 11.4864 5.15515 11.5575 5.12553C11.6286 5.09592 11.6931 5.05252 11.7473 4.99785C11.802 4.94362 11.8454 4.8791 11.875 4.80802C11.9046 4.73693 11.9199 4.66069 11.9199 4.58368C11.9199 4.50667 11.9046 4.43043 11.875 4.35934C11.8454 4.28826 11.802 4.22374 11.7473 4.16951L9.414 1.83618C9.35853 1.78307 9.29311 1.74144 9.2215 1.71368C9.07948 1.65534 8.92019 1.65534 8.77817 1.71368C8.70657 1.74144 8.64115 1.78307 8.58567 1.83618L6.25234 4.16951C6.19795 4.2239 6.1548 4.28847 6.12537 4.35953C6.09593 4.4306 6.08078 4.50676 6.08078 4.58368C6.08078 4.6606 6.09593 4.73676 6.12537 4.80783C6.1548 4.87889 6.19795 4.94346 6.25234 4.99785C6.30673 5.05224 6.3713 5.09538 6.44236 5.12481C6.51342 5.15425 6.58959 5.1694 6.6665 5.1694C6.74342 5.1694 6.81959 5.15425 6.89065 5.12481C6.96171 5.09538 7.02628 5.05224 7.08067 4.99785ZM14.2498 7.50035C14.0951 7.50035 13.9468 7.5618 13.8374 7.6712C13.728 7.7806 13.6665 7.92897 13.6665 8.08368V11.5837C13.6665 11.7384 13.605 11.8868 13.4956 11.9962C13.3863 12.1056 13.2379 12.167 13.0832 12.167H4.9165C4.76179 12.167 4.61342 12.1056 4.50402 11.9962C4.39463 11.8868 4.33317 11.7384 4.33317 11.5837V8.08368C4.33317 7.92897 4.27171 7.7806 4.16232 7.6712C4.05292 7.5618 3.90455 7.50035 3.74984 7.50035C3.59513 7.50035 3.44675 7.5618 3.33736 7.6712C3.22796 7.7806 3.1665 7.92897 3.1665 8.08368V11.5837C3.1665 12.0478 3.35088 12.4929 3.67907 12.8211C4.00726 13.1493 4.45238 13.3337 4.9165 13.3337H13.0832C13.5473 13.3337 13.9924 13.1493 14.3206 12.8211C14.6488 12.4929 14.8332 12.0478 14.8332 11.5837V8.08368C14.8332 7.92897 14.7717 7.7806 14.6623 7.6712C14.5529 7.5618 14.4045 7.50035 14.2498 7.50035Z" fill="#3E7DB4"/>
</svg>
