<svg width="17" height="14" viewBox="0 0 17 14" fill="none" xmlns="http://www.w3.org/2000/svg">
<path d="M2.65232 5.56573C3.21402 5.39074 3.61551 5.59824 3.98401 5.9855C4.70028 6.73899 5.43822 7.47145 6.16957 8.21156C6.81609 8.8656 7.14124 9.65543 7.1469 10.5791C7.15161 11.3757 7.15067 12.1712 7.14878 12.9677C7.14878 13.2995 7.06396 13.3837 6.73599 13.3846C5.92641 13.3866 5.11684 13.3875 4.30727 13.3856C3.98212 13.3856 3.89636 13.2957 3.89448 12.9687C3.89259 12.6589 3.88599 12.3481 3.89636 12.0383C3.9105 11.5908 3.74839 11.2265 3.4355 10.9157C2.99254 10.4768 2.56655 10.0197 2.117 9.58754C1.65425 9.1429 1.41676 8.59117 1.26031 7.97824C0.867303 6.4397 0.454507 4.90594 0.0483074 3.37027C-0.0685573 2.9285 0.0115516 2.80897 0.455449 2.77073C1.30366 2.69805 2.0171 3.19815 2.24612 4.03292C2.38277 4.53206 2.51189 5.03312 2.65232 5.56477V5.56573ZM6.58519 11.6692C6.58519 11.2695 6.58708 10.8937 6.58519 10.5179C6.58048 9.77687 6.30811 9.14864 5.79541 8.62464C5.4288 8.2498 5.05935 7.87688 4.69179 7.50396C4.27052 7.07749 3.85301 6.64815 3.42702 6.22647C3.22627 6.02757 2.98218 6.00558 2.77107 6.14328C2.57692 6.27045 2.47325 6.51142 2.55619 6.73421C2.60331 6.86139 2.69944 6.97805 2.79557 7.07654C3.52786 7.82716 4.2658 8.57205 4.99998 9.32076C5.18282 9.50722 5.2092 9.67743 5.06878 9.79504C4.89725 9.93943 4.75305 9.86484 4.61451 9.72428C3.84453 8.94019 3.06888 8.16375 2.30267 7.37679C1.9417 7.00578 1.88044 6.55062 2.09438 6.08208C2.12737 6.01036 2.16412 5.91761 2.14622 5.84876C1.98883 5.23296 1.84086 4.61238 1.64577 4.00902C1.50346 3.56916 1.0492 3.30333 0.636401 3.35306C0.640171 3.38461 0.640171 3.41617 0.64771 3.44581C1.07182 5.05511 1.48367 6.66919 1.93416 8.27084C2.01804 8.57013 2.22821 8.8503 2.43367 9.09318C2.74562 9.46037 3.10093 9.79026 3.44304 10.1307C3.88599 10.5715 4.35345 10.9941 4.4345 11.6692H6.58613H6.58519ZM6.54561 12.2563H4.46843V12.8205C5.03296 12.8205 5.58242 12.8205 6.13187 12.8205C6.64645 12.8205 6.65211 12.8138 6.56729 12.286C6.56634 12.2793 6.55786 12.2735 6.54561 12.2563Z" fill="black"/>
<path d="M14.3424 5.54927C14.479 5.04057 14.61 4.54143 14.7476 4.04324C14.9908 3.16162 15.7419 2.65865 16.6288 2.77913C16.9605 2.82408 17.0538 2.94934 16.9709 3.2668C16.5261 4.95833 16.0803 6.64891 15.6288 8.33853C15.5082 8.79273 15.2745 9.18191 14.9427 9.51372C14.4724 9.98513 14.0106 10.4651 13.5394 10.9356C13.2472 11.2272 13.0917 11.5705 13.0974 11.9893C13.1021 12.3164 13.0993 12.6434 13.0974 12.9704C13.0955 13.286 13.006 13.3825 12.7053 13.3825C11.8873 13.3845 11.0683 13.3854 10.2502 13.3825C9.92603 13.3825 9.84592 13.2955 9.84592 12.9589C9.84592 12.1452 9.83744 11.3324 9.8478 10.5187C9.85817 9.66097 10.1532 8.90843 10.745 8.29359C11.5357 7.47221 12.3415 6.66421 13.1436 5.85335C13.4725 5.52059 13.7477 5.45078 14.3424 5.54736V5.54927ZM12.5593 11.6642C12.6403 11.1326 12.9287 10.7453 13.2887 10.3944C13.7175 9.97652 14.1322 9.54336 14.5526 9.11593C14.8212 8.84341 15.0068 8.52308 15.1048 8.15016C15.4045 7.0094 15.708 5.8696 16.0096 4.72884C16.1302 4.27082 16.2499 3.81375 16.3715 3.35095C15.8871 3.30601 15.4441 3.62729 15.298 4.13121C15.1397 4.67721 14.9983 5.22894 14.8617 5.78067C14.84 5.86865 14.8541 5.98148 14.8918 6.06467C15.1133 6.56094 15.0436 7.01705 14.6666 7.40049C13.9079 8.17215 13.1473 8.94095 12.3877 9.71069C12.3472 9.75181 12.3029 9.81875 12.2577 9.82066C12.1446 9.82544 11.991 9.83978 11.9288 9.77572C11.8665 9.71261 11.8713 9.55101 11.8948 9.44391C11.9118 9.36646 12.007 9.30431 12.0711 9.23928C12.8071 8.49248 13.5422 7.74473 14.2802 6.99889C14.4479 6.82868 14.5064 6.63266 14.431 6.40221C14.3631 6.19567 14.2001 6.05702 14.0088 6.07327C13.8297 6.08857 13.6223 6.17846 13.4932 6.30468C12.7675 7.01418 12.0871 7.77246 11.3425 8.45997C10.3831 9.34733 10.3313 10.4671 10.4255 11.6614H12.5602L12.5593 11.6642ZM10.4152 12.8059H12.5159V12.2504H10.4152V12.8059Z" fill="black"/>
<path fill-rule="evenodd" clip-rule="evenodd" d="M5.73528 2.16326C5.86426 1.99712 6.05269 1.98742 6.24662 2.02116C6.69794 2.10205 7.1495 2.17463 7.59882 2.26712C7.97292 2.34585 8.2811 2.31954 8.5508 1.98759C8.85874 1.61011 9.2225 1.27913 9.56164 0.927492C9.69659 0.788148 9.84044 0.69066 10.0572 0.749996C10.0622 0.750138 10.0671 0.753606 10.0721 0.75541C10.0772 0.755551 10.0821 0.759018 10.0871 0.760823C10.2984 0.834984 10.3594 0.996466 10.3876 1.18865C10.4598 1.66999 10.5639 2.1489 10.5957 2.6341C10.6224 3.05924 10.8588 3.2556 11.2107 3.40694C11.6307 3.58681 12.0434 3.78811 12.458 3.97949C12.6371 4.06273 12.7851 4.17839 12.7943 4.38835C12.8032 4.60829 12.6653 4.73423 12.4729 4.82703C11.9688 5.06919 11.471 5.32651 10.9686 5.57039C10.7762 5.66318 10.675 5.79515 10.6487 6.0141C10.5884 6.54831 10.5112 7.08205 10.4275 7.61227C10.3968 7.80946 10.362 8.02984 10.1248 8.10141C9.89783 8.16827 9.73855 8.03732 9.58994 7.88503C9.21929 7.50349 8.84178 7.12676 8.46772 6.7468C8.3844 6.66291 8.30027 6.60729 8.20529 6.57967C8.11208 6.54876 8.00973 6.54422 7.8932 6.56592C7.36634 6.66265 6.83961 6.75439 6.31433 6.8545C6.10492 6.89356 5.89779 6.91105 5.7518 6.72555C5.59928 6.5332 5.7007 6.33134 5.78967 6.15409C6.03 5.67153 6.27695 5.19248 6.53878 4.72217C6.64668 4.52881 6.63959 4.36219 6.53729 4.17624C6.26871 3.6894 6.01379 3.19461 5.74185 2.70767C5.63787 2.52168 5.59926 2.34085 5.73355 2.16487L5.73528 2.16326Z" fill="black"/>
</svg>
