<svg width="18" height="18" viewBox="0 0 18 18" fill="none" xmlns="http://www.w3.org/2000/svg">
<path d="M0.142708 6.58683L6.80243 12.4576C7.11163 12.7302 7.61111 12.5415 7.61111 12.1641V9.18675C7.75382 9.18675 7.89653 9.16579 8.01546 9.16579C11.0599 9.16579 13.5335 11.3254 13.5335 13.9673C13.5335 15.0575 13.1054 16.0011 12.2491 16.9027C11.9162 17.2381 12.3681 17.7623 12.82 17.5526C15.8168 16.2107 17.6007 13.7157 17.6007 10.8851C17.6007 6.64973 13.6287 3.23209 8.729 3.23209C8.34844 3.23209 7.9441 3.25306 7.61111 3.29499V0.422493C7.61111 0.0450843 7.11163 -0.14362 6.80243 0.128953L0.142708 5.99975C-0.0475695 6.16749 -0.0475695 6.41909 0.142708 6.58683ZM1.14167 6.29329L6.65973 1.42891V3.77723C6.65973 4.02884 6.92136 4.23851 7.23056 4.19658C7.61111 4.13367 8.18195 4.04981 8.75278 4.04981C13.1054 4.04981 16.6493 7.11101 16.6493 10.8851C16.6493 12.7931 15.7217 14.5543 14.1043 15.7914C14.3422 15.2253 14.4849 14.6172 14.4849 13.9882C14.4849 10.8641 11.5832 8.34807 8.01546 8.34807C7.27813 8.34807 6.65973 8.34807 6.65973 8.80934V11.1577L1.14167 6.29329Z" fill="black"/>
</svg>
