<svg width="18" height="18" viewBox="0 0 18 18" fill="none" xmlns="http://www.w3.org/2000/svg">
<path fill-rule="evenodd" clip-rule="evenodd" d="M12.8926 11.0561L17.7343 15.6675C17.9045 15.8297 18.0001 16.0496 18 16.2789C17.9999 16.5082 17.9042 16.7281 17.7339 16.8902C17.5636 17.0523 17.3327 17.1433 17.0919 17.1432C16.8511 17.1431 16.6203 17.052 16.4501 16.8898L11.6083 12.2784C10.1609 13.3461 8.34083 13.8485 6.51828 13.6835C4.69573 13.5185 3.00764 12.6984 1.79742 11.39C0.587202 10.0817 -0.054236 8.38333 0.00359653 6.64053C0.0614291 4.89773 0.814188 3.24137 2.10874 2.00841C3.40329 0.775453 5.14238 0.0585066 6.97224 0.00342542C8.80209 -0.0516558 10.5853 0.559266 11.959 1.71191C13.3327 2.86455 14.1937 4.47233 14.367 6.20817C14.5403 7.94402 14.0127 9.67753 12.8917 11.0561H12.8926ZM7.20033 11.9998C8.63244 11.9998 10.0059 11.4579 11.0185 10.4935C12.0312 9.529 12.6001 8.22089 12.6001 6.85692C12.6001 5.49295 12.0312 4.18485 11.0185 3.22037C10.0059 2.2559 8.63244 1.71407 7.20033 1.71407C5.76823 1.71407 4.39479 2.2559 3.38214 3.22037C2.36949 4.18485 1.80059 5.49295 1.80059 6.85692C1.80059 8.22089 2.36949 9.529 3.38214 10.4935C4.39479 11.4579 5.76823 11.9998 7.20033 11.9998Z" fill="#AEAEAE"/>
</svg>
