<svg width="16" height="18" viewBox="0 0 16 18" fill="none" xmlns="http://www.w3.org/2000/svg">
<path d="M12.2133 11.6074C11.3114 11.6074 10.5034 12.0343 9.99611 12.6839L5.43022 10.0669C5.71206 9.38023 5.71206 8.61929 5.43022 7.93258L9.99611 5.31566C10.5034 5.96525 11.3114 6.39213 12.2133 6.39213C13.7728 6.39213 15.0317 5.14863 15.0317 3.60817C15.0317 2.06772 13.7728 0.824219 12.2133 0.824219C10.6537 0.824219 9.39484 2.06772 9.39484 3.60817C9.39484 3.97937 9.46999 4.35056 9.60152 4.66607L5.03563 7.30155C4.50952 6.65196 3.72036 6.22509 2.81845 6.22509C1.25891 6.22509 0 7.46859 0 9.00904C0 10.5495 1.25891 11.793 2.81845 11.793C3.72036 11.793 4.52831 11.3661 5.03563 10.7165L9.60152 13.3334C9.46999 13.649 9.39484 14.0202 9.39484 14.3914C9.39484 15.9318 10.6537 17.1753 12.2133 17.1753C13.7728 17.1753 15.0317 15.9318 15.0317 14.3914C15.0317 12.8509 13.7728 11.6074 12.2133 11.6074ZM12.2133 1.58517C13.3595 1.58517 14.2802 2.49459 14.2802 3.62673C14.2802 4.75887 13.3595 5.6683 12.2133 5.6683C11.0671 5.6683 10.1464 4.75887 10.1464 3.62673C10.1464 2.49459 11.0671 1.58517 12.2133 1.58517ZM2.81845 11.0506C1.67228 11.0506 0.751587 10.1412 0.751587 9.00904C0.751587 7.8769 1.67228 6.96748 2.81845 6.96748C3.96462 6.96748 4.88531 7.8769 4.88531 9.00904C4.88531 10.1412 3.96462 11.0506 2.81845 11.0506ZM12.2133 16.4329C11.0671 16.4329 10.1464 15.5235 10.1464 14.3914C10.1464 13.2592 11.0671 12.3498 12.2133 12.3498C13.3595 12.3498 14.2802 13.2592 14.2802 14.3914C14.2802 15.5235 13.3595 16.4329 12.2133 16.4329Z" fill="#3E7DB4"/>
</svg>
