<svg width="17" height="18" viewBox="0 0 17 18" fill="none" xmlns="http://www.w3.org/2000/svg">
<path d="M13.1467 11.6073C12.1758 11.6073 11.3061 12.0668 10.7601 12.766L5.84522 9.94909C6.1486 9.2099 6.1486 8.3908 5.84522 7.65161L10.7601 4.8347C11.3061 5.53393 12.1758 5.99343 13.1467 5.99343C14.8254 5.99343 16.1805 4.6549 16.1805 2.99671C16.1805 1.33853 14.8254 0 13.1467 0C11.4679 0 10.1128 1.33853 10.1128 2.99671C10.1128 3.39628 10.1937 3.79584 10.3353 4.13547L5.42048 6.97235C4.85416 6.27312 4.00468 5.81363 3.03385 5.81363C1.35512 5.81363 0 7.15216 0 8.81034C0 10.4685 1.35512 11.8071 3.03385 11.8071C4.00468 11.8071 4.87438 11.3476 5.42048 10.6483L10.3353 13.4652C10.1937 13.8049 10.1128 14.2044 10.1128 14.604C10.1128 16.2622 11.4679 17.6007 13.1467 17.6007C14.8254 17.6007 16.1805 16.2622 16.1805 14.604C16.1805 12.9458 14.8254 11.6073 13.1467 11.6073ZM13.1467 0.819102C14.3804 0.819102 15.3715 1.79803 15.3715 3.01669C15.3715 4.23536 14.3804 5.21428 13.1467 5.21428C11.9129 5.21428 10.9219 4.23536 10.9219 3.01669C10.9219 1.79803 11.9129 0.819102 13.1467 0.819102ZM3.03385 11.0079C1.80008 11.0079 0.809026 10.029 0.809026 8.81034C0.809026 7.59168 1.80008 6.61275 3.03385 6.61275C4.26761 6.61275 5.25867 7.59168 5.25867 8.81034C5.25867 10.029 4.26761 11.0079 3.03385 11.0079ZM13.1467 16.8016C11.9129 16.8016 10.9219 15.8227 10.9219 14.604C10.9219 13.3853 11.9129 12.4064 13.1467 12.4064C14.3804 12.4064 15.3715 13.3853 15.3715 14.604C15.3715 15.8227 14.3804 16.8016 13.1467 16.8016Z" fill="black"/>
</svg>
