<svg width="18" height="19" viewBox="0 0 18 19" fill="none" xmlns="http://www.w3.org/2000/svg">
    <path fill-rule="evenodd" clip-rule="evenodd"
        d="M0.577109 4.22119C0.881408 3.82921 1.32597 3.80634 1.78351 3.88593C2.84833 4.07678 3.91369 4.24802 4.97377 4.46623C5.85641 4.65197 6.58348 4.58991 7.2198 3.80673C7.94634 2.91614 8.80455 2.13526 9.60468 1.30563C9.92306 0.976874 10.2625 0.746871 10.7738 0.886863C10.7857 0.887196 10.7973 0.895379 10.8091 0.899636C10.821 0.899969 10.8327 0.908149 10.8444 0.912405C11.3429 1.08738 11.4868 1.46836 11.5533 1.92179C11.7236 3.05742 11.9694 4.18732 12.0443 5.33205C12.1073 6.3351 12.6651 6.79838 13.4954 7.15542C14.4862 7.5798 15.4599 8.05473 16.4381 8.50624C16.8606 8.70264 17.2097 8.97551 17.2315 9.47087C17.2526 9.98978 16.9272 10.2869 16.4732 10.5059C15.2839 11.0772 14.1095 11.6843 12.9241 12.2597C12.4701 12.4786 12.2315 12.79 12.1694 13.3065C12.0271 14.5669 11.8451 15.8262 11.6475 17.0771C11.575 17.5424 11.493 18.0623 10.9334 18.2311C10.3979 18.3889 10.0221 18.0799 9.67146 17.7206C8.79697 16.8205 7.90631 15.9316 7.02379 15.0352C6.8272 14.8373 6.62873 14.7061 6.40463 14.6409C6.18472 14.568 5.94324 14.5573 5.66832 14.6084C4.42528 14.8367 3.18257 15.0531 1.94327 15.2893C1.4492 15.3814 0.960526 15.4227 0.616079 14.9851C0.256229 14.5313 0.495513 14.055 0.705421 13.6368C1.27244 12.4983 1.85507 11.3681 2.47281 10.2585C2.72738 9.80228 2.71066 9.40915 2.46929 8.97046C1.83563 7.82183 1.23419 6.65447 0.592601 5.50562C0.347275 5.06681 0.256194 4.64019 0.573035 4.225L0.577109 4.22119Z"
        fill="#FF9543" />
</svg>