<svg width="18" height="19" viewBox="0 0 18 19" fill="none" xmlns="http://www.w3.org/2000/svg">
    <path
        d="M10.6309 1.3667C10.6334 1.36767 10.636 1.36888 10.6386 1.36985L10.6793 1.38467C10.824 1.43559 10.8907 1.50268 10.9348 1.57452C10.9885 1.66228 11.029 1.79131 11.0588 1.99418L11.0587 1.99613C11.2136 3.02873 11.4137 3.97741 11.5104 4.94746L11.5456 5.36462C11.5833 5.96162 11.7737 6.43752 12.1066 6.81647C12.429 7.1833 12.8545 7.42424 13.2976 7.61482L13.2986 7.61485C13.79 7.8253 14.2744 8.04775 14.7602 8.27425L16.2288 8.96022C16.4128 9.04585 16.5382 9.12983 16.6173 9.21536C16.6688 9.27115 16.7045 9.33134 16.7213 9.40878L16.7316 9.49309C16.7369 9.62988 16.7004 9.71423 16.6424 9.78562C16.5727 9.87111 16.4515 9.96076 16.2557 10.0552C15.6708 10.3362 15.071 10.6357 14.4736 10.9343L12.7071 11.8089C12.4271 11.9439 12.1812 12.1238 11.9966 12.3761C11.8112 12.6296 11.7121 12.9236 11.6732 13.2473L11.6722 13.2502C11.531 14.5005 11.3507 15.752 11.1538 16.9988L11.1538 16.9998C11.1152 17.2476 11.0847 17.4193 11.022 17.551C10.9738 17.6523 10.9142 17.7139 10.7898 17.7516C10.6564 17.7904 10.559 17.7741 10.4565 17.7227C10.3631 17.676 10.2653 17.6001 10.1503 17.4914L10.0296 17.3718C9.15427 16.4707 8.25796 15.5757 7.38029 14.6841L7.37836 14.6831L7.19359 14.5138C7.00667 14.3593 6.79966 14.2379 6.56149 14.1658L6.56247 14.1659C6.32614 14.0875 6.08139 14.0633 5.83013 14.0828L5.57713 14.1167C4.34117 14.3437 3.08994 14.5613 1.84954 14.7977C1.60834 14.8426 1.43391 14.8608 1.29538 14.8407C1.18081 14.8241 1.09317 14.7825 1.00889 14.6754L1.00794 14.6744L0.962023 14.6047C0.927198 14.5362 0.923806 14.4698 0.938843 14.3862C0.964796 14.2421 1.03986 14.084 1.1519 13.8607L1.15291 13.8598C1.7179 12.7253 2.29726 11.6028 2.90983 10.5025C3.07023 10.215 3.16065 9.9168 3.15686 9.60181C3.15307 9.28861 3.05664 8.9998 2.90779 8.72925L2.90681 8.72922C2.29259 7.61584 1.66069 6.39384 1.02867 5.26211L1.02869 5.26114C0.923565 5.07299 0.877966 4.93193 0.870967 4.82393C0.865245 4.73513 0.883812 4.64575 0.966006 4.53546L0.972082 4.52782C1.04655 4.43189 1.12765 4.38696 1.2287 4.36503C1.34404 4.34 1.49613 4.34269 1.69534 4.37714L1.69531 4.37811C2.77127 4.57097 3.81973 4.73838 4.87083 4.95467L4.8708 4.95565C5.34362 5.05515 5.83081 5.10171 6.30703 4.98616C6.79801 4.867 7.23 4.58731 7.60814 4.12191L7.60719 4.1209C8.31673 3.25137 9.13341 2.51445 9.96442 1.65282L9.96347 1.65181C10.1064 1.50429 10.2164 1.42133 10.314 1.37931C10.3933 1.34521 10.4872 1.32937 10.6309 1.3667ZM10.6194 1.35954C10.6204 1.36001 10.6223 1.36073 10.6242 1.36163C10.6257 1.36234 10.6283 1.36254 10.631 1.36378C10.6278 1.36244 10.6249 1.36235 10.6232 1.3616L10.6194 1.35954ZM10.5884 1.3489C10.5897 1.34952 10.592 1.34998 10.5942 1.35102C10.5915 1.34985 10.5889 1.34953 10.5874 1.34888L10.5855 1.34687C10.5864 1.34728 10.5872 1.34835 10.5884 1.3489Z"
        fill="white" stroke="#FF9543" />
</svg>