<svg width="1200" height="630" viewBox="0 0 1200 630" fill="none" xmlns="http://www.w3.org/2000/svg">
<rect width="1200" height="630" fill="#FF9543"/>
<g clip-path="url(#clip0_2521_1061)">
<path d="M357.323 293.662C361.1 289.421 363.229 284.663 363.658 279.462C363.722 278.932 363.956 278.554 364.449 278.226C364.943 277.897 365.488 277.746 366.15 277.796L379.053 278.465C379.728 278.516 380.274 278.705 380.637 279.084C381.065 279.412 381.247 279.841 381.247 280.371C380.819 285.66 379.001 290.898 375.834 296.237C372.667 301.525 368.162 305.627 362.204 308.581C357.881 310.537 353.506 311.345 349.002 311.054C344.562 310.726 340.304 309.388 336.345 307.053C330.439 303.481 326.31 298.382 323.805 291.907C321.3 285.433 320.508 278.503 321.3 271.221C322.092 263.887 324.519 257.211 328.478 251.215C332.49 245.169 337.968 240.828 345.029 238.114C351.364 236.019 357.44 235.918 363.346 237.824C369.188 239.679 373.627 243.163 376.73 248.211C378.924 252.212 380.014 256.403 380.014 260.782C380.014 261.313 379.767 261.729 379.339 262.07C378.911 262.449 378.365 262.6 377.69 262.638L364.787 262.739C364.112 262.739 363.567 262.6 363.138 262.259C362.645 261.931 362.463 261.502 362.411 260.972C362.165 255.494 360.399 252.061 357.245 250.736C354.025 249.36 350.365 250.685 346.289 254.686C342.096 259.445 339.59 265.351 338.798 272.357C338.007 279.412 339.097 285.597 341.966 290.885C343.913 294.217 346.224 296.262 348.846 296.981C351.52 297.739 354.324 296.653 357.31 293.649L357.323 293.662Z" fill="white"/>
<path d="M649.556 277.116C652.113 278.656 654.787 279.602 657.643 280.019C660.499 280.498 663.42 280.498 666.289 280.082C669.21 279.665 672.013 278.959 674.753 277.898C675.363 277.722 675.908 277.722 676.518 277.962C677.063 278.201 677.427 278.618 677.738 279.198L682.36 290.974C682.606 291.568 682.606 292.098 682.36 292.691C682.113 293.221 681.685 293.575 681.087 293.877C673.662 296.654 666.12 297.841 658.396 297.374C650.672 296.844 643.546 294.243 637.094 289.447C637.522 295.96 638.184 302.46 639.106 308.973C639.171 309.566 639.041 310.159 638.678 310.626C638.314 311.093 637.769 311.333 637.159 311.459L624.255 313.176C623.645 313.239 623.035 313.062 622.555 312.696C622.075 312.33 621.828 311.863 621.698 311.22C617.869 281.811 617.804 252.415 621.633 223.007C621.75 222.123 621.815 221.353 621.88 220.634C622.062 219.094 622.243 217.971 622.49 217.327C622.737 216.62 623.217 216.204 623.944 216.027C624.619 215.85 625.826 215.737 627.41 215.737C628.085 215.674 628.929 215.674 629.85 215.623C634.9 215.27 640.261 215.383 645.921 215.977C651.516 216.57 656.877 217.87 661.992 219.877C667.042 221.947 671.3 224.963 674.714 229.053C678.309 233.672 680.062 238.582 680.062 243.845C679.997 249.108 678.413 254.145 675.311 258.928C672.325 263.308 668.612 267.031 664.056 270.048C659.551 273.127 654.748 275.437 649.569 277.141L649.556 277.116ZM638.119 232.511C637.029 242.57 636.471 252.744 636.354 262.866C640.923 262.096 645.363 260.683 649.803 258.549C654.307 256.416 657.838 253.463 660.447 249.74C661.538 248.086 662.213 246.433 662.394 244.653C662.641 242.936 662.096 241.283 660.876 239.63C658.383 236.903 654.969 235.01 650.594 234.013C646.207 233.066 642.014 232.536 638.119 232.536V232.511Z" fill="white"/>
<path d="M393.071 245.89C393.071 243.77 392.863 240.438 392.461 235.919C392.046 231.401 391.851 228.005 391.851 225.746C391.851 220.697 392.811 216.444 394.72 212.986C396.083 209.666 399.237 208 404.157 208C405.935 208 407.571 208.328 409.077 208.997C410.855 210.057 411.738 212.784 411.738 217.176C410.102 230.87 409.272 239.781 409.272 243.909C409.272 250.56 410.089 256.606 411.738 262.059C419.942 248.225 428.692 241.321 437.999 241.321C440.595 241.321 443.192 241.851 445.788 242.911C451.798 267.246 454.81 284.929 454.81 295.96C454.81 299.154 454.667 302.271 454.395 305.338C454.252 306.928 453.2 308.266 451.214 309.327C449.228 310.387 447.073 310.917 444.749 310.917C442.556 310.917 441.608 310.412 440.518 309.339C437.921 306.815 435.325 297.98 434.287 288.577C434.196 287.781 434.287 286.481 434.287 284.689V280.6C434.287 272.358 433.053 265.908 430.6 261.251C430.73 261.491 424.68 267.637 424.135 268.306C421.773 271.159 419.566 274.112 417.463 277.154C415.048 280.663 412.919 284.348 410.829 288.059C408.908 291.467 407.493 296.011 403.703 297.652C402.275 298.27 400.756 298.472 399.198 298.346C397.29 298.182 395.473 297.563 393.629 297.109C392.279 296.781 390.384 296.213 390.384 294.559C390.384 289.107 390.825 280.991 391.721 270.225C392.604 259.458 393.058 251.343 393.058 245.89H393.071Z" fill="white"/>
<path d="M357.321 390.85C361.099 386.609 363.228 381.851 363.656 376.651C363.721 376.12 363.955 375.742 364.448 375.414C364.941 375.085 365.486 374.934 366.149 374.984L379.052 375.653C379.727 375.704 380.272 375.893 380.636 376.272C381.064 376.6 381.246 377.029 381.246 377.559C380.817 382.848 379 388.086 375.833 393.425C372.665 398.713 368.161 402.815 362.202 405.769C357.879 407.725 353.505 408.533 349 408.243C344.561 407.914 340.303 406.576 336.344 404.241C330.437 400.67 326.309 395.57 323.804 389.095C321.298 382.621 320.519 375.704 321.311 368.421C322.103 361.088 324.531 354.411 328.49 348.416C332.501 342.37 337.979 338.028 345.041 335.315C351.376 333.219 357.451 333.118 363.358 335.024C369.199 336.88 373.639 340.363 376.741 345.412C378.935 349.413 380.025 353.603 380.025 357.983C380.025 358.513 379.779 358.93 379.35 359.271C378.922 359.649 378.377 359.801 377.702 359.839L364.798 359.939C364.123 359.939 363.578 359.801 363.15 359.46C362.657 359.132 362.475 358.703 362.423 358.172C362.176 352.695 360.411 349.262 357.256 347.936C354.037 346.561 350.376 347.886 346.3 351.887C342.107 356.645 339.602 362.552 338.81 369.557C338.018 376.613 339.109 382.797 341.977 388.086C343.925 391.418 346.235 393.463 348.857 394.182C351.532 394.939 354.336 393.854 357.321 390.85Z" fill="white"/>
<path d="M393.071 343.077C393.071 340.956 392.863 337.624 392.461 333.106C392.046 328.587 391.851 325.192 391.851 322.933C391.851 317.884 392.811 313.63 394.72 310.172C396.083 306.853 399.237 305.187 404.157 305.187C405.935 305.187 407.571 305.515 409.077 306.184C410.855 307.244 411.738 309.97 411.738 314.362C410.102 328.057 409.272 336.968 409.272 341.095C409.272 347.747 410.089 353.792 411.738 359.245C419.942 345.412 428.692 338.508 437.999 338.508C440.595 338.508 443.192 339.038 445.788 340.098C451.798 364.433 454.81 382.115 454.81 393.147C454.81 396.34 454.667 399.458 454.395 402.525C454.252 404.115 453.2 405.453 451.214 406.513C449.228 407.573 447.073 408.103 444.749 408.103C442.556 408.103 441.608 407.599 440.518 406.526C437.921 404.001 435.325 395.166 434.287 385.763C434.196 384.968 434.287 383.668 434.287 381.876V377.786C434.287 369.544 433.053 363.095 430.6 358.437C430.73 358.677 424.68 364.824 424.135 365.493C421.773 368.345 419.566 371.299 417.463 374.341C415.048 377.849 412.919 381.535 410.829 385.246C408.908 388.653 407.493 393.197 403.703 394.838C402.275 395.457 400.756 395.658 399.198 395.532C397.29 395.368 395.473 394.75 393.629 394.295C392.279 393.967 390.384 393.399 390.384 391.746C390.384 386.293 390.825 378.178 391.721 367.411C392.604 356.645 393.058 348.529 393.058 343.077H393.071Z" fill="white"/>
<path d="M525.249 247.483L488.46 270.013C486.617 271.136 486.552 273.723 488.317 274.96C490.537 276.5 492.99 277.447 495.678 277.8C499.754 278.318 503.869 277.308 508.023 274.771C512.449 272.057 515.461 268.347 517.032 263.626C517.395 262.541 518.382 261.771 519.537 261.632L528.235 260.584C530.273 260.344 531.947 262.086 531.623 264.055C530.961 268.018 529.598 271.603 527.56 274.809C524.859 279.037 520.835 282.798 515.474 286.08C507.166 291.167 498.741 292.769 490.225 290.864C481.697 288.97 474.947 284.187 469.988 276.513C464.899 268.649 463.276 260.534 465.12 252.153C466.963 243.772 471.818 237.171 479.672 232.362C488.019 227.251 496.482 225.698 505.063 227.692C513.657 229.686 520.705 234.937 526.223 243.457C527.079 244.845 526.638 246.637 525.236 247.496L525.249 247.483ZM507.893 243.898C505.154 241.563 501.909 240.289 498.157 240.074C494.405 239.86 490.823 240.794 487.409 242.889C483.696 245.161 481.1 248.165 479.62 251.888C478.685 254.223 478.503 257.441 479.062 261.544L507.88 243.898H507.893Z" fill="white"/>
<path d="M595.968 245.816L560.711 270.542C558.946 271.779 559.05 274.353 560.893 275.477C563.204 276.89 565.709 277.673 568.422 277.862C572.524 278.14 576.574 276.878 580.547 274.076C584.791 271.097 587.556 267.21 588.816 262.401C589.101 261.303 590.036 260.47 591.191 260.255L599.811 258.677C601.836 258.311 603.614 259.952 603.407 261.934C602.991 265.935 601.875 269.595 600.044 272.915C597.63 277.307 593.852 281.295 588.712 284.893C580.754 290.484 572.446 292.592 563.814 291.216C555.181 289.84 548.132 285.486 542.68 278.14C537.098 270.605 534.943 262.603 536.254 254.121C537.553 245.639 541.966 238.76 549.495 233.485C557.492 227.881 565.839 225.798 574.536 227.262C583.234 228.726 590.62 233.535 596.682 241.701C597.63 243.027 597.305 244.844 595.955 245.791L595.968 245.816ZM574.471 246.056C576.483 244.642 576.016 241.575 573.654 240.83C572.031 240.313 570.291 240.06 568.461 240.073C564.709 240.086 561.191 241.247 557.92 243.531C554.363 246.018 551.975 249.173 550.729 252.998C550.326 254.222 550.131 255.673 550.157 257.34C550.196 259.75 552.987 261.139 554.999 259.725L574.471 246.056Z" fill="white"/>
<path fill-rule="evenodd" clip-rule="evenodd" d="M483.186 308.974C481.065 308.382 478.936 307.643 477.165 306.652C476.182 306.103 476.054 304.807 476.781 303.946L480.789 299.2C481.488 298.372 482.782 298.166 483.796 298.546C484.377 298.763 485.119 299.008 486.049 299.268C488.498 299.95 491.746 300.6 495.723 301.172C503.663 302.313 514.123 303.092 526.111 303.317C549.522 303.755 578.36 302.07 605.024 297.039C606.101 296.835 607.145 297.53 607.367 298.603L608.605 304.585C608.831 305.675 608.124 306.739 607.03 306.946C579.499 312.144 549.902 313.861 525.911 313.412C513.624 313.182 502.702 312.382 494.204 311.16C489.962 310.55 486.228 309.822 483.186 308.974Z" fill="white"/>
<path d="M839.978 370.807C839.978 381.409 840.536 391.973 841.64 402.424C841.691 402.966 841.536 403.396 841.237 403.787C840.939 404.178 840.484 404.418 839.978 404.519L829.32 405.743C828.762 405.794 828.321 405.642 827.918 405.352C827.516 405.062 827.269 404.62 827.217 404.077C826.166 394.649 825.556 383.163 825.452 369.671C825.4 356.178 825.647 344.654 826.309 335.125C826.361 334.633 826.555 334.242 826.867 333.901C827.217 333.611 827.672 333.409 828.178 333.409L838.836 333.257C839.394 333.257 839.796 333.409 840.147 333.699C840.497 333.989 840.744 334.431 840.796 334.923C841.601 342.547 843.561 349.097 846.572 354.474C849.636 359.851 853.66 365.329 858.632 370.895C860.294 372.801 861.851 374.656 863.461 376.612C863.565 369.532 863.565 361.946 863.357 353.843C863.162 345.727 862.76 338.255 862.046 331.465C861.994 330.922 862.15 330.493 862.449 330.102C862.799 329.71 863.201 329.521 863.76 329.42L874.417 328.398C874.975 328.347 875.417 328.499 875.819 328.789C876.17 329.079 876.416 329.521 876.468 330.064C877.429 339.353 877.922 350.448 877.974 363.347C878.078 376.246 877.818 387.341 877.169 396.719C877.065 398.864 876.819 401.023 876.572 403.168C876.52 403.61 876.325 404.001 876.014 404.292C875.663 404.582 875.261 404.733 874.807 404.784L864.305 405.415C863.85 405.466 863.448 405.365 863.098 405.125C862.747 404.834 862.5 404.494 862.345 404.052C860.943 399.167 858.827 394.712 856.114 390.812C853.349 386.899 850.337 383.087 847.066 379.427C844.651 376.688 842.289 373.81 839.978 370.832V370.807Z" fill="white"/>
<path d="M511.072 348.656H521.729C522.794 348.656 523.664 349.501 523.664 350.536V403.08C523.664 404.115 522.794 404.961 521.729 404.961H511.072C510.007 404.961 509.137 404.115 509.137 403.08C509.137 401.528 507.307 400.657 506.022 401.591C504.218 402.916 502.413 403.951 500.596 404.683C497.74 405.844 494.65 406.412 491.314 406.412C483.837 406.412 477.372 403.598 471.907 397.956C466.442 392.314 463.716 385.296 463.716 376.916C463.716 368.535 466.351 361.101 471.635 355.547C476.918 349.994 483.331 347.217 490.886 347.217C494.365 347.217 497.623 347.86 500.661 349.135C502.517 349.918 504.295 350.928 505.983 352.19C507.268 353.149 509.112 352.291 509.112 350.713V350.549C509.112 349.514 509.981 348.668 511.046 348.668L511.072 348.656ZM493.859 360.255C489.367 360.255 485.641 361.795 482.669 364.887C479.696 367.979 478.216 371.93 478.216 376.764C478.216 382.229 480.124 386.596 483.928 389.891C486.628 392.213 490.185 393.463 493.781 393.488C498.402 393.513 502.231 391.973 505.256 388.856C508.255 385.763 509.761 381.724 509.761 376.714C509.761 371.703 508.255 367.841 505.256 364.811C502.244 361.77 498.454 360.255 493.846 360.255H493.859Z" fill="white"/>
<path d="M540.266 348.654H550.768C551.884 348.654 552.78 349.525 552.78 350.61C552.78 352.277 554.74 353.135 556.077 352.112C557.648 350.913 559.309 349.929 561.062 349.172C564.099 347.859 567.41 347.203 570.992 347.203C574.575 347.203 577.885 348.061 580.793 349.79C582.974 351.09 584.843 352.819 586.388 355.015C587.141 356.076 588.738 356.063 589.595 355.079C591.542 352.857 593.775 351.103 596.319 349.79C599.668 348.061 603.342 347.203 607.314 347.203C611.286 347.203 615.051 348.137 618.179 349.992C621.308 351.847 623.554 354.283 624.917 357.287C626.28 360.291 626.968 365.176 626.968 371.928V402.99C626.968 404.076 626.072 404.947 624.956 404.947H614.35C613.233 404.947 612.338 404.076 612.338 402.99V376.384C612.338 369.997 611.52 365.681 609.884 363.421C608.249 361.162 605.808 360.026 602.537 360.026C600.057 360.026 597.825 360.72 595.852 362.096C593.878 363.472 592.424 365.378 591.464 367.814C590.503 370.25 590.023 374.15 590.023 379.539V402.99C590.023 404.076 589.127 404.947 588.011 404.947H577.405C576.289 404.947 575.393 404.076 575.393 402.99V377.671C575.393 372.635 575.017 368.988 574.251 366.728C573.485 364.469 572.342 362.79 570.811 361.68C569.279 360.582 567.436 360.026 565.268 360.026C562.853 360.026 560.646 360.72 558.673 362.121C556.7 363.522 555.22 365.479 554.247 367.99C553.273 370.502 552.78 374.478 552.78 379.893V402.978C552.78 404.063 551.884 404.934 550.768 404.934H540.266C539.149 404.934 538.254 404.063 538.254 402.978V350.585C538.254 349.5 539.149 348.629 540.266 348.629V348.654Z" fill="white"/>
<path d="M726.665 307.57C729.456 307.633 731.857 308.656 733.87 310.637C735.882 312.619 736.998 315.168 736.998 318.097C736.998 321.025 735.972 323.436 733.908 325.468C731.844 327.5 729.378 328.51 726.509 328.51C723.64 328.51 721.044 327.475 718.954 325.405C716.877 323.335 715.826 320.823 715.826 317.857C715.826 315.131 716.773 312.796 718.668 310.827C720.72 308.706 723.679 307.495 726.678 307.57H726.665ZM718.798 334.076H733.934C734.337 334.076 734.674 334.391 734.674 334.795V397.727C734.674 398.118 734.35 398.446 733.934 398.446H718.798C718.396 398.446 718.058 398.131 718.058 397.727V334.795C718.058 334.404 718.383 334.076 718.798 334.076Z" fill="white"/>
<path d="M780.86 332.426C787.104 332.426 792.985 333.941 798.476 336.983C803.967 340.025 808.264 344.139 811.341 349.352C814.417 354.565 815.962 360.181 815.962 366.214C815.962 372.248 814.404 377.965 811.302 383.254C808.199 388.542 803.967 392.669 798.619 395.648C793.271 398.627 787.364 400.116 780.912 400.116C771.423 400.116 763.323 396.835 756.598 390.271C749.874 383.708 746.525 375.731 746.525 366.341C746.525 356.281 750.316 347.9 757.91 341.198C764.556 335.367 772.215 332.439 780.847 332.439L780.86 332.426ZM759.766 367.767C760 372.778 762.193 376.867 766.347 380.022C770.501 383.178 775.681 384.617 781.899 384.339C788.117 384.061 793.4 382.168 797.217 378.697C801.02 375.226 802.812 370.96 802.565 365.911C802.319 360.863 800.112 356.748 795.945 353.568C791.778 350.399 786.533 348.948 780.224 349.238C773.916 349.529 768.866 351.397 765.075 354.88C761.285 358.351 759.519 362.655 759.766 367.792V367.767Z" fill="white"/>
<path fill-rule="evenodd" clip-rule="evenodd" d="M657.799 338.057C656.28 339.167 654.112 338.158 654.112 336.302L654.099 336.327C654.099 335.103 653.074 334.106 651.815 334.106H639.898C638.639 334.106 637.613 335.103 637.613 336.327V419.794C637.613 421.019 638.639 422.016 639.898 422.016H651.815C653.074 422.016 654.099 421.019 654.099 419.794V396.419C654.099 394.576 656.254 393.579 657.76 394.677C659.798 396.154 661.849 397.315 663.9 398.136C667.184 399.461 670.728 400.117 674.545 400.117C683.1 400.117 690.512 396.886 696.756 390.449C703 384.012 706.128 376.351 706.128 366.405C706.128 366.1 706.125 365.798 706.12 365.497C704.732 366.213 703.35 366.94 701.968 367.666C700.203 368.594 698.438 369.521 696.665 370.427C695.198 371.172 694.446 372.194 694.29 373.86C693.939 377.924 693.459 381.989 692.927 386.027C692.732 387.529 692.511 389.208 690.694 389.801C688.954 390.357 687.695 389.397 686.514 388.274C684.64 386.485 682.746 384.71 680.851 382.935C679.765 381.918 678.679 380.901 677.596 379.881C676.934 379.262 676.272 378.858 675.532 378.669C674.805 378.454 674.013 378.442 673.117 378.631C671.637 378.94 670.158 379.244 668.678 379.548C666.109 380.076 663.542 380.603 660.98 381.156C659.37 381.496 657.773 381.673 656.605 380.297C655.385 378.872 656.124 377.32 656.773 375.957L656.774 375.955C658.526 372.245 660.331 368.559 662.252 364.937C663.044 363.447 662.953 362.185 662.122 360.797C661.124 359.133 660.147 357.456 659.17 355.778C658.013 353.789 656.854 351.8 655.658 349.829C654.814 348.44 654.476 347.077 655.476 345.714L655.489 345.701C656.449 344.414 657.903 344.3 659.409 344.515C660.431 344.666 661.453 344.811 662.475 344.957C664.957 345.31 667.437 345.663 669.911 346.093C672.819 346.61 675.194 346.345 677.206 343.77C678.799 341.74 680.604 339.874 682.409 338.008C683.208 337.182 684.007 336.356 684.787 335.516C685.189 335.085 685.602 334.705 686.061 334.427C682.658 333.103 678.985 332.44 675.038 332.44C671.066 332.44 667.34 333.159 663.848 334.623C661.745 335.494 659.733 336.643 657.799 338.057ZM691.173 337.045C691.192 337.136 691.21 337.228 691.226 337.321C691.429 338.433 691.654 339.543 691.88 340.653C692.392 343.171 692.904 345.689 693.147 348.238C693.446 351.457 695.315 352.896 698.067 353.968C700.354 354.856 702.615 355.823 704.873 356.789C704.943 356.818 705.012 356.848 705.081 356.878C703.727 351.126 701.058 346.157 697.067 341.969C695.222 340.033 693.258 338.391 691.173 337.045Z" fill="white"/>
</g>
<defs>
<clipPath id="clip0_2521_1061">
<rect width="557" height="214" fill="white" transform="translate(321 208)"/>
</clipPath>
</defs>
</svg>
