<svg width="113" height="44" viewBox="0 0 113 44" fill="none" xmlns="http://www.w3.org/2000/svg">
<g clip-path="url(#clip0_1922_27965)">
<path d="M7.36888 17.6129C8.13525 16.741 8.56715 15.7626 8.65405 14.6934C8.66722 14.5844 8.71462 14.5066 8.8147 14.4391C8.91477 14.3716 9.02538 14.3405 9.15969 14.3509L11.7774 14.4884C11.9144 14.4988 12.025 14.5377 12.0987 14.6156C12.1856 14.683 12.2225 14.7713 12.2225 14.8803C12.1356 15.9676 11.7669 17.0446 11.1243 18.1423C10.4817 19.2297 9.56789 20.0731 8.3591 20.6803C7.48213 21.0826 6.59462 21.2487 5.68078 21.189C4.78011 21.1215 3.91631 20.8464 3.11308 20.3663C1.91482 19.6319 1.07735 18.5835 0.56908 17.2522C0.0608059 15.9209 -0.0998401 14.4962 0.0608059 12.9988C0.221452 11.4911 0.713924 10.1183 1.51715 8.88558C2.33092 7.64252 3.44227 6.74981 4.87492 6.19186C6.16009 5.76107 7.39259 5.74031 8.59085 6.13217C9.77594 6.51365 10.6766 7.2299 11.306 8.26794C11.7511 9.09059 11.9723 9.95216 11.9723 10.8527C11.9723 10.9617 11.9223 11.0473 11.8354 11.1174C11.7485 11.1952 11.6379 11.2264 11.5009 11.2341L8.88317 11.2549C8.74623 11.2549 8.63562 11.2264 8.54871 11.1563C8.44864 11.0888 8.41177 11.0006 8.40123 10.8916C8.3512 9.76532 7.99303 9.05945 7.35308 8.78696C6.69997 8.5041 5.95731 8.77658 5.13037 9.59923C4.27974 10.5776 3.77147 11.7921 3.61082 13.2324C3.45017 14.683 3.67139 15.9546 4.2534 17.042C4.64844 17.7271 5.11721 18.1475 5.64918 18.2954C6.19169 18.4511 6.76054 18.228 7.36625 17.6103L7.36888 17.6129Z" fill="black"/>
<path d="M66.655 14.2108C67.1738 14.5274 67.7163 14.7221 68.2957 14.8077C68.875 14.9063 69.4676 14.9063 70.0496 14.8207C70.6422 14.735 71.211 14.5897 71.7667 14.3717C71.8905 14.3354 72.0011 14.3354 72.1248 14.3847C72.2354 14.434 72.3092 14.5196 72.3724 14.639L73.3099 17.0602C73.36 17.1822 73.36 17.2912 73.3099 17.4132C73.2599 17.5222 73.173 17.5948 73.0518 17.6571C71.5455 18.228 70.0154 18.472 68.4484 18.376C66.8815 18.267 65.4356 17.7324 64.1268 16.7462C64.2137 18.0853 64.348 19.4218 64.535 20.7609C64.5481 20.8828 64.5218 21.0048 64.4481 21.1008C64.3743 21.1968 64.2637 21.2461 64.1399 21.2721L61.5222 21.625C61.3984 21.638 61.2746 21.6017 61.1772 21.5264C61.0798 21.4512 61.0297 21.3551 61.0034 21.2228C60.2265 15.1762 60.2133 9.1322 60.9902 3.08561C61.0139 2.90395 61.0271 2.74565 61.0403 2.59773C61.0771 2.28112 61.114 2.05016 61.164 1.91781C61.2141 1.77248 61.3115 1.68684 61.459 1.65051C61.5959 1.61418 61.8409 1.59082 62.1621 1.59082C62.2991 1.57785 62.4703 1.57785 62.6573 1.56747C63.6817 1.49481 64.7694 1.51816 65.9176 1.64013C67.0526 1.7621 68.1403 2.0294 69.1779 2.44202C70.2023 2.86762 71.0662 3.48785 71.7588 4.32866C72.4883 5.27847 72.8438 6.28796 72.8438 7.37012C72.8306 8.45228 72.5093 9.48773 71.8799 10.4713C71.2742 11.3718 70.521 12.1373 69.5966 12.7576C68.6828 13.3908 67.7084 13.8657 66.6576 14.216L66.655 14.2108ZM64.3348 5.03972C64.1136 7.10802 64.0004 9.19967 63.9767 11.2809C64.9037 11.1226 65.8043 10.832 66.705 10.3934C67.6188 9.95485 68.3352 9.34759 68.8645 8.58204C69.0857 8.24208 69.2227 7.90212 69.2595 7.53621C69.3096 7.18328 69.199 6.84332 68.9514 6.50336C68.4458 5.94281 67.7532 5.55355 66.8657 5.34854C65.9755 5.1539 65.1249 5.04491 64.3348 5.04491V5.03972Z" fill="black"/>
<path d="M14.6212 7.7905C14.6212 7.35453 14.5791 6.66942 14.4975 5.74037C14.4132 4.81132 14.3737 4.11324 14.3737 3.64872C14.3737 2.61068 14.5686 1.73612 14.9557 1.02507C15.2322 0.342554 15.8722 0 16.8703 0C17.2311 0 17.5629 0.0674727 17.8684 0.205013C18.2292 0.423002 18.4083 0.983545 18.4083 1.88664C18.0764 4.70233 17.9079 6.53447 17.9079 7.38307C17.9079 8.75069 18.0738 9.99375 18.4083 11.1148C20.0727 8.2706 21.8477 6.85108 23.7359 6.85108C24.2626 6.85108 24.7893 6.96007 25.316 7.17806C26.5354 12.1814 27.1464 15.8172 27.1464 18.0853C27.1464 18.7418 27.1174 19.3828 27.0621 20.0134C27.0331 20.3404 26.8198 20.6155 26.4169 20.8335C26.0139 21.0515 25.5768 21.1605 25.1054 21.1605C24.6603 21.1605 24.468 21.0567 24.2468 20.8361C23.7201 20.3171 23.1934 18.5005 22.9827 16.5671C22.9643 16.4037 22.9827 16.1364 22.9827 15.7679V14.927C22.9827 13.2324 22.7325 11.9063 22.2348 10.9487C22.2611 10.9981 21.0339 12.2619 20.9233 12.3994C20.444 12.9859 19.9963 13.5932 19.5697 14.2186C19.0798 14.94 18.6479 15.6978 18.2239 16.4607C17.8342 17.1614 17.5471 18.0957 16.7781 18.433C16.4884 18.5602 16.1803 18.6017 15.8643 18.5758C15.4771 18.542 15.1084 18.4149 14.7345 18.3214C14.4606 18.254 14.0761 18.1372 14.0761 17.7972C14.0761 16.6761 14.1656 15.0075 14.3473 12.7939C14.5264 10.5802 14.6186 8.91159 14.6186 7.7905H14.6212Z" fill="black"/>
<path d="M7.36859 37.5953C8.13495 36.7233 8.56686 35.745 8.65376 34.6758C8.66693 34.5668 8.71433 34.489 8.81441 34.4215C8.91448 34.354 9.02509 34.3229 9.1594 34.3333L11.7771 34.4708C11.9141 34.4812 12.0247 34.5201 12.0984 34.598C12.1853 34.6654 12.2222 34.7537 12.2222 34.8627C12.1353 35.95 11.7666 37.027 11.124 38.1247C10.4814 39.2121 9.5676 40.0555 8.35881 40.6627C7.48184 41.065 6.59433 41.231 5.68049 41.1714C4.77982 41.1039 3.91602 40.8288 3.11279 40.3487C1.91453 39.6143 1.07706 38.5659 0.56879 37.2346C0.0605166 35.9033 -0.097496 34.4812 0.0631501 32.9838C0.223796 31.476 0.716268 30.1032 1.5195 28.8706C2.33326 27.6275 3.44462 26.7348 4.87726 26.1768C6.16243 25.7461 7.39493 25.7253 8.59319 26.1172C9.77829 26.4986 10.679 27.2149 11.3084 28.2529C11.7534 29.0756 11.9747 29.9371 11.9747 30.8377C11.9747 30.9466 11.9246 31.0323 11.8377 31.1023C11.7508 31.1802 11.6402 31.2113 11.5033 31.2191L8.88551 31.2399C8.74857 31.2399 8.63796 31.2113 8.55105 31.1413C8.45098 31.0738 8.41411 30.9856 8.40358 30.8766C8.35354 29.7503 7.99538 29.0444 7.35543 28.7719C6.70231 28.4891 5.95965 28.7616 5.13272 29.5842C4.28208 30.5626 3.77381 31.7771 3.61316 33.2174C3.45252 34.668 3.67374 35.9396 4.25575 37.027C4.65078 37.7121 5.11955 38.1325 5.65153 38.2804C6.19403 38.4361 6.76288 38.2129 7.36859 37.5953Z" fill="black"/>
<path d="M14.6212 27.7728C14.6212 27.3368 14.5791 26.6517 14.4975 25.7227C14.4132 24.7936 14.3737 24.0955 14.3737 23.631C14.3737 22.593 14.5686 21.7184 14.9557 21.0074C15.2322 20.3249 15.8722 19.9823 16.8703 19.9823C17.2311 19.9823 17.5629 20.0498 17.8684 20.1873C18.2292 20.4053 18.4083 20.9658 18.4083 21.8689C18.0764 24.6846 17.9079 26.5168 17.9079 27.3654C17.9079 28.733 18.0738 29.976 18.4083 31.0971C20.0727 28.2529 21.8477 26.8334 23.7359 26.8334C24.2626 26.8334 24.7893 26.9424 25.316 27.1604C26.5354 32.1637 27.1464 35.7995 27.1464 38.0676C27.1464 38.7241 27.1174 39.3651 27.0621 39.9957C27.0331 40.3227 26.8198 40.5978 26.4169 40.8158C26.0139 41.0338 25.5768 41.1428 25.1054 41.1428C24.6603 41.1428 24.468 41.039 24.2468 40.8184C23.7201 40.2994 23.1934 38.4828 22.9827 36.5494C22.9643 36.386 22.9827 36.1187 22.9827 35.7502V34.9093C22.9827 33.2147 22.7325 31.8886 22.2348 30.931C22.2611 30.9804 21.0339 32.2442 20.9233 32.3817C20.444 32.9682 19.9963 33.5755 19.5697 34.2009C19.0798 34.9223 18.6479 35.6801 18.2239 36.443C17.8342 37.1437 17.5471 38.078 16.7781 38.4153C16.4884 38.5425 16.1803 38.584 15.8643 38.5581C15.4771 38.5243 15.1084 38.3972 14.7345 38.3037C14.4606 38.2363 14.0761 38.1195 14.0761 37.7795C14.0761 36.6584 14.1656 34.9898 14.3473 32.7762C14.5264 30.5625 14.6186 28.8939 14.6186 27.7728H14.6212Z" fill="black"/>
<path d="M41.4365 8.11747L33.973 12.7497C33.5991 12.9807 33.5859 13.5127 33.9441 13.767C34.3944 14.0836 34.8921 14.2782 35.4373 14.3509C36.2642 14.4573 37.0991 14.2497 37.9418 13.7281C38.8398 13.1701 39.4508 12.4072 39.7695 11.4366C39.8432 11.2134 40.0434 11.0551 40.2777 11.0266L42.0422 10.8112C42.4557 10.7619 42.7954 11.12 42.7296 11.5248C42.5953 12.3397 42.3187 13.0767 41.9053 13.7359C41.3575 14.6052 40.5411 15.3786 39.4534 16.0533C37.768 17.0991 36.0588 17.4287 34.3312 17.0368C32.601 16.6476 31.2315 15.664 30.2255 14.0862C29.1932 12.4695 28.864 10.8008 29.2379 9.07765C29.6119 7.3545 30.5968 5.99727 32.1901 5.00853C33.8835 3.95751 35.6006 3.63832 37.3413 4.04834C39.0847 4.45837 40.5148 5.53793 41.634 7.28963C41.8078 7.57509 41.7183 7.94359 41.4339 8.12006L41.4365 8.11747ZM37.9155 7.38046C37.3598 6.90036 36.7014 6.63826 35.9403 6.59414C35.1792 6.55002 34.4523 6.74206 33.7597 7.17285C33.0065 7.63997 32.4798 8.2576 32.1796 9.02316C31.99 9.50325 31.9531 10.165 32.0664 11.0084L37.9128 7.38046H37.9155Z" fill="black"/>
<path d="M55.7835 7.77487L48.6308 12.8587C48.2726 13.113 48.2937 13.6424 48.6677 13.8734C49.1365 14.164 49.6447 14.3249 50.1951 14.3638C51.0273 14.4209 51.849 14.1614 52.6549 13.5853C53.516 12.9729 54.077 12.1736 54.3324 11.1848C54.3904 10.9591 54.58 10.7878 54.8144 10.7437L56.563 10.4193C56.9739 10.344 57.3347 10.6814 57.2925 11.0888C57.2083 11.9115 56.9818 12.6641 56.6104 13.3466C56.1206 14.2497 55.3542 15.0697 54.3114 15.8093C52.697 16.959 51.0115 17.3923 49.2602 17.1095C47.5089 16.8266 46.0789 15.9313 44.9728 14.4209C43.8404 12.8717 43.4032 11.2264 43.6692 9.48245C43.9326 7.73854 44.828 6.32421 46.3554 5.23946C47.9777 4.08723 49.6711 3.65904 51.4355 3.96007C53.2 4.2611 54.6985 5.24984 55.9284 6.92887C56.1206 7.20136 56.0548 7.57505 55.7809 7.76968L55.7835 7.77487ZM51.4224 7.82418C51.8306 7.53353 51.7358 6.90292 51.2565 6.74981C50.9273 6.64341 50.5744 6.59151 50.203 6.5941C49.4419 6.5967 48.7283 6.83545 48.0646 7.30516C47.343 7.8164 46.8584 8.46517 46.6056 9.25149C46.524 9.50321 46.4845 9.80165 46.4897 10.1442C46.4976 10.6399 47.0639 10.9253 47.4721 10.6347L51.4224 7.82418Z" fill="black"/>
<path fill-rule="evenodd" clip-rule="evenodd" d="M32.9031 20.7608C32.6869 20.6997 32.4702 20.6309 32.2626 20.5518C31.7183 20.3443 31.6397 19.6839 32.0126 19.2363L32.1105 19.1188C32.4216 18.7455 33.0163 18.633 33.484 18.7652C33.9808 18.9056 34.6397 19.0391 35.4465 19.1567C37.0573 19.3914 39.1794 19.5516 41.6113 19.5978C46.1798 19.6844 51.7667 19.3673 57.0001 18.4223C57.5623 18.3208 58.107 18.6823 58.2213 19.2421C58.3366 19.8064 57.9708 20.3574 57.4041 20.46C51.9983 21.4382 46.2573 21.7624 41.5708 21.6735C39.078 21.6262 36.8623 21.4617 35.1383 21.2104C34.2778 21.085 33.5202 20.9353 32.9031 20.7608Z" fill="#FF9543"/>
<path d="M105.286 33.4742C105.286 35.6541 105.4 37.8262 105.623 39.9749C105.634 40.0865 105.602 40.1748 105.542 40.2552C105.481 40.3357 105.389 40.385 105.286 40.4057L103.124 40.6575C103.011 40.6678 102.921 40.6367 102.84 40.577C102.758 40.5173 102.708 40.4265 102.698 40.3149C102.484 38.3764 102.361 36.0148 102.339 33.2406C102.329 30.4665 102.379 28.0972 102.513 26.1378C102.524 26.0366 102.563 25.9562 102.626 25.8861C102.698 25.8264 102.79 25.7849 102.892 25.7849L105.055 25.7538C105.168 25.7538 105.249 25.7849 105.321 25.8446C105.392 25.9043 105.442 25.9951 105.452 26.0963C105.616 27.6638 106.013 29.0106 106.624 30.1161C107.246 31.2217 108.062 32.3479 109.071 33.4924C109.408 33.8842 109.724 34.2657 110.05 34.668C110.072 33.2121 110.072 31.6524 110.029 29.9864C109.99 28.3177 109.908 26.7814 109.763 25.3853C109.753 25.2737 109.784 25.1854 109.845 25.105C109.916 25.0245 109.998 24.9856 110.111 24.9649L112.273 24.7547C112.386 24.7443 112.476 24.7754 112.558 24.8351C112.629 24.8948 112.679 24.9856 112.689 25.0972C112.884 27.0072 112.984 29.2883 112.995 31.9405C113.016 34.5927 112.963 36.8738 112.831 38.802C112.81 39.2431 112.76 39.6869 112.71 40.1281C112.7 40.2189 112.66 40.2993 112.597 40.359C112.526 40.4187 112.444 40.4499 112.352 40.4602L110.222 40.59C110.129 40.6004 110.048 40.5796 109.977 40.5303C109.906 40.4706 109.856 40.4005 109.824 40.3097C109.54 39.3054 109.11 38.3893 108.56 37.5874C107.999 36.783 107.388 35.9992 106.724 35.2467C106.234 34.6835 105.755 34.0918 105.286 33.4794V33.4742Z" fill="black"/>
<path d="M38.5603 28.9199H40.7225C40.9384 28.9199 41.1149 29.0937 41.1149 29.3065V40.11C41.1149 40.3228 40.9384 40.4966 40.7225 40.4966H38.5603C38.3444 40.4966 38.1679 40.3228 38.1679 40.11C38.1679 39.7908 37.7966 39.6117 37.5359 39.8037C37.1698 40.0762 36.8038 40.289 36.4351 40.4395C35.8557 40.6783 35.2289 40.7951 34.5521 40.7951C33.0352 40.7951 31.7236 40.2164 30.6149 39.0563C29.5062 37.8963 28.9532 36.4535 28.9532 34.7303C28.9532 33.0072 29.4878 31.4786 30.5596 30.3368C31.6315 29.1949 32.9324 28.624 34.4652 28.624C35.171 28.624 35.832 28.7564 36.4482 29.0185C36.8248 29.1794 37.1856 29.387 37.528 29.6465C37.7887 29.8437 38.1627 29.6673 38.1627 29.3429V29.3091C38.1627 29.0963 38.3391 28.9225 38.5551 28.9225L38.5603 28.9199ZM35.0682 31.3048C34.157 31.3048 33.4012 31.6214 32.7981 32.2572C32.1951 32.893 31.8948 33.7052 31.8948 34.6992C31.8948 35.8228 32.282 36.7207 33.0536 37.3981C33.6014 37.8756 34.323 38.1325 35.0524 38.1377C35.99 38.1429 36.7669 37.8263 37.3805 37.1853C37.9888 36.5495 38.2943 35.719 38.2943 34.6888C38.2943 33.6585 37.9888 32.8644 37.3805 32.2416C36.7695 31.6162 36.0005 31.3048 35.0656 31.3048H35.0682Z" fill="black"/>
<path d="M44.483 28.9199H46.6135C46.84 28.9199 47.0217 29.099 47.0217 29.3221C47.0217 29.6647 47.4194 29.8412 47.6906 29.631C48.0093 29.3844 48.3464 29.182 48.7019 29.0263C49.3182 28.7564 49.9897 28.6215 50.7166 28.6215C51.4434 28.6215 52.115 28.7979 52.7049 29.1535C53.1474 29.4208 53.5266 29.7763 53.84 30.2278C53.9927 30.4458 54.3166 30.4432 54.4905 30.2408C54.8855 29.7841 55.3385 29.4233 55.8546 29.1535C56.5341 28.7979 57.2794 28.6215 58.0852 28.6215C58.8911 28.6215 59.6548 28.8135 60.2895 29.195C60.9242 29.5765 61.3798 30.0773 61.6563 30.6949C61.9328 31.3126 62.0724 32.3169 62.0724 33.7053V40.0918C62.0724 40.315 61.8907 40.4941 61.6642 40.4941H59.5126C59.2861 40.4941 59.1044 40.315 59.1044 40.0918V34.6213C59.1044 33.3082 58.9385 32.4207 58.6067 31.9562C58.2749 31.4916 57.7797 31.2581 57.1161 31.2581C56.6131 31.2581 56.1601 31.4008 55.7598 31.6837C55.3595 31.9665 55.0646 32.3584 54.8697 32.8593C54.6748 33.3601 54.5774 34.162 54.5774 35.2701V40.0918C54.5774 40.315 54.3956 40.4941 54.1692 40.4941H52.0176C51.7911 40.4941 51.6094 40.315 51.6094 40.0918V34.886C51.6094 33.8506 51.533 33.1006 51.3776 32.6361C51.2222 32.1716 50.9905 31.8264 50.6797 31.598C50.369 31.3723 49.995 31.2581 49.5552 31.2581C49.0654 31.2581 48.6177 31.4008 48.2174 31.6889C47.8171 31.9769 47.5168 32.3792 47.3193 32.8956C47.1218 33.412 47.0217 34.2295 47.0217 35.3428V40.0892C47.0217 40.3124 46.84 40.4915 46.6135 40.4915H44.483C44.2565 40.4915 44.0748 40.3124 44.0748 40.0892V29.3169C44.0748 29.0938 44.2565 28.9147 44.483 28.9147V28.9199Z" fill="black"/>
<path d="M67.5791 26.3792C67.5791 26.7607 68.0189 26.9683 68.327 26.7399C68.7194 26.4493 69.1276 26.2131 69.5543 26.034C70.2627 25.733 71.0185 25.5851 71.8244 25.5851C73.5783 25.5851 75.0663 26.2391 76.2935 27.5444C77.5207 28.8497 78.1317 30.5236 78.1317 32.5685C78.1317 34.6135 77.497 36.1887 76.2303 37.5122C74.9636 38.8357 73.4598 39.5 71.7243 39.5C70.95 39.5 70.2311 39.3651 69.5648 39.0926C69.1487 38.9239 68.7326 38.6852 68.3191 38.3815C68.0136 38.1558 67.5765 38.3608 67.5765 38.7397V43.5458C67.5765 43.7975 67.3684 44.0025 67.113 44.0025H64.6954C64.4399 44.0025 64.2319 43.7975 64.2319 43.5458V26.3844C64.2319 26.1327 64.4399 25.9276 64.6954 25.9276H67.113C67.3684 25.9276 67.5765 26.1327 67.5765 26.3844L67.5791 26.3792Z" fill="black"/>
<path d="M82.2982 20.4727C82.8644 20.4857 83.3516 20.6959 83.7598 21.1033C84.168 21.5108 84.3945 22.035 84.3945 22.6371C84.3945 23.2391 84.1864 23.7348 83.7677 24.1526C83.349 24.5704 82.8486 24.778 82.2666 24.778C81.6846 24.778 81.1579 24.5652 80.7339 24.1396C80.3125 23.714 80.0992 23.1976 80.0992 22.5877C80.0992 22.0272 80.2914 21.5471 80.6759 21.1423C81.092 20.7063 81.6925 20.4572 82.3008 20.4727H82.2982ZM80.7023 25.9225H83.773C83.8546 25.9225 83.9231 25.9873 83.9231 26.0704V39.0096C83.9231 39.09 83.8572 39.1575 83.773 39.1575H80.7023C80.6206 39.1575 80.5522 39.0926 80.5522 39.0096V26.0704C80.5522 25.9899 80.618 25.9225 80.7023 25.9225Z" fill="black"/>
<path d="M93.2931 25.5825C94.5598 25.5825 95.7528 25.8939 96.8668 26.5194C97.9808 27.1448 98.8525 27.9908 99.4766 29.0626C100.101 30.1343 100.414 31.2892 100.414 32.5296C100.414 33.7701 100.098 34.9457 99.4687 36.033C98.8393 37.1204 97.9808 37.969 96.8958 38.5814C95.8107 39.1938 94.6125 39.5001 93.3036 39.5001C91.3785 39.5001 89.7352 38.8253 88.371 37.4759C87.0068 36.1264 86.3273 34.4863 86.3273 32.5556C86.3273 30.4873 87.0963 28.7641 88.637 27.3861C89.9853 26.1872 91.5391 25.5851 93.2904 25.5851L93.2931 25.5825ZM89.0136 32.8488C89.061 33.8791 89.506 34.7199 90.3488 35.3687C91.1915 36.0174 92.2423 36.3133 93.5037 36.2562C94.7652 36.1991 95.8371 35.8098 96.6113 35.0962C97.383 34.3825 97.7464 33.5054 97.6964 32.4673C97.6463 31.4293 97.1986 30.5833 96.3532 29.9293C95.5079 29.2779 94.4439 28.9795 93.164 29.0392C91.8841 29.0989 90.8597 29.483 90.0907 30.1992C89.3217 30.9129 88.9635 31.7978 89.0136 32.854V32.8488Z" fill="black"/>
<path fill-rule="evenodd" clip-rule="evenodd" d="M67.8584 28.3126C68.0532 28.0479 68.3482 28.0245 68.6537 28.0686C69.3647 28.175 70.0758 28.2685 70.7842 28.393C71.3741 28.4994 71.8561 28.4449 72.2643 27.9155C72.7304 27.3135 73.2861 26.7815 73.8023 26.2183C74.0077 25.9951 74.2289 25.8368 74.5713 25.9199C74.5792 25.9199 74.5871 25.9251 74.595 25.9277C74.6029 25.9277 74.6108 25.9329 74.6187 25.9355C74.9531 26.0419 75.0558 26.291 75.1085 26.5894C75.2428 27.3368 75.4272 28.079 75.4983 28.8342C75.5588 29.4959 75.9381 29.7918 76.4964 30.0124C77.1627 30.2745 77.8184 30.5703 78.4768 30.8506C78.7612 30.9726 78.9982 31.1464 79.0219 31.4734C79.0456 31.816 78.835 32.0184 78.5374 32.1715C77.7578 32.5711 76.9889 32.9941 76.212 33.3964C75.9144 33.5495 75.7616 33.7597 75.73 34.1023C75.6589 34.9379 75.5615 35.7735 75.4535 36.6039C75.414 36.9128 75.3692 37.2579 75.0005 37.3799C74.6476 37.4941 74.3922 37.2968 74.1525 37.0659C73.5547 36.4872 72.9464 35.9162 72.3433 35.3401C72.209 35.213 72.0747 35.1299 71.9245 35.091C71.7771 35.0469 71.6164 35.0443 71.4347 35.0832C70.613 35.2571 69.7914 35.4232 68.9723 35.6022C68.6458 35.6723 68.3219 35.7086 68.0848 35.4258C67.8373 35.1325 67.9874 34.8133 68.1191 34.533C68.4746 33.7701 68.8407 33.0123 69.2304 32.2675C69.3911 31.9613 69.3726 31.7018 69.2041 31.4163C68.7617 30.6689 68.3403 29.9086 67.8926 29.1612C67.7214 28.8757 67.6529 28.5954 67.8557 28.3152L67.8584 28.3126Z" fill="white"/>
</g>
<defs>
<clipPath id="clip0_1922_27965">
<rect width="113" height="44" fill="white"/>
</clipPath>
</defs>
</svg>
