<svg width="114" height="44" viewBox="0 0 114 44" fill="none" xmlns="http://www.w3.org/2000/svg">
<g clip-path="url(#clip0_1922_27406)">
<path d="M7.43409 17.6127C8.20724 16.7407 8.64296 15.7624 8.73064 14.6932C8.74392 14.5842 8.79174 14.5063 8.8927 14.4389C8.99366 14.3714 9.10525 14.3402 9.24075 14.3506L11.8817 14.4882C12.0198 14.4985 12.1314 14.5375 12.2058 14.6153C12.2935 14.6828 12.3307 14.771 12.3307 14.88C12.243 15.9674 11.871 17.0443 11.2228 18.1421C10.5745 19.2294 9.65256 20.0728 8.43307 20.6801C7.54834 21.0823 6.65298 21.2484 5.73106 21.1887C4.82241 21.1213 3.95097 20.8462 3.14063 20.3661C1.93176 19.6317 1.08689 18.5832 0.574115 17.252C0.0613431 15.9207 -0.100725 14.4959 0.0613431 12.9986C0.223411 11.4908 0.720241 10.118 1.53058 8.88533C2.35155 7.64228 3.47274 6.74956 4.91806 6.19161C6.2146 5.76083 7.45801 5.74006 8.66687 6.13193C9.86245 6.51341 10.7711 7.22966 11.4061 8.2677C11.8551 9.09035 12.0783 9.95192 12.0783 10.8524C12.0783 10.9614 12.0278 11.0471 11.9401 11.1171C11.8524 11.195 11.7408 11.2261 11.6027 11.2339L8.96178 11.2547C8.82363 11.2547 8.71204 11.2261 8.62436 11.156C8.5234 11.0886 8.48621 11.0003 8.47558 10.8913C8.4251 9.76507 8.06377 9.0592 7.41815 8.78672C6.75925 8.50385 6.01002 8.77634 5.17577 9.59899C4.31761 10.5773 3.80484 11.7919 3.64277 13.2321C3.48071 14.6828 3.70388 15.9544 4.29104 17.0417C4.68957 17.7269 5.16249 18.1473 5.69917 18.2952C6.24648 18.4509 6.82036 18.2277 7.43144 17.6101L7.43409 17.6127Z" fill="white"/>
<path d="M67.2448 14.2108C67.7682 14.5274 68.3155 14.722 68.9 14.8077C69.4846 14.9063 70.0823 14.9063 70.6695 14.8206C71.2673 14.735 71.8412 14.5897 72.4018 14.3717C72.5267 14.3354 72.6382 14.3354 72.7631 14.3847C72.8747 14.434 72.9491 14.5196 73.0129 14.639L73.9587 17.0602C74.0092 17.1822 74.0092 17.2912 73.9587 17.4132C73.9082 17.5221 73.8205 17.5948 73.6983 17.6571C72.1786 18.228 70.635 18.472 69.0542 18.3759C67.4733 18.2669 66.0147 17.7324 64.6943 16.7462C64.7819 18.0853 64.9174 19.4218 65.1061 20.7608C65.1194 20.8828 65.0928 21.0048 65.0184 21.1008C64.944 21.1968 64.8324 21.2461 64.7075 21.2721L62.0666 21.625C61.9418 21.638 61.8169 21.6017 61.7186 21.5264C61.6203 21.4511 61.5698 21.3551 61.5432 21.2228C60.7595 15.1762 60.7462 9.13218 61.53 3.08558C61.5539 2.90392 61.5672 2.74562 61.5804 2.5977C61.6176 2.2811 61.6548 2.05014 61.7053 1.91778C61.7558 1.77246 61.8541 1.68682 62.0029 1.65049C62.141 1.61416 62.3881 1.5908 62.7123 1.5908C62.8504 1.57783 63.0231 1.57783 63.2117 1.56745C64.2453 1.49478 65.3425 1.51814 66.5009 1.64011C67.646 1.76208 68.7433 2.02937 69.7901 2.442C70.8236 2.86759 71.6951 3.48782 72.3938 4.32864C73.1298 5.27845 73.4884 6.28794 73.4884 7.3701C73.4751 8.45226 73.151 9.4877 72.516 10.4712C71.9049 11.3718 71.1451 12.1373 70.2125 12.7575C69.2906 13.3907 68.3076 13.8656 67.2475 14.216L67.2448 14.2108ZM64.9042 5.0397C64.681 7.10799 64.5667 9.19965 64.5428 11.2809C65.478 11.1226 66.3867 10.832 67.2953 10.3934C68.2172 9.95482 68.9399 9.34757 69.4739 8.58201C69.6971 8.24205 69.8353 7.9021 69.8725 7.53619C69.9229 7.18325 69.8114 6.84329 69.5616 6.50333C69.0515 5.94279 68.3527 5.55353 67.4574 5.34851C66.5594 5.15388 65.7012 5.04489 64.9042 5.04489V5.0397Z" fill="white"/>
<path d="M14.7506 7.7905C14.7506 7.35453 14.7081 6.66942 14.6257 5.74037C14.5407 4.81132 14.5009 4.11324 14.5009 3.64872C14.5009 2.61068 14.6975 1.73612 15.088 1.02507C15.367 0.342554 16.0126 0 17.0196 0C17.3836 0 17.7183 0.0674727 18.0265 0.205013C18.3905 0.423002 18.5712 0.983545 18.5712 1.88664C18.2364 4.70233 18.0664 6.53447 18.0664 7.38307C18.0664 8.75069 18.2337 9.99375 18.5712 11.1148C20.2503 8.2706 22.041 6.85108 23.946 6.85108C24.4773 6.85108 25.0087 6.96007 25.5401 7.17806C26.7702 12.1814 27.3866 15.8172 27.3866 18.0853C27.3866 18.7418 27.3574 19.3828 27.3016 20.0134C27.2723 20.3404 27.0571 20.6155 26.6506 20.8335C26.2441 21.0515 25.8031 21.1605 25.3275 21.1605C24.8785 21.1605 24.6846 21.0567 24.4614 20.8361C23.93 20.3171 23.3987 18.5005 23.1861 16.5671C23.1675 16.4037 23.1861 16.1364 23.1861 15.7679V14.927C23.1861 13.2324 22.9337 11.9063 22.4316 10.9487C22.4581 10.9981 21.22 12.2619 21.1085 12.3994C20.6249 12.9859 20.1732 13.5932 19.7428 14.2186C19.2487 14.94 18.8129 15.6978 18.3852 16.4607C17.992 17.1614 17.7024 18.0957 16.9266 18.433C16.6343 18.5602 16.3235 18.6017 16.0047 18.5758C15.6141 18.542 15.2421 18.4149 14.8649 18.3214C14.5886 18.254 14.2007 18.1372 14.2007 17.7972C14.2007 16.6761 14.291 15.0075 14.4743 12.7939C14.655 10.5802 14.748 8.91159 14.748 7.7905H14.7506Z" fill="white"/>
<path d="M7.4338 37.5953C8.20694 36.7233 8.64267 35.745 8.73034 34.6758C8.74363 34.5668 8.79145 34.4889 8.89241 34.4215C8.99337 34.354 9.10496 34.3229 9.24046 34.3332L11.8814 34.4708C12.0195 34.4812 12.1311 34.5201 12.2055 34.5979C12.2932 34.6654 12.3304 34.7536 12.3304 34.8626C12.2427 35.95 11.8707 37.027 11.2225 38.1247C10.5742 39.212 9.65227 40.0554 8.43277 40.6627C7.54804 41.0649 6.65269 41.231 5.73076 41.1713C4.82212 41.1039 3.95067 40.8288 3.14034 40.3487C1.93147 39.6143 1.08659 38.5658 0.573821 37.2346C0.0610493 35.9033 -0.0983616 34.4812 0.0637061 32.9838C0.225774 31.476 0.722604 30.1032 1.53294 28.8705C2.35391 27.6275 3.4751 26.7348 4.92042 26.1768C6.21696 25.746 7.46037 25.7253 8.66923 26.1171C9.86482 26.4986 10.7735 27.2149 11.4084 28.2529C11.8575 29.0756 12.0806 29.9371 12.0806 30.8376C12.0806 30.9466 12.0301 31.0323 11.9425 31.1023C11.8548 31.1802 11.7432 31.2113 11.6051 31.2191L8.96414 31.2399C8.82599 31.2399 8.7144 31.2113 8.62673 31.1413C8.52577 31.0738 8.48857 30.9855 8.47794 30.8766C8.42746 29.7503 8.06613 29.0444 7.42052 28.7719C6.76162 28.4891 6.01239 28.7615 5.17814 29.5842C4.31998 30.5625 3.8072 31.7771 3.64514 33.2173C3.48307 34.668 3.70624 35.9396 4.29341 37.0269C4.69193 37.7121 5.16485 38.1325 5.70154 38.2804C6.24885 38.4361 6.82273 38.2129 7.4338 37.5953Z" fill="white"/>
<path d="M14.7506 27.7728C14.7506 27.3368 14.7081 26.6517 14.6257 25.7227C14.5407 24.7936 14.5009 24.0955 14.5009 23.631C14.5009 22.593 14.6975 21.7184 15.088 21.0074C15.367 20.3249 16.0126 19.9823 17.0196 19.9823C17.3836 19.9823 17.7183 20.0498 18.0265 20.1873C18.3905 20.4053 18.5712 20.9659 18.5712 21.8689C18.2364 24.6846 18.0664 26.5168 18.0664 27.3654C18.0664 28.733 18.2337 29.9761 18.5712 31.0971C20.2503 28.2529 22.041 26.8334 23.946 26.8334C24.4773 26.8334 25.0087 26.9424 25.5401 27.1604C26.7702 32.1637 27.3866 35.7995 27.3866 38.0676C27.3866 38.7242 27.3574 39.3651 27.3016 39.9958C27.2723 40.3227 27.0571 40.5978 26.6506 40.8158C26.2441 41.0338 25.8031 41.1428 25.3275 41.1428C24.8785 41.1428 24.6846 41.039 24.4614 40.8184C23.93 40.2994 23.3987 38.4828 23.1861 36.5495C23.1675 36.386 23.1861 36.1187 23.1861 35.7502V34.9094C23.1861 33.2147 22.9337 31.8886 22.4316 30.9311C22.4581 30.9804 21.22 32.2442 21.1085 32.3817C20.6249 32.9682 20.1732 33.5755 19.7428 34.2009C19.2487 34.9223 18.8129 35.6801 18.3852 36.4431C17.992 37.1437 17.7024 38.078 16.9266 38.4153C16.6343 38.5425 16.3235 38.584 16.0047 38.5581C15.6141 38.5243 15.2421 38.3972 14.8649 38.3037C14.5886 38.2363 14.2007 38.1195 14.2007 37.7795C14.2007 36.6585 14.291 34.9898 14.4743 32.7762C14.655 30.5626 14.748 28.8939 14.748 27.7728H14.7506Z" fill="white"/>
<path d="M41.8032 8.11795L34.2737 12.7502C33.8964 12.9812 33.8831 13.5132 34.2445 13.7675C34.6988 14.0841 35.2009 14.2787 35.7509 14.3514C36.5851 14.4578 37.4274 14.2502 38.2776 13.7286C39.1835 13.1706 39.7999 12.4077 40.1214 11.4371C40.1958 11.2139 40.3977 11.0556 40.6342 11.0271L42.4143 10.8117C42.8314 10.7624 43.1741 11.1205 43.1077 11.5253C42.9722 12.3402 42.6932 13.0772 42.2761 13.7364C41.7235 14.6057 40.8999 15.3791 39.8026 16.0538C38.1022 17.0996 36.3779 17.4292 34.635 17.0373C32.8895 16.6481 31.5079 15.6645 30.493 14.0867C29.4515 12.4699 29.1194 10.8013 29.4967 9.07814C29.8739 7.35499 30.8676 5.99775 32.475 5.00902C34.1834 3.958 35.9156 3.6388 37.6718 4.04883C39.4306 4.45886 40.8733 5.53842 42.0025 7.29012C42.1778 7.57558 42.0875 7.94408 41.8005 8.12055L41.8032 8.11795ZM38.251 7.38094C37.6904 6.90085 37.0262 6.63874 36.2584 6.59463C35.4905 6.55051 34.7572 6.74255 34.0585 7.17334C33.2986 7.64045 32.7673 8.25809 32.4644 9.02365C32.2731 9.50374 32.2359 10.1655 32.3501 11.0089L38.2483 7.38094H38.251Z" fill="white"/>
<path d="M56.2772 7.77524L49.0612 12.8591C48.6998 13.1134 48.7211 13.6428 49.0984 13.8737C49.5713 14.1644 50.0841 14.3253 50.6393 14.3642C51.4789 14.4213 52.3078 14.1618 53.1208 13.5857C53.9896 12.9732 54.5555 12.1739 54.8132 11.1852C54.8717 10.9594 55.063 10.7882 55.2995 10.744L57.0636 10.4197C57.4781 10.3444 57.8421 10.6818 57.7995 11.0892C57.7145 11.9118 57.486 12.6644 57.1114 13.3469C56.6172 14.25 55.8441 15.0701 54.792 15.8097C53.1633 16.9593 51.463 17.3927 49.6962 17.1098C47.9294 16.827 46.4867 15.9317 45.3708 14.4213C44.2284 12.872 43.7873 11.2267 44.0557 9.48282C44.3214 7.73891 45.2247 6.32458 46.7657 5.23982C48.4023 4.0876 50.1106 3.6594 51.8907 3.96044C53.6708 4.26147 55.1825 5.2502 56.4233 6.92924C56.6172 7.20172 56.5508 7.57542 56.2745 7.77005L56.2772 7.77524ZM51.8774 7.82455C52.2892 7.53389 52.1936 6.90328 51.7101 6.75017C51.3779 6.64377 51.0219 6.59187 50.6473 6.59447C49.8795 6.59706 49.1595 6.83581 48.49 7.30553C47.762 7.81676 47.2731 8.46554 47.0181 9.25185C46.9357 9.50358 46.8958 9.80202 46.9012 10.1446C46.9091 10.6402 47.4803 10.9257 47.8922 10.635L51.8774 7.82455Z" fill="white"/>
<path fill-rule="evenodd" clip-rule="evenodd" d="M33.1943 20.7609C32.978 20.7003 32.7613 20.6321 32.5535 20.5538C32.0031 20.3464 31.9233 19.6796 32.3018 19.2294L32.3924 19.1215C32.7083 18.7457 33.3076 18.6328 33.7803 18.7653C34.2815 18.9057 34.9463 19.0391 35.7602 19.1567C37.3852 19.3914 39.5261 19.5516 41.9796 19.5978C46.5919 19.6845 52.2332 19.3668 57.5163 18.4202C58.0775 18.3197 58.6208 18.6802 58.7359 19.2386C58.8524 19.8043 58.4855 20.3571 57.9171 20.4591C52.4619 21.4381 46.6681 21.7624 41.9387 21.6735C39.4239 21.6262 37.1885 21.4617 35.4493 21.2105C34.5811 21.0851 33.8168 20.9353 33.1943 20.7609Z" fill="#FF9543"/>
<path d="M106.218 33.4743C106.218 35.6541 106.332 37.8262 106.558 39.975C106.569 40.0866 106.537 40.1748 106.476 40.2553C106.415 40.3357 106.322 40.385 106.218 40.4058L104.037 40.6575C103.923 40.6679 103.832 40.6367 103.75 40.5771C103.668 40.5174 103.617 40.4265 103.606 40.315C103.391 38.3764 103.266 36.0149 103.245 33.2407C103.234 30.4665 103.285 28.0972 103.42 26.1379C103.431 26.0367 103.471 25.9562 103.535 25.8862C103.606 25.8265 103.699 25.785 103.803 25.785L105.984 25.7538C106.099 25.7538 106.181 25.785 106.253 25.8446C106.324 25.9043 106.375 25.9952 106.385 26.0964C106.55 27.6638 106.951 29.0107 107.568 30.1162C108.195 31.2217 109.018 32.348 110.036 33.4924C110.376 33.8843 110.695 34.2658 111.024 34.668C111.046 33.2121 111.046 31.6525 111.003 29.9864C110.963 28.3178 110.881 26.7815 110.735 25.3853C110.724 25.2737 110.756 25.1855 110.817 25.105C110.889 25.0246 110.971 24.9857 111.085 24.9649L113.267 24.7547C113.381 24.7443 113.471 24.7755 113.554 24.8352C113.625 24.8948 113.676 24.9857 113.686 25.0973C113.883 27.0073 113.984 29.2884 113.995 31.9405C114.016 34.5927 113.963 36.8738 113.83 38.802C113.809 39.2432 113.758 39.6869 113.708 40.1281C113.697 40.2189 113.657 40.2994 113.594 40.3591C113.522 40.4188 113.439 40.4499 113.346 40.4603L111.197 40.59C111.104 40.6004 111.022 40.5796 110.95 40.5303C110.878 40.4707 110.828 40.4006 110.796 40.3098C110.509 39.3055 110.076 38.3894 109.521 37.5875C108.955 36.783 108.338 35.9993 107.669 35.2467C107.175 34.6836 106.691 34.0919 106.218 33.4794V33.4743Z" fill="white"/>
<path d="M38.9016 28.9198H41.0828C41.3007 28.9198 41.4787 29.0937 41.4787 29.3065V40.1099C41.4787 40.3227 41.3007 40.4966 41.0828 40.4966H38.9016C38.6837 40.4966 38.5057 40.3227 38.5057 40.1099C38.5057 39.7907 38.1311 39.6117 37.868 39.8037C37.4987 40.0762 37.1294 40.289 36.7575 40.4395C36.173 40.6783 35.5406 40.795 34.8578 40.795C33.3275 40.795 32.0044 40.2163 30.8859 39.0563C29.7673 37.8963 29.2094 36.4534 29.2094 34.7303C29.2094 33.0071 29.7487 31.4786 30.8301 30.3368C31.9114 29.1949 33.2239 28.624 34.7702 28.624C35.4822 28.624 36.1491 28.7564 36.7708 29.0185C37.1507 29.1794 37.5147 29.387 37.8601 29.6465C38.1231 29.8437 38.5004 29.6672 38.5004 29.3429V29.3091C38.5004 29.0963 38.6784 28.9224 38.8962 28.9224L38.9016 28.9198ZM35.3786 31.3047C34.4593 31.3047 33.6968 31.6214 33.0884 32.2572C32.48 32.893 32.1771 33.7052 32.1771 34.6991C32.1771 35.8228 32.5676 36.7207 33.3461 37.3981C33.8987 37.8756 34.6267 38.1325 35.3626 38.1377C36.3085 38.1429 37.0922 37.8262 37.7113 37.1853C38.325 36.5495 38.6332 35.719 38.6332 34.6888C38.6332 33.6585 38.325 32.8644 37.7113 32.2416C37.0949 31.6162 36.3191 31.3047 35.3759 31.3047H35.3786Z" fill="white"/>
<path d="M44.8767 28.9195H47.026C47.2545 28.9195 47.4379 29.0986 47.4379 29.3218C47.4379 29.6643 47.839 29.8408 48.1127 29.6306C48.4342 29.3841 48.7742 29.1816 49.1329 29.0259C49.7546 28.756 50.4321 28.6211 51.1654 28.6211C51.8987 28.6211 52.5762 28.7976 53.1713 29.1531C53.6177 29.4204 54.0003 29.7759 54.3164 30.2275C54.4705 30.4455 54.7973 30.4429 54.9727 30.2404C55.3712 29.7837 55.8282 29.423 56.3489 29.1531C57.0344 28.7976 57.7863 28.6211 58.5993 28.6211C59.4123 28.6211 60.1827 28.8131 60.823 29.1946C61.4634 29.5761 61.923 30.0769 62.202 30.6946C62.4809 31.3122 62.6217 32.3165 62.6217 33.7049V40.0915C62.6217 40.3146 62.4384 40.4937 62.2099 40.4937H60.0393C59.8108 40.4937 59.6275 40.3146 59.6275 40.0915V34.621C59.6275 33.3079 59.4601 32.4203 59.1253 31.9558C58.7906 31.4913 58.2911 31.2577 57.6216 31.2577C57.1141 31.2577 56.6571 31.4004 56.2533 31.6833C55.8494 31.9662 55.5519 32.358 55.3553 32.8589C55.1587 33.3598 55.0604 34.1616 55.0604 35.2698V40.0915C55.0604 40.3146 54.877 40.4937 54.6485 40.4937H52.4779C52.2494 40.4937 52.0661 40.3146 52.0661 40.0915V34.8857C52.0661 33.8502 51.989 33.1002 51.8323 32.6357C51.6755 32.1712 51.4417 31.826 51.1282 31.5977C50.8147 31.3719 50.4374 31.2577 49.9937 31.2577C49.4996 31.2577 49.0479 31.4005 48.6441 31.6885C48.2402 31.9766 47.9373 32.3788 47.7381 32.8952C47.5388 33.4117 47.4379 34.2291 47.4379 35.3424V40.0889C47.4379 40.312 47.2545 40.4911 47.026 40.4911H44.8767C44.6482 40.4911 44.4648 40.312 44.4648 40.0889V29.3166C44.4648 29.0934 44.6482 28.9143 44.8767 28.9143V28.9195Z" fill="white"/>
<path d="M83.0266 20.4724C83.5978 20.4853 84.0893 20.6955 84.5011 21.103C84.9129 21.5104 85.1414 22.0346 85.1414 22.6367C85.1414 23.2388 84.9315 23.7344 84.5091 24.1522C84.0867 24.57 83.5819 24.7776 82.9947 24.7776C82.4075 24.7776 81.8762 24.5648 81.4484 24.1393C81.0233 23.7137 80.8081 23.1972 80.8081 22.5874C80.8081 22.0268 81.0021 21.5467 81.39 21.1419C81.8097 20.7059 82.4155 20.4568 83.0292 20.4724H83.0266ZM81.4165 25.9221H84.5144C84.5968 25.9221 84.6659 25.987 84.6659 26.07V39.0092C84.6659 39.0897 84.5994 39.1571 84.5144 39.1571H81.4165C81.3342 39.1571 81.2651 39.0922 81.2651 39.0092V26.07C81.2651 25.9896 81.3315 25.9221 81.4165 25.9221Z" fill="white"/>
<path d="M94.1187 25.583C95.3966 25.583 96.6002 25.8944 97.724 26.5198C98.8479 27.1453 99.7273 27.9913 100.357 29.063C100.987 30.1348 101.303 31.2896 101.303 32.5301C101.303 33.7706 100.984 34.9461 100.349 36.0335C99.714 37.1208 98.8479 37.9694 97.7532 38.5819C96.6586 39.1943 95.4498 39.5006 94.1293 39.5006C92.1871 39.5006 90.5293 38.8258 89.153 37.4764C87.7768 36.1269 87.0913 34.4868 87.0913 32.5561C87.0913 30.4878 87.8671 28.7646 89.4214 27.3866C90.7817 26.1877 92.3492 25.5856 94.116 25.5856L94.1187 25.583ZM89.8013 32.8493C89.8491 33.8796 90.2981 34.7204 91.1483 35.3691C91.9985 36.0179 93.0586 36.3138 94.3312 36.2567C95.6038 36.1996 96.6852 35.8103 97.4663 35.0967C98.2448 34.383 98.6114 33.5059 98.5609 32.4678C98.5104 31.4298 98.0588 30.5838 97.2059 29.9298C96.3531 29.2784 95.2797 28.98 93.9885 29.0397C92.6973 29.0994 91.6637 29.4835 90.8879 30.1997C90.1121 30.9134 89.7508 31.7983 89.8013 32.8545V32.8493Z" fill="white"/>
<path fill-rule="evenodd" clip-rule="evenodd" d="M68.9319 26.7406C68.6211 26.969 68.1774 26.7614 68.1774 26.3799L68.1747 26.3851C68.1747 26.1334 67.9648 25.9284 67.7071 25.9284H65.2681C65.0104 25.9284 64.8005 26.1334 64.8005 26.3851V43.5465C64.8005 43.7983 65.0104 44.0033 65.2681 44.0033H67.7071C67.9648 44.0033 68.1747 43.7983 68.1747 43.5465V38.7404C68.1747 38.3615 68.6158 38.1565 68.924 38.3823C69.3411 38.6859 69.7609 38.9246 70.1807 39.0933C70.8528 39.3658 71.5782 39.5008 72.3593 39.5008C74.1101 39.5008 75.6272 38.8364 76.9051 37.5129C78.1831 36.1894 78.8234 34.6142 78.8234 32.5692C78.8234 32.5067 78.8228 32.4444 78.8216 32.3826C78.5377 32.5299 78.2548 32.6793 77.9719 32.8286C77.6106 33.0194 77.2495 33.21 76.8866 33.3963C76.5864 33.5494 76.4323 33.7596 76.4004 34.1021C76.3287 34.9377 76.2304 35.7734 76.1214 36.6038C76.0816 36.9126 76.0364 37.2578 75.6645 37.3797C75.3085 37.4939 75.0507 37.2967 74.809 37.0657C74.4255 36.6978 74.0378 36.333 73.6499 35.9681C73.4276 35.759 73.2053 35.5498 72.9837 35.34C72.8482 35.2128 72.7127 35.1298 72.5613 35.0909C72.4125 35.0467 72.2504 35.0441 72.0671 35.0831C71.7642 35.1466 71.4614 35.2091 71.1586 35.2715C70.6328 35.38 70.1073 35.4885 69.5829 35.6021C69.2535 35.6722 68.9267 35.7085 68.6876 35.4256C68.4379 35.1325 68.5892 34.8134 68.722 34.5332L68.7221 34.5329C69.0808 33.77 69.4501 33.0122 69.8433 32.2674C70.0054 31.9612 69.9868 31.7017 69.8167 31.4162C69.6124 31.0741 69.4126 30.7293 69.2126 30.3842C68.9757 29.9754 68.7386 29.5663 68.4936 29.161C68.3209 28.8756 68.2519 28.5953 68.4564 28.315L68.4591 28.3124C68.6557 28.0477 68.9533 28.0244 69.2615 28.0685C69.4706 28.0995 69.6798 28.1295 69.8889 28.1594C70.3969 28.232 70.9046 28.3047 71.4109 28.3929C72.006 28.4993 72.4922 28.4448 72.904 27.9154C73.23 27.498 73.5994 27.1144 73.9688 26.7306C74.1323 26.5608 74.2958 26.391 74.4556 26.2182C74.5377 26.1297 74.6224 26.0515 74.7162 25.9944C74.0198 25.7221 73.268 25.5858 72.4602 25.5858C71.6472 25.5858 70.8847 25.7337 70.17 26.0348C69.7396 26.2138 69.3278 26.45 68.9319 26.7406ZM75.7625 26.5326C75.7664 26.5513 75.77 26.5702 75.7734 26.5893C75.8149 26.818 75.861 27.0462 75.9072 27.2744C76.012 27.7921 76.1168 28.31 76.1666 28.8341C76.2277 29.4958 76.6103 29.7917 77.1736 30.0122C77.6415 30.1947 78.1044 30.3936 78.5665 30.5921C78.5807 30.5982 78.5949 30.6043 78.609 30.6104C78.3319 29.4277 77.7857 28.4062 76.9689 27.5451C76.5913 27.147 76.1892 26.8095 75.7625 26.5326Z" fill="white"/>
</g>
<defs>
<clipPath id="clip0_1922_27406">
<rect width="114" height="44" fill="white"/>
</clipPath>
</defs>
</svg>
