<svg width="64" height="62" viewBox="0 0 64 62" fill="none" xmlns="http://www.w3.org/2000/svg">
    <path
        d="M1.51759 56.0596C1.37317 56.0596 1.2488 56.0114 1.14449 55.9151C1.04821 55.8108 1.00007 55.6865 1.00007 55.542V47.1774C1.00007 47.025 1.04821 46.9006 1.14449 46.8043C1.24078 46.7081 1.36514 46.6599 1.51759 46.6599H7.08998C7.24243 46.6599 7.3668 46.7081 7.46308 46.8043C7.55936 46.8926 7.6075 47.009 7.6075 47.1534C7.6075 47.2898 7.55936 47.4061 7.46308 47.5024C7.3668 47.5907 7.24243 47.6348 7.08998 47.6348H2.03511V50.8362H5.70591C5.85836 50.8362 5.97871 50.8843 6.06697 50.9806C6.16326 51.0769 6.2114 51.1933 6.2114 51.3297C6.2114 51.4741 6.16326 51.5944 6.06697 51.6907C5.97871 51.779 5.85836 51.8231 5.70591 51.8231H2.03511V55.542C2.03511 55.6865 1.98296 55.8108 1.87865 55.9151C1.78237 56.0114 1.66202 56.0596 1.51759 56.0596ZM11.868 56.1197C11.2582 56.1197 10.7126 55.9753 10.2312 55.6865C9.7498 55.3896 9.36868 54.9884 9.08786 54.4829C8.80703 53.9774 8.66662 53.4078 8.66662 52.7739C8.66662 52.132 8.81104 51.5583 9.09989 51.0528C9.39677 50.5474 9.79795 50.1502 10.3034 49.8613C10.8089 49.5645 11.3786 49.416 12.0125 49.416C12.6383 49.416 13.2 49.5645 13.6974 49.8613C14.2029 50.1502 14.6001 50.5474 14.8889 51.0528C15.1858 51.5583 15.3382 52.132 15.3463 52.7739L14.9371 52.9785C14.9371 53.5723 14.8007 54.1058 14.5279 54.5792C14.2631 55.0526 13.898 55.4297 13.4326 55.7105C12.9753 55.9833 12.4538 56.1197 11.868 56.1197ZM12.0125 55.2051C12.4618 55.2051 12.8589 55.1008 13.204 54.8921C13.557 54.6755 13.8338 54.3826 14.0344 54.0136C14.243 53.6445 14.3473 53.2313 14.3473 52.7739C14.3473 52.3085 14.243 51.8953 14.0344 51.5343C13.8338 51.1652 13.557 50.8723 13.204 50.6557C12.8589 50.439 12.4618 50.3307 12.0125 50.3307C11.5712 50.3307 11.17 50.439 10.8089 50.6557C10.4559 50.8723 10.1751 51.1652 9.96644 51.5343C9.75783 51.8953 9.65352 52.3085 9.65352 52.7739C9.65352 53.2313 9.75783 53.6445 9.96644 54.0136C10.1751 54.3826 10.4559 54.6755 10.8089 54.8921C11.17 55.1008 11.5712 55.2051 12.0125 55.2051ZM14.8287 56.0596C14.6843 56.0596 14.56 56.0154 14.4556 55.9272C14.3594 55.8309 14.3112 55.7065 14.3112 55.5541V53.5682L14.5399 52.5212L15.3463 52.7739V55.5541C15.3463 55.7065 15.2981 55.8309 15.2018 55.9272C15.1056 56.0154 14.9812 56.0596 14.8287 56.0596ZM19.9652 56.1197C19.3314 56.1197 18.7657 55.9753 18.2682 55.6865C17.7708 55.3896 17.3776 54.9884 17.0888 54.4829C16.8079 53.9774 16.6675 53.4078 16.6675 52.7739C16.6675 52.132 16.8039 51.5583 17.0767 51.0528C17.3576 50.5474 17.7347 50.1502 18.2081 49.8613C18.6895 49.5645 19.2431 49.416 19.8689 49.416C20.3504 49.416 20.7957 49.5123 21.2049 49.7049C21.6141 49.8894 21.9751 50.1702 22.2881 50.5474C22.3843 50.6597 22.4164 50.776 22.3843 50.8964C22.3603 51.0087 22.2881 51.109 22.1677 51.1973C22.0714 51.2615 21.9631 51.2855 21.8427 51.2695C21.7304 51.2454 21.6261 51.1812 21.5298 51.0769C21.0885 50.5795 20.5349 50.3307 19.8689 50.3307C19.4276 50.3307 19.0385 50.435 18.7015 50.6436C18.3725 50.8523 18.1158 51.1411 17.9312 51.5102C17.7467 51.8713 17.6544 52.2925 17.6544 52.7739C17.6544 53.2393 17.7507 53.6565 17.9433 54.0256C18.1439 54.3866 18.4167 54.6755 18.7617 54.8921C19.1147 55.1008 19.5159 55.2051 19.9652 55.2051C20.2701 55.2051 20.5429 55.1649 20.7836 55.0847C21.0324 55.0045 21.253 54.8801 21.4456 54.7116C21.5579 54.6233 21.6702 54.5752 21.7826 54.5672C21.8949 54.5592 21.9992 54.5913 22.0955 54.6635C22.1998 54.7597 22.26 54.8681 22.276 54.9884C22.2921 55.1088 22.252 55.2171 22.1557 55.3134C21.5699 55.851 20.8398 56.1197 19.9652 56.1197ZM27.0863 56.1197C26.4284 56.1197 25.8467 55.9793 25.3412 55.6985C24.8357 55.4097 24.4385 55.0125 24.1497 54.507C23.8608 54.0015 23.7164 53.4238 23.7164 52.7739C23.7164 52.116 23.8528 51.5383 24.1256 51.0408C24.3984 50.5353 24.7715 50.1382 25.2449 49.8493C25.7263 49.5605 26.28 49.416 26.9058 49.416C27.5156 49.416 28.0451 49.5564 28.4945 49.8373C28.9518 50.1101 29.3008 50.4912 29.5415 50.9806C29.7903 51.4701 29.9146 52.0277 29.9146 52.6536C29.9146 52.79 29.8705 52.9023 29.7823 52.9905C29.694 53.0708 29.5817 53.1109 29.4453 53.1109H24.4145V52.2805H29.5054L28.9879 52.6415C28.9959 52.2002 28.9157 51.8031 28.7472 51.45C28.5787 51.097 28.338 50.8202 28.0251 50.6196C27.7122 50.419 27.3391 50.3187 26.9058 50.3187C26.4485 50.3187 26.0473 50.423 25.7023 50.6316C25.3653 50.8402 25.1045 51.1331 24.92 51.5102C24.7434 51.8793 24.6552 52.3005 24.6552 52.7739C24.6552 53.2473 24.7595 53.6685 24.9681 54.0376C25.1767 54.4067 25.4615 54.6956 25.8226 54.9042C26.1917 55.1128 26.6129 55.2171 27.0863 55.2171C27.3591 55.2171 27.6359 55.169 27.9168 55.0727C28.2056 54.9764 28.4343 54.856 28.6028 54.7116C28.6991 54.6394 28.8074 54.6033 28.9277 54.6033C29.0561 54.5953 29.1604 54.6274 29.2407 54.6996C29.361 54.8039 29.4212 54.9162 29.4212 55.0366C29.4292 55.1569 29.3771 55.2612 29.2647 55.3495C29 55.5741 28.663 55.7587 28.2538 55.9031C27.8446 56.0475 27.4554 56.1197 27.0863 56.1197ZM34.6712 56.1197C34.0453 56.1197 33.4837 55.9753 32.9862 55.6865C32.4887 55.3896 32.0916 54.9924 31.7947 54.495C31.5059 53.9895 31.3574 53.4238 31.3494 52.798V47.1774C31.3494 47.017 31.3935 46.8926 31.4818 46.8043C31.5781 46.7081 31.7064 46.6599 31.8669 46.6599C32.0194 46.6599 32.1397 46.7081 32.228 46.8043C32.3243 46.8926 32.3724 47.017 32.3724 47.1774V50.6196C32.6372 50.2585 32.9822 49.9697 33.4074 49.753C33.8327 49.5284 34.3061 49.416 34.8276 49.416C35.4374 49.416 35.983 49.5645 36.4644 49.8613C36.9459 50.1502 37.323 50.5474 37.5958 51.0528C37.8766 51.5583 38.017 52.128 38.017 52.7619C38.017 53.4038 37.8686 53.9774 37.5717 54.4829C37.2828 54.9884 36.8857 55.3896 36.3802 55.6865C35.8827 55.9753 35.3131 56.1197 34.6712 56.1197ZM34.6712 55.2051C35.1205 55.2051 35.5217 55.0967 35.8747 54.8801C36.2358 54.6635 36.5166 54.3746 36.7172 54.0136C36.9258 53.6445 37.0301 53.2272 37.0301 52.7619C37.0301 52.3045 36.9258 51.8913 36.7172 51.5222C36.5166 51.1531 36.2358 50.8643 35.8747 50.6557C35.5217 50.439 35.1205 50.3307 34.6712 50.3307C34.2379 50.3307 33.8407 50.439 33.4797 50.6557C33.1266 50.8643 32.8498 51.1531 32.6492 51.5222C32.4486 51.8913 32.3483 52.3045 32.3483 52.7619C32.3483 53.2272 32.4486 53.6445 32.6492 54.0136C32.8498 54.3746 33.1266 54.6635 33.4797 54.8801C33.8407 55.0967 34.2379 55.2051 34.6712 55.2051ZM42.7115 56.1197C42.0616 56.1197 41.4839 55.9753 40.9784 55.6865C40.4809 55.3976 40.0878 55.0005 39.7989 54.495C39.5101 53.9895 39.3656 53.4158 39.3656 52.7739C39.3656 52.124 39.5101 51.5463 39.7989 51.0408C40.0878 50.5353 40.4809 50.1382 40.9784 49.8493C41.4839 49.5605 42.0616 49.416 42.7115 49.416C43.3534 49.416 43.923 49.5605 44.4205 49.8493C44.918 50.1382 45.3111 50.5353 45.6 51.0408C45.8888 51.5463 46.0373 52.124 46.0453 52.7739C46.0453 53.4158 45.9009 53.9895 45.612 54.495C45.3232 55.0005 44.926 55.3976 44.4205 55.6865C43.923 55.9753 43.3534 56.1197 42.7115 56.1197ZM42.7115 55.2051C43.1608 55.2051 43.562 55.1008 43.915 54.8921C44.268 54.6755 44.5449 54.3866 44.7455 54.0256C44.946 53.6565 45.0463 53.2393 45.0463 52.7739C45.0463 52.3085 44.946 51.8913 44.7455 51.5222C44.5449 51.1531 44.268 50.8643 43.915 50.6557C43.562 50.439 43.1608 50.3307 42.7115 50.3307C42.2621 50.3307 41.857 50.439 41.4959 50.6557C41.1429 50.8643 40.862 51.1531 40.6534 51.5222C40.4528 51.8913 40.3525 52.3085 40.3525 52.7739C40.3525 53.2393 40.4528 53.6565 40.6534 54.0256C40.862 54.3866 41.1429 54.6755 41.4959 54.8921C41.857 55.1008 42.2621 55.2051 42.7115 55.2051ZM50.7124 56.1197C50.0625 56.1197 49.4848 55.9753 48.9793 55.6865C48.4818 55.3976 48.0887 55.0005 47.7998 54.495C47.511 53.9895 47.3665 53.4158 47.3665 52.7739C47.3665 52.124 47.511 51.5463 47.7998 51.0408C48.0887 50.5353 48.4818 50.1382 48.9793 49.8493C49.4848 49.5605 50.0625 49.416 50.7124 49.416C51.3543 49.416 51.9239 49.5605 52.4214 49.8493C52.9189 50.1382 53.312 50.5353 53.6009 51.0408C53.8897 51.5463 54.0382 52.124 54.0462 52.7739C54.0462 53.4158 53.9018 53.9895 53.6129 54.495C53.3241 55.0005 52.9269 55.3976 52.4214 55.6865C51.9239 55.9753 51.3543 56.1197 50.7124 56.1197ZM50.7124 55.2051C51.1617 55.2051 51.5629 55.1008 51.9159 54.8921C52.269 54.6755 52.5458 54.3866 52.7464 54.0256C52.947 53.6565 53.0472 53.2393 53.0472 52.7739C53.0472 52.3085 52.947 51.8913 52.7464 51.5222C52.5458 51.1531 52.269 50.8643 51.9159 50.6557C51.5629 50.439 51.1617 50.3307 50.7124 50.3307C50.2631 50.3307 49.8579 50.439 49.4968 50.6557C49.1438 50.8643 48.8629 51.1531 48.6543 51.5222C48.4537 51.8913 48.3534 52.3085 48.3534 52.7739C48.3534 53.2393 48.4537 53.6565 48.6543 54.0256C48.8629 54.3866 49.1438 54.6755 49.4968 54.8921C49.8579 55.1008 50.2631 55.2051 50.7124 55.2051ZM56.5951 53.7969L55.9813 53.1229L59.965 49.5243C60.0693 49.4281 60.1776 49.3839 60.2899 49.392C60.4103 49.4 60.5186 49.4561 60.6149 49.5605C60.7112 49.6648 60.7553 49.7771 60.7473 49.8974C60.7392 50.0098 60.6831 50.1141 60.5788 50.2104L56.5951 53.7969ZM56.2099 56.0596C56.0655 56.0596 55.9451 56.0154 55.8489 55.9272C55.7606 55.8309 55.7165 55.7105 55.7165 55.5661V47.1534C55.7165 47.009 55.7606 46.8926 55.8489 46.8043C55.9451 46.7081 56.0655 46.6599 56.2099 46.6599C56.3624 46.6599 56.4827 46.7081 56.571 46.8043C56.6673 46.8926 56.7154 47.009 56.7154 47.1534V55.5661C56.7154 55.7105 56.6673 55.8309 56.571 55.9272C56.4827 56.0154 56.3624 56.0596 56.2099 56.0596ZM60.6149 55.9994C60.5025 56.0957 60.3822 56.1358 60.2538 56.1197C60.1335 56.1117 60.0292 56.0515 59.9409 55.9392L57.3292 52.7258L58.0393 52.0759L60.6871 55.3374C60.7754 55.4418 60.8155 55.5541 60.8074 55.6744C60.7994 55.7948 60.7352 55.9031 60.6149 55.9994Z"
        fill="#2B2B2B" />
    <g clip-path="url(#clip0_2635_10016)">
        <path
            d="M35.8252 8.35368H38.7125V3.46994C37.3145 3.32457 35.9099 3.2528 34.5045 3.25493C30.3272 3.25493 27.4707 5.8043 27.4707 10.473V14.4967H22.7559V19.9641H27.4707V33.9703H33.1223V19.9641H37.8217L38.5282 14.4967H33.1223V11.0106C33.1223 9.398 33.5523 8.35368 35.8252 8.35368Z"
            fill="#2B2B2B" />
    </g>
    <defs>
        <clipPath id="clip0_2635_10016">
            <rect width="36.8584" height="36.8584" fill="white" transform="translate(12.6046 0.183594)" />
        </clipPath>
    </defs>
</svg>