<svg width="29" height="30" viewBox="0 0 29 30" fill="none" xmlns="http://www.w3.org/2000/svg">
<g clip-path="url(#clip0_1922_27987)">
<path d="M28.9847 15.2807C28.9847 14.0516 28.886 13.1547 28.6725 12.2245H14.7888V17.772H22.9383C22.774 19.1507 21.8868 21.2268 19.9151 22.622L19.8875 22.8077L24.2772 26.2454L24.5813 26.2761C27.3745 23.6684 28.9847 19.8316 28.9847 15.2807Z" fill="#4285F4"/>
<path d="M14.7888 29.897C18.7814 29.897 22.1331 28.5681 24.5813 26.2761L19.9151 22.622C18.6664 23.5023 16.9904 24.1168 14.7888 24.1168C10.8784 24.1168 7.55951 21.5092 6.37641 17.905L6.203 17.9199L1.63846 21.4909L1.57877 21.6586C4.01044 26.5418 9.00528 29.897 14.7888 29.897Z" fill="#34A853"/>
<path d="M6.37642 17.905C6.06425 16.9748 5.88358 15.9782 5.88358 14.9485C5.88358 13.9186 6.06425 12.9221 6.36 11.992L6.35173 11.7939L1.72999 8.1655L1.57877 8.23821C0.576565 10.2646 0.00149536 12.5401 0.00149536 14.9485C0.00149536 17.3568 0.576565 19.6323 1.57877 21.6586L6.37642 17.905Z" fill="#FBBC05"/>
<path d="M14.7888 5.78004C17.5655 5.78004 19.4385 6.99252 20.5066 8.00576L24.6799 3.8866C22.1168 1.47824 18.7814 0 14.7888 0C9.00528 0 4.01044 3.35508 1.57877 8.23821L6.35999 11.992C7.55951 8.38775 10.8784 5.78004 14.7888 5.78004Z" fill="#EB4335"/>
</g>
<defs>
<clipPath id="clip0_1922_27987">
<rect width="29" height="30" fill="white"/>
</clipPath>
</defs>
</svg>
