<svg width="38" height="37" viewBox="0 0 38 37" fill="none" xmlns="http://www.w3.org/2000/svg">
<path d="M26.9581 8.38529C26.5936 8.38529 26.2373 8.49337 25.9342 8.69587C25.6311 8.89838 25.3949 9.1862 25.2554 9.52295C25.116 9.8597 25.0795 10.2303 25.1506 10.5877C25.2217 10.9452 25.3972 11.2736 25.6549 11.5313C25.9127 11.7891 26.2411 11.9646 26.5985 12.0357C26.956 12.1068 27.3266 12.0703 27.6633 11.9308C28.0001 11.7914 28.2879 11.5551 28.4904 11.2521C28.6929 10.949 28.801 10.5927 28.801 10.2282C28.801 9.73943 28.6068 9.27068 28.2612 8.92507C27.9156 8.57945 27.4468 8.38529 26.9581 8.38529ZM34.0226 12.1018C33.9927 10.8276 33.7541 9.56691 33.3162 8.36993C32.9257 7.34578 32.3179 6.4184 31.5347 5.65162C30.7742 4.86443 29.8446 4.26049 28.8164 3.88549C27.6225 3.43422 26.3604 3.19011 25.0844 3.16368C23.4565 3.07153 22.9344 3.07153 18.7571 3.07153C14.5798 3.07153 14.0576 3.07153 12.4297 3.16368C11.1537 3.19011 9.89163 3.43422 8.69781 3.88549C7.67142 4.26428 6.74268 4.86771 5.9795 5.65162C5.19231 6.4121 4.58837 7.34164 4.21337 8.36993C3.7621 9.56375 3.51799 10.8259 3.49156 12.1018C3.39941 13.7298 3.39941 14.2519 3.39941 18.4292C3.39941 22.6065 3.39941 23.1286 3.49156 24.7566C3.51799 26.0326 3.7621 27.2947 4.21337 28.4885C4.58837 29.5168 5.19231 30.4463 5.9795 31.2068C6.74268 31.9907 7.67142 32.5941 8.69781 32.9729C9.89163 33.4242 11.1537 33.6683 12.4297 33.6947C14.0576 33.7869 14.5798 33.7869 18.7571 33.7869C22.9344 33.7869 23.4565 33.7869 25.0844 33.6947C26.3604 33.6683 27.6225 33.4242 28.8164 32.9729C29.8446 32.5979 30.7742 31.994 31.5347 31.2068C32.3213 30.4429 32.9297 29.5147 33.3162 28.4885C33.7541 27.2915 33.9927 26.0308 34.0226 24.7566C34.0226 23.1286 34.1147 22.6065 34.1147 18.4292C34.1147 14.2519 34.1148 13.7298 34.0226 12.1018ZM31.2582 24.5723C31.247 25.5471 31.0705 26.513 30.7361 27.4288C30.4909 28.0972 30.097 28.7011 29.5842 29.1949C29.0861 29.7025 28.4834 30.0956 27.8181 30.3468C26.9023 30.6812 25.9364 30.8577 24.9616 30.8689C23.4258 30.9457 22.8576 30.9611 18.8185 30.9611C14.7794 30.9611 14.2112 30.9611 12.6754 30.8689C11.6632 30.8879 10.6553 30.732 9.69606 30.4082C9.05992 30.1441 8.48488 29.7521 8.00671 29.2564C7.49698 28.763 7.10805 28.1586 6.87025 27.4902C6.4953 26.5613 6.28734 25.5735 6.25594 24.5723C6.25594 23.0365 6.16379 22.4683 6.16379 18.4292C6.16379 14.3901 6.16379 13.8219 6.25594 12.2861C6.26282 11.2895 6.44476 10.3018 6.79346 9.36818C7.06383 8.71995 7.47882 8.14211 8.00671 7.67883C8.4733 7.15079 9.04994 6.73141 9.69606 6.45022C10.6322 6.11242 11.6188 5.93586 12.614 5.92806C14.1498 5.92806 14.718 5.83591 18.7571 5.83591C22.7962 5.83591 23.3644 5.83591 24.9002 5.92806C25.875 5.93924 26.8409 6.1158 27.7567 6.45022C28.4546 6.70923 29.081 7.13033 29.5842 7.67883C30.0875 8.15059 30.4808 8.72735 30.7361 9.36818C31.0774 10.3034 31.2541 11.2906 31.2582 12.2861C31.335 13.8219 31.3504 14.3901 31.3504 18.4292C31.3504 22.4683 31.335 23.0365 31.2582 24.5723ZM18.7571 10.5507C17.1995 10.5538 15.6778 11.0184 14.3842 11.8859C13.0906 12.7535 12.0832 13.985 11.4893 15.4249C10.8953 16.8647 10.7415 18.4483 11.0472 19.9756C11.3529 21.5029 12.1045 22.9052 13.2069 24.0055C14.3094 25.1058 15.7132 25.8547 17.2411 26.1574C18.7689 26.4602 20.3522 26.3032 21.7909 25.7065C23.2297 25.1097 24.4592 24.0999 25.3242 22.8047C26.1892 21.5094 26.6509 19.9868 26.6509 18.4292C26.653 17.3927 26.4501 16.3661 26.0539 15.4083C25.6577 14.4505 25.0761 13.5805 24.3425 12.8483C23.6088 12.1161 22.7377 11.5362 21.7792 11.1419C20.8206 10.7476 19.7936 10.5467 18.7571 10.5507ZM18.7571 23.5433C17.7456 23.5433 16.7568 23.2434 15.9158 22.6814C15.0748 22.1195 14.4193 21.3208 14.0323 20.3863C13.6452 19.4518 13.5439 18.4235 13.7412 17.4315C13.9386 16.4395 14.4256 15.5282 15.1409 14.813C15.8561 14.0978 16.7673 13.6107 17.7594 13.4134C18.7514 13.216 19.7797 13.3173 20.7142 13.7044C21.6486 14.0915 22.4474 14.7469 23.0093 15.588C23.5712 16.429 23.8712 17.4177 23.8712 18.4292C23.8712 19.1008 23.7389 19.7658 23.4819 20.3863C23.2249 21.0068 22.8482 21.5705 22.3733 22.0454C21.8984 22.5203 21.3346 22.897 20.7142 23.154C20.0937 23.411 19.4287 23.5433 18.7571 23.5433Z" fill="#2B2B2B"/>
</svg>
