<svg width="64" height="62" viewBox="0 0 64 62" fill="none" xmlns="http://www.w3.org/2000/svg">
<path d="M2.5404 56.3486C2.38795 56.3486 2.26358 56.3005 2.1673 56.2042C2.07102 56.1079 2.02288 55.9836 2.02288 55.8311V47.4665C2.02288 47.3141 2.07102 47.1897 2.1673 47.0934C2.26358 46.9971 2.38795 46.949 2.5404 46.949C2.69285 46.949 2.81721 46.9971 2.9135 47.0934C3.00978 47.1897 3.05792 47.3141 3.05792 47.4665V55.8311C3.05792 55.9836 3.00978 56.1079 2.9135 56.2042C2.81721 56.3005 2.69285 56.3486 2.5404 56.3486ZM10.8344 56.3486C10.6819 56.3486 10.5576 56.3005 10.4613 56.2042C10.365 56.1079 10.3169 55.9876 10.3169 55.8431V52.7741C10.3169 52.2847 10.2246 51.8875 10.0401 51.5826C9.86353 51.2697 9.61881 51.037 9.30589 50.8846C8.99297 50.7241 8.63592 50.6439 8.23474 50.6439C7.85763 50.6439 7.51663 50.7201 7.21173 50.8725C6.91486 51.017 6.67816 51.2175 6.50164 51.4743C6.32512 51.723 6.23686 52.0119 6.23686 52.3408H5.53881C5.55486 51.8354 5.68725 51.386 5.93598 50.9929C6.19273 50.5917 6.53374 50.2748 6.95899 50.0421C7.38424 49.8094 7.85763 49.6931 8.37916 49.6931C8.94082 49.6931 9.44229 49.8134 9.88359 50.0541C10.3329 50.2868 10.6859 50.6318 10.9427 51.0892C11.2075 51.5465 11.3399 52.1082 11.3399 52.7741V55.8431C11.3399 55.9876 11.2917 56.1079 11.1954 56.2042C11.0992 56.3005 10.9788 56.3486 10.8344 56.3486ZM5.73138 56.3486C5.57091 56.3486 5.44253 56.3045 5.34624 56.2162C5.25798 56.12 5.21386 55.9956 5.21386 55.8431V50.2828C5.21386 50.1223 5.25798 49.998 5.34624 49.9097C5.44253 49.8134 5.57091 49.7653 5.73138 49.7653C5.88383 49.7653 6.00418 49.8134 6.09244 49.9097C6.18872 49.998 6.23686 50.1223 6.23686 50.2828V55.8431C6.23686 55.9956 6.18872 56.12 6.09244 56.2162C6.00418 56.3045 5.88383 56.3486 5.73138 56.3486ZM15.5729 56.4088C15.0754 56.4088 14.59 56.3286 14.1166 56.1681C13.6512 55.9996 13.2781 55.7629 12.9973 55.458C12.901 55.3537 12.8609 55.2334 12.8769 55.097C12.893 54.9606 12.9572 54.8482 13.0695 54.76C13.1979 54.6637 13.3262 54.6236 13.4546 54.6396C13.591 54.6557 13.7034 54.7118 13.7916 54.8081C13.9681 55.0167 14.2129 55.1852 14.5258 55.3136C14.8387 55.4339 15.1837 55.4941 15.5608 55.4941C16.1144 55.4941 16.5196 55.4018 16.7764 55.2173C17.0412 55.0247 17.1776 54.788 17.1856 54.5072C17.1856 54.2344 17.0532 54.0057 16.7884 53.8212C16.5317 53.6367 16.0904 53.4922 15.4645 53.3879C14.6542 53.2515 14.0604 53.0229 13.6833 52.7019C13.3142 52.381 13.1297 51.9958 13.1297 51.5465C13.1297 51.1373 13.242 50.7963 13.4667 50.5235C13.6913 50.2507 13.9842 50.0461 14.3452 49.9097C14.7143 49.7733 15.1115 49.7051 15.5367 49.7051C16.0743 49.7051 16.5397 49.7974 16.9329 49.9819C17.326 50.1584 17.6429 50.3991 17.8837 50.704C17.9719 50.8164 18.008 50.9367 17.992 51.0651C17.9839 51.1854 17.9198 51.2817 17.7994 51.3539C17.6951 51.4262 17.5707 51.4502 17.4263 51.4262C17.2899 51.4021 17.1736 51.3379 17.0773 51.2336C16.8767 51.017 16.648 50.8605 16.3913 50.7642C16.1345 50.6599 15.8416 50.6077 15.5127 50.6077C15.0954 50.6077 14.7585 50.692 14.5017 50.8605C14.2449 51.021 14.1166 51.2296 14.1166 51.4863C14.1166 51.6629 14.1607 51.8153 14.249 51.9437C14.3452 52.0721 14.5097 52.1884 14.7424 52.2927C14.9831 52.389 15.3241 52.4772 15.7654 52.5575C16.3672 52.6618 16.8406 52.8102 17.1856 53.0028C17.5386 53.1873 17.7874 53.404 17.9318 53.6527C18.0842 53.9014 18.1605 54.1782 18.1605 54.4831C18.1605 54.8603 18.0521 55.1932 17.8355 55.4821C17.6269 55.7629 17.33 55.9876 16.9449 56.1561C16.5598 56.3246 16.1024 56.4088 15.5729 56.4088ZM22.1326 56.3486C21.7154 56.3486 21.3423 56.2483 21.0133 56.0477C20.6844 55.8472 20.4236 55.5703 20.231 55.2173C20.0465 54.8643 19.9542 54.4671 19.9542 54.0258V48.1766C19.9542 48.0322 19.9983 47.9118 20.0866 47.8155C20.1829 47.7193 20.3072 47.6711 20.4597 47.6711C20.6041 47.6711 20.7245 47.7193 20.8208 47.8155C20.917 47.9118 20.9652 48.0322 20.9652 48.1766V54.0258C20.9652 54.4029 21.0735 54.7158 21.2901 54.9646C21.5148 55.2133 21.7956 55.3377 22.1326 55.3377H22.4937C22.6221 55.3377 22.7304 55.3858 22.8186 55.4821C22.9069 55.5784 22.951 55.6987 22.951 55.8431C22.951 55.9956 22.8949 56.12 22.7825 56.2162C22.6782 56.3045 22.5418 56.3486 22.3733 56.3486H22.1326ZM19.2441 50.8846C19.1077 50.8846 18.9954 50.8444 18.9071 50.7642C18.8189 50.6759 18.7747 50.5716 18.7747 50.4513C18.7747 50.3229 18.8189 50.2186 18.9071 50.1384C18.9954 50.0501 19.1077 50.006 19.2441 50.006H22.2169C22.3533 50.006 22.4656 50.0501 22.5539 50.1384C22.6421 50.2186 22.6862 50.3229 22.6862 50.4513C22.6862 50.5716 22.6421 50.6759 22.5539 50.7642C22.4656 50.8444 22.3533 50.8846 22.2169 50.8846H19.2441ZM27.1796 56.4088C26.5698 56.4088 26.0242 56.2644 25.5428 55.9755C25.0614 55.6787 24.6802 55.2775 24.3994 54.772C24.1186 54.2665 23.9782 53.6968 23.9782 53.063C23.9782 52.4211 24.1226 51.8474 24.4114 51.3419C24.7083 50.8364 25.1095 50.4393 25.615 50.1504C26.1205 49.8535 26.6901 49.7051 27.324 49.7051C27.9499 49.7051 28.5115 49.8535 29.009 50.1504C29.5145 50.4393 29.9116 50.8364 30.2005 51.3419C30.4973 51.8474 30.6498 52.4211 30.6578 53.063L30.2486 53.2676C30.2486 53.8613 30.1122 54.3949 29.8394 54.8683C29.5746 55.3417 29.2096 55.7188 28.7442 55.9996C28.2868 56.2724 27.7653 56.4088 27.1796 56.4088ZM27.324 55.4941C27.7733 55.4941 28.1705 55.3898 28.5155 55.1812C28.8686 54.9646 29.1454 54.6717 29.346 54.3026C29.5546 53.9335 29.6589 53.5203 29.6589 53.063C29.6589 52.5976 29.5546 52.1844 29.346 51.8233C29.1454 51.4542 28.8686 51.1614 28.5155 50.9447C28.1705 50.7281 27.7733 50.6198 27.324 50.6198C26.8827 50.6198 26.4815 50.7281 26.1205 50.9447C25.7674 51.1614 25.4866 51.4542 25.278 51.8233C25.0694 52.1844 24.9651 52.5976 24.9651 53.063C24.9651 53.5203 25.0694 53.9335 25.278 54.3026C25.4866 54.6717 25.7674 54.9646 26.1205 55.1812C26.4815 55.3898 26.8827 55.4941 27.324 55.4941ZM30.1403 56.3486C29.9959 56.3486 29.8715 56.3045 29.7672 56.2162C29.6709 56.12 29.6228 55.9956 29.6228 55.8431V53.8573L29.8514 52.8102L30.6578 53.063V55.8431C30.6578 55.9956 30.6097 56.12 30.5134 56.2162C30.4171 56.3045 30.2927 56.3486 30.1403 56.3486ZM35.1805 56.4088C34.5547 56.4088 34.001 56.2684 33.5196 55.9876C33.0382 55.6987 32.6611 55.3016 32.3883 54.7961C32.1155 54.2906 31.9791 53.7129 31.9791 53.063C31.9791 52.405 32.1235 51.8233 32.4124 51.3178C32.7012 50.8123 33.0944 50.4192 33.5918 50.1384C34.0973 49.8495 34.675 49.7051 35.3249 49.7051C35.9668 49.7051 36.5365 49.8495 37.0339 50.1384C37.5394 50.4192 37.9326 50.8123 38.2134 51.3178C38.5023 51.8233 38.6507 52.405 38.6587 53.063L38.057 53.2676C38.057 53.8774 37.9326 54.419 37.6839 54.8923C37.4431 55.3657 37.1062 55.7388 36.6729 56.0116C36.2396 56.2764 35.7421 56.4088 35.1805 56.4088ZM35.3249 58.9844C34.7151 58.9844 34.1655 58.868 33.6761 58.6354C33.1947 58.4027 32.7895 58.0777 32.4605 57.6605C32.3722 57.5562 32.3361 57.4398 32.3522 57.3115C32.3682 57.1911 32.4324 57.0948 32.5447 57.0226C32.6651 56.9424 32.7935 56.9143 32.9299 56.9384C33.0663 56.9624 33.1746 57.0306 33.2548 57.143C33.4795 57.4238 33.7683 57.6485 34.1214 57.817C34.4744 57.9854 34.8836 58.0697 35.349 58.0697C35.7742 58.0697 36.1634 57.9654 36.5164 57.7568C36.8695 57.5562 37.1463 57.2633 37.3469 56.8782C37.5555 56.4931 37.6598 56.0357 37.6598 55.5062V53.7249L38.0208 52.9065L38.6587 53.063V55.5663C38.6587 56.2082 38.5143 56.7859 38.2254 57.2994C37.9366 57.821 37.5434 58.2302 37.046 58.527C36.5485 58.8319 35.9748 58.9844 35.3249 58.9844ZM35.3249 55.4941C35.7823 55.4941 36.1834 55.3898 36.5285 55.1812C36.8815 54.9726 37.1583 54.6877 37.3589 54.3267C37.5595 53.9576 37.6598 53.5364 37.6598 53.063C37.6598 52.5896 37.5595 52.1683 37.3589 51.7993C37.1583 51.4302 36.8815 51.1413 36.5285 50.9327C36.1834 50.7241 35.7823 50.6198 35.3249 50.6198C34.8676 50.6198 34.4624 50.7241 34.1093 50.9327C33.7563 51.1413 33.4755 51.4302 33.2669 51.7993C33.0663 52.1683 32.966 52.5896 32.966 53.063C32.966 53.5364 33.0663 53.9576 33.2669 54.3267C33.4755 54.6877 33.7563 54.9726 34.1093 55.1812C34.4624 55.3898 34.8676 55.4941 35.3249 55.4941ZM40.7743 52.2686C40.7904 51.7792 40.9147 51.3419 41.1474 50.9568C41.3881 50.5636 41.701 50.2547 42.0862 50.03C42.4793 49.8054 42.9086 49.6931 43.374 49.6931C43.7832 49.6931 44.0921 49.7532 44.3007 49.8736C44.5173 49.9939 44.5976 50.1584 44.5414 50.367C44.5173 50.4794 44.4652 50.5596 44.3849 50.6077C44.3127 50.6559 44.2245 50.68 44.1202 50.68C44.0239 50.68 43.9115 50.6719 43.7832 50.6559C43.3098 50.5997 42.8885 50.6318 42.5195 50.7522C42.1584 50.8645 41.8695 51.0531 41.6529 51.3178C41.4363 51.5826 41.3279 51.8995 41.3279 52.2686H40.7743ZM40.8345 56.3486C40.674 56.3486 40.5497 56.3045 40.4614 56.2162C40.3731 56.128 40.329 56.0036 40.329 55.8431V50.2708C40.329 50.1103 40.3731 49.9859 40.4614 49.8977C40.5497 49.8094 40.674 49.7653 40.8345 49.7653C40.995 49.7653 41.1153 49.8094 41.1956 49.8977C41.2838 49.9859 41.3279 50.1103 41.3279 50.2708V55.8431C41.3279 56.0036 41.2838 56.128 41.1956 56.2162C41.1153 56.3045 40.995 56.3486 40.8345 56.3486ZM48.1852 56.4088C47.5754 56.4088 47.0298 56.2644 46.5484 55.9755C46.067 55.6787 45.6859 55.2775 45.405 54.772C45.1242 54.2665 44.9838 53.6968 44.9838 53.063C44.9838 52.4211 45.1282 51.8474 45.4171 51.3419C45.7139 50.8364 46.1151 50.4393 46.6206 50.1504C47.1261 49.8535 47.6958 49.7051 48.3296 49.7051C48.9555 49.7051 49.5171 49.8535 50.0146 50.1504C50.5201 50.4393 50.9172 50.8364 51.2061 51.3419C51.503 51.8474 51.6554 52.4211 51.6634 53.063L51.2542 53.2676C51.2542 53.8613 51.1178 54.3949 50.845 54.8683C50.5803 55.3417 50.2152 55.7188 49.7498 55.9996C49.2925 56.2724 48.7709 56.4088 48.1852 56.4088ZM48.3296 55.4941C48.779 55.4941 49.1761 55.3898 49.5211 55.1812C49.8742 54.9646 50.151 54.6717 50.3516 54.3026C50.5602 53.9335 50.6645 53.5203 50.6645 53.063C50.6645 52.5976 50.5602 52.1844 50.3516 51.8233C50.151 51.4542 49.8742 51.1614 49.5211 50.9447C49.1761 50.7281 48.779 50.6198 48.3296 50.6198C47.8883 50.6198 47.4872 50.7281 47.1261 50.9447C46.7731 51.1614 46.4922 51.4542 46.2836 51.8233C46.075 52.1844 45.9707 52.5976 45.9707 53.063C45.9707 53.5203 46.075 53.9335 46.2836 54.3026C46.4922 54.6717 46.7731 54.9646 47.1261 55.1812C47.4872 55.3898 47.8883 55.4941 48.3296 55.4941ZM51.1459 56.3486C51.0015 56.3486 50.8771 56.3045 50.7728 56.2162C50.6765 56.12 50.6284 55.9956 50.6284 55.8431V53.8573L50.8571 52.8102L51.6634 53.063V55.8431C51.6634 55.9956 51.6153 56.12 51.519 56.2162C51.4227 56.3045 51.2984 56.3486 51.1459 56.3486ZM62.1557 56.3486C62.0032 56.3486 61.8789 56.3045 61.7826 56.2162C61.6863 56.12 61.6382 55.9956 61.6382 55.8431V52.389C61.6382 51.8354 61.4977 51.4061 61.2169 51.1012C60.9361 50.7963 60.571 50.6439 60.1217 50.6439C59.6483 50.6439 59.2592 50.8043 58.9543 51.1253C58.6574 51.4462 58.5089 51.8675 58.5089 52.389H57.6304C57.6384 51.8514 57.7547 51.382 57.9794 50.9808C58.2041 50.5716 58.513 50.2547 58.9061 50.03C59.3073 49.8054 59.7606 49.6931 60.2661 49.6931C60.7315 49.6931 61.1447 49.8014 61.5058 50.018C61.8668 50.2347 62.1477 50.5476 62.3482 50.9568C62.5569 51.358 62.6612 51.8354 62.6612 52.389V55.8431C62.6612 55.9956 62.613 56.12 62.5167 56.2162C62.4205 56.3045 62.3001 56.3486 62.1557 56.3486ZM53.8512 56.3486C53.6908 56.3486 53.5624 56.3045 53.4661 56.2162C53.3779 56.12 53.3337 55.9956 53.3337 55.8431V50.2828C53.3337 50.1303 53.3779 50.006 53.4661 49.9097C53.5624 49.8134 53.6908 49.7653 53.8512 49.7653C54.0037 49.7653 54.1241 49.8134 54.2123 49.9097C54.3086 50.006 54.3567 50.1303 54.3567 50.2828V55.8431C54.3567 55.9956 54.3086 56.12 54.2123 56.2162C54.1241 56.3045 54.0037 56.3486 53.8512 56.3486ZM58.0035 56.3486C57.859 56.3486 57.7387 56.3045 57.6424 56.2162C57.5461 56.12 57.498 55.9956 57.498 55.8431V52.389C57.498 51.8354 57.3536 51.4061 57.0647 51.1012C56.7839 50.7963 56.4228 50.6439 55.9815 50.6439C55.5081 50.6439 55.119 50.8003 54.8141 51.1132C54.5092 51.4262 54.3567 51.8354 54.3567 52.3408H53.6587C53.6747 51.8193 53.7871 51.362 53.9957 50.9688C54.2043 50.5676 54.4931 50.2547 54.8622 50.03C55.2313 49.8054 55.6525 49.6931 56.1259 49.6931C56.5913 49.6931 57.0045 49.8014 57.3656 50.018C57.7266 50.2347 58.0075 50.5476 58.2081 50.9568C58.4087 51.358 58.5089 51.8354 58.5089 52.389V55.8431C58.5089 55.9956 58.4608 56.12 58.3645 56.2162C58.2763 56.3045 58.1559 56.3486 58.0035 56.3486Z" fill="#2B2B2B"/>
<path d="M38.0068 8.85819C37.6423 8.85819 37.286 8.96627 36.9829 9.16878C36.6798 9.37128 36.4436 9.6591 36.3041 9.99585C36.1647 10.3326 36.1282 10.7032 36.1993 11.0606C36.2704 11.4181 36.4459 11.7465 36.7036 12.0042C36.9614 12.262 37.2898 12.4375 37.6472 12.5086C38.0047 12.5797 38.3753 12.5432 38.712 12.4037C39.0488 12.2643 39.3366 12.028 39.5391 11.725C39.7416 11.4219 39.8497 11.0656 39.8497 10.7011C39.8497 10.2123 39.6555 9.74358 39.3099 9.39797C38.9643 9.05235 38.4956 8.85819 38.0068 8.85819ZM45.0713 12.5747C45.0414 11.3005 44.8028 10.0398 44.3649 8.84283C43.9744 7.81868 43.3666 6.8913 42.5834 6.12452C41.8229 5.33733 40.8933 4.73339 39.8651 4.35839C38.6712 3.90712 37.4091 3.66301 36.1332 3.63658C34.5052 3.54443 33.9831 3.54443 29.8058 3.54443C25.6285 3.54443 25.1063 3.54443 23.4784 3.63658C22.2024 3.66301 20.9403 3.90712 19.7465 4.35839C18.7201 4.73718 17.7914 5.34061 17.0282 6.12452C16.241 6.885 15.6371 7.81454 15.2621 8.84283C14.8108 10.0366 14.5667 11.2988 14.5403 12.5747C14.4481 14.2027 14.4481 14.7248 14.4481 18.9021C14.4481 23.0794 14.4481 23.6015 14.5403 25.2295C14.5667 26.5055 14.8108 27.7676 15.2621 28.9614C15.6371 29.9897 16.241 30.9192 17.0282 31.6797C17.7914 32.4636 18.7201 33.067 19.7465 33.4458C20.9403 33.8971 22.2024 34.1412 23.4784 34.1676C25.1063 34.2598 25.6285 34.2598 29.8058 34.2598C33.9831 34.2598 34.5052 34.2598 36.1332 34.1676C37.4091 34.1412 38.6712 33.8971 39.8651 33.4458C40.8933 33.0708 41.8229 32.4669 42.5834 31.6797C43.3701 30.9158 43.9784 29.9876 44.3649 28.9614C44.8028 27.7644 45.0414 26.5037 45.0713 25.2295C45.0713 23.6015 45.1635 23.0794 45.1635 18.9021C45.1635 14.7248 45.1635 14.2027 45.0713 12.5747ZM42.3069 25.0452C42.2957 26.02 42.1192 26.9859 41.7848 27.9017C41.5396 28.5701 41.1457 29.174 40.6329 29.6678C40.1348 30.1754 39.5321 30.5685 38.8668 30.8197C37.951 31.1541 36.9851 31.3306 36.0103 31.3418C34.4745 31.4186 33.9063 31.434 29.8672 31.434C25.8282 31.434 25.2599 31.434 23.7242 31.3418C22.7119 31.3608 21.704 31.2049 20.7448 30.8811C20.1086 30.6171 19.5336 30.225 19.0554 29.7293C18.5457 29.2359 18.1568 28.6315 17.919 27.9631C17.544 27.0342 17.336 26.0464 17.3046 25.0452C17.3046 23.5094 17.2125 22.9412 17.2125 18.9021C17.2125 14.863 17.2125 14.2948 17.3046 12.759C17.3115 11.7624 17.4935 10.7747 17.8422 9.84108C18.1125 9.19285 18.5275 8.61501 19.0554 8.15173C19.522 7.62369 20.0986 7.20431 20.7448 6.92312C21.6809 6.58532 22.6675 6.40876 23.6627 6.40096C25.1985 6.40096 25.7667 6.30881 29.8058 6.30881C33.8449 6.30881 34.4131 6.30881 35.9489 6.40096C36.9237 6.41214 37.8896 6.5887 38.8054 6.92312C39.5033 7.18213 40.1297 7.60323 40.6329 8.15173C41.1362 8.62349 41.5295 9.20025 41.7848 9.84108C42.1261 10.7763 42.3028 11.7635 42.3069 12.759C42.3837 14.2948 42.3991 14.863 42.3991 18.9021C42.3991 22.9412 42.3837 23.5094 42.3069 25.0452ZM29.8058 11.0236C28.2482 11.0267 26.7265 11.4913 25.4329 12.3588C24.1393 13.2264 23.1319 14.4579 22.538 15.8978C21.944 17.3376 21.7902 18.9212 22.0959 20.4485C22.4016 21.9758 23.1532 23.3781 24.2556 24.4784C25.3581 25.5787 26.7619 26.3276 28.2898 26.6303C29.8176 26.9331 31.4009 26.7761 32.8396 26.1794C34.2784 25.5826 35.5079 24.5728 36.3729 23.2776C37.2379 21.9823 37.6996 20.4597 37.6996 18.9021C37.7017 17.8656 37.4988 16.839 37.1026 15.8812C36.7064 14.9234 36.1248 14.0534 35.3912 13.3212C34.6576 12.589 33.7864 12.0091 32.8279 11.6148C31.8693 11.2205 30.8423 11.0196 29.8058 11.0236ZM29.8058 24.0162C28.7943 24.0162 27.8056 23.7163 26.9645 23.1543C26.1235 22.5924 25.468 21.7937 25.081 20.8592C24.6939 19.9247 24.5926 18.8964 24.79 17.9044C24.9873 16.9124 25.4744 16.0011 26.1896 15.2859C26.9048 14.5707 27.816 14.0836 28.8081 13.8863C29.8001 13.6889 30.8284 13.7902 31.7629 14.1773C32.6974 14.5644 33.4961 15.2198 34.058 16.0609C34.62 16.9019 34.9199 17.8906 34.9199 18.9021C34.9199 19.5737 34.7876 20.2387 34.5306 20.8592C34.2736 21.4797 33.8969 22.0434 33.422 22.5183C32.9471 22.9932 32.3833 23.3699 31.7629 23.6269C31.1424 23.8839 30.4774 24.0162 29.8058 24.0162Z" fill="#2B2B2B"/>
</svg>
