<svg width="38" height="37" viewBox="0 0 38 37" fill="none" xmlns="http://www.w3.org/2000/svg">
<g clip-path="url(#clip0_1922_27540)">
<path d="M0.274414 11.5183H8.51688V36.8585H0.274414V11.5183ZM30.9683 11.8155C30.8807 11.7878 30.7978 11.7579 30.7056 11.7325C30.595 11.7075 30.4836 11.686 30.3716 11.668C29.8849 11.5685 29.3894 11.5184 28.8927 11.5183C24.0872 11.5183 21.0395 15.0129 20.0351 16.3629V11.5183H11.7927V36.8585H20.0351V23.0366C20.0351 23.0366 26.2642 14.361 28.8927 20.7329V36.8585H37.1328V19.7585C37.1294 17.9389 36.5223 16.1719 35.4067 14.7345C34.2911 13.297 32.73 12.2704 30.9683 11.8155Z" fill="#2B2B2B"/>
<path d="M4.3058 8.06278C6.53228 8.06278 8.33719 6.25786 8.33719 4.03139C8.33719 1.80491 6.53228 0 4.3058 0C2.07933 0 0.274414 1.80491 0.274414 4.03139C0.274414 6.25786 2.07933 8.06278 4.3058 8.06278Z" fill="#2B2B2B"/>
</g>
<defs>
<clipPath id="clip0_1922_27540">
<rect width="36.8584" height="36.8584" fill="white" transform="translate(0.274414)"/>
</clipPath>
</defs>
</svg>
