<svg width="62" height="62" viewBox="0 0 62 62" fill="none" xmlns="http://www.w3.org/2000/svg">
<path d="M1.76989 56.3486C1.62547 56.3486 1.5011 56.3005 1.39679 56.2042C1.30051 56.1079 1.25237 55.9836 1.25237 55.8311V47.4665C1.25237 47.3221 1.30051 47.2017 1.39679 47.1054C1.5011 47.0011 1.62547 46.949 1.76989 46.949C1.91432 46.949 2.03467 47.0011 2.13095 47.1054C2.23526 47.2017 2.28741 47.3221 2.28741 47.4665V55.3497H6.88493C7.02936 55.3497 7.14971 55.3978 7.246 55.4941C7.3503 55.5904 7.40246 55.7067 7.40246 55.8431C7.40246 55.9876 7.3503 56.1079 7.246 56.2042C7.14971 56.3005 7.02936 56.3486 6.88493 56.3486H1.76989ZM9.33705 56.3486C9.1846 56.3486 9.06024 56.3045 8.96396 56.2162C8.86767 56.12 8.81953 55.9916 8.81953 55.8311V50.2828C8.81953 50.1223 8.86767 49.998 8.96396 49.9097C9.06024 49.8134 9.1846 49.7653 9.33705 49.7653C9.4895 49.7653 9.60986 49.8134 9.69811 49.9097C9.7944 49.998 9.84254 50.1223 9.84254 50.2828V55.8311C9.84254 55.9916 9.7944 56.12 9.69811 56.2162C9.60986 56.3045 9.4895 56.3486 9.33705 56.3486ZM9.32502 48.5738C9.13245 48.5738 8.96797 48.5056 8.83157 48.3692C8.69516 48.2247 8.62696 48.0562 8.62696 47.8637C8.62696 47.6631 8.69516 47.4986 8.83157 47.3702C8.97599 47.2418 9.14047 47.1777 9.32502 47.1777C9.50956 47.1777 9.67003 47.2418 9.80643 47.3702C9.95086 47.4986 10.0231 47.6631 10.0231 47.8637C10.0231 48.0562 9.95487 48.2247 9.81847 48.3692C9.68207 48.5056 9.51758 48.5738 9.32502 48.5738ZM17.6652 56.3486C17.5127 56.3486 17.3884 56.3005 17.2921 56.2042C17.1958 56.1079 17.1477 55.9876 17.1477 55.8431V52.7741C17.1477 52.2847 17.0554 51.8875 16.8708 51.5826C16.6943 51.2697 16.4496 51.037 16.1367 50.8846C15.8238 50.7241 15.4667 50.6439 15.0655 50.6439C14.6884 50.6439 14.3474 50.7201 14.0425 50.8725C13.7456 51.017 13.5089 51.2175 13.3324 51.4743C13.1559 51.723 13.0677 52.0119 13.0677 52.3408H12.3696C12.3856 51.8354 12.518 51.386 12.7668 50.9929C13.0235 50.5917 13.3645 50.2748 13.7898 50.0421C14.215 49.8094 14.6884 49.6931 15.21 49.6931C15.7716 49.6931 16.2731 49.8134 16.7144 50.0541C17.1637 50.2868 17.5167 50.6318 17.7735 51.0892C18.0383 51.5465 18.1707 52.1082 18.1707 52.7741V55.8431C18.1707 55.9876 18.1225 56.1079 18.0262 56.2042C17.93 56.3005 17.8096 56.3486 17.6652 56.3486ZM12.5622 56.3486C12.4017 56.3486 12.2733 56.3045 12.177 56.2162C12.0888 56.12 12.0446 55.9956 12.0446 55.8431V50.2828C12.0446 50.1223 12.0888 49.998 12.177 49.9097C12.2733 49.8134 12.4017 49.7653 12.5622 49.7653C12.7146 49.7653 12.835 49.8134 12.9232 49.9097C13.0195 49.998 13.0677 50.1223 13.0677 50.2828V55.8431C13.0677 55.9956 13.0195 56.12 12.9232 56.2162C12.835 56.3045 12.7146 56.3486 12.5622 56.3486ZM20.9594 54.086L20.3456 53.412L24.3293 49.8134C24.4336 49.7171 24.5419 49.673 24.6543 49.681C24.7746 49.689 24.8829 49.7452 24.9792 49.8495C25.0755 49.9538 25.1196 50.0662 25.1116 50.1865C25.1036 50.2988 25.0474 50.4031 24.9431 50.4994L20.9594 54.086ZM20.5743 56.3486C20.4298 56.3486 20.3095 56.3045 20.2132 56.2162C20.1249 56.12 20.0808 55.9996 20.0808 55.8552V47.4424C20.0808 47.298 20.1249 47.1817 20.2132 47.0934C20.3095 46.9971 20.4298 46.949 20.5743 46.949C20.7267 46.949 20.8471 46.9971 20.9353 47.0934C21.0316 47.1817 21.0797 47.298 21.0797 47.4424V55.8552C21.0797 55.9996 21.0316 56.12 20.9353 56.2162C20.8471 56.3045 20.7267 56.3486 20.5743 56.3486ZM24.9792 56.2885C24.8669 56.3847 24.7465 56.4249 24.6182 56.4088C24.4978 56.4008 24.3935 56.3406 24.3052 56.2283L21.6936 53.0148L22.4036 52.3649L25.0514 55.6265C25.1397 55.7308 25.1798 55.8431 25.1718 55.9635C25.1638 56.0839 25.0996 56.1922 24.9792 56.2885ZM29.2456 56.4088C28.5876 56.4088 28.0059 56.2684 27.5004 55.9876C26.995 55.6987 26.5978 55.3016 26.3089 54.7961C26.0201 54.2906 25.8757 53.7129 25.8757 53.063C25.8757 52.405 26.0121 51.8273 26.2849 51.3299C26.5577 50.8244 26.9308 50.4272 27.4042 50.1384C27.8856 49.8495 28.4392 49.7051 29.065 49.7051C29.6748 49.7051 30.2044 49.8455 30.6537 50.1263C31.1111 50.3991 31.4601 50.7803 31.7008 51.2697C31.9495 51.7591 32.0739 52.3168 32.0739 52.9426C32.0739 53.079 32.0298 53.1913 31.9415 53.2796C31.8532 53.3598 31.7409 53.4 31.6045 53.4H26.5737V52.5695H31.6647L31.1472 52.9306C31.1552 52.4893 31.075 52.0921 30.9065 51.7391C30.738 51.386 30.4973 51.1092 30.1843 50.9086C29.8714 50.708 29.4983 50.6077 29.065 50.6077C28.6077 50.6077 28.2065 50.7121 27.8615 50.9207C27.5245 51.1293 27.2637 51.4221 27.0792 51.7993C26.9027 52.1683 26.8144 52.5896 26.8144 53.063C26.8144 53.5364 26.9187 53.9576 27.1273 54.3267C27.336 54.6958 27.6208 54.9846 27.9819 55.1932C28.3509 55.4018 28.7722 55.5062 29.2456 55.5062C29.5184 55.5062 29.7952 55.458 30.076 55.3617C30.3649 55.2654 30.5935 55.1451 30.762 55.0007C30.8583 54.9285 30.9666 54.8923 31.087 54.8923C31.2154 54.8843 31.3197 54.9164 31.3999 54.9886C31.5203 55.0929 31.5804 55.2053 31.5804 55.3256C31.5885 55.446 31.5363 55.5503 31.424 55.6385C31.1592 55.8632 30.8222 56.0477 30.413 56.1922C30.0038 56.3366 29.6147 56.4088 29.2456 56.4088ZM36.2704 56.4088C35.6365 56.4088 35.0669 56.2644 34.5614 55.9755C34.0559 55.6787 33.6547 55.2775 33.3578 54.772C33.069 54.2665 32.9246 53.6928 32.9246 53.0509C32.9246 52.4171 33.065 51.8474 33.3458 51.3419C33.6266 50.8364 34.0077 50.4393 34.4892 50.1504C34.9706 49.8535 35.5162 49.7051 36.126 49.7051C36.6475 49.7051 37.1169 49.8174 37.5341 50.0421C37.9594 50.2587 38.3044 50.5476 38.5692 50.9086V47.4665C38.5692 47.306 38.6173 47.1817 38.7136 47.0934C38.8179 46.9971 38.9423 46.949 39.0867 46.949C39.2391 46.949 39.3635 46.9971 39.4598 47.0934C39.5561 47.1817 39.6042 47.306 39.6042 47.4665V53.087C39.5882 53.7129 39.4317 54.2785 39.1348 54.784C38.846 55.2815 38.4528 55.6787 37.9554 55.9755C37.4579 56.2644 36.8962 56.4088 36.2704 56.4088ZM36.2704 55.4941C36.7197 55.4941 37.1169 55.3858 37.4619 55.1692C37.8149 54.9525 38.0918 54.6637 38.2923 54.3026C38.501 53.9335 38.6053 53.5163 38.6053 53.0509C38.6053 52.5936 38.501 52.1804 38.2923 51.8113C38.0918 51.4422 37.8149 51.1534 37.4619 50.9447C37.1169 50.7281 36.7197 50.6198 36.2704 50.6198C35.8291 50.6198 35.4279 50.7281 35.0669 50.9447C34.7138 51.1534 34.433 51.4422 34.2244 51.8113C34.0158 52.1804 33.9115 52.5936 33.9115 53.0509C33.9115 53.5163 34.0158 53.9335 34.2244 54.3026C34.433 54.6637 34.7138 54.9525 35.0669 55.1692C35.4279 55.3858 35.8291 55.4941 36.2704 55.4941ZM42.2767 56.3486C42.1243 56.3486 41.9999 56.3005 41.9036 56.2042C41.8073 56.1079 41.7592 55.9836 41.7592 55.8311V47.4665C41.7592 47.3141 41.8073 47.1897 41.9036 47.0934C41.9999 46.9971 42.1243 46.949 42.2767 46.949C42.4292 46.949 42.5535 46.9971 42.6498 47.0934C42.7461 47.1897 42.7942 47.3141 42.7942 47.4665V55.8311C42.7942 55.9836 42.7461 56.1079 42.6498 56.2042C42.5535 56.3005 42.4292 56.3486 42.2767 56.3486ZM50.5707 56.3486C50.4183 56.3486 50.2939 56.3005 50.1976 56.2042C50.1013 56.1079 50.0532 55.9876 50.0532 55.8431V52.7741C50.0532 52.2847 49.9609 51.8875 49.7764 51.5826C49.5998 51.2697 49.3551 51.037 49.0422 50.8846C48.7293 50.7241 48.3722 50.6439 47.9711 50.6439C47.5939 50.6439 47.2529 50.7201 46.948 50.8725C46.6512 51.017 46.4145 51.2175 46.238 51.4743C46.0614 51.723 45.9732 52.0119 45.9732 52.3408H45.2751C45.2912 51.8354 45.4236 51.386 45.6723 50.9929C45.9291 50.5917 46.2701 50.2748 46.6953 50.0421C47.1206 49.8094 47.5939 49.6931 48.1155 49.6931C48.6771 49.6931 49.1786 49.8134 49.6199 50.0541C50.0692 50.2868 50.4223 50.6318 50.679 51.0892C50.9438 51.5465 51.0762 52.1082 51.0762 52.7741V55.8431C51.0762 55.9876 51.028 56.1079 50.9318 56.2042C50.8355 56.3005 50.7151 56.3486 50.5707 56.3486ZM45.4677 56.3486C45.3072 56.3486 45.1788 56.3045 45.0826 56.2162C44.9943 56.12 44.9502 55.9956 44.9502 55.8431V50.2828C44.9502 50.1223 44.9943 49.998 45.0826 49.9097C45.1788 49.8134 45.3072 49.7653 45.4677 49.7653C45.6201 49.7653 45.7405 49.8134 45.8288 49.9097C45.925 49.998 45.9732 50.1223 45.9732 50.2828V55.8431C45.9732 55.9956 45.925 56.12 45.8288 56.2162C45.7405 56.3045 45.6201 56.3486 45.4677 56.3486Z" fill="#2B2B2B"/>
<g clip-path="url(#clip0_2635_10011)">
<path d="M8.323 11.9907H16.5655V37.3309H8.323V11.9907ZM39.0168 12.2879C38.9293 12.2603 38.8464 12.2303 38.7542 12.205C38.6436 12.1799 38.5322 12.1584 38.4202 12.1405C37.9335 12.041 37.438 11.9908 36.9412 11.9907C32.1358 11.9907 29.0881 15.4854 28.0837 16.8353V11.9907H19.8412V37.3309H28.0837V23.509C28.0837 23.509 34.3128 14.8334 36.9412 21.2053V37.3309H45.1814V20.2309C45.178 18.4113 44.5709 16.6443 43.4553 15.2069C42.3397 13.7694 40.7786 12.7428 39.0168 12.2879Z" fill="#2B2B2B"/>
<path d="M12.3545 8.53543C14.581 8.53543 16.3859 6.73052 16.3859 4.50404C16.3859 2.27757 14.581 0.472656 12.3545 0.472656C10.128 0.472656 8.32312 2.27757 8.32312 4.50404C8.32312 6.73052 10.128 8.53543 12.3545 8.53543Z" fill="#2B2B2B"/>
</g>
<defs>
<clipPath id="clip0_2635_10011">
<rect width="36.8584" height="36.8584" fill="white" transform="translate(8.32312 0.472656)"/>
</clipPath>
</defs>
</svg>
