<svg width="47" height="54" viewBox="0 0 47 54" fill="none" xmlns="http://www.w3.org/2000/svg">
    <path
        d="M4.81984 41.6738C5.17318 41.6738 5.50651 41.7305 5.81984 41.8438C6.13984 41.9505 6.42651 42.1005 6.67984 42.2938C6.93318 42.4872 7.13984 42.7105 7.29984 42.9638C7.46651 43.2105 7.57318 43.4805 7.61984 43.7738C7.63318 43.8472 7.63318 43.8972 7.61984 43.9238C7.60651 43.9438 7.57651 43.9572 7.52984 43.9638L6.59984 44.0238C6.55984 44.0305 6.53318 44.0238 6.51984 44.0038C6.50651 43.9838 6.49318 43.9538 6.47984 43.9138C6.39318 43.5138 6.20984 43.1872 5.92984 42.9338C5.64984 42.6805 5.29318 42.5538 4.85984 42.5538C4.22651 42.5538 3.73651 42.7938 3.38984 43.2738C3.04984 43.7538 2.87984 44.4872 2.87984 45.4738C2.87984 46.4472 3.04651 47.1738 3.37984 47.6538C3.71984 48.1338 4.22651 48.3738 4.89984 48.3738C5.34651 48.3738 5.71984 48.2672 6.01984 48.0538C6.32651 47.8338 6.57651 47.4772 6.76984 46.9838C6.78984 46.9372 6.83984 46.9205 6.91984 46.9338L7.62984 47.1038C7.64984 47.1105 7.66984 47.1238 7.68984 47.1438C7.70984 47.1638 7.71318 47.2072 7.69984 47.2738C7.65318 47.4472 7.57651 47.6272 7.46984 47.8138C7.36318 48.0005 7.22984 48.1838 7.06984 48.3638C6.90984 48.5372 6.71984 48.6938 6.49984 48.8338C6.27984 48.9738 6.02984 49.0872 5.74984 49.1738C5.47651 49.2538 5.17651 49.2938 4.84984 49.2938C4.17651 49.2938 3.59651 49.1372 3.10984 48.8238C2.62984 48.5105 2.25984 48.0672 1.99984 47.4938C1.73984 46.9205 1.60984 46.2438 1.60984 45.4638C1.60984 44.6772 1.73984 44.0005 1.99984 43.4338C2.25984 42.8672 2.62984 42.4338 3.10984 42.1338C3.58984 41.8272 4.15984 41.6738 4.81984 41.6738ZM11.029 49.2938C10.5157 49.2938 10.0657 49.1805 9.67898 48.9538C9.29232 48.7205 8.99232 48.4005 8.77898 47.9938C8.56565 47.5805 8.45898 47.1072 8.45898 46.5738C8.45898 46.0205 8.56898 45.5372 8.78898 45.1238C9.00898 44.7038 9.31232 44.3772 9.69898 44.1438C10.0923 43.9105 10.539 43.7938 11.039 43.7938C11.559 43.7938 12.009 43.9138 12.389 44.1538C12.7757 44.3872 13.0757 44.7138 13.289 45.1338C13.5023 45.5472 13.609 46.0238 13.609 46.5638C13.609 47.0972 13.499 47.5705 13.279 47.9838C13.0657 48.3905 12.7657 48.7105 12.379 48.9438C11.9923 49.1772 11.5423 49.2938 11.029 49.2938ZM11.049 48.5438C11.3623 48.5438 11.629 48.4638 11.849 48.3038C12.069 48.1438 12.2357 47.9172 12.349 47.6238C12.469 47.3238 12.529 46.9638 12.529 46.5438C12.529 46.1238 12.469 45.7638 12.349 45.4638C12.2357 45.1638 12.0657 44.9338 11.839 44.7738C11.619 44.6072 11.3523 44.5238 11.039 44.5238C10.7257 44.5238 10.4557 44.6072 10.229 44.7738C10.009 44.9338 9.83898 45.1638 9.71898 45.4638C9.59898 45.7638 9.53898 46.1238 9.53898 46.5438C9.53898 46.9638 9.59898 47.3238 9.71898 47.6238C9.83898 47.9172 10.009 48.1438 10.229 48.3038C10.4557 48.4638 10.729 48.5438 11.049 48.5438ZM15.5053 43.8938C15.6186 43.8938 15.6753 43.9472 15.6753 44.0538V44.4438C15.6753 44.4905 15.6853 44.5172 15.7053 44.5238C15.732 44.5238 15.7653 44.5072 15.8053 44.4738C15.892 44.3872 15.9986 44.2938 16.1253 44.1938C16.252 44.0872 16.412 43.9938 16.6053 43.9138C16.8053 43.8338 17.0486 43.7938 17.3353 43.7938C17.742 43.7938 18.1053 43.8938 18.4253 44.0938C18.752 44.2872 19.0086 44.5805 19.1953 44.9738C19.3886 45.3672 19.4853 45.8672 19.4853 46.4738C19.4853 47.0872 19.3886 47.6038 19.1953 48.0238C19.0086 48.4372 18.7453 48.7538 18.4053 48.9738C18.072 49.1872 17.682 49.2938 17.2353 49.2938C16.942 49.2938 16.6786 49.2505 16.4453 49.1638C16.2186 49.0705 16.0186 48.9472 15.8453 48.7938C15.7853 48.7338 15.742 48.7105 15.7153 48.7238C15.6886 48.7305 15.6753 48.7738 15.6753 48.8538V50.7038C15.6753 50.7972 15.6353 50.8438 15.5553 50.8438H14.7453C14.6586 50.8438 14.6153 50.7972 14.6153 50.7038V44.0738C14.6153 44.0072 14.6286 43.9605 14.6553 43.9338C14.682 43.9072 14.732 43.8938 14.8053 43.8938H15.5053ZM15.6753 47.9638C15.8553 48.1505 16.042 48.3005 16.2353 48.4138C16.4353 48.5205 16.6586 48.5738 16.9053 48.5738C17.2053 48.5738 17.4653 48.4972 17.6853 48.3438C17.912 48.1905 18.0886 47.9605 18.2153 47.6538C18.342 47.3405 18.4053 46.9472 18.4053 46.4738C18.4053 46.0005 18.3386 45.6205 18.2053 45.3338C18.0786 45.0472 17.9053 44.8405 17.6853 44.7138C17.4653 44.5805 17.222 44.5138 16.9553 44.5138C16.7086 44.5138 16.4886 44.5672 16.2953 44.6738C16.102 44.7805 15.9486 44.9138 15.8353 45.0738C15.7286 45.2338 15.6753 45.3938 15.6753 45.5538V47.9638ZM20.6368 50.8438C20.4368 50.8438 20.2835 50.8372 20.1768 50.8238C20.0768 50.8105 20.0268 50.7672 20.0268 50.6938V50.1838C20.0268 50.1438 20.0435 50.1105 20.0768 50.0838C20.1168 50.0572 20.1935 50.0438 20.3068 50.0438H20.9568C21.0968 50.0438 21.2235 50.0005 21.3368 49.9138C21.4568 49.8338 21.5535 49.7305 21.6268 49.6038C21.7001 49.4772 21.7468 49.3438 21.7668 49.2038C21.7935 49.0705 21.7868 48.9505 21.7468 48.8438L19.8368 44.0838C19.8168 44.0372 19.8168 43.9938 19.8368 43.9538C19.8568 43.9138 19.9001 43.8938 19.9668 43.8938H20.7868C20.8268 43.8938 20.8635 43.9072 20.8968 43.9338C20.9301 43.9538 20.9501 43.9838 20.9568 44.0238L22.3368 47.6238C22.3568 47.6838 22.3835 47.7138 22.4168 47.7138C22.4501 47.7138 22.4801 47.6738 22.5068 47.5938L23.8668 44.0138C23.8801 43.9805 23.9001 43.9538 23.9268 43.9338C23.9535 43.9072 23.9868 43.8938 24.0268 43.8938H24.6168C24.6701 43.8938 24.7068 43.9138 24.7268 43.9538C24.7535 43.9872 24.7535 44.0238 24.7268 44.0638L22.5768 49.5138C22.4701 49.7872 22.3535 50.0105 22.2268 50.1838C22.1001 50.3572 21.9601 50.4905 21.8068 50.5838C21.6535 50.6838 21.4801 50.7505 21.2868 50.7838C21.1001 50.8238 20.8835 50.8438 20.6368 50.8438ZM27.7661 41.9238C27.7661 41.8238 27.8128 41.7738 27.9061 41.7738H28.8461C28.9328 41.7738 28.9761 41.8238 28.9761 41.9238V48.1738C28.9761 48.2472 29.0094 48.2838 29.0761 48.2838H32.4561C32.5494 48.2838 32.5961 48.3238 32.5961 48.4038V49.0638C32.5961 49.1038 32.5828 49.1372 32.5561 49.1638C32.5361 49.1838 32.5028 49.1938 32.4561 49.1938H27.9361C27.8694 49.1938 27.8228 49.1805 27.7961 49.1538C27.7761 49.1272 27.7661 49.0872 27.7661 49.0338V41.9238ZM34.6396 49.0038C34.6396 49.0772 34.6229 49.1272 34.5896 49.1538C34.5629 49.1805 34.5129 49.1938 34.4396 49.1938H33.7596C33.6863 49.1938 33.6363 49.1838 33.6096 49.1638C33.5896 49.1372 33.5796 49.0938 33.5796 49.0338V44.0438C33.5796 43.9438 33.6263 43.8938 33.7196 43.8938H34.5196C34.5996 43.8938 34.6396 43.9405 34.6396 44.0338V49.0038ZM34.6696 42.8338C34.6696 42.9738 34.6029 43.0438 34.4696 43.0438H33.7296C33.6563 43.0438 33.6063 43.0272 33.5796 42.9938C33.5596 42.9605 33.5496 42.9138 33.5496 42.8538V41.9438C33.5496 41.8305 33.5996 41.7738 33.6996 41.7738H34.5296C34.6229 41.7738 34.6696 41.8272 34.6696 41.9338V42.8338ZM36.1003 49.1938C35.9936 49.1938 35.9403 49.1405 35.9403 49.0338V44.0438C35.9403 43.9438 35.9836 43.8938 36.0703 43.8938H36.8603C36.9403 43.8938 36.9803 43.9372 36.9803 44.0238V44.5738C36.9803 44.6072 36.987 44.6305 37.0003 44.6438C37.0203 44.6505 37.047 44.6372 37.0803 44.6038C37.287 44.4372 37.4836 44.2938 37.6703 44.1738C37.857 44.0472 38.047 43.9538 38.2403 43.8938C38.4336 43.8272 38.6436 43.7938 38.8703 43.7938C39.377 43.7938 39.7703 43.9338 40.0503 44.2138C40.3303 44.4938 40.4703 44.8638 40.4703 45.3238V49.0138C40.4703 49.1338 40.4136 49.1938 40.3003 49.1938H39.5603C39.507 49.1938 39.467 49.1838 39.4403 49.1638C39.4203 49.1372 39.4103 49.0938 39.4103 49.0338V45.5338C39.4103 45.2405 39.3336 45.0105 39.1803 44.8438C39.027 44.6772 38.7903 44.5938 38.4703 44.5938C38.2903 44.5938 38.1236 44.6238 37.9703 44.6838C37.817 44.7372 37.6636 44.8205 37.5103 44.9338C37.357 45.0405 37.187 45.1772 37.0003 45.3438V49.0238C37.0003 49.1372 36.937 49.1938 36.8103 49.1938H36.1003ZM46.5092 49.0038C46.5359 49.0505 46.5392 49.0938 46.5192 49.1338C46.5059 49.1738 46.4659 49.1938 46.3992 49.1938H45.5092C45.4625 49.1938 45.4225 49.1805 45.3892 49.1538C45.3559 49.1272 45.3292 49.0905 45.3092 49.0438L43.9392 46.6238C43.9259 46.5838 43.9092 46.5605 43.8892 46.5538C43.8692 46.5472 43.8425 46.5638 43.8092 46.6038L42.8592 47.5538C42.8325 47.5805 42.8125 47.6105 42.7992 47.6438C42.7859 47.6705 42.7792 47.7105 42.7792 47.7638V49.0038C42.7792 49.0772 42.7625 49.1272 42.7292 49.1538C42.7025 49.1805 42.6525 49.1938 42.5792 49.1938H41.8892C41.8225 49.1938 41.7759 49.1838 41.7492 49.1638C41.7292 49.1372 41.7192 49.0938 41.7192 49.0338V41.9238C41.7192 41.8238 41.7625 41.7738 41.8492 41.7738H42.6492C42.7359 41.7738 42.7792 41.8238 42.7792 41.9238V46.3938C42.7792 46.4405 42.7859 46.4705 42.7992 46.4838C42.8192 46.4905 42.8492 46.4738 42.8892 46.4338L45.1692 44.0238C45.2559 43.9372 45.3325 43.8938 45.3992 43.8938H46.1492C46.2292 43.8938 46.2759 43.9138 46.2892 43.9538C46.3025 43.9938 46.2792 44.0438 46.2192 44.1038L44.6992 45.6538C44.6725 45.6805 44.6559 45.7072 44.6492 45.7338C44.6425 45.7605 44.6525 45.8038 44.6792 45.8638L46.5092 49.0038Z"
        fill="#2B2B2B" />
    <path
        d="M27.8329 21.0789L22.5342 26.3776C21.8926 26.9968 21.0358 27.3428 20.1443 27.3428C19.2527 27.3428 18.3959 26.9968 17.7544 26.3776C17.4397 26.0643 17.1901 25.6918 17.0197 25.2817C16.8494 24.8716 16.7617 24.4318 16.7617 23.9878C16.7617 23.5437 16.8494 23.1039 17.0197 22.6938C17.1901 22.2837 17.4397 21.9113 17.7544 21.5979L23.0531 16.2991C23.3103 16.042 23.4547 15.6932 23.4547 15.3295C23.4547 14.9658 23.3103 14.617 23.0531 14.3599C22.796 14.1027 22.4472 13.9583 22.0835 13.9583C21.7198 13.9583 21.371 14.1027 21.1139 14.3599L15.8151 19.6723C14.7477 20.8342 14.1704 22.3635 14.2038 23.941C14.2372 25.5184 14.8787 27.022 15.9944 28.1377C17.11 29.2533 18.6136 29.8949 20.191 29.9283C21.7685 29.9616 23.2978 29.3843 24.4597 28.3169L29.7721 23.0181C30.0293 22.761 30.1738 22.4122 30.1738 22.0485C30.1738 21.6848 30.0293 21.3361 29.7721 21.0789C29.515 20.8217 29.1662 20.6773 28.8025 20.6773C28.4388 20.6773 28.0901 20.8217 27.8329 21.0789ZM39.5502 4.58179C38.4014 3.44011 36.8476 2.79932 35.2279 2.79932C33.6083 2.79932 32.0544 3.44011 30.9056 4.58179L25.5932 9.88053C25.4659 10.0079 25.3649 10.159 25.296 10.3254C25.2271 10.4918 25.1916 10.6701 25.1916 10.8501C25.1916 11.0302 25.2271 11.2085 25.296 11.3749C25.3649 11.5413 25.4659 11.6924 25.5932 11.8198C25.7206 11.9471 25.8717 12.0481 26.0381 12.117C26.2045 12.1859 26.3828 12.2214 26.5628 12.2214C26.7429 12.2214 26.9212 12.1859 27.0876 12.117C27.254 12.0481 27.4051 11.9471 27.5325 11.8198L32.8312 6.52102C33.4727 5.90186 34.3295 5.55585 35.2211 5.55585C36.1127 5.55585 36.9695 5.90186 37.611 6.52102C37.9256 6.83442 38.1753 7.20686 38.3456 7.61698C38.516 8.0271 38.6037 8.46682 38.6037 8.91091C38.6037 9.35501 38.516 9.79473 38.3456 10.2048C38.1753 10.615 37.9256 10.9874 37.611 11.3008L32.3123 16.5996C32.1843 16.7265 32.0827 16.8776 32.0133 17.044C31.944 17.2104 31.9083 17.3889 31.9083 17.5692C31.9083 17.7495 31.944 17.928 32.0133 18.0944C32.0827 18.2608 32.1843 18.4118 32.3123 18.5388C32.4392 18.6668 32.5903 18.7684 32.7567 18.8377C32.9231 18.907 33.1016 18.9427 33.2819 18.9427C33.4622 18.9427 33.6407 18.907 33.8071 18.8377C33.9735 18.7684 34.1245 18.6668 34.2515 18.5388L39.5502 13.2264C40.6919 12.0776 41.3327 10.5237 41.3327 8.90409C41.3327 7.28445 40.6919 5.7306 39.5502 4.58179ZM23.3536 20.7785C23.4812 20.905 23.6325 21.0052 23.7989 21.0731C23.9653 21.1411 24.1434 21.1755 24.3232 21.1745C24.5029 21.1755 24.6811 21.1411 24.8475 21.0731C25.0138 21.0052 25.1652 20.905 25.2928 20.7785L32.0118 14.0594C32.269 13.8023 32.4134 13.4535 32.4134 13.0898C32.4134 12.7261 32.269 12.3774 32.0118 12.1202C31.7547 11.863 31.4059 11.7186 31.0422 11.7186C30.6785 11.7186 30.3297 11.863 30.0726 12.1202L23.3536 18.8392C23.2256 18.9662 23.124 19.1172 23.0546 19.2836C22.9853 19.4501 22.9496 19.6286 22.9496 19.8088C22.9496 19.9891 22.9853 20.1676 23.0546 20.334C23.124 20.5005 23.2256 20.6515 23.3536 20.7785Z"
        fill="#2B2B2B" />
</svg>