<svg width="43" height="54" viewBox="0 0 43 54" fill="none" xmlns="http://www.w3.org/2000/svg">
    <path
        d="M1.93172 45.5038C1.93172 44.6905 2.06172 44.0005 2.32172 43.4338C2.58839 42.8605 2.96505 42.4238 3.45172 42.1238C3.93839 41.8238 4.51505 41.6738 5.18172 41.6738C5.84839 41.6738 6.42505 41.8238 6.91172 42.1238C7.39839 42.4238 7.77172 42.8605 8.03172 43.4338C8.29839 44.0005 8.43172 44.6905 8.43172 45.5038C8.43172 46.2772 8.31505 46.9238 8.08172 47.4438C7.84839 47.9638 7.52172 48.3805 7.10172 48.6938C7.06839 48.7138 7.05172 48.7405 7.05172 48.7738C7.05172 48.8472 7.10839 48.9405 7.22172 49.0538C7.34172 49.1672 7.49172 49.2672 7.67172 49.3538C7.85839 49.4472 8.05505 49.5105 8.26172 49.5438C8.30839 49.5505 8.33839 49.5638 8.35172 49.5838C8.36505 49.6105 8.37172 49.6338 8.37172 49.6538V50.2338C8.37172 50.3205 8.34839 50.3738 8.30172 50.3938C8.25505 50.4205 8.17839 50.4338 8.07172 50.4338C7.73839 50.4338 7.40172 50.3438 7.06172 50.1638C6.72839 49.9838 6.40839 49.6838 6.10172 49.2638C6.06839 49.2172 6.01839 49.2038 5.95172 49.2238C5.82505 49.2438 5.69839 49.2605 5.57172 49.2738C5.44505 49.2872 5.31505 49.2938 5.18172 49.2938C4.52172 49.2938 3.94505 49.1472 3.45172 48.8538C2.96505 48.5605 2.58839 48.1305 2.32172 47.5638C2.06172 46.9972 1.93172 46.3105 1.93172 45.5038ZM3.19172 45.5238C3.19172 46.5172 3.35505 47.2472 3.68172 47.7138C4.01505 48.1738 4.51505 48.4038 5.18172 48.4038C5.84172 48.4038 6.33839 48.1738 6.67172 47.7138C7.00505 47.2472 7.17172 46.5138 7.17172 45.5138C7.17172 44.5205 7.00505 43.7805 6.67172 43.2938C6.34505 42.8005 5.84839 42.5538 5.18172 42.5538C4.51505 42.5538 4.01505 42.8005 3.68172 43.2938C3.35505 43.7805 3.19172 44.5238 3.19172 45.5238ZM15.3175 48.9838C15.3375 49.0372 15.3342 49.0872 15.3075 49.1338C15.2875 49.1738 15.2508 49.1938 15.1975 49.1938H14.2275C14.1475 49.1938 14.0875 49.1472 14.0475 49.0538L12.8275 46.0138C12.7942 45.9338 12.7108 45.8938 12.5775 45.8938H11.1175C11.0708 45.8938 11.0375 45.9072 11.0175 45.9338C11.0042 45.9538 10.9975 45.9772 10.9975 46.0038V49.0138C10.9975 49.1338 10.9342 49.1938 10.8075 49.1938H9.9575C9.89083 49.1938 9.84417 49.1805 9.8175 49.1538C9.7975 49.1272 9.7875 49.0872 9.7875 49.0338V41.9238C9.7875 41.8238 9.83417 41.7738 9.9275 41.7738H12.8175C13.6375 41.7738 14.2742 41.9405 14.7275 42.2738C15.1875 42.6072 15.4175 43.0938 15.4175 43.7338C15.4175 44.1005 15.3475 44.4172 15.2075 44.6838C15.0675 44.9438 14.8875 45.1572 14.6675 45.3238C14.4542 45.4838 14.2242 45.6005 13.9775 45.6738C13.9308 45.6938 13.9175 45.7338 13.9375 45.7938L15.3175 48.9838ZM12.5775 45.0438C13.0975 45.0438 13.4908 44.9472 13.7575 44.7538C14.0308 44.5538 14.1675 44.2438 14.1675 43.8238C14.1675 43.4238 14.0442 43.1238 13.7975 42.9238C13.5508 42.7238 13.2008 42.6238 12.7475 42.6238H11.1575C11.0508 42.6238 10.9975 42.6638 10.9975 42.7438V44.9038C10.9975 44.9972 11.0342 45.0438 11.1075 45.0438H12.5775ZM21.6377 41.6738C21.991 41.6738 22.3243 41.7305 22.6377 41.8438C22.9577 41.9505 23.2443 42.1005 23.4977 42.2938C23.751 42.4872 23.9577 42.7105 24.1177 42.9638C24.2843 43.2105 24.391 43.4805 24.4377 43.7738C24.451 43.8472 24.451 43.8972 24.4377 43.9238C24.4243 43.9438 24.3943 43.9572 24.3477 43.9638L23.4177 44.0238C23.3777 44.0305 23.351 44.0238 23.3377 44.0038C23.3243 43.9838 23.311 43.9538 23.2977 43.9138C23.211 43.5138 23.0277 43.1872 22.7477 42.9338C22.4677 42.6805 22.111 42.5538 21.6777 42.5538C21.0443 42.5538 20.5543 42.7938 20.2077 43.2738C19.8677 43.7538 19.6977 44.4872 19.6977 45.4738C19.6977 46.4472 19.8643 47.1738 20.1977 47.6538C20.5377 48.1338 21.0443 48.3738 21.7177 48.3738C22.1643 48.3738 22.5377 48.2672 22.8377 48.0538C23.1443 47.8338 23.3943 47.4772 23.5877 46.9838C23.6077 46.9372 23.6577 46.9205 23.7377 46.9338L24.4477 47.1038C24.4677 47.1105 24.4877 47.1238 24.5077 47.1438C24.5277 47.1638 24.531 47.2072 24.5177 47.2738C24.471 47.4472 24.3943 47.6272 24.2877 47.8138C24.181 48.0005 24.0477 48.1838 23.8877 48.3638C23.7277 48.5372 23.5377 48.6938 23.3177 48.8338C23.0977 48.9738 22.8477 49.0872 22.5677 49.1738C22.2943 49.2538 21.9943 49.2938 21.6677 49.2938C20.9943 49.2938 20.4143 49.1372 19.9277 48.8238C19.4477 48.5105 19.0777 48.0672 18.8177 47.4938C18.5577 46.9205 18.4277 46.2438 18.4277 45.4638C18.4277 44.6772 18.5577 44.0005 18.8177 43.4338C19.0777 42.8672 19.4477 42.4338 19.9277 42.1338C20.4077 41.8272 20.9777 41.6738 21.6377 41.6738ZM27.8468 49.2938C27.3335 49.2938 26.8835 49.1805 26.4968 48.9538C26.1101 48.7205 25.8101 48.4005 25.5968 47.9938C25.3835 47.5805 25.2768 47.1072 25.2768 46.5738C25.2768 46.0205 25.3868 45.5372 25.6068 45.1238C25.8268 44.7038 26.1301 44.3772 26.5168 44.1438C26.9101 43.9105 27.3568 43.7938 27.8568 43.7938C28.3768 43.7938 28.8268 43.9138 29.2068 44.1538C29.5935 44.3872 29.8935 44.7138 30.1068 45.1338C30.3201 45.5472 30.4268 46.0238 30.4268 46.5638C30.4268 47.0972 30.3168 47.5705 30.0968 47.9838C29.8835 48.3905 29.5835 48.7105 29.1968 48.9438C28.8101 49.1772 28.3601 49.2938 27.8468 49.2938ZM27.8668 48.5438C28.1801 48.5438 28.4468 48.4638 28.6668 48.3038C28.8868 48.1438 29.0535 47.9172 29.1668 47.6238C29.2868 47.3238 29.3468 46.9638 29.3468 46.5438C29.3468 46.1238 29.2868 45.7638 29.1668 45.4638C29.0535 45.1638 28.8835 44.9338 28.6568 44.7738C28.4368 44.6072 28.1701 44.5238 27.8568 44.5238C27.5435 44.5238 27.2735 44.6072 27.0468 44.7738C26.8268 44.9338 26.6568 45.1638 26.5368 45.4638C26.4168 45.7638 26.3568 46.1238 26.3568 46.5438C26.3568 46.9638 26.4168 47.3238 26.5368 47.6238C26.6568 47.9172 26.8268 48.1438 27.0468 48.3038C27.2735 48.4638 27.5468 48.5438 27.8668 48.5438ZM35.1731 49.1938C35.1265 49.1938 35.0865 49.1805 35.0531 49.1538C35.0265 49.1272 35.0131 49.0872 35.0131 49.0338V48.6538C35.0131 48.6072 34.9998 48.5805 34.9731 48.5738C34.9465 48.5672 34.9165 48.5805 34.8831 48.6138C34.7965 48.6938 34.6865 48.7872 34.5531 48.8938C34.4198 49.0005 34.2531 49.0938 34.0531 49.1738C33.8531 49.2538 33.6165 49.2938 33.3431 49.2938C32.9298 49.2938 32.5565 49.1938 32.2231 48.9938C31.8965 48.7938 31.6365 48.4972 31.4431 48.1038C31.2565 47.7038 31.1631 47.2072 31.1631 46.6138C31.1631 46.0472 31.2631 45.5538 31.4631 45.1338C31.6631 44.7138 31.9365 44.3872 32.2831 44.1538C32.6298 43.9138 33.0198 43.7938 33.4531 43.7938C33.7665 43.7938 34.0298 43.8438 34.2431 43.9438C34.4631 44.0438 34.6598 44.1705 34.8331 44.3238C34.8865 44.3705 34.9265 44.3905 34.9531 44.3838C34.9798 44.3705 34.9931 44.3272 34.9931 44.2538V41.9238C34.9931 41.8238 35.0365 41.7738 35.1231 41.7738H35.9231C36.0098 41.7738 36.0531 41.8238 36.0531 41.9238V49.0238C36.0531 49.0838 36.0398 49.1272 36.0131 49.1538C35.9865 49.1805 35.9365 49.1938 35.8631 49.1938H35.1731ZM34.9931 45.1338C34.7998 44.9405 34.6065 44.7905 34.4131 44.6838C34.2198 44.5772 34.0031 44.5238 33.7631 44.5238C33.4698 44.5238 33.2065 44.6005 32.9731 44.7538C32.7465 44.9072 32.5665 45.1372 32.4331 45.4438C32.3065 45.7438 32.2431 46.1238 32.2431 46.5838C32.2431 47.0505 32.3098 47.4305 32.4431 47.7238C32.5765 48.0172 32.7531 48.2338 32.9731 48.3738C33.1998 48.5072 33.4465 48.5738 33.7131 48.5738C33.9531 48.5738 34.1698 48.5172 34.3631 48.4038C34.5565 48.2905 34.7098 48.1505 34.8231 47.9838C34.9365 47.8105 34.9931 47.6405 34.9931 47.4738V45.1338ZM38.1487 46.9138C38.1487 47.2138 38.2187 47.4872 38.3587 47.7338C38.5054 47.9738 38.6987 48.1672 38.9387 48.3138C39.1854 48.4538 39.4587 48.5238 39.7587 48.5238C40.0654 48.5238 40.3387 48.4605 40.5787 48.3338C40.8187 48.2072 41.0387 48.0105 41.2387 47.7438C41.2587 47.7172 41.2787 47.7038 41.2987 47.7038C41.3187 47.6972 41.3487 47.7038 41.3887 47.7238L41.8987 47.9638C41.9721 47.9972 41.9787 48.0505 41.9187 48.1238C41.7321 48.3972 41.5254 48.6205 41.2987 48.7938C41.0787 48.9672 40.8321 49.0938 40.5587 49.1738C40.2854 49.2538 39.9821 49.2938 39.6487 49.2938C39.1421 49.2938 38.6954 49.1805 38.3087 48.9538C37.9221 48.7272 37.6154 48.4105 37.3887 48.0038C37.1687 47.5972 37.0587 47.1305 37.0587 46.6038C37.0587 46.0238 37.1721 45.5272 37.3987 45.1138C37.6254 44.6938 37.9321 44.3705 38.3187 44.1438C38.7121 43.9105 39.1487 43.7938 39.6287 43.7938C40.1221 43.7938 40.5521 43.9038 40.9187 44.1238C41.2921 44.3372 41.5821 44.6472 41.7887 45.0538C41.9954 45.4605 42.0987 45.9538 42.0987 46.5338C42.0987 46.5938 42.0921 46.6472 42.0787 46.6938C42.0654 46.7338 42.0221 46.7538 41.9487 46.7538H38.2487C38.2154 46.7538 38.1887 46.7705 38.1687 46.8038C38.1554 46.8305 38.1487 46.8672 38.1487 46.9138ZM40.8787 46.1238C40.9521 46.1238 40.9987 46.1138 41.0187 46.0938C41.0387 46.0738 41.0487 46.0372 41.0487 45.9838C41.0487 45.7305 40.9921 45.4905 40.8787 45.2638C40.7721 45.0372 40.6154 44.8538 40.4087 44.7138C40.2087 44.5738 39.9587 44.5038 39.6587 44.5038C39.3454 44.5038 39.0754 44.5805 38.8487 44.7338C38.6287 44.8805 38.4587 45.0772 38.3387 45.3238C38.2254 45.5705 38.1687 45.8338 38.1687 46.1138L40.8787 46.1238Z"
        fill="#2B2B2B" />
    <path
        d="M20.5899 6.42907H13.808C13.5969 6.42907 13.3945 6.5129 13.2453 6.66214C13.0961 6.81137 13.0122 7.01377 13.0122 7.22482V14.1213C13.0122 14.3324 13.0961 14.5348 13.2453 14.684C13.3945 14.8332 13.5969 14.9171 13.808 14.9171H20.5899C20.801 14.9171 21.0034 14.8332 21.1526 14.684C21.3018 14.5348 21.3857 14.3324 21.3857 14.1213V7.22482C21.3857 7.01377 21.3018 6.81137 21.1526 6.66214C21.0034 6.5129 20.801 6.42907 20.5899 6.42907ZM19.7942 13.3256H14.6037V8.02057H19.7942V13.3256ZM18.26 9.61207H16.1379V11.7341H18.26V9.61207ZM9.77194 12.7951C10.0533 12.7951 10.3232 12.6833 10.5222 12.4843C10.7212 12.2853 10.8329 12.0155 10.8329 11.7341V5.36806C10.8332 5.08676 10.9451 4.81705 11.144 4.61813C11.3429 4.41922 11.6126 4.30734 11.8939 4.30706H18.26C18.5413 4.30706 18.8112 4.19528 19.0102 3.9963C19.2092 3.79733 19.321 3.52746 19.321 3.24606C19.321 2.96467 19.2092 2.6948 19.0102 2.49582C18.8112 2.29684 18.5413 2.18506 18.26 2.18506H11.8939C11.05 2.1859 10.2409 2.52152 9.64415 3.11827C9.0474 3.71502 8.71178 4.52414 8.71094 5.36806V11.7341C8.71094 12.0155 8.82272 12.2853 9.0217 12.4843C9.22067 12.6833 9.49054 12.7951 9.77194 12.7951ZM20.5899 15.9781H13.808C13.5969 15.9781 13.3945 16.0619 13.2453 16.2112C13.0961 16.3604 13.0122 16.5628 13.0122 16.7738V23.6703C13.0122 23.8814 13.0961 24.0838 13.2453 24.233C13.3945 24.3823 13.5969 24.4661 13.808 24.4661H20.5899C20.801 24.4661 21.0034 24.3823 21.1526 24.233C21.3018 24.0838 21.3857 23.8814 21.3857 23.6703V16.7738C21.3857 16.5628 21.3018 16.3604 21.1526 16.2112C21.0034 16.0619 20.801 15.9781 20.5899 15.9781ZM19.7942 22.8746H14.6037V17.5696H19.7942V22.8746ZM18.26 19.1611H16.1379V21.2831H18.26V19.1611ZM18.26 26.5881H11.8939C11.6126 26.5878 11.3429 26.4759 11.144 26.277C10.9451 26.0781 10.8332 25.8084 10.8329 25.5271V19.1611C10.8329 18.8797 10.7212 18.6098 10.5222 18.4108C10.3232 18.2119 10.0533 18.1001 9.77194 18.1001C9.49054 18.1001 9.22067 18.2119 9.0217 18.4108C8.82272 18.6098 8.71094 18.8797 8.71094 19.1611V25.5271C8.71178 26.371 9.0474 27.1801 9.64415 27.7769C10.2409 28.3736 11.05 28.7093 11.8939 28.7101H18.26C18.5413 28.7101 18.8112 28.5983 19.0102 28.3993C19.2092 28.2004 19.321 27.9305 19.321 27.6491C19.321 27.3677 19.2092 27.0978 19.0102 26.8989C18.8112 26.6999 18.5413 26.5881 18.26 26.5881ZM34.175 18.1001C33.8936 18.1001 33.6237 18.2119 33.4247 18.4108C33.2258 18.6098 33.114 18.8797 33.114 19.1611V25.5271C33.1137 25.8084 33.0018 26.0781 32.8029 26.277C32.604 26.4759 32.3343 26.5878 32.053 26.5881H25.687C25.4056 26.5881 25.1357 26.6999 24.9367 26.8989C24.7377 27.0978 24.626 27.3677 24.626 27.6491C24.626 27.9305 24.7377 28.2004 24.9367 28.3993C25.1357 28.5983 25.4056 28.7101 25.687 28.7101H32.053C32.8969 28.7093 33.706 28.3736 34.3028 27.7769C34.8995 27.1801 35.2351 26.371 35.236 25.5271V19.1611C35.236 18.8797 35.1242 18.6098 34.9252 18.4108C34.7262 18.2119 34.4564 18.1001 34.175 18.1001ZM25.1565 21.8136H23.0345V23.9356H25.1565V21.8136ZM23.0345 18.6242H25.1565V16.5022H23.0345V18.6242ZM32.053 2.18506H25.687C25.4056 2.18506 25.1357 2.29684 24.9367 2.49582C24.7377 2.6948 24.626 2.96467 24.626 3.24606C24.626 3.52746 24.7377 3.79733 24.9367 3.9963C25.1357 4.19528 25.4056 4.30706 25.687 4.30706H32.053C32.3343 4.30734 32.604 4.41922 32.8029 4.61813C33.0018 4.81705 33.1137 5.08676 33.114 5.36806V11.7341C33.114 12.0155 33.2258 12.2853 33.4247 12.4843C33.6237 12.6833 33.8936 12.7951 34.175 12.7951C34.4564 12.7951 34.7262 12.6833 34.9252 12.4843C35.1242 12.2853 35.236 12.0155 35.236 11.7341V5.36806C35.2351 4.52414 34.8995 3.71502 34.3028 3.11827C33.706 2.52152 32.8969 2.1859 32.053 2.18506ZM25.687 11.7341H27.809V9.61207H25.687V11.7341ZM27.809 21.2831V19.1611H25.687V21.2831H27.809ZM30.1389 14.9171C30.35 14.9171 30.5524 14.8332 30.7016 14.684C30.8508 14.5348 30.9347 14.3324 30.9347 14.1213V7.22482C30.9347 7.01377 30.8508 6.81137 30.7016 6.66214C30.5524 6.5129 30.35 6.42907 30.1389 6.42907H23.357C23.146 6.42907 22.9436 6.5129 22.7943 6.66214C22.6451 6.81137 22.5613 7.01377 22.5613 7.22482V14.1213C22.5613 14.3324 22.6451 14.5348 22.7943 14.684C22.9436 14.8332 23.146 14.9171 23.357 14.9171H30.1389ZM24.1528 8.02057H29.3432V13.3256H24.1528V8.02057ZM30.4615 16.5022H28.3395V18.6242H30.4615V16.5022ZM28.3395 23.9356H30.4615V21.8136H28.3395V23.9356Z"
        fill="#2B2B2B" />
</svg>