<svg width="40" height="40" viewBox="0 0 40 40" fill="none" xmlns="http://www.w3.org/2000/svg">
<path d="M17.932 6.5167H7.79299C7.47747 6.5167 7.17488 6.64204 6.95178 6.86514C6.72867 7.08825 6.60333 7.39084 6.60333 7.70636V18.0167C6.60333 18.3322 6.72867 18.6348 6.95178 18.8579C7.17488 19.081 7.47747 19.2064 7.79299 19.2064H17.932C18.2475 19.2064 18.5501 19.081 18.7732 18.8579C18.9963 18.6348 19.1217 18.3322 19.1217 18.0167V7.70636C19.1217 7.39084 18.9963 7.08825 18.7732 6.86514C18.5501 6.64204 18.2475 6.5167 17.932 6.5167ZM16.7424 16.827H8.98264V8.89601H16.7424V16.827ZM14.4487 11.2753H11.2763V14.4477H14.4487V11.2753ZM1.75906 16.0339C2.17975 16.0339 2.5832 15.8668 2.88068 15.5694C3.17815 15.2719 3.34527 14.8684 3.34527 14.4477V4.9305C3.34569 4.50994 3.51294 4.10672 3.81032 3.80934C4.1077 3.51196 4.51091 3.34471 4.93147 3.34429H14.4487C14.8694 3.34429 15.2729 3.17717 15.5703 2.8797C15.8678 2.58223 16.0349 2.17877 16.0349 1.75808C16.0349 1.33739 15.8678 0.933936 15.5703 0.636464C15.2729 0.338993 14.8694 0.171875 14.4487 0.171875H4.93147C3.66979 0.173135 2.46015 0.674893 1.56801 1.56703C0.675869 2.45918 0.174111 3.66882 0.172852 4.9305V14.4477C0.172852 14.8684 0.339969 15.2719 0.637441 15.5694C0.934912 15.8668 1.33837 16.0339 1.75906 16.0339ZM17.932 20.7926H7.79299C7.47747 20.7926 7.17488 20.9179 6.95178 21.141C6.72867 21.3641 6.60333 21.6667 6.60333 21.9822V32.2926C6.60333 32.6081 6.72867 32.9107 6.95178 33.1338C7.17488 33.3569 7.47747 33.4822 7.79299 33.4822H17.932C18.2475 33.4822 18.5501 33.3569 18.7732 33.1338C18.9963 32.9107 19.1217 32.6081 19.1217 32.2926V21.9822C19.1217 21.6667 18.9963 21.3641 18.7732 21.141C18.5501 20.9179 18.2475 20.7926 17.932 20.7926ZM16.7424 31.1029H8.98264V23.1719H16.7424V31.1029ZM14.4487 25.5512H11.2763V28.7236H14.4487V25.5512ZM14.4487 36.6546H4.93147C4.51091 36.6542 4.1077 36.487 3.81032 36.1896C3.51294 35.8922 3.34569 35.489 3.34527 35.0684V25.5512C3.34527 25.1305 3.17815 24.727 2.88068 24.4296C2.5832 24.1321 2.17975 23.965 1.75906 23.965C1.33837 23.965 0.934912 24.1321 0.637441 24.4296C0.339969 24.727 0.172852 25.1305 0.172852 25.5512V35.0684C0.174111 36.3301 0.675869 37.5397 1.56801 38.4319C2.46015 39.324 3.66979 39.8258 4.93147 39.827H14.4487C14.8694 39.827 15.2729 39.6599 15.5703 39.3625C15.8678 39.065 16.0349 38.6615 16.0349 38.2408C16.0349 37.8201 15.8678 37.4167 15.5703 37.1192C15.2729 36.8217 14.8694 36.6546 14.4487 36.6546ZM38.2418 23.965C37.8211 23.965 37.4177 24.1321 37.1202 24.4296C36.8227 24.727 36.6556 25.1305 36.6556 25.5512V35.0684C36.6552 35.489 36.4879 35.8922 36.1906 36.1896C35.8932 36.487 35.49 36.6542 35.0694 36.6546H25.5522C25.1315 36.6546 24.728 36.8217 24.4305 37.1192C24.1331 37.4167 23.966 37.8201 23.966 38.2408C23.966 38.6615 24.1331 39.065 24.4305 39.3625C24.728 39.6599 25.1315 39.827 25.5522 39.827H35.0694C36.3311 39.8258 37.5407 39.324 38.4329 38.4319C39.325 37.5397 39.8268 36.3301 39.828 35.0684V25.5512C39.828 25.1305 39.6609 24.727 39.3634 24.4296C39.066 24.1321 38.6625 23.965 38.2418 23.965ZM24.7591 29.5167H21.5866V32.6891H24.7591V29.5167ZM21.5866 24.7486H24.7591V21.5762H21.5866V24.7486ZM35.0694 0.171875H25.5522C25.1315 0.171875 24.728 0.338993 24.4305 0.636464C24.1331 0.933936 23.966 1.33739 23.966 1.75808C23.966 2.17877 24.1331 2.58223 24.4305 2.8797C24.728 3.17717 25.1315 3.34429 25.5522 3.34429H35.0694C35.49 3.34471 35.8932 3.51196 36.1906 3.80934C36.4879 4.10672 36.6552 4.50994 36.6556 4.9305V14.4477C36.6556 14.8684 36.8227 15.2719 37.1202 15.5694C37.4177 15.8668 37.8211 16.0339 38.2418 16.0339C38.6625 16.0339 39.066 15.8668 39.3634 15.5694C39.6609 15.2719 39.828 14.8684 39.828 14.4477V4.9305C39.8268 3.66882 39.325 2.45918 38.4329 1.56703C37.5407 0.674893 36.3311 0.173135 35.0694 0.171875ZM25.5522 14.4477H28.7246V11.2753H25.5522V14.4477ZM28.7246 28.7236V25.5512H25.5522V28.7236H28.7246ZM32.2079 19.2064C32.5234 19.2064 32.826 19.081 33.0491 18.8579C33.2722 18.6348 33.3975 18.3322 33.3975 18.0167V7.70636C33.3975 7.39084 33.2722 7.08825 33.0491 6.86514C32.826 6.64204 32.5234 6.5167 32.2079 6.5167H22.0688C21.7533 6.5167 21.4507 6.64204 21.2276 6.86514C21.0045 7.08825 20.8792 7.39084 20.8792 7.70636V18.0167C20.8792 18.3322 21.0045 18.6348 21.2276 18.8579C21.4507 19.081 21.7533 19.2064 22.0688 19.2064H32.2079ZM23.2585 8.89601H31.0182V16.827H23.2585V8.89601ZM32.6901 21.5762H29.5177V24.7486H32.6901V21.5762ZM29.5177 32.6891H32.6901V29.5167H29.5177V32.6891Z" fill="#2B2B2B"/>
</svg>
