<svg width="65" height="62" viewBox="0 0 65 62" fill="none" xmlns="http://www.w3.org/2000/svg">
<path d="M4.03279 56.0586C3.90441 56.0586 3.79208 56.0225 3.6958 55.9503C3.60754 55.87 3.54736 55.7657 3.51527 55.6374L1.06004 47.3931C0.995855 47.1765 1.00388 46.9999 1.08411 46.8635C1.16435 46.7271 1.29674 46.6589 1.48128 46.6589C1.58559 46.6589 1.68187 46.691 1.77013 46.7552C1.86642 46.8114 1.93863 46.9117 1.98677 47.0561L4.17721 54.6745H3.9004L5.95845 47.2126C5.98252 47.1163 6.03869 47.0361 6.12695 46.9719C6.22323 46.9077 6.33155 46.8756 6.4519 46.8756C6.55621 46.8756 6.6565 46.9077 6.75279 46.9719C6.84907 47.028 6.91326 47.1123 6.94535 47.2246L9.01544 54.6745H8.75066L10.9531 46.9959C11.0093 46.7713 11.1778 46.6589 11.4586 46.6589C11.6432 46.6589 11.7675 46.7312 11.8317 46.8756C11.8959 47.02 11.8999 47.1925 11.8438 47.3931L9.40058 55.6253C9.35243 55.7617 9.28423 55.87 9.19597 55.9503C9.10771 56.0225 8.9994 56.0586 8.87102 56.0586C8.75066 56.0586 8.64235 56.0185 8.54606 55.9382C8.4578 55.858 8.39361 55.7577 8.3535 55.6374L6.30748 48.043H6.59633L4.55031 55.6253C4.51019 55.7537 4.44199 55.858 4.34571 55.9382C4.25745 56.0185 4.15314 56.0586 4.03279 56.0586ZM13.5826 53.4589C13.4221 53.4589 13.2937 53.4108 13.1975 53.3145C13.1092 53.2182 13.0651 53.0979 13.0651 52.9535V47.1765C13.0651 47.016 13.1092 46.8916 13.1975 46.8034C13.2937 46.7071 13.4221 46.6589 13.5826 46.6589C13.735 46.6589 13.8554 46.7071 13.9437 46.8034C14.0399 46.8916 14.0881 47.016 14.0881 47.1765V52.9535C14.0881 53.0979 14.0399 53.2182 13.9437 53.3145C13.8554 53.4108 13.735 53.4589 13.5826 53.4589ZM18.6856 56.0586C18.5332 56.0586 18.4088 56.0105 18.3125 55.9142C18.2162 55.8179 18.1681 55.6975 18.1681 55.5531V52.4841C18.1681 51.9946 18.0758 51.5975 17.8913 51.2926C17.7147 50.9797 17.47 50.747 17.1571 50.5945C16.8442 50.4341 16.4871 50.3538 16.086 50.3538C15.7088 50.3538 15.3678 50.43 15.0629 50.5825C14.7661 50.7269 14.5294 50.9275 14.3529 51.1843C14.1763 51.433 14.0881 51.7218 14.0881 52.0508H13.39C13.4061 51.5453 13.5385 51.096 13.7872 50.7028C14.044 50.3017 14.385 49.9847 14.8102 49.752C15.2355 49.5194 15.7088 49.403 16.2304 49.403C16.792 49.403 17.2935 49.5234 17.7348 49.7641C18.1841 49.9968 18.5372 50.3418 18.7939 50.7991C19.0587 51.2565 19.1911 51.8181 19.1911 52.4841V55.5531C19.1911 55.6975 19.1429 55.8179 19.0467 55.9142C18.9504 56.0105 18.83 56.0586 18.6856 56.0586ZM13.5826 56.0586C13.4221 56.0586 13.2937 56.0145 13.1975 55.9262C13.1092 55.8299 13.0651 55.7056 13.0651 55.5531V49.9928C13.0651 49.8323 13.1092 49.7079 13.1975 49.6197C13.2937 49.5234 13.4221 49.4752 13.5826 49.4752C13.735 49.4752 13.8554 49.5234 13.9437 49.6197C14.0399 49.7079 14.0881 49.8323 14.0881 49.9928V55.5531C14.0881 55.7056 14.0399 55.8299 13.9437 55.9262C13.8554 56.0145 13.735 56.0586 13.5826 56.0586ZM23.9536 56.1188C23.3438 56.1188 22.7982 55.9743 22.3168 55.6855C21.8354 55.3886 21.4543 54.9874 21.1735 54.482C20.8926 53.9765 20.7522 53.4068 20.7522 52.7729C20.7522 52.131 20.8966 51.5574 21.1855 51.0519C21.4824 50.5464 21.8835 50.1492 22.389 49.8604C22.8945 49.5635 23.4642 49.4151 24.0981 49.4151C24.7239 49.4151 25.2855 49.5635 25.783 49.8604C26.2885 50.1492 26.6857 50.5464 26.9745 51.0519C27.2714 51.5574 27.4238 52.131 27.4319 52.7729L27.0227 52.9775C27.0227 53.5713 26.8863 54.1048 26.6135 54.5782C26.3487 55.0516 25.9836 55.4287 25.5182 55.7096C25.0609 55.9824 24.5394 56.1188 23.9536 56.1188ZM24.0981 55.2041C24.5474 55.2041 24.9445 55.0998 25.2896 54.8912C25.6426 54.6745 25.9194 54.3817 26.12 54.0126C26.3286 53.6435 26.4329 53.2303 26.4329 52.7729C26.4329 52.3076 26.3286 51.8943 26.12 51.5333C25.9194 51.1642 25.6426 50.8713 25.2896 50.6547C24.9445 50.4381 24.5474 50.3297 24.0981 50.3297C23.6568 50.3297 23.2556 50.4381 22.8945 50.6547C22.5415 50.8713 22.2606 51.1642 22.052 51.5333C21.8434 51.8943 21.7391 52.3076 21.7391 52.7729C21.7391 53.2303 21.8434 53.6435 22.052 54.0126C22.2606 54.3817 22.5415 54.6745 22.8945 54.8912C23.2556 55.0998 23.6568 55.2041 24.0981 55.2041ZM26.9143 56.0586C26.7699 56.0586 26.6455 56.0145 26.5412 55.9262C26.445 55.8299 26.3968 55.7056 26.3968 55.5531V53.5673L26.6255 52.5202L27.4319 52.7729V55.5531C27.4319 55.7056 27.3837 55.8299 27.2874 55.9262C27.1912 56.0145 27.0668 56.0586 26.9143 56.0586ZM31.6175 56.0586C31.2003 56.0586 30.8272 55.9583 30.4983 55.7577C30.1693 55.5571 29.9085 55.2803 29.716 54.9273C29.5314 54.5742 29.4391 54.1771 29.4391 53.7358V47.8866C29.4391 47.7421 29.4833 47.6218 29.5715 47.5255C29.6678 47.4292 29.7922 47.3811 29.9446 47.3811C30.089 47.3811 30.2094 47.4292 30.3057 47.5255C30.402 47.6218 30.4501 47.7421 30.4501 47.8866V53.7358C30.4501 54.1129 30.5584 54.4258 30.7751 54.6745C30.9997 54.9233 31.2806 55.0476 31.6175 55.0476H31.9786C32.107 55.0476 32.2153 55.0958 32.3036 55.192C32.3918 55.2883 32.436 55.4087 32.436 55.5531C32.436 55.7056 32.3798 55.8299 32.2675 55.9262C32.1631 56.0145 32.0267 56.0586 31.8583 56.0586H31.6175ZM28.729 50.5945C28.5926 50.5945 28.4803 50.5544 28.3921 50.4742C28.3038 50.3859 28.2597 50.2816 28.2597 50.1612C28.2597 50.0329 28.3038 49.9286 28.3921 49.8483C28.4803 49.7601 28.5926 49.7159 28.729 49.7159H31.7018C31.8382 49.7159 31.9505 49.7601 32.0388 49.8483C32.127 49.9286 32.1712 50.0329 32.1712 50.1612C32.1712 50.2816 32.127 50.3859 32.0388 50.4742C31.9505 50.5544 31.8382 50.5945 31.7018 50.5945H28.729ZM36.135 56.1188C35.6375 56.1188 35.1521 56.0385 34.6787 55.8781C34.2133 55.7096 33.8402 55.4729 33.5594 55.168C33.4631 55.0637 33.423 54.9433 33.439 54.8069C33.4551 54.6705 33.5193 54.5582 33.6316 54.4699C33.76 54.3736 33.8883 54.3335 34.0167 54.3496C34.1531 54.3656 34.2655 54.4218 34.3537 54.5181C34.5302 54.7267 34.775 54.8952 35.0879 55.0235C35.4008 55.1439 35.7458 55.2041 36.1229 55.2041C36.6765 55.2041 37.0817 55.1118 37.3385 54.9273C37.6033 54.7347 37.7397 54.498 37.7477 54.2172C37.7477 53.9444 37.6153 53.7157 37.3505 53.5312C37.0938 53.3466 36.6525 53.2022 36.0266 53.0979C35.2163 52.9615 34.6225 52.7328 34.2454 52.4119C33.8763 52.0909 33.6918 51.7058 33.6918 51.2565C33.6918 50.8473 33.8041 50.5063 34.0288 50.2335C34.2534 49.9607 34.5463 49.7561 34.9073 49.6197C35.2764 49.4833 35.6736 49.4151 36.0988 49.4151C36.6364 49.4151 37.1018 49.5073 37.495 49.6919C37.8881 49.8684 38.205 50.1091 38.4458 50.414C38.534 50.5263 38.5701 50.6467 38.5541 50.7751C38.546 50.8954 38.4819 50.9917 38.3615 51.0639C38.2572 51.1361 38.1328 51.1602 37.9884 51.1361C37.852 51.112 37.7357 51.0479 37.6394 50.9435C37.4388 50.7269 37.2101 50.5705 36.9534 50.4742C36.6966 50.3699 36.4037 50.3177 36.0748 50.3177C35.6576 50.3177 35.3206 50.402 35.0638 50.5705C34.807 50.7309 34.6787 50.9395 34.6787 51.1963C34.6787 51.3728 34.7228 51.5253 34.8111 51.6536C34.9073 51.782 35.0718 51.8984 35.3045 52.0027C35.5452 52.0989 35.8862 52.1872 36.3275 52.2674C36.9293 52.3717 37.4027 52.5202 37.7477 52.7128C38.1007 52.8973 38.3495 53.1139 38.4939 53.3627C38.6463 53.6114 38.7226 53.8882 38.7226 54.1931C38.7226 54.5702 38.6142 54.9032 38.3976 55.192C38.189 55.4729 37.8921 55.6975 37.507 55.866C37.1219 56.0345 36.6645 56.1188 36.135 56.1188ZM43.0317 56.1188C42.4219 56.1188 41.8763 55.9743 41.3949 55.6855C40.9135 55.3886 40.5324 54.9874 40.2515 54.482C39.9707 53.9765 39.8303 53.4068 39.8303 52.7729C39.8303 52.131 39.9747 51.5574 40.2636 51.0519C40.5604 50.5464 40.9616 50.1492 41.4671 49.8604C41.9726 49.5635 42.5423 49.4151 43.1761 49.4151C43.802 49.4151 44.3636 49.5635 44.8611 49.8604C45.3666 50.1492 45.7637 50.5464 46.0526 51.0519C46.3495 51.5574 46.5019 52.131 46.5099 52.7729L46.1007 52.9775C46.1007 53.5713 45.9643 54.1048 45.6915 54.5782C45.4268 55.0516 45.0617 55.4287 44.5963 55.7096C44.139 55.9824 43.6174 56.1188 43.0317 56.1188ZM43.1761 55.2041C43.6255 55.2041 44.0226 55.0998 44.3676 54.8912C44.7207 54.6745 44.9975 54.3817 45.1981 54.0126C45.4067 53.6435 45.511 53.2303 45.511 52.7729C45.511 52.3076 45.4067 51.8943 45.1981 51.5333C44.9975 51.1642 44.7207 50.8713 44.3676 50.6547C44.0226 50.4381 43.6255 50.3297 43.1761 50.3297C42.7348 50.3297 42.3337 50.4381 41.9726 50.6547C41.6196 50.8713 41.3387 51.1642 41.1301 51.5333C40.9215 51.8943 40.8172 52.3076 40.8172 52.7729C40.8172 53.2303 40.9215 53.6435 41.1301 54.0126C41.3387 54.3817 41.6196 54.6745 41.9726 54.8912C42.3337 55.0998 42.7348 55.2041 43.1761 55.2041ZM45.9924 56.0586C45.848 56.0586 45.7236 56.0145 45.6193 55.9262C45.523 55.8299 45.4749 55.7056 45.4749 55.5531V53.5673L45.7036 52.5202L46.5099 52.7729V55.5531C46.5099 55.7056 46.4618 55.8299 46.3655 55.9262C46.2692 56.0145 46.1449 56.0586 45.9924 56.0586ZM48.6978 58.8749C48.5373 58.8749 48.4089 58.8267 48.3126 58.7305C48.2244 58.6422 48.1802 58.5178 48.1802 58.3574V52.7368C48.1883 52.111 48.3367 51.5493 48.6255 51.0519C48.9224 50.5464 49.3196 50.1492 49.817 49.8604C50.3145 49.5635 50.8762 49.4151 51.502 49.4151C52.1439 49.4151 52.7136 49.5635 53.211 49.8604C53.7165 50.1492 54.1137 50.5464 54.4025 51.0519C54.6994 51.5574 54.8478 52.131 54.8478 52.7729C54.8478 53.4068 54.7074 53.9765 54.4266 54.482C54.1538 54.9874 53.7767 55.3886 53.2953 55.6855C52.8139 55.9743 52.2683 56.1188 51.6585 56.1188C51.1369 56.1188 50.6635 56.0105 50.2383 55.7938C49.813 55.5692 49.468 55.2763 49.2032 54.9152V58.3574C49.2032 58.5178 49.1551 58.6422 49.0588 58.7305C48.9625 58.8267 48.8422 58.8749 48.6978 58.8749ZM51.502 55.2041C51.9513 55.2041 52.3525 55.0998 52.7055 54.8912C53.0666 54.6745 53.3474 54.3817 53.548 54.0126C53.7566 53.6435 53.8609 53.2303 53.8609 52.7729C53.8609 52.3076 53.7566 51.8943 53.548 51.5333C53.3474 51.1642 53.0666 50.8713 52.7055 50.6547C52.3525 50.4381 51.9513 50.3297 51.502 50.3297C51.0687 50.3297 50.6716 50.4381 50.3105 50.6547C49.9575 50.8713 49.6806 51.1642 49.4801 51.5333C49.2795 51.8943 49.1792 52.3076 49.1792 52.7729C49.1792 53.2303 49.2795 53.6435 49.4801 54.0126C49.6806 54.3817 49.9575 54.6745 50.3105 54.8912C50.6635 55.0998 51.0607 55.2041 51.502 55.2041ZM57.063 58.8749C56.9025 58.8749 56.7742 58.8267 56.6779 58.7305C56.5896 58.6422 56.5455 58.5178 56.5455 58.3574V52.7368C56.5535 52.111 56.7019 51.5493 56.9908 51.0519C57.2877 50.5464 57.6848 50.1492 58.1823 49.8604C58.6798 49.5635 59.2414 49.4151 59.8673 49.4151C60.5091 49.4151 61.0788 49.5635 61.5763 49.8604C62.0818 50.1492 62.4789 50.5464 62.7678 51.0519C63.0647 51.5574 63.2131 52.131 63.2131 52.7729C63.2131 53.4068 63.0727 53.9765 62.7919 54.482C62.5191 54.9874 62.1419 55.3886 61.6605 55.6855C61.1791 55.9743 60.6335 56.1188 60.0237 56.1188C59.5022 56.1188 59.0288 56.0105 58.6035 55.7938C58.1783 55.5692 57.8333 55.2763 57.5685 54.9152V58.3574C57.5685 58.5178 57.5204 58.6422 57.4241 58.7305C57.3278 58.8267 57.2074 58.8749 57.063 58.8749ZM59.8673 55.2041C60.3166 55.2041 60.7178 55.0998 61.0708 54.8912C61.4319 54.6745 61.7127 54.3817 61.9133 54.0126C62.1219 53.6435 62.2262 53.2303 62.2262 52.7729C62.2262 52.3076 62.1219 51.8943 61.9133 51.5333C61.7127 51.1642 61.4319 50.8713 61.0708 50.6547C60.7178 50.4381 60.3166 50.3297 59.8673 50.3297C59.434 50.3297 59.0368 50.4381 58.6758 50.6547C58.3227 50.8713 58.0459 51.1642 57.8453 51.5333C57.6447 51.8943 57.5444 52.3076 57.5444 52.7729C57.5444 53.2303 57.6447 53.6435 57.8453 54.0126C58.0459 54.3817 58.3227 54.6745 58.6758 54.8912C59.0288 55.0998 59.426 55.2041 59.8673 55.2041Z" fill="#2B2B2B"/>
<path d="M39.1275 21.6844C38.8204 21.5308 36.8239 20.6094 36.5167 20.4558C36.2096 20.3022 35.9024 20.3022 35.5953 20.6094C35.2881 20.9165 34.6738 21.838 34.3666 22.1451C34.2131 22.4523 33.9059 22.4523 33.5988 22.2987C32.5237 21.838 31.4487 21.2237 30.5272 20.4558C29.7593 19.6879 28.9915 18.7664 28.3772 17.845C28.2236 17.5378 28.3772 17.2307 28.5307 17.0771C28.6843 16.9235 28.8379 16.6164 29.145 16.4628C29.2986 16.3092 29.4522 16.0021 29.4522 15.8485C29.6058 15.6949 29.6058 15.3878 29.4522 15.2342C29.2986 15.0806 28.5307 13.2377 28.2236 12.4698C28.07 11.3948 27.7628 11.3948 27.4557 11.3948H26.6878C26.3807 11.3948 25.9199 11.7019 25.7663 11.8555C24.8449 12.7769 24.3842 13.852 24.3842 15.0806C24.5377 16.4628 24.9985 17.845 25.9199 19.0736C27.6093 21.5308 29.7593 23.5273 32.3701 24.7559C33.138 25.0631 33.7523 25.3702 34.5202 25.5238C35.2881 25.831 36.056 25.831 36.9774 25.6774C38.0525 25.5238 38.9739 24.7559 39.5882 23.8345C39.8954 23.2202 39.8954 22.6059 39.7418 21.9915L39.1275 21.6844ZM42.9669 7.70892C36.9774 1.71942 27.3021 1.71942 21.3126 7.70892C16.3982 12.6234 15.4767 20.1486 18.8554 26.1381L16.7053 33.9705L24.8449 31.8205C27.1485 33.0491 29.6058 33.6634 32.063 33.6634C40.5097 33.6634 47.2671 26.906 47.2671 18.4593C47.4207 14.4663 45.7313 10.6269 42.9669 7.70892ZM38.8204 29.2097C36.8239 30.4383 34.5202 31.2062 32.063 31.2062C29.7593 31.2062 27.6093 30.5918 25.6128 29.5168L25.152 29.2097L20.3912 30.4383L21.6198 25.831L21.3126 25.3702C17.6268 19.2272 19.4697 11.5483 25.4592 7.70892C31.4487 3.8695 39.1275 5.866 42.8134 11.7019C46.4992 17.6914 44.8099 25.5238 38.8204 29.2097Z" fill="#2B2B2B"/>
</svg>
