<svg width="38" height="37" viewBox="0 0 38 37" fill="none" xmlns="http://www.w3.org/2000/svg">
<path d="M26.1219 21.5008C25.8148 21.3472 23.8183 20.4258 23.5111 20.2722C23.2039 20.1186 22.8968 20.1186 22.5896 20.4258C22.2825 20.7329 21.6682 21.6544 21.361 21.9615C21.2075 22.2687 20.9003 22.2687 20.5931 22.1151C19.5181 21.6544 18.4431 21.0401 17.5216 20.2722C16.7537 19.5043 15.9858 18.5828 15.3715 17.6614C15.218 17.3542 15.3715 17.0471 15.5251 16.8935C15.6787 16.7399 15.8323 16.4328 16.1394 16.2792C16.293 16.1256 16.4466 15.8185 16.4466 15.6649C16.6002 15.5113 16.6002 15.2042 16.4466 15.0506C16.293 14.897 15.5251 13.0541 15.218 12.2862C15.0644 11.2112 14.7572 11.2112 14.4501 11.2112H13.6822C13.375 11.2112 12.9143 11.5183 12.7607 11.6719C11.8393 12.5934 11.3785 13.6684 11.3785 14.897C11.5321 16.2792 11.9928 17.6614 12.9143 18.89C14.6037 21.3472 16.7537 23.3437 19.3645 24.5723C20.1324 24.8795 20.7467 25.1866 21.5146 25.3402C22.2825 25.6474 23.0504 25.6474 23.9718 25.4938C25.0469 25.3402 25.9683 24.5723 26.5826 23.6509C26.8898 23.0366 26.8898 22.4223 26.7362 21.808L26.1219 21.5008ZM29.9613 7.52532C23.9718 1.53583 14.2965 1.53583 8.30701 7.52532C3.39255 12.4398 2.47109 19.965 5.84978 25.9545L3.69971 33.7869L11.8393 31.6369C14.1429 32.8655 16.6001 33.4798 19.0574 33.4798C27.5041 33.4798 34.2615 26.7224 34.2615 18.2757C34.415 14.2827 32.7257 10.4433 29.9613 7.52532ZM25.8148 29.0261C23.8183 30.2547 21.5146 31.0226 19.0574 31.0226C16.7537 31.0226 14.6037 30.4083 12.6072 29.3332L12.1464 29.0261L7.38555 30.2547L8.61416 25.6474L8.30701 25.1866C4.62117 19.0436 6.46409 11.3647 12.4536 7.52532C18.4431 3.6859 26.1219 5.6824 29.8077 11.5183C33.4936 17.5078 31.8042 25.3402 25.8148 29.0261Z" fill="#2B2B2B"/>
</svg>
