<svg width="424" height="103" viewBox="0 0 424 103" fill="none" xmlns="http://www.w3.org/2000/svg">
<path d="M7.96457 29.8984L18.2068 29.7344C18.4646 29.7344 18.6755 29.8047 18.863 29.9688C19.0271 30.1328 19.1208 30.3438 19.1208 30.6016L19.1911 35.5938C19.1911 35.8281 19.1208 36.0391 18.9568 36.2266C18.7927 36.3906 18.5818 36.4844 18.3239 36.4844L1.58957 36.7656C1.33176 36.7656 1.09738 36.6719 0.933319 36.4844C0.769257 36.3203 0.675507 36.0859 0.698944 35.8047C0.980194 32.6875 1.16769 29.7109 1.30832 26.875C1.44894 24.0391 1.49582 21.0156 1.42551 17.8281C1.30832 13.0703 0.933319 8.33594 0.253632 3.625C0.206757 3.36719 0.277069 3.15625 0.417694 2.96875C0.558319 2.78125 0.745819 2.66406 1.00363 2.61719L5.94894 1.91406C6.20676 1.89062 6.41769 1.9375 6.60519 2.07812C6.79269 2.21875 6.90988 2.40625 6.95676 2.66406C8.19894 11.7109 8.52707 20.7812 7.96457 29.8984ZM28.2491 17.1953V37.7266C28.2491 37.9844 28.1788 38.1953 27.9913 38.3594C27.8272 38.5234 27.6163 38.6172 27.3819 38.6172H22.3663C22.1084 38.6172 21.9209 38.5234 21.7334 38.3594C21.5694 38.1953 21.4756 37.9844 21.4756 37.7266V17.1953C21.4756 16.9609 21.5694 16.75 21.7334 16.5859C21.9209 16.3984 22.1084 16.3047 22.3663 16.3047H27.3819C27.6163 16.3047 27.8272 16.3984 27.9913 16.5859C28.1788 16.75 28.2491 16.9609 28.2491 17.1953ZM28.2491 2.24219V12.5078C28.2491 12.7422 28.1788 12.9531 27.9913 13.1406C27.8272 13.3047 27.6163 13.3984 27.3819 13.3984H22.3663C22.1084 13.3984 21.9209 13.3047 21.7334 13.1406C21.5694 12.9531 21.4756 12.7422 21.4756 12.5078V2.24219C21.4756 2.00781 21.5694 1.79688 21.7334 1.60938C21.9209 1.44531 22.1084 1.35156 22.3663 1.35156H27.3819C27.6163 1.35156 27.8272 1.44531 27.9913 1.60938C28.1788 1.79688 28.2491 2.00781 28.2491 2.24219ZM37.7992 14.1016C37.6351 15.25 37.5179 16.75 37.4008 18.6016C37.2836 20.4531 37.2836 22.3281 37.4008 24.2734C37.5179 26.1953 37.8695 27.8359 38.4554 29.2188C39.0179 30.5781 39.9554 31.3516 41.1976 31.5391C42.4867 31.6094 43.5414 31.2109 44.3148 30.3203C45.0883 29.4297 45.6742 28.3516 46.0726 27.0859C46.4476 25.8203 46.682 24.6719 46.7758 23.6406C46.8695 22.6328 46.8929 21.6016 46.8695 20.5938C46.8695 20.3359 46.9398 20.125 47.1039 19.9609C47.2679 19.7969 47.4789 19.7031 47.7367 19.6797L52.7289 19.5391C52.9633 19.5391 53.1742 19.6328 53.3617 19.7969C53.5258 19.9375 53.6195 20.1484 53.6195 20.4062C53.7133 22.7734 53.5023 25.1641 52.9633 27.5547C52.4242 29.9453 51.4398 32.1016 50.0101 34.0234C48.8383 35.5469 47.432 36.6719 45.8383 37.4219C44.2211 38.1719 42.4398 38.4531 40.5414 38.2891C37.8929 37.9609 35.8539 36.9766 34.4242 35.3125C32.9711 33.625 31.9867 31.5859 31.4242 29.1953C30.8617 26.7812 30.5804 24.2969 30.5804 21.7422C30.557 19.2109 30.6742 16.9141 30.9086 14.8281C31.4008 10.1875 32.1508 5.59375 33.1351 1.04688C33.2054 0.8125 33.3226 0.625 33.5336 0.484375C33.7211 0.367188 33.9554 0.320312 34.1898 0.367188L39.0883 1.35156C39.3226 1.42188 39.5101 1.53906 39.6508 1.72656C39.7679 1.9375 39.8148 2.14844 39.7679 2.40625L38.807 7.375L51.1586 7.77344C51.4164 7.77344 51.6273 7.86719 51.7914 8.03125C51.932 8.21875 52.0258 8.42969 52.0258 8.6875L51.8617 13.6562C51.8383 13.9141 51.7679 14.125 51.5804 14.2891C51.4164 14.4531 51.2054 14.5234 50.9476 14.5234L37.7992 14.1016ZM62.8181 14.1016C62.654 15.25 62.5368 16.75 62.4196 18.6016C62.3024 20.4531 62.3024 22.3281 62.4196 24.2734C62.5368 26.1953 62.8884 27.8359 63.4743 29.2188C64.0368 30.5781 64.9743 31.3516 66.2165 31.5391C67.5056 31.6094 68.5603 31.2109 69.3337 30.3203C70.1071 29.4297 70.6931 28.3516 71.0915 27.0859C71.4665 25.8203 71.7009 24.6719 71.7946 23.6406C71.8884 22.6328 71.9118 21.6016 71.8884 20.5938C71.8884 20.3359 71.9587 20.125 72.1228 19.9609C72.2868 19.7969 72.4978 19.7031 72.7556 19.6797L77.7478 19.5391C77.9821 19.5391 78.1931 19.6328 78.3806 19.7969C78.5446 19.9375 78.6384 20.1484 78.6384 20.4062C78.7321 22.7734 78.5212 25.1641 77.9821 27.5547C77.4431 29.9453 76.4587 32.1016 75.029 34.0234C73.8571 35.5469 72.4509 36.6719 70.8571 37.4219C69.2399 38.1719 67.4587 38.4531 65.5603 38.2891C62.9118 37.9609 60.8728 36.9766 59.4431 35.3125C57.9899 33.625 57.0056 31.5859 56.4431 29.1953C55.8806 26.7812 55.5993 24.2969 55.5993 21.7422C55.5759 19.2109 55.6931 16.9141 55.9274 14.8281C56.4196 10.1875 57.1696 5.59375 58.154 1.04688C58.2243 0.8125 58.3415 0.625 58.5524 0.484375C58.7399 0.367188 58.9743 0.320312 59.2087 0.367188L64.1071 1.35156C64.3415 1.42188 64.529 1.53906 64.6696 1.72656C64.7868 1.9375 64.8337 2.14844 64.7868 2.40625L63.8259 7.375L76.1774 7.77344C76.4353 7.77344 76.6462 7.86719 76.8103 8.03125C76.9509 8.21875 77.0446 8.42969 77.0446 8.6875L76.8806 13.6562C76.8571 13.9141 76.7868 14.125 76.5993 14.2891C76.4353 14.4531 76.2243 14.5234 75.9665 14.5234L62.8181 14.1016ZM87.1807 29.8984L97.4229 29.7344C97.6807 29.7344 97.8916 29.8047 98.0791 29.9688C98.2432 30.1328 98.3369 30.3438 98.3369 30.6016L98.4073 35.5938C98.4073 35.8281 98.3369 36.0391 98.1729 36.2266C98.0088 36.3906 97.7979 36.4844 97.5401 36.4844L80.8057 36.7656C80.5479 36.7656 80.3135 36.6719 80.1494 36.4844C79.9854 36.3203 79.8916 36.0859 79.9151 35.8047C80.1963 32.6875 80.3838 29.7109 80.5244 26.875C80.6651 24.0391 80.7119 21.0156 80.6416 17.8281C80.5244 13.0703 80.1494 8.33594 79.4698 3.625C79.4229 3.36719 79.4932 3.15625 79.6338 2.96875C79.7744 2.78125 79.9619 2.66406 80.2198 2.61719L85.1651 1.91406C85.4229 1.89062 85.6338 1.9375 85.8213 2.07812C86.0088 2.21875 86.126 2.40625 86.1729 2.66406C87.4151 11.7109 87.7432 20.7812 87.1807 29.8984ZM105.684 20.4297C105.637 21.5547 105.684 22.8438 105.871 24.2969C106.036 25.75 106.387 27.1562 106.879 28.4688C107.395 29.8047 108.121 30.8359 109.082 31.5859C110.231 32.3828 111.262 32.5703 112.2 32.1953C113.114 31.7969 113.911 31.1172 114.567 30.1328C115.2 29.125 115.692 28.1406 115.973 27.1094C116.067 26.875 116.207 26.6875 116.418 26.5938C116.629 26.4766 116.84 26.4531 117.075 26.5234L121.879 27.9531C122.114 28.0234 122.301 28.1641 122.418 28.375C122.512 28.5859 122.536 28.7969 122.465 29.0547C121.879 31.0234 120.965 32.875 119.723 34.5625C118.457 36.2266 116.887 37.5156 114.965 38.3828C113.254 39.0859 111.543 39.3203 109.832 39.0625C108.145 38.8047 106.551 38.125 105.075 37.0469C102.778 35.2656 101.137 32.7812 100.106 29.5703C99.098 26.3594 98.6996 22.9375 98.9574 19.3281C99.1918 15.7188 100.059 12.4375 101.559 9.46094C103.059 6.48438 105.192 4.375 107.957 3.08594C110.7 1.96094 113.301 1.86719 115.739 2.85156C118.2 3.83594 120.051 5.71094 121.293 8.47656C122.067 10.3047 122.465 12.1094 122.536 13.9141C122.606 15.7188 122.559 17.5469 122.371 19.4219C122.371 19.5156 122.371 19.6328 122.348 19.7266C122.325 19.9844 122.231 20.1719 122.067 20.3359C121.903 20.4766 121.692 20.5703 121.457 20.5703L105.684 20.4297ZM107.067 13.6797L115.739 13.75C115.645 12.6953 115.364 11.6875 114.871 10.7031C114.379 9.69531 113.559 9.13281 112.411 8.96875C111.075 8.94531 109.95 9.4375 109.059 10.4219C108.168 11.4297 107.512 12.5078 107.067 13.6797ZM161.183 2.38281C162.144 8.05469 162.612 14.0312 162.589 20.3359C162.565 26.6406 162.097 32.6406 161.183 38.3125C161.136 38.5469 161.019 38.7344 160.808 38.875C160.62 39.0156 160.409 39.0625 160.151 39.0391L155.23 38.2422C154.972 38.1953 154.784 38.0781 154.644 37.8672C154.503 37.6797 154.456 37.4688 154.503 37.2109C155.206 32.7109 155.628 28.1641 155.769 23.5703C154.245 26.6641 152.581 29.6641 150.776 32.5469C150.589 32.8281 150.355 32.9688 150.026 32.9688L146.628 33.0391C146.3 33.0391 146.042 32.8984 145.855 32.6406C144.706 30.8359 143.722 29.1719 142.972 27.625C142.222 26.0781 141.448 24.2969 140.698 22.2812C140.769 24.5078 140.909 26.8516 141.144 29.2891C141.378 31.7031 141.753 34.0234 142.245 36.2031C142.292 36.4375 142.245 36.6719 142.128 36.8828C142.011 37.0703 141.823 37.2109 141.565 37.2578L136.69 38.3594C136.456 38.4062 136.222 38.3594 136.034 38.2422C135.823 38.125 135.706 37.9375 135.636 37.6797C134.581 32.8281 133.995 27.1562 133.901 20.6641C133.808 14.1953 134.253 8.54688 135.261 3.71875C135.378 3.29688 135.659 3.0625 136.081 3.01562L140.886 2.73438C141.308 2.71094 141.612 2.92188 141.776 3.32031L142.948 7.1875C143.675 9.78906 144.495 12.4844 145.409 15.2734C146.3 18.0625 147.284 20.7109 148.386 23.1953C150.05 20.125 151.48 16.7969 152.675 13.2109C153.894 9.64844 154.456 6.10938 154.386 2.61719C154.386 2.38281 154.456 2.14844 154.62 1.98438C154.784 1.82031 154.972 1.72656 155.23 1.70312L160.222 1.53906C160.48 1.51562 160.714 1.60938 160.855 1.77344C161.019 1.9375 161.136 2.14844 161.183 2.38281ZM169.233 14.1016C169.022 12.3672 169.162 10.6797 169.678 9.0625C170.194 7.44531 171.108 6.01562 172.42 4.77344C174.998 2.54688 177.952 1.75 181.28 2.38281C183.741 2.96875 185.78 4.14062 187.373 5.94531C188.967 7.72656 190.092 9.8125 190.795 12.2031C191.592 14.9453 191.92 17.9219 191.803 21.1562C191.662 24.4141 191.077 27.3438 189.998 29.9922C188.897 32.5938 187.373 34.6094 185.405 36.0391C183.436 37.4688 181.045 38.1719 178.256 38.125C175.045 38.0078 172.467 37.0703 170.475 35.3594C168.506 33.6484 167.1 31.4688 166.209 28.8203C165.342 26.1719 164.967 23.3828 165.061 20.4531C165.131 18.3438 165.436 16.2344 165.952 14.1953C166.022 13.9375 166.162 13.7734 166.373 13.6328C166.584 13.5156 166.795 13.4922 167.053 13.5391L169.233 14.1016ZM171.811 20.8984C171.787 22.4922 171.952 24.0859 172.327 25.7031C172.725 27.3203 173.428 28.6562 174.459 29.7344C175.491 30.8125 176.944 31.3516 178.842 31.375C180.061 31.3281 181.069 30.9531 181.842 30.25C182.639 29.5469 183.248 28.6562 183.717 27.5312C181.35 27.25 179.123 26.5469 177.061 25.4453C174.975 24.3203 173.241 22.8203 171.811 20.8984ZM185.053 20.8516C185.147 18.5781 184.889 16.3516 184.303 14.1953C183.998 13.0703 183.459 11.9922 182.733 10.9844C182.006 9.97656 181.045 9.32031 179.85 9.01562C178.772 8.80469 177.811 9.03906 176.967 9.74219C176.358 10.3516 176.006 11.1016 175.936 11.9922C175.866 12.8594 175.959 13.7031 176.17 14.5C176.756 16.4688 177.881 17.9688 179.569 19.0234C181.233 20.0781 183.061 20.6875 185.053 20.8516ZM221.486 2.38281C222.447 8.05469 222.916 14.0312 222.892 20.3359C222.869 26.6406 222.4 32.6406 221.486 38.3125C221.439 38.5469 221.322 38.7344 221.111 38.875C220.924 39.0156 220.713 39.0625 220.455 39.0391L215.533 38.2422C215.275 38.1953 215.088 38.0781 214.947 37.8672C214.806 37.6797 214.759 37.4688 214.806 37.2109C215.509 32.7109 215.931 28.1641 216.072 23.5703C214.549 26.6641 212.884 29.6641 211.08 32.5469C210.892 32.8281 210.658 32.9688 210.33 32.9688L206.931 33.0391C206.603 33.0391 206.345 32.8984 206.158 32.6406C205.009 30.8359 204.025 29.1719 203.275 27.625C202.525 26.0781 201.752 24.2969 201.002 22.2812C201.072 24.5078 201.213 26.8516 201.447 29.2891C201.681 31.7031 202.056 34.0234 202.549 36.2031C202.595 36.4375 202.549 36.6719 202.431 36.8828C202.314 37.0703 202.127 37.2109 201.869 37.2578L196.994 38.3594C196.759 38.4062 196.525 38.3594 196.338 38.2422C196.127 38.125 196.009 37.9375 195.939 37.6797C194.884 32.8281 194.299 27.1562 194.205 20.6641C194.111 14.1953 194.556 8.54688 195.564 3.71875C195.681 3.29688 195.963 3.0625 196.384 3.01562L201.189 2.73438C201.611 2.71094 201.916 2.92188 202.08 3.32031L203.252 7.1875C203.978 9.78906 204.799 12.4844 205.713 15.2734C206.603 18.0625 207.588 20.7109 208.689 23.1953C210.353 20.125 211.783 16.7969 212.978 13.2109C214.197 9.64844 214.759 6.10938 214.689 2.61719C214.689 2.38281 214.759 2.14844 214.924 1.98438C215.088 1.82031 215.275 1.72656 215.533 1.70312L220.525 1.53906C220.783 1.51562 221.017 1.60938 221.158 1.77344C221.322 1.9375 221.439 2.14844 221.486 2.38281ZM232.325 20.4297C232.278 21.5547 232.325 22.8438 232.513 24.2969C232.677 25.75 233.028 27.1562 233.521 28.4688C234.036 29.8047 234.763 30.8359 235.724 31.5859C236.872 32.3828 237.903 32.5703 238.841 32.1953C239.755 31.7969 240.552 31.1172 241.208 30.1328C241.841 29.125 242.333 28.1406 242.614 27.1094C242.708 26.875 242.849 26.6875 243.06 26.5938C243.271 26.4766 243.481 26.4531 243.716 26.5234L248.521 27.9531C248.755 28.0234 248.942 28.1641 249.06 28.375C249.153 28.5859 249.177 28.7969 249.106 29.0547C248.521 31.0234 247.606 32.875 246.364 34.5625C245.099 36.2266 243.528 37.5156 241.606 38.3828C239.896 39.0859 238.185 39.3203 236.474 39.0625C234.786 38.8047 233.192 38.125 231.716 37.0469C229.419 35.2656 227.778 32.7812 226.747 29.5703C225.739 26.3594 225.341 22.9375 225.599 19.3281C225.833 15.7188 226.7 12.4375 228.2 9.46094C229.7 6.48438 231.833 4.375 234.599 3.08594C237.341 1.96094 239.942 1.86719 242.38 2.85156C244.841 3.83594 246.692 5.71094 247.935 8.47656C248.708 10.3047 249.106 12.1094 249.177 13.9141C249.247 15.7188 249.2 17.5469 249.013 19.4219C249.013 19.5156 249.013 19.6328 248.989 19.7266C248.966 19.9844 248.872 20.1719 248.708 20.3359C248.544 20.4766 248.333 20.5703 248.099 20.5703L232.325 20.4297ZM233.708 13.6797L242.38 13.75C242.286 12.6953 242.005 11.6875 241.513 10.7031C241.021 9.69531 240.2 9.13281 239.052 8.96875C237.716 8.94531 236.591 9.4375 235.7 10.4219C234.81 11.4297 234.153 12.5078 233.708 13.6797ZM258.375 21.1797C258.375 26.2656 258.633 31.3281 259.149 36.3438C259.172 36.6016 259.102 36.8125 258.961 37C258.821 37.1875 258.61 37.3047 258.375 37.3516L253.407 37.9375C253.149 37.9609 252.938 37.8906 252.75 37.75C252.563 37.6094 252.446 37.3984 252.422 37.1406C251.93 32.6172 251.649 27.1094 251.602 20.6406C251.578 14.1719 251.696 8.64062 252 4.07031C252.024 3.83594 252.117 3.64844 252.258 3.48438C252.422 3.34375 252.633 3.25 252.867 3.25L257.836 3.17969C258.094 3.17969 258.282 3.25 258.446 3.39062C258.61 3.53125 258.727 3.74219 258.75 3.97656C259.125 7.63281 260.039 10.7734 261.446 13.3516C262.875 15.9297 264.75 18.5547 267.071 21.2266C267.844 22.1406 268.571 23.0312 269.321 23.9688C269.367 20.5703 269.367 16.9375 269.274 13.0469C269.18 9.15625 268.992 5.57031 268.664 2.3125C268.641 2.05469 268.711 1.84375 268.852 1.65625C269.016 1.46875 269.203 1.375 269.461 1.32812L274.43 0.835938C274.688 0.8125 274.899 0.882812 275.086 1.02344C275.25 1.16406 275.367 1.375 275.391 1.63281C275.836 6.08594 276.071 11.4062 276.094 17.5938C276.141 23.7812 276.024 29.1016 275.719 33.6016C275.672 34.6328 275.555 35.6641 275.438 36.6953C275.414 36.9062 275.321 37.0938 275.18 37.2344C275.016 37.375 274.828 37.4453 274.617 37.4688L269.719 37.7734C269.508 37.7969 269.321 37.75 269.157 37.6328C268.992 37.4922 268.875 37.3281 268.805 37.1172C268.149 34.7734 267.164 32.6406 265.899 30.7656C264.61 28.8906 263.203 27.0625 261.68 25.3047C260.555 23.9922 259.453 22.6094 258.375 21.1797ZM285.222 14.1016C285.058 15.25 284.941 16.75 284.824 18.6016C284.707 20.4531 284.707 22.3281 284.824 24.2734C284.941 26.1953 285.293 27.8359 285.879 29.2188C286.441 30.5781 287.379 31.3516 288.621 31.5391C289.91 31.6094 290.964 31.2109 291.738 30.3203C292.511 29.4297 293.097 28.3516 293.496 27.0859C293.871 25.8203 294.105 24.6719 294.199 23.6406C294.293 22.6328 294.316 21.6016 294.293 20.5938C294.293 20.3359 294.363 20.125 294.527 19.9609C294.691 19.7969 294.902 19.7031 295.16 19.6797L300.152 19.5391C300.386 19.5391 300.597 19.6328 300.785 19.7969C300.949 19.9375 301.043 20.1484 301.043 20.4062C301.136 22.7734 300.925 25.1641 300.386 27.5547C299.847 29.9453 298.863 32.1016 297.433 34.0234C296.261 35.5469 294.855 36.6719 293.261 37.4219C291.644 38.1719 289.863 38.4531 287.964 38.2891C285.316 37.9609 283.277 36.9766 281.847 35.3125C280.394 33.625 279.41 31.5859 278.847 29.1953C278.285 26.7812 278.004 24.2969 278.004 21.7422C277.98 19.2109 278.097 16.9141 278.332 14.8281C278.824 10.1875 279.574 5.59375 280.558 1.04688C280.629 0.8125 280.746 0.625 280.957 0.484375C281.144 0.367188 281.379 0.320312 281.613 0.367188L286.511 1.35156C286.746 1.42188 286.933 1.53906 287.074 1.72656C287.191 1.9375 287.238 2.14844 287.191 2.40625L286.23 7.375L298.582 7.77344C298.839 7.77344 299.05 7.86719 299.214 8.03125C299.355 8.21875 299.449 8.42969 299.449 8.6875L299.285 13.6562C299.261 13.9141 299.191 14.125 299.004 14.2891C298.839 14.4531 298.629 14.5234 298.371 14.5234L285.222 14.1016ZM307.663 25.0469C307.663 26.6406 308.038 28.0234 308.788 29.2188C309.538 30.4141 310.733 31.1172 312.374 31.3047C313.476 31.4219 314.483 31.2109 315.397 30.6719C316.288 30.1562 316.851 29.3125 317.085 28.1875C317.319 26.7812 317.108 25.6562 316.476 24.7891C315.819 23.9453 314.812 23.3828 313.429 23.1016C313.194 23.0547 312.96 23.0078 312.726 22.9609C311.272 22.7031 309.913 22.375 308.601 21.9766C307.312 21.5547 306.14 20.9219 305.132 20.0781C304.101 19.2109 303.304 17.9688 302.694 16.3281C302.015 14.3594 301.921 12.4141 302.366 10.4453C302.835 8.5 303.749 6.78906 305.155 5.33594C306.562 3.85938 308.366 2.89844 310.546 2.45312C313.218 1.98438 315.726 2.42969 318.046 3.78906C319.687 4.84375 320.858 6.17969 321.632 7.82031C322.382 9.4375 322.804 11.1953 322.874 13.0703C322.897 13.3281 322.804 13.5391 322.663 13.7031C322.499 13.8906 322.288 13.9844 322.03 14.0078L317.038 14.2656C316.804 14.2656 316.593 14.1953 316.405 14.0312C316.241 13.8672 316.147 13.6797 316.124 13.4219C316.077 12.1562 315.772 11.125 315.21 10.2578C314.647 9.41406 313.663 9.01562 312.28 9.03906C311.202 9.13281 310.405 9.53125 309.843 10.2344C309.28 10.9375 308.976 11.7109 308.905 12.5547C308.835 13.3984 308.976 14.0781 309.374 14.5938C309.819 15.0859 310.499 15.4609 311.413 15.7422C312.351 16 313.218 16.1875 314.085 16.3281C314.343 16.375 314.577 16.4219 314.788 16.4688C316.265 16.7734 317.624 17.2891 318.89 18.0391C320.132 18.7891 321.21 19.7734 322.077 20.9922C323.765 23.5469 324.327 26.3359 323.765 29.3594C323.249 32.0312 322.03 34.1172 320.132 35.5938C318.257 37.0938 316.077 37.9141 313.64 38.0781C311.179 38.2422 308.858 37.6797 306.655 36.3672C304.663 35.1016 303.21 33.4844 302.272 31.5156C301.358 29.5469 300.89 27.3906 300.89 25.0703C300.89 24.8359 300.983 24.625 301.147 24.4375C301.335 24.2734 301.546 24.1797 301.78 24.1797H306.772C307.03 24.1797 307.218 24.25 307.405 24.4375C307.569 24.6016 307.663 24.8125 307.663 25.0469ZM342.513 17.1953V37.7266C342.513 37.9844 342.443 38.1953 342.255 38.3594C342.091 38.5234 341.88 38.6172 341.646 38.6172H336.63C336.373 38.6172 336.185 38.5234 335.998 38.3594C335.834 38.1953 335.74 37.9844 335.74 37.7266V17.1953C335.74 16.9609 335.834 16.75 335.998 16.5859C336.185 16.3984 336.373 16.3047 336.63 16.3047H341.646C341.88 16.3047 342.091 16.3984 342.255 16.5859C342.443 16.75 342.513 16.9609 342.513 17.1953ZM342.513 2.24219V12.5078C342.513 12.7422 342.443 12.9531 342.255 13.1406C342.091 13.3047 341.88 13.3984 341.646 13.3984H336.63C336.373 13.3984 336.185 13.3047 335.998 13.1406C335.834 12.9531 335.74 12.7422 335.74 12.5078V2.24219C335.74 2.00781 335.834 1.79688 335.998 1.60938C336.185 1.44531 336.373 1.35156 336.63 1.35156H341.646C341.88 1.35156 342.091 1.44531 342.255 1.60938C342.443 1.79688 342.513 2.00781 342.513 2.24219ZM352.11 21.1797C352.11 26.2656 352.368 31.3281 352.884 36.3438C352.907 36.6016 352.837 36.8125 352.696 37C352.556 37.1875 352.345 37.3047 352.11 37.3516L347.142 37.9375C346.884 37.9609 346.673 37.8906 346.485 37.75C346.298 37.6094 346.181 37.3984 346.157 37.1406C345.665 32.6172 345.384 27.1094 345.337 20.6406C345.313 14.1719 345.431 8.64062 345.735 4.07031C345.759 3.83594 345.852 3.64844 345.993 3.48438C346.157 3.34375 346.368 3.25 346.602 3.25L351.571 3.17969C351.829 3.17969 352.017 3.25 352.181 3.39062C352.345 3.53125 352.462 3.74219 352.485 3.97656C352.86 7.63281 353.774 10.7734 355.181 13.3516C356.61 15.9297 358.485 18.5547 360.806 21.2266C361.579 22.1406 362.306 23.0312 363.056 23.9688C363.102 20.5703 363.102 16.9375 363.009 13.0469C362.915 9.15625 362.727 5.57031 362.399 2.3125C362.376 2.05469 362.446 1.84375 362.587 1.65625C362.751 1.46875 362.938 1.375 363.196 1.32812L368.165 0.835938C368.423 0.8125 368.634 0.882812 368.821 1.02344C368.985 1.16406 369.102 1.375 369.126 1.63281C369.571 6.08594 369.806 11.4062 369.829 17.5938C369.876 23.7812 369.759 29.1016 369.454 33.6016C369.407 34.6328 369.29 35.6641 369.173 36.6953C369.149 36.9062 369.056 37.0938 368.915 37.2344C368.751 37.375 368.563 37.4453 368.352 37.4688L363.454 37.7734C363.243 37.7969 363.056 37.75 362.892 37.6328C362.727 37.4922 362.61 37.3281 362.54 37.1172C361.884 34.7734 360.899 32.6406 359.634 30.7656C358.345 28.8906 356.938 27.0625 355.415 25.3047C354.29 23.9922 353.188 22.6094 352.11 21.1797ZM378.957 14.1016C378.793 15.25 378.676 16.75 378.559 18.6016C378.442 20.4531 378.442 22.3281 378.559 24.2734C378.676 26.1953 379.028 27.8359 379.614 29.2188C380.176 30.5781 381.114 31.3516 382.356 31.5391C383.645 31.6094 384.7 31.2109 385.473 30.3203C386.246 29.4297 386.832 28.3516 387.231 27.0859C387.606 25.8203 387.84 24.6719 387.934 23.6406C388.028 22.6328 388.051 21.6016 388.028 20.5938C388.028 20.3359 388.098 20.125 388.262 19.9609C388.426 19.7969 388.637 19.7031 388.895 19.6797L393.887 19.5391C394.121 19.5391 394.332 19.6328 394.52 19.7969C394.684 19.9375 394.778 20.1484 394.778 20.4062C394.871 22.7734 394.66 25.1641 394.121 27.5547C393.582 29.9453 392.598 32.1016 391.168 34.0234C389.996 35.5469 388.59 36.6719 386.996 37.4219C385.379 38.1719 383.598 38.4531 381.7 38.2891C379.051 37.9609 377.012 36.9766 375.582 35.3125C374.129 33.625 373.145 31.5859 372.582 29.1953C372.02 26.7812 371.739 24.2969 371.739 21.7422C371.715 19.2109 371.832 16.9141 372.067 14.8281C372.559 10.1875 373.309 5.59375 374.293 1.04688C374.364 0.8125 374.481 0.625 374.692 0.484375C374.879 0.367188 375.114 0.320312 375.348 0.367188L380.246 1.35156C380.481 1.42188 380.668 1.53906 380.809 1.72656C380.926 1.9375 380.973 2.14844 380.926 2.40625L379.965 7.375L392.317 7.77344C392.575 7.77344 392.785 7.86719 392.95 8.03125C393.09 8.21875 393.184 8.42969 393.184 8.6875L393.02 13.6562C392.996 13.9141 392.926 14.125 392.739 14.2891C392.575 14.4531 392.364 14.5234 392.106 14.5234L378.957 14.1016ZM401.047 14.1016C400.836 12.3672 400.976 10.6797 401.492 9.0625C402.007 7.44531 402.922 6.01562 404.234 4.77344C406.812 2.54688 409.765 1.75 413.093 2.38281C415.554 2.96875 417.593 4.14062 419.187 5.94531C420.781 7.72656 421.906 9.8125 422.609 12.2031C423.406 14.9453 423.734 17.9219 423.617 21.1562C423.476 24.4141 422.89 27.3438 421.812 29.9922C420.711 32.5938 419.187 34.6094 417.218 36.0391C415.25 37.4688 412.859 38.1719 410.07 38.125C406.859 38.0078 404.281 37.0703 402.289 35.3594C400.32 33.6484 398.914 31.4688 398.023 28.8203C397.156 26.1719 396.781 23.3828 396.875 20.4531C396.945 18.3438 397.25 16.2344 397.765 14.1953C397.836 13.9375 397.976 13.7734 398.187 13.6328C398.398 13.5156 398.609 13.4922 398.867 13.5391L401.047 14.1016ZM403.625 20.8984C403.601 22.4922 403.765 24.0859 404.14 25.7031C404.539 27.3203 405.242 28.6562 406.273 29.7344C407.304 30.8125 408.757 31.3516 410.656 31.375C411.875 31.3281 412.882 30.9531 413.656 30.25C414.453 29.5469 415.062 28.6562 415.531 27.5312C413.164 27.25 410.937 26.5469 408.875 25.4453C406.789 24.3203 405.054 22.8203 403.625 20.8984ZM416.867 20.8516C416.961 18.5781 416.703 16.3516 416.117 14.1953C415.812 13.0703 415.273 11.9922 414.547 10.9844C413.82 9.97656 412.859 9.32031 411.664 9.01562C410.586 8.80469 409.625 9.03906 408.781 9.74219C408.172 10.3516 407.82 11.1016 407.75 11.9922C407.679 12.8594 407.773 13.7031 407.984 14.5C408.57 16.4688 409.695 17.9688 411.382 19.0234C413.047 20.0781 414.875 20.6875 416.867 20.8516ZM89.4665 85.3359C90.6384 86.1562 91.529 87.2109 92.1384 88.5234C92.7478 89.8359 92.9587 91.2188 92.8181 92.6484C92.4899 94.9688 91.3884 96.8438 89.5603 98.3203C87.779 99.7031 85.7399 100.594 83.4899 101.016C81.2165 101.414 78.9899 101.508 76.7634 101.227C76.4821 101.203 76.2478 101.18 76.0368 101.156C75.5446 101.133 75.1931 101.086 74.9821 101.016C74.7712 100.945 74.6071 100.828 74.4899 100.617C74.3962 100.406 74.2556 100.078 74.1384 99.6094C74.0681 99.4219 73.9978 99.1641 73.904 98.9062C72.7556 95.1094 72.0993 91.0547 71.9353 86.7656C71.7712 82.5 71.9118 78.3984 72.3337 74.4844C72.4978 72.7969 72.6853 71.2734 72.8962 69.8906C73.1071 68.5312 73.3884 67.0312 73.6931 65.4141C73.7868 65.0391 74.0212 64.8047 74.3962 64.7344C76.2478 64.2891 78.0759 63.9844 79.8571 63.8203C81.6384 63.6562 83.4899 63.7969 85.4353 64.2422C88.8103 65.1562 91.2478 66.8438 92.7009 69.2578C94.154 71.6719 94.6228 74.3672 94.1071 77.2969C93.5915 80.2266 92.0446 82.8984 89.4665 85.3359ZM79.6462 70.6406C78.9899 74.8594 78.6384 79.0781 78.6149 83.3438C80.3024 83.0156 81.8728 82.4062 83.3493 81.5156C84.8024 80.625 85.9743 79.4062 86.7946 77.9062C87.2634 76.9922 87.5212 76.0547 87.5446 75.0469C87.5681 74.0625 87.2399 73.1484 86.5603 72.3516C85.7165 71.4609 84.6618 70.9219 83.3728 70.7344C82.0837 70.5234 80.8415 70.5 79.6462 70.6406ZM78.9665 90.1641C79.154 91.6641 79.4118 93.1406 79.7399 94.6172C80.6774 94.6172 81.6618 94.5 82.6696 94.2656C83.654 94.0312 84.5446 93.6328 85.2946 93.0703C85.9509 92.5078 86.2087 91.9922 86.0446 91.5234C85.8806 91.0781 85.3884 90.7266 84.5915 90.4922C83.7478 90.2578 82.8103 90.1172 81.8024 90.0938C80.8181 90.0703 79.8571 90.0938 78.9665 90.1641ZM103.728 79.1953V99.7266C103.728 99.9844 103.657 100.195 103.47 100.359C103.306 100.523 103.095 100.617 102.86 100.617H97.8448C97.5869 100.617 97.3994 100.523 97.2119 100.359C97.0479 100.195 96.9541 99.9844 96.9541 99.7266V79.1953C96.9541 78.9609 97.0479 78.75 97.2119 78.5859C97.3994 78.3984 97.5869 78.3047 97.8448 78.3047H102.86C103.095 78.3047 103.306 78.3984 103.47 78.5859C103.657 78.75 103.728 78.9609 103.728 79.1953ZM103.728 64.2422V74.5078C103.728 74.7422 103.657 74.9531 103.47 75.1406C103.306 75.3047 103.095 75.3984 102.86 75.3984H97.8448C97.5869 75.3984 97.3994 75.3047 97.2119 75.1406C97.0479 74.9531 96.9541 74.7422 96.9541 74.5078V64.2422C96.9541 64.0078 97.0479 63.7969 97.2119 63.6094C97.3994 63.4453 97.5869 63.3516 97.8448 63.3516H102.86C103.095 63.3516 103.306 63.4453 103.47 63.6094C103.657 63.7969 103.728 64.0078 103.728 64.2422ZM122.981 66.8438L123.028 63.9844C123.028 63.75 123.098 63.5391 123.262 63.375C123.426 63.1875 123.637 63.0938 123.871 63.0938L128.559 62.9297C128.817 62.9297 129.004 63 129.192 63.1641C129.356 63.3281 129.45 63.5156 129.473 63.7734C129.52 64.6641 129.59 65.625 129.661 66.6562C129.825 69.1875 129.965 71.9766 130.059 75.0469C130.153 78.0938 130.082 81.1641 129.801 84.2344C129.52 87.2812 128.934 90.0938 128.02 92.6484C127.106 95.2031 125.723 97.2188 123.895 98.7422C122.043 100.242 119.606 100.992 116.582 100.945C114.309 100.852 112.317 100.195 110.606 98.9766C108.895 97.7578 107.653 96.0703 106.879 93.9375C106.809 93.7031 106.832 93.4688 106.926 93.2578C107.02 93.0469 107.207 92.9062 107.442 92.8125L111.848 91.2656C112.106 91.1953 112.317 91.1953 112.528 91.3125C112.739 91.4062 112.903 91.5703 112.996 91.8281C113.559 93.2109 114.473 94.0547 115.762 94.3359C117.051 94.6406 118.246 94.4766 119.325 93.8672C120.59 93.0234 121.504 91.7578 122.09 90.0234C122.676 88.2891 123.075 86.5547 123.262 84.7969C121.879 85.9922 120.379 86.7422 118.739 87.0703C117.098 87.3984 115.387 87.3281 113.629 86.8828C111.332 86.25 109.575 85.125 108.356 83.4844C107.137 81.8438 106.434 79.9922 106.293 77.9297C106.129 75.8672 106.481 73.875 107.371 71.9531C108.239 70.0312 109.621 68.4609 111.52 67.2656C113.325 66.2109 115.223 65.6953 117.192 65.6953C119.161 65.7188 121.106 66.0938 122.981 66.8438ZM122.137 73.5234C121.082 72.9609 119.957 72.5625 118.809 72.3281C117.637 72.0703 116.536 72.1172 115.528 72.4453C114.52 72.7969 113.723 73.5703 113.161 74.7891C112.762 75.7031 112.621 76.6406 112.715 77.5547C112.832 78.4922 113.207 79.2656 113.864 79.875C114.52 80.5078 115.481 80.8125 116.723 80.8125C117.825 80.7656 118.739 80.3203 119.489 79.5C120.215 78.6562 120.778 77.6953 121.2 76.5703C121.621 75.4688 121.95 74.4375 122.137 73.5234ZM168.776 64.3828C169.737 70.0547 170.206 76.0312 170.183 82.3359C170.159 88.6406 169.69 94.6406 168.776 100.312C168.73 100.547 168.612 100.734 168.401 100.875C168.214 101.016 168.003 101.062 167.745 101.039L162.823 100.242C162.565 100.195 162.378 100.078 162.237 99.8672C162.097 99.6797 162.05 99.4688 162.097 99.2109C162.8 94.7109 163.222 90.1641 163.362 85.5703C161.839 88.6641 160.175 91.6641 158.37 94.5469C158.183 94.8281 157.948 94.9688 157.62 94.9688L154.222 95.0391C153.894 95.0391 153.636 94.8984 153.448 94.6406C152.3 92.8359 151.315 91.1719 150.565 89.625C149.815 88.0781 149.042 86.2969 148.292 84.2812C148.362 86.5078 148.503 88.8516 148.737 91.2891C148.972 93.7031 149.347 96.0234 149.839 98.2031C149.886 98.4375 149.839 98.6719 149.722 98.8828C149.605 99.0703 149.417 99.2109 149.159 99.2578L144.284 100.359C144.05 100.406 143.815 100.359 143.628 100.242C143.417 100.125 143.3 99.9375 143.23 99.6797C142.175 94.8281 141.589 89.1562 141.495 82.6641C141.401 76.1953 141.847 70.5469 142.855 65.7188C142.972 65.2969 143.253 65.0625 143.675 65.0156L148.48 64.7344C148.901 64.7109 149.206 64.9219 149.37 65.3203L150.542 69.1875C151.269 71.7891 152.089 74.4844 153.003 77.2734C153.894 80.0625 154.878 82.7109 155.98 85.1953C157.644 82.125 159.073 78.7969 160.269 75.2109C161.487 71.6484 162.05 68.1094 161.98 64.6172C161.98 64.3828 162.05 64.1484 162.214 63.9844C162.378 63.8203 162.565 63.7266 162.823 63.7031L167.815 63.5391C168.073 63.5156 168.308 63.6094 168.448 63.7734C168.612 63.9375 168.73 64.1484 168.776 64.3828ZM179.616 82.4297C179.569 83.5547 179.616 84.8438 179.803 86.2969C179.967 87.75 180.319 89.1562 180.811 90.4688C181.327 91.8047 182.053 92.8359 183.014 93.5859C184.162 94.3828 185.194 94.5703 186.131 94.1953C187.045 93.7969 187.842 93.1172 188.498 92.1328C189.131 91.125 189.623 90.1406 189.905 89.1094C189.998 88.875 190.139 88.6875 190.35 88.5938C190.561 88.4766 190.772 88.4531 191.006 88.5234L195.811 89.9531C196.045 90.0234 196.233 90.1641 196.35 90.375C196.444 90.5859 196.467 90.7969 196.397 91.0547C195.811 93.0234 194.897 94.875 193.655 96.5625C192.389 98.2266 190.819 99.5156 188.897 100.383C187.186 101.086 185.475 101.32 183.764 101.062C182.077 100.805 180.483 100.125 179.006 99.0469C176.709 97.2656 175.069 94.7812 174.037 91.5703C173.03 88.3594 172.631 84.9375 172.889 81.3281C173.123 77.7188 173.991 74.4375 175.491 71.4609C176.991 68.4844 179.123 66.375 181.889 65.0859C184.631 63.9609 187.233 63.8672 189.67 64.8516C192.131 65.8359 193.983 67.7109 195.225 70.4766C195.998 72.3047 196.397 74.1094 196.467 75.9141C196.537 77.7188 196.491 79.5469 196.303 81.4219C196.303 81.5156 196.303 81.6328 196.28 81.7266C196.256 81.9844 196.162 82.1719 195.998 82.3359C195.834 82.4766 195.623 82.5703 195.389 82.5703L179.616 82.4297ZM180.998 75.6797L189.67 75.75C189.577 74.6953 189.295 73.6875 188.803 72.7031C188.311 71.6953 187.491 71.1328 186.342 70.9688C185.006 70.9453 183.881 71.4375 182.991 72.4219C182.1 73.4297 181.444 74.5078 180.998 75.6797ZM226.267 64.3828C227.228 70.0547 227.697 76.0312 227.674 82.3359C227.65 88.6406 227.181 94.6406 226.267 100.312C226.22 100.547 226.103 100.734 225.892 100.875C225.705 101.016 225.494 101.062 225.236 101.039L220.314 100.242C220.056 100.195 219.869 100.078 219.728 99.8672C219.588 99.6797 219.541 99.4688 219.588 99.2109C220.291 94.7109 220.713 90.1641 220.853 85.5703C219.33 88.6641 217.666 91.6641 215.861 94.5469C215.674 94.8281 215.439 94.9688 215.111 94.9688L211.713 95.0391C211.384 95.0391 211.127 94.8984 210.939 94.6406C209.791 92.8359 208.806 91.1719 208.056 89.625C207.306 88.0781 206.533 86.2969 205.783 84.2812C205.853 86.5078 205.994 88.8516 206.228 91.2891C206.463 93.7031 206.838 96.0234 207.33 98.2031C207.377 98.4375 207.33 98.6719 207.213 98.8828C207.095 99.0703 206.908 99.2109 206.65 99.2578L201.775 100.359C201.541 100.406 201.306 100.359 201.119 100.242C200.908 100.125 200.791 99.9375 200.72 99.6797C199.666 94.8281 199.08 89.1562 198.986 82.6641C198.892 76.1953 199.338 70.5469 200.345 65.7188C200.463 65.2969 200.744 65.0625 201.166 65.0156L205.97 64.7344C206.392 64.7109 206.697 64.9219 206.861 65.3203L208.033 69.1875C208.759 71.7891 209.58 74.4844 210.494 77.2734C211.384 80.0625 212.369 82.7109 213.47 85.1953C215.134 82.125 216.564 78.7969 217.759 75.2109C218.978 71.6484 219.541 68.1094 219.47 64.6172C219.47 64.3828 219.541 64.1484 219.705 63.9844C219.869 63.8203 220.056 63.7266 220.314 63.7031L225.306 63.5391C225.564 63.5156 225.799 63.6094 225.939 63.7734C226.103 63.9375 226.22 64.1484 226.267 64.3828ZM234.317 76.1016C234.106 74.3672 234.247 72.6797 234.763 71.0625C235.278 69.4453 236.192 68.0156 237.505 66.7734C240.083 64.5469 243.036 63.75 246.364 64.3828C248.825 64.9688 250.864 66.1406 252.458 67.9453C254.052 69.7266 255.177 71.8125 255.88 74.2031C256.677 76.9453 257.005 79.9219 256.888 83.1562C256.747 86.4141 256.161 89.3438 255.083 91.9922C253.981 94.5938 252.458 96.6094 250.489 98.0391C248.521 99.4688 246.13 100.172 243.341 100.125C240.13 100.008 237.552 99.0703 235.56 97.3594C233.591 95.6484 232.185 93.4688 231.294 90.8203C230.427 88.1719 230.052 85.3828 230.146 82.4531C230.216 80.3438 230.521 78.2344 231.036 76.1953C231.106 75.9375 231.247 75.7734 231.458 75.6328C231.669 75.5156 231.88 75.4922 232.138 75.5391L234.317 76.1016ZM236.896 82.8984C236.872 84.4922 237.036 86.0859 237.411 87.7031C237.81 89.3203 238.513 90.6562 239.544 91.7344C240.575 92.8125 242.028 93.3516 243.927 93.375C245.146 93.3281 246.153 92.9531 246.927 92.25C247.724 91.5469 248.333 90.6562 248.802 89.5312C246.435 89.25 244.208 88.5469 242.146 87.4453C240.06 86.3203 238.325 84.8203 236.896 82.8984ZM250.138 82.8516C250.231 80.5781 249.974 78.3516 249.388 76.1953C249.083 75.0703 248.544 73.9922 247.817 72.9844C247.091 71.9766 246.13 71.3203 244.935 71.0156C243.856 70.8047 242.896 71.0391 242.052 71.7422C241.442 72.3516 241.091 73.1016 241.021 73.9922C240.95 74.8594 241.044 75.7031 241.255 76.5C241.841 78.4688 242.966 79.9688 244.653 81.0234C246.317 82.0781 248.146 82.6875 250.138 82.8516ZM270.938 88.4531C271.922 89.0625 272.953 89.4375 274.055 89.6016C275.157 89.7891 276.282 89.7891 277.383 89.625C278.508 89.4609 279.586 89.1797 280.641 88.7578C280.875 88.6875 281.086 88.6875 281.321 88.7812C281.532 88.875 281.672 89.0391 281.789 89.2734L283.571 93.9375C283.664 94.1719 283.664 94.3828 283.571 94.6172C283.477 94.8281 283.313 94.9688 283.078 95.0859C280.219 96.1875 277.313 96.6562 274.336 96.4688C271.36 96.2578 268.617 95.2266 266.133 93.3281C266.297 95.9062 266.555 98.4844 266.907 101.062C266.93 101.297 266.883 101.531 266.742 101.719C266.602 101.906 266.391 102 266.157 102.047L261.188 102.727C260.953 102.75 260.719 102.68 260.532 102.539C260.344 102.398 260.25 102.211 260.203 101.953C258.727 90.3047 258.703 78.6562 260.18 67.0078C260.227 66.6562 260.25 66.3516 260.274 66.0703C260.344 65.4609 260.414 65.0156 260.508 64.7578C260.602 64.4766 260.789 64.3125 261.071 64.2422C261.328 64.1719 261.797 64.125 262.407 64.125C262.664 64.1016 262.992 64.1016 263.344 64.0781C265.289 63.9375 267.352 63.9844 269.532 64.2188C271.688 64.4531 273.75 64.9688 275.719 65.7656C277.664 66.5859 279.305 67.7812 280.617 69.3984C282 71.2266 282.68 73.1719 282.68 75.2578C282.657 77.3438 282.047 79.3359 280.852 81.2344C279.703 82.9688 278.274 84.4453 276.516 85.6406C274.782 86.8594 272.93 87.7734 270.938 88.4531ZM266.532 70.7812C266.11 74.7656 265.899 78.7969 265.852 82.8047C267.61 82.5 269.321 81.9375 271.032 81.0938C272.766 80.25 274.125 79.0781 275.133 77.6016C275.555 76.9453 275.813 76.2891 275.883 75.5859C275.977 74.9062 275.766 74.25 275.297 73.5938C274.336 72.5156 273.024 71.7656 271.336 71.3672C269.649 70.9922 268.032 70.7812 266.532 70.7812ZM292.3 79.1953V99.7266C292.3 99.9844 292.23 100.195 292.043 100.359C291.879 100.523 291.668 100.617 291.433 100.617H286.418C286.16 100.617 285.972 100.523 285.785 100.359C285.621 100.195 285.527 99.9844 285.527 99.7266V79.1953C285.527 78.9609 285.621 78.75 285.785 78.5859C285.972 78.3984 286.16 78.3047 286.418 78.3047H291.433C291.668 78.3047 291.879 78.3984 292.043 78.5859C292.23 78.75 292.3 78.9609 292.3 79.1953ZM292.3 64.2422V74.5078C292.3 74.7422 292.23 74.9531 292.043 75.1406C291.879 75.3047 291.668 75.3984 291.433 75.3984H286.418C286.16 75.3984 285.972 75.3047 285.785 75.1406C285.621 74.9531 285.527 74.7422 285.527 74.5078V64.2422C285.527 64.0078 285.621 63.7969 285.785 63.6094C285.972 63.4453 286.16 63.3516 286.418 63.3516H291.433C291.668 63.3516 291.879 63.4453 292.043 63.6094C292.23 63.7969 292.3 64.0078 292.3 64.2422ZM301.71 82.4297C301.663 83.5547 301.71 84.8438 301.897 86.2969C302.062 87.75 302.413 89.1562 302.905 90.4688C303.421 91.8047 304.147 92.8359 305.108 93.5859C306.257 94.3828 307.288 94.5703 308.226 94.1953C309.14 93.7969 309.937 93.1172 310.593 92.1328C311.226 91.125 311.718 90.1406 311.999 89.1094C312.093 88.875 312.233 88.6875 312.444 88.5938C312.655 88.4766 312.866 88.4531 313.101 88.5234L317.905 89.9531C318.14 90.0234 318.327 90.1641 318.444 90.375C318.538 90.5859 318.562 90.7969 318.491 91.0547C317.905 93.0234 316.991 94.875 315.749 96.5625C314.483 98.2266 312.913 99.5156 310.991 100.383C309.28 101.086 307.569 101.32 305.858 101.062C304.171 100.805 302.577 100.125 301.101 99.0469C298.804 97.2656 297.163 94.7812 296.132 91.5703C295.124 88.3594 294.726 84.9375 294.983 81.3281C295.218 77.7188 296.085 74.4375 297.585 71.4609C299.085 68.4844 301.218 66.375 303.983 65.0859C306.726 63.9609 309.327 63.8672 311.765 64.8516C314.226 65.8359 316.077 67.7109 317.319 70.4766C318.093 72.3047 318.491 74.1094 318.562 75.9141C318.632 77.7188 318.585 79.5469 318.397 81.4219C318.397 81.5156 318.397 81.6328 318.374 81.7266C318.351 81.9844 318.257 82.1719 318.093 82.3359C317.929 82.4766 317.718 82.5703 317.483 82.5703L301.71 82.4297ZM303.093 75.6797L311.765 75.75C311.671 74.6953 311.39 73.6875 310.897 72.7031C310.405 71.6953 309.585 71.1328 308.437 70.9688C307.101 70.9453 305.976 71.4375 305.085 72.4219C304.194 73.4297 303.538 74.5078 303.093 75.6797ZM326.541 87.0469C326.541 88.6406 326.916 90.0234 327.666 91.2188C328.416 92.4141 329.612 93.1172 331.252 93.3047C332.354 93.4219 333.362 93.2109 334.276 92.6719C335.166 92.1562 335.729 91.3125 335.963 90.1875C336.198 88.7812 335.987 87.6562 335.354 86.7891C334.698 85.9453 333.69 85.3828 332.307 85.1016C332.073 85.0547 331.838 85.0078 331.604 84.9609C330.151 84.7031 328.791 84.375 327.479 83.9766C326.19 83.5547 325.018 82.9219 324.01 82.0781C322.979 81.2109 322.182 79.9688 321.573 78.3281C320.893 76.3594 320.799 74.4141 321.244 72.4453C321.713 70.5 322.627 68.7891 324.034 67.3359C325.44 65.8594 327.244 64.8984 329.424 64.4531C332.096 63.9844 334.604 64.4297 336.924 65.7891C338.565 66.8438 339.737 68.1797 340.51 69.8203C341.26 71.4375 341.682 73.1953 341.752 75.0703C341.776 75.3281 341.682 75.5391 341.541 75.7031C341.377 75.8906 341.166 75.9844 340.909 76.0078L335.916 76.2656C335.682 76.2656 335.471 76.1953 335.284 76.0312C335.119 75.8672 335.026 75.6797 335.002 75.4219C334.955 74.1562 334.651 73.125 334.088 72.2578C333.526 71.4141 332.541 71.0156 331.159 71.0391C330.08 71.1328 329.284 71.5312 328.721 72.2344C328.159 72.9375 327.854 73.7109 327.784 74.5547C327.713 75.3984 327.854 76.0781 328.252 76.5938C328.698 77.0859 329.377 77.4609 330.291 77.7422C331.229 78 332.096 78.1875 332.963 78.3281C333.221 78.375 333.455 78.4219 333.666 78.4688C335.143 78.7734 336.502 79.2891 337.768 80.0391C339.01 80.7891 340.088 81.7734 340.955 82.9922C342.643 85.5469 343.205 88.3359 342.643 91.3594C342.127 94.0312 340.909 96.1172 339.01 97.5938C337.135 99.0938 334.955 99.9141 332.518 100.078C330.057 100.242 327.737 99.6797 325.534 98.3672C323.541 97.1016 322.088 95.4844 321.151 93.5156C320.237 91.5469 319.768 89.3906 319.768 87.0703C319.768 86.8359 319.862 86.625 320.026 86.4375C320.213 86.2734 320.424 86.1797 320.659 86.1797H325.651C325.909 86.1797 326.096 86.25 326.284 86.4375C326.448 86.6016 326.541 86.8125 326.541 87.0469Z" fill="white"/>
</svg>
