<svg width="370" height="229" viewBox="0 0 370 229" fill="none" xmlns="http://www.w3.org/2000/svg">
<path d="M11.964 195.977L9.18957 194.541C8.96029 194.427 8.78813 194.255 8.70742 194.015C8.60378 193.763 8.61466 193.511 8.72865 193.282L10.8479 188.617C10.9733 188.364 11.1333 188.215 11.385 188.111C11.6253 188.031 11.8543 188.03 12.1179 188.133C13.012 188.52 13.9862 188.919 15.0293 189.351C17.5854 190.422 20.3822 191.641 23.4315 193.042C26.4578 194.433 29.4272 195.995 32.294 197.763C35.138 199.52 37.6044 201.461 39.6591 203.598C41.7137 205.734 43.013 208.067 43.6143 210.597C44.1812 213.138 43.7294 215.887 42.2131 218.822C41.0157 221 39.4048 222.63 37.3804 223.711C35.356 224.792 33.101 225.187 30.6383 224.906C30.3749 224.861 30.157 224.724 29.9962 224.53C29.8355 224.335 29.7891 224.084 29.8113 223.809L30.4411 218.746C30.4977 218.459 30.6002 218.253 30.8175 218.104C31.0118 217.943 31.2521 217.862 31.5499 217.896C33.1762 218.018 34.4462 217.534 35.3483 216.41C36.2733 215.297 36.6941 214.048 36.6224 212.697C36.4125 211.048 35.6189 209.539 34.2072 208.122C32.7954 206.705 31.2925 205.472 29.664 204.434C30.1609 206.368 30.165 208.2 29.6881 209.964C29.2112 211.729 28.3103 213.369 27.0197 214.872C25.2836 216.811 23.3281 217.983 21.1304 218.378C18.9326 218.772 16.7793 218.559 14.6932 217.694C12.5957 216.851 10.8178 215.538 9.37081 213.732C7.91243 211.949 7.04876 209.833 6.80271 207.394C6.64864 205.116 7.06753 203.008 8.02503 201.082C9.00546 199.167 10.3184 197.447 11.964 195.977ZM18.0883 200.051C17.0251 200.809 16.0881 201.716 15.3003 202.726C14.4782 203.747 13.9883 204.847 13.8191 205.993C13.6729 207.15 14.042 208.305 14.9607 209.448C15.6611 210.283 16.5098 210.876 17.4497 211.229C18.4238 211.57 19.3628 211.58 20.2781 211.234C21.2164 210.9 21.9818 210.108 22.5859 208.893C23.0758 207.792 23.0847 206.682 22.647 205.549C22.1749 204.428 21.5084 203.41 20.6131 202.45C19.7406 201.502 18.8913 200.679 18.0883 200.051Z" fill="white"/>
<path d="M45.8122 184.054C46.9442 183.49 47.8854 182.747 48.6711 181.818C49.4785 180.903 50.1252 179.858 50.6061 178.74C51.1003 177.6 51.4588 176.437 51.6732 175.215C51.7426 174.957 51.8638 174.761 52.0857 174.597C52.294 174.455 52.5273 174.418 52.8124 174.444L58.1695 175.471C58.4411 175.518 58.6371 175.639 58.8009 175.861C58.943 176.07 58.9793 176.303 58.9535 176.588C58.3331 179.878 57.0979 182.847 55.2127 185.505C53.3056 188.149 50.7712 190.104 47.5793 191.32C50.0688 192.65 52.6122 193.893 55.2094 195.048C55.4407 195.161 55.6315 195.339 55.7248 195.578C55.8182 195.816 55.784 196.066 55.6928 196.311L53.468 201.318C53.355 201.549 53.155 201.726 52.9165 201.819C52.6781 201.913 52.45 201.892 52.1835 201.787C40.5129 196.463 29.6775 189.789 19.7045 181.721C19.4048 181.475 19.1352 181.278 18.8874 181.095C18.3617 180.679 17.9884 180.358 17.8028 180.122C17.5954 179.874 17.5507 179.605 17.6471 179.303C17.73 179.023 17.9559 178.561 18.3062 177.995C18.4326 177.742 18.6213 177.437 18.8016 177.097C19.7892 175.209 21.0184 173.32 22.4891 171.429C23.9464 169.561 25.6111 167.941 27.4832 166.57C29.3635 165.235 31.4172 164.397 33.6741 164.108C36.1674 163.874 38.3654 164.361 40.3033 165.56C42.2278 166.781 43.7283 168.492 44.8049 170.694C45.756 172.758 46.3059 174.935 46.4059 177.255C46.5412 179.567 46.326 181.813 45.8122 184.054ZM26.8614 177.989C30.3205 180.671 33.9444 183.185 37.6409 185.532C38.3683 183.724 38.8293 181.811 39.029 179.737C39.2421 177.64 38.9348 175.704 38.1424 173.919C37.7752 173.149 37.3137 172.533 36.7009 172.063C36.1234 171.585 35.3924 171.404 34.5133 171.462C32.9593 171.735 31.508 172.523 30.1678 173.862C28.8493 175.214 27.7237 176.595 26.8614 177.989Z" fill="white"/>
<path d="M52.303 144.827C51.1186 144.986 50.0945 145.524 49.2262 146.408C48.3374 147.275 47.6629 148.242 47.1822 149.293C46.0176 151.787 45.5793 154.384 45.8924 157.137C45.9104 157.409 45.8518 157.654 45.6964 157.858C45.5205 158.046 45.3196 158.182 45.0324 158.22L39.6186 158.853C39.3518 158.906 39.122 158.828 38.8982 158.657C38.6948 158.501 38.5942 158.295 38.5403 158.029C38.2308 155.439 38.4083 152.804 39.0572 150.141C39.7217 147.459 40.8445 145.062 42.4411 142.93C44.033 140.763 46.0857 139.173 48.5991 138.162C51.5792 137.088 54.7128 137.162 57.9389 138.338C61.1853 139.53 64.3744 141.387 67.4812 143.858C70.5724 146.35 73.4268 148.982 76.0132 151.797C78.5996 154.611 80.7384 157.084 82.4297 159.214C82.5865 159.431 82.656 159.677 82.6333 159.918C82.5951 160.179 82.4958 160.393 82.2638 160.57L78.0077 163.988C77.8116 164.161 77.5651 164.23 77.3043 164.192C77.0482 164.19 76.8292 164.055 76.6569 163.858C75.5378 162.455 74.3876 161.093 73.2218 159.751C73.0691 161.342 72.6963 162.926 72.1141 164.447C71.5522 165.984 70.7354 167.39 69.6948 168.625C67.7907 170.779 65.7367 171.949 63.528 172.098C61.3349 172.226 59.3127 171.583 57.441 170.153C55.5896 168.738 54.1688 166.717 53.2396 164.138C52.3234 161.247 51.8248 158.062 51.7998 154.594C51.7545 151.111 51.9222 147.856 52.303 144.827ZM59.4814 147.284C59.2463 149.489 59.1525 151.931 59.2 154.61C59.2427 157.253 59.5796 159.638 60.2418 161.723C60.4466 162.298 60.728 162.9 61.0966 163.472C61.4653 164.044 61.9177 164.422 62.3975 164.595C62.9133 164.763 63.4636 164.507 64.0329 163.847C64.68 163.084 65.1391 162.146 65.4559 161.099C65.7367 160.057 65.9099 159.029 65.8881 158.046C65.8851 156.11 65.4658 154.339 64.6254 152.698C63.7695 151.077 62.6097 149.642 61.1819 148.39L59.4814 147.284Z" fill="white"/>
<path d="M70.6674 128.389C71.4627 129.376 72.5739 130.587 73.966 132.06C75.3581 133.533 76.8563 134.931 78.4979 136.286C80.1208 137.625 81.6936 138.566 83.2351 139.128C84.7403 139.692 86.0568 139.519 87.1322 138.666C88.1488 137.689 88.6163 136.549 88.481 135.267C88.3457 133.986 87.9208 132.714 87.2064 131.453C86.4746 130.21 85.7316 129.167 84.9775 128.324C84.2421 127.498 83.4356 126.711 82.6129 125.979C82.4069 125.787 82.2907 125.574 82.2819 125.32C82.2731 125.067 82.3553 124.829 82.5287 124.605L86.136 120.512C86.3106 120.324 86.5427 120.226 86.8135 120.198C87.0481 120.172 87.2865 120.254 87.4924 120.446C89.4537 122.135 91.2067 124.085 92.7151 126.297C94.2236 128.509 95.213 130.902 95.6833 133.476C96.0274 135.547 95.8785 137.509 95.2903 139.342C94.6846 141.192 93.5821 142.825 92.0365 144.22C89.801 146.092 87.4952 146.987 85.1004 146.89C82.6693 146.793 80.3067 146.061 77.9774 144.729C75.6294 143.38 73.4349 141.753 71.3936 139.85C69.3537 137.982 67.6058 136.177 66.1138 134.436C62.7726 130.585 59.661 126.563 56.7614 122.389C56.6266 122.158 56.5641 121.925 56.6089 121.651C56.6549 121.414 56.7921 121.192 57.0042 121.04L61.4405 117.859C61.6713 117.724 61.9047 117.662 62.1593 117.689C62.4151 117.753 62.6186 117.872 62.7896 118.102L66.0437 122.572L75.5651 113C75.7572 112.794 75.9893 112.695 76.2426 112.686C76.4972 112.714 76.7356 112.796 76.9416 112.988L80.7894 116.821C80.9779 117.032 81.0941 117.245 81.0855 117.517C81.0943 117.771 80.9933 117.992 80.8012 118.198L70.6674 128.389Z" fill="white"/>
<path d="M93.955 109.544L109.373 125.836C109.566 126.04 109.669 126.261 109.643 126.532C109.636 126.785 109.539 127.018 109.353 127.194L105.373 130.96C105.169 131.154 104.949 131.22 104.677 131.231C104.424 131.224 104.191 131.127 103.998 130.922L88.5802 114.63C88.4042 114.444 88.3202 114.207 88.3271 113.953C88.3351 113.664 88.4135 113.448 88.6181 113.255L92.5981 109.488C92.7841 109.312 93.0219 109.228 93.2929 109.254C93.5648 109.243 93.779 109.358 93.955 109.544ZM82.7263 97.6783L90.4351 105.824C90.6111 106.01 90.7137 106.23 90.7057 106.52C90.6987 106.773 90.6017 107.006 90.4157 107.182L86.4357 110.949C86.2311 111.142 86.0119 111.209 85.74 111.219C85.469 111.194 85.2362 111.097 85.0602 110.911L77.3514 102.765C77.1754 102.579 77.0914 102.341 77.0808 102.069C77.1064 101.798 77.1848 101.583 77.3893 101.389L81.3694 97.6227C81.5553 97.4467 81.7931 97.3627 82.0465 97.3697C82.3361 97.3777 82.5503 97.4923 82.7263 97.6783Z" fill="white"/>
<path d="M101.225 98.3942C101.892 99.4718 102.845 100.811 104.044 102.445C105.244 104.079 106.557 105.651 108.019 107.2C109.464 108.728 110.908 109.857 112.368 110.606C113.792 111.351 115.12 111.342 116.292 110.629C117.422 109.785 118.027 108.712 118.051 107.423C118.075 106.135 117.811 104.821 117.258 103.481C116.686 102.157 116.077 101.03 115.433 100.1C114.806 99.1896 114.103 98.3087 113.377 97.4804C113.196 97.2643 113.108 97.0382 113.13 96.7858C113.153 96.5333 113.264 96.3069 113.463 96.1066L117.549 92.4907C117.746 92.3265 117.988 92.2573 118.261 92.2634C118.497 92.2663 118.723 92.3774 118.904 92.5935C120.641 94.512 122.139 96.6637 123.362 99.0452C124.586 101.427 125.271 103.924 125.42 106.537C125.505 108.635 125.114 110.563 124.304 112.308C123.474 114.07 122.178 115.554 120.472 116.747C118.022 118.328 115.623 118.931 113.259 118.538C110.858 118.142 108.604 117.123 106.458 115.513C104.295 113.883 102.318 111.998 100.528 109.857C98.7348 107.751 97.2237 105.744 95.9585 103.831C93.1194 99.5967 90.5292 95.2207 88.1683 90.7197C88.063 90.474 88.0299 90.2347 88.1081 89.969C88.1832 89.7394 88.3468 89.5359 88.5761 89.411L93.3718 86.8038C93.6175 86.6985 93.8568 86.6653 94.106 86.7239C94.3521 86.8186 94.5392 86.9626 94.6805 87.2115L97.3566 92.0497L107.989 83.729C108.205 83.5483 108.448 83.4791 108.7 83.5017C108.949 83.5603 109.176 83.6714 109.356 83.8875L112.7 88.1673C112.861 88.3998 112.95 88.6259 112.908 88.8948C112.886 89.1473 112.758 89.354 112.542 89.5347L101.225 98.3942Z" fill="white"/>
<path d="M138.794 91.0908C139.694 90.32 140.193 89.3268 140.312 88.0044C140.425 86.7175 140.389 85.5319 140.22 84.4686C139.572 80.7548 138.198 76.9787 136.093 73.176C133.987 69.3732 131.794 65.9409 129.477 62.8722C129.333 62.6609 129.266 62.4273 129.312 62.1782C129.338 61.9435 129.435 61.7221 129.653 61.542L133.887 58.1174C134.098 57.9728 134.318 57.8849 134.588 57.9172C134.823 57.9428 135.044 58.0395 135.21 58.2364C135.771 58.8759 136.384 59.6356 137.02 60.5654C137.678 61.4808 138.306 62.3539 138.834 63.1714C138.979 63.3827 139.124 63.5941 139.275 63.7698C142.088 67.9262 145.005 71.9181 148.027 75.7453C151.049 79.5725 154.402 83.204 158.108 86.6252C158.31 86.8288 158.412 87.069 158.422 87.3104C158.446 87.5729 158.35 87.7942 158.182 88.0022L154.48 92.024C154.291 92.2465 154.072 92.3343 153.809 92.3588C153.554 92.3477 153.311 92.2654 153.103 92.0974C151.265 90.4079 149.496 88.6395 147.798 86.792C147.76 89.5482 147.143 91.9562 145.925 94.0305C144.686 96.1193 142.822 97.6119 140.29 98.5373C137.807 99.3058 135.505 99.298 133.336 98.4861C131.174 97.6385 129.22 96.3695 127.445 94.6366C125.705 92.9104 124.185 91.0963 122.926 89.1655C121.175 86.5161 119.636 83.7222 118.279 80.7414C116.922 77.7606 115.729 74.792 114.727 71.7856C114.645 71.5309 114.657 71.2751 114.753 71.0538C114.871 70.818 115.068 70.6523 115.323 70.5711L120.479 68.8115C120.755 68.7159 120.99 68.7414 121.211 68.8382C121.447 68.9561 121.612 69.153 121.715 69.3932C122.444 71.5932 123.448 74.1024 124.682 76.9498C125.952 79.8038 127.398 82.5065 129.056 85.0647C130.713 87.6228 132.526 89.547 134.494 90.8372C135.232 91.3255 135.938 91.5869 136.642 91.6636C137.346 91.7404 138.061 91.5613 138.794 91.0908Z" fill="white"/>
<path d="M161.355 83.4532C158.813 80.9073 156.483 77.9518 154.366 74.5867C152.271 71.2092 150.389 67.6858 148.753 64.0264C147.105 60.3447 145.737 56.8007 144.615 53.3844C144.485 52.9885 144.586 52.6407 144.873 52.3657L146.223 51.1543C148.833 48.7811 151.691 47.1772 154.81 46.3651C157.917 45.5307 161.117 45.8729 164.429 47.3223C167.468 48.8055 169.917 51.0228 171.789 53.9965C173.649 56.9479 174.801 60.2598 175.176 63.9121C175.573 67.5521 175.041 71.149 173.623 74.678C172.17 78.197 169.645 81.2545 166.069 83.8381C165.758 84.0683 165.478 84.2514 165.234 84.4445C164.688 84.833 164.286 85.1126 164.005 85.2384C163.723 85.3643 163.447 85.3409 163.177 85.1683C162.907 84.9957 162.55 84.6662 162.106 84.1796C161.881 83.9823 161.653 83.7278 161.355 83.4532ZM153.065 55.1904C154.373 58.6795 155.982 62.2368 157.881 65.897C159.791 69.5225 161.916 72.7957 164.265 75.6816C166.59 73.0561 167.8 70.0511 167.894 66.6666C167.988 63.282 167.074 60.1898 165.152 57.39C163.563 55.1957 161.735 53.8934 159.644 53.4954C157.589 53.1076 155.376 53.6542 153.065 55.1904Z" fill="white"/>
<path d="M185.307 52.2795C185.752 53.4266 186.362 54.6971 187.184 56.0704C187.983 57.454 188.949 58.7087 190.015 59.8082C191.115 60.9209 192.293 61.6364 193.582 61.9678C195.081 62.2644 196.195 62.0018 196.97 61.2169C197.712 60.4187 198.213 59.3901 198.44 58.1177C198.634 56.8321 198.697 55.6314 198.528 54.4759C198.52 54.2002 198.579 53.951 198.749 53.765C198.909 53.5556 199.11 53.44 199.375 53.408L204.811 52.7417C205.077 52.7098 205.326 52.7687 205.535 52.9288C205.721 53.0991 205.837 53.3001 205.879 53.589C206.152 55.8164 206.045 58.0698 205.538 60.3022C204.997 62.5213 203.988 64.498 202.442 66.2056C201.035 67.6569 199.424 68.6387 197.598 69.1277C195.796 69.6064 193.903 69.6217 191.954 69.1868C188.875 68.4059 186.148 66.6344 183.713 63.8692C181.301 61.0937 179.408 57.8409 178.09 54.1137C176.749 50.3968 176.184 46.7321 176.387 43.0962C176.589 39.4604 177.804 36.4166 180.011 33.918C182.265 31.5939 184.83 30.364 187.701 30.2854C190.595 30.1966 193.268 31.2657 195.72 33.4929C197.293 34.9859 198.48 36.6192 199.338 38.3958C200.197 40.1724 200.948 42.0236 201.579 43.9832C201.62 44.0771 201.671 44.1945 201.688 44.2986C201.778 44.567 201.766 44.7957 201.673 45.0316C201.57 45.2441 201.4 45.4301 201.165 45.5325L185.307 52.2795ZM183.745 44.9159L192.46 41.1996C191.905 40.1843 191.184 39.2978 190.261 38.527C189.328 37.7326 188.261 37.5275 187.039 37.8647C185.691 38.4246 184.779 39.4088 184.317 40.7835C183.865 42.1817 183.679 43.5479 183.745 44.9159Z" fill="white"/>
<path d="M223.316 30.2575C223.499 31.5118 223.838 33.12 224.287 35.0967C224.735 37.0734 225.313 39.0386 226.036 41.0412C226.752 43.0193 227.626 44.6304 228.667 45.8989C229.676 47.1502 230.897 47.6716 232.256 47.485C233.629 47.1611 234.612 46.4182 235.148 45.2462C235.683 44.0742 235.965 42.7636 235.992 41.3142C235.995 39.8721 235.886 38.5962 235.667 37.4864C235.454 36.4013 235.16 35.3132 234.825 34.2642C234.746 33.994 234.754 33.7512 234.875 33.5287C234.997 33.3061 235.189 33.1428 235.452 33.0387L240.641 31.3516C240.886 31.2793 241.136 31.3125 241.383 31.4266C241.599 31.5234 241.762 31.7156 241.842 31.9858C242.67 34.4378 243.186 37.0084 243.359 39.6802C243.531 42.352 243.164 44.9155 242.259 47.3707C241.5 49.3288 240.374 50.9416 238.935 52.2193C237.471 53.5041 235.691 54.3483 233.651 54.7619C230.774 55.2348 228.333 54.832 226.321 53.529C224.278 52.2085 222.617 50.3751 221.29 48.043C219.956 45.6864 218.895 43.1694 218.107 40.4919C217.302 37.8462 216.716 35.4028 216.319 33.1443C215.403 28.1288 214.772 23.083 214.402 18.0139C214.403 17.7466 214.468 17.5139 214.646 17.3015C214.806 17.1208 215.037 16.9994 215.297 16.9763L220.735 16.4971C221.002 16.4985 221.235 16.5635 221.44 16.7166C221.628 16.9016 221.742 17.1082 221.773 17.3929L222.298 22.8968L235.366 19.5048C235.636 19.4253 235.886 19.4585 236.109 19.5798C236.314 19.7329 236.477 19.9251 236.557 20.1953L237.917 25.4535C237.972 25.7309 237.964 25.9737 237.818 26.2035C237.696 26.426 237.497 26.5648 237.227 26.6443L223.316 30.2575Z" fill="white"/>
<path d="M260.605 38.5632C261.737 38.2133 262.59 37.5002 263.225 36.3339C263.839 35.1976 264.277 34.0954 264.545 33.0525C265.425 29.3868 265.665 25.3758 265.243 21.0496C264.822 16.7233 264.173 12.7021 263.266 8.96553C263.217 8.71416 263.249 8.4733 263.391 8.26322C263.507 8.05802 263.684 7.89335 263.956 7.81461L269.202 6.35418C269.454 6.30545 269.69 6.31186 269.925 6.44884C270.13 6.56556 270.295 6.74229 270.369 6.9888C270.63 7.79885 270.89 8.73946 271.105 9.84552C271.344 10.9467 271.574 11.9976 271.734 12.9577C271.783 13.2091 271.832 13.4605 271.901 13.6818C272.831 18.6137 273.922 23.436 275.175 28.1488C276.427 32.8616 278.062 37.5265 280.104 42.1385C280.208 42.4053 280.206 42.6664 280.119 42.8919C280.037 43.1425 279.861 43.3071 279.624 43.4313L274.629 45.6515C274.367 45.7805 274.131 45.7741 273.881 45.6923C273.65 45.5804 273.461 45.4086 273.336 45.1718C272.32 42.8909 271.4 40.5654 270.576 38.1953C269.446 40.7095 267.923 42.6741 265.981 44.0938C264.014 45.5184 261.71 46.1476 259.02 45.991C256.435 45.7096 254.326 44.7882 252.659 43.1814C251.011 41.5446 249.722 39.6036 248.781 37.3081C247.871 35.0329 247.196 32.764 246.808 30.4919C246.254 27.3651 245.951 24.1895 245.89 20.915C245.829 17.6404 245.914 14.4421 246.188 11.285C246.215 11.019 246.327 10.7887 246.504 10.624C246.706 10.4544 246.952 10.3806 247.218 10.4073L252.649 10.8411C252.94 10.8629 253.145 10.9796 253.31 11.1564C253.48 11.3583 253.553 11.6048 253.552 11.8659C253.347 14.1747 253.271 16.876 253.273 19.9794C253.305 23.1031 253.558 26.1579 254.062 29.1639C254.567 32.1699 255.466 34.656 256.76 36.6221C257.243 37.3632 257.787 37.8836 258.403 38.2338C259.018 38.5839 259.746 38.7037 260.605 38.5632Z" fill="white"/>
<path d="M294.464 29.5853C295.597 30.1469 296.757 30.4488 297.972 30.5139C299.19 30.6046 300.413 30.4889 301.594 30.1972C302.801 29.9031 303.945 29.4864 305.049 28.9191C305.296 28.8185 305.526 28.7968 305.79 28.8747C306.029 28.955 306.199 29.119 306.351 29.3618L308.768 34.2516C308.894 34.4969 308.915 34.7263 308.838 34.9909C308.757 35.2299 308.593 35.3998 308.35 35.5513C305.354 37.0434 302.241 37.8521 298.984 37.9542C295.725 38.0308 292.636 37.1911 289.739 35.3817C290.182 38.1689 290.728 40.9465 291.375 43.7145C291.425 43.967 291.398 44.2268 291.264 44.4452C291.131 44.6635 290.911 44.7872 290.661 44.8623L285.326 46.1124C285.074 46.162 284.812 46.1096 284.593 45.976C284.375 45.8423 284.254 45.648 284.176 45.3724C281.373 32.8547 280.149 20.1876 280.558 7.36623C280.573 6.97903 280.567 6.64523 280.563 6.33691C280.577 5.66689 280.608 5.17531 280.683 4.88526C280.756 4.56972 280.943 4.372 281.242 4.2666C281.515 4.16362 282.02 4.06444 282.683 4.00179C282.961 3.94979 283.318 3.91605 283.698 3.85441C285.799 3.50145 288.048 3.34037 290.442 3.37119C292.812 3.40441 295.108 3.75317 297.331 4.41748C299.531 5.10969 301.439 6.2411 303.033 7.8651C304.725 9.7113 305.664 11.7572 305.878 14.026C306.067 16.2972 305.609 18.5267 304.504 20.7145C303.434 22.7189 302.031 24.4719 300.242 25.9528C298.48 27.4567 296.561 28.6412 294.464 29.5853ZM287.854 10.8174C287.805 15.1944 287.99 19.6007 288.351 23.9647C290.232 23.4525 292.035 22.6648 293.809 21.5712C295.609 20.4752 296.967 19.0608 297.911 17.3512C298.302 16.594 298.515 15.8537 298.519 15.0818C298.552 14.3329 298.255 13.6408 297.677 12.9752C296.521 11.9014 295.017 11.2206 293.14 10.9607C291.266 10.7263 289.486 10.6632 287.854 10.8174Z" fill="white"/>
<path d="M319.299 22.2724C319.311 27.8288 319.605 33.359 320.18 38.8374C320.206 39.119 320.13 39.3496 319.976 39.5548C319.823 39.76 319.593 39.8885 319.337 39.9403L313.91 40.5922C313.629 40.6184 313.398 40.542 313.193 40.3889C312.988 40.2357 312.859 40.0055 312.833 39.7239C312.284 34.7832 311.964 28.7665 311.898 21.6995C311.857 14.6324 311.972 8.58921 312.294 3.5954C312.319 3.33929 312.421 3.13422 312.574 2.95465C312.753 2.80063 312.983 2.69771 313.239 2.69715L318.667 2.60859C318.949 2.60798 319.154 2.68435 319.334 2.8376C319.513 2.99085 319.642 3.22102 319.668 3.47702C320.086 7.47061 321.092 10.8996 322.635 13.7129C324.203 16.5261 326.257 19.3895 328.799 22.3031C329.646 23.2999 330.442 24.2712 331.263 25.2936C331.307 21.5807 331.298 17.6118 331.186 13.3615C331.075 9.1112 330.861 5.19399 330.495 1.63559C330.469 1.35398 330.545 1.12337 330.698 0.918189C330.877 0.712957 331.082 0.610091 331.363 0.55827L336.791 0.00880824C337.072 -0.0174068 337.303 0.0589114 337.508 0.212102C337.688 0.365348 337.816 0.595521 337.842 0.877127C338.339 5.74114 338.608 11.5531 338.648 18.3129C338.714 25.0726 338.599 30.8854 338.276 35.8024C338.228 36.9291 338.102 38.0561 337.976 39.183C337.951 39.4135 337.849 39.6185 337.696 39.7725C337.517 39.9265 337.313 40.0038 337.082 40.0299L331.731 40.3744C331.501 40.4005 331.296 40.3497 331.116 40.2221C330.937 40.0688 330.808 39.8898 330.731 39.6596C330.009 37.1005 328.928 34.7728 327.541 32.7273C326.128 30.6819 324.588 28.688 322.919 26.7712C321.687 25.3399 320.48 23.8318 319.299 22.2724Z" fill="white"/>
<path d="M349.77 27.176C349.616 28.9104 349.891 30.4514 350.591 31.8246C351.292 33.1978 352.525 34.0784 354.292 34.4408C355.48 34.6747 356.597 34.5424 357.644 34.0441C358.663 33.5689 359.356 32.705 359.72 31.5034C360.111 29.9957 359.99 28.7511 359.385 27.7463C358.752 26.7647 357.71 26.0553 356.232 25.6157C355.982 25.5421 355.731 25.4684 355.481 25.3948C353.924 24.9739 352.476 24.4856 351.087 23.9253C349.725 23.3418 348.51 22.54 347.495 21.5245C346.457 20.4812 345.709 19.0525 345.205 17.2083C344.655 15.0002 344.741 12.8742 345.415 10.7747C346.113 8.70301 347.273 6.92936 348.944 5.48379C350.617 4.01272 352.673 3.14123 355.089 2.86708C358.041 2.61493 360.727 3.34166 363.121 5.045C364.805 6.35114 365.951 7.9181 366.634 9.77815C367.294 11.6104 367.584 13.5641 367.479 15.6113C367.48 15.8941 367.358 16.1146 367.189 16.2796C366.992 16.4678 366.753 16.5494 366.471 16.5501L361.013 16.3486C360.758 16.326 360.535 16.2291 360.347 16.0325C360.184 15.8381 360.1 15.625 360.1 15.3422C360.171 13.9604 359.939 12.8087 359.411 11.8107C358.88 10.8382 357.847 10.3096 356.34 10.2016C355.158 10.1995 354.252 10.5561 353.572 11.267C352.892 11.9779 352.486 12.7901 352.328 13.7015C352.17 14.6129 352.257 15.3662 352.641 15.9658C353.078 16.5444 353.782 17.0181 354.749 17.4124C355.744 17.7835 356.67 18.0712 357.6 18.308C357.876 18.3839 358.127 18.4575 358.352 18.5289C359.929 19.003 361.359 19.6954 362.664 20.6338C363.943 21.5699 365.021 22.7452 365.847 24.1552C367.437 27.0982 367.78 30.1877 366.876 33.4236C366.057 36.2814 364.529 38.4338 362.321 39.8573C360.135 41.3086 357.684 41.9909 355.016 41.9341C352.322 41.875 349.851 41.0389 347.58 39.3978C345.534 37.8282 344.109 35.928 343.279 33.6951C342.475 31.4644 342.173 29.0726 342.397 26.5476C342.419 26.2925 342.542 26.072 342.738 25.8838C342.958 25.7234 343.197 25.6417 343.452 25.6643L348.884 26.1463C349.165 26.1712 349.362 26.2658 349.548 26.488C349.711 26.6824 349.793 26.921 349.77 27.176Z" fill="white"/>
</svg>
