<svg width="221" height="257" viewBox="0 0 221 257" fill="none" xmlns="http://www.w3.org/2000/svg">
<path d="M55.4932 128.486C42.5701 113.484 50.7386 97.3161 60.2704 95.7782C69.8022 94.2403 54.5412 82.6579 68.1572 75.7062C81.7733 68.7489 63.0533 44.1138 82.4549 40.1141C81.4353 16.4029 126.373 7.47388 137.606 28.1036C148.501 46.2715 160.754 35.9566 155.307 63.4366C149.859 90.9165 202.966 101.181 160.754 134.542C118.543 167.903 60.5352 134.339 55.4932 128.486Z" fill="#352C38"/>
<path d="M177.722 113.687C160.174 96.7138 57.8312 96.2575 42.2998 109.705C21.0053 119.349 -22.9694 236.243 16.5492 254.45C26.0303 258.822 37.962 253.684 49.8317 244.637C50.4288 247.949 50.7837 249.825 50.7837 249.825H157.797C157.797 249.825 159.69 243.814 162.422 234.305C175.92 250.552 193.473 261.858 211.878 247.24C241.223 223.94 191.586 121.169 177.728 113.693L177.722 113.687ZM176.922 176.01C176.922 176.01 176.922 175.993 176.922 175.982L176.934 175.999L176.917 176.01H176.922Z" fill="#E1EFBA"/>
<mask id="mask0_1922_27443" style="mask-type:luminance" maskUnits="userSpaceOnUse" x="0" y="100" width="221" height="157">
<path d="M177.722 113.687C160.174 96.7132 57.8308 96.2568 42.2994 109.704C21.0049 119.348 -22.9698 236.242 16.5489 254.45C26.03 258.821 37.9616 253.684 49.8313 244.636C50.4285 247.949 50.7834 249.825 50.7834 249.825H157.796C157.796 249.825 159.689 243.814 162.421 234.305C175.919 250.551 193.473 261.858 211.878 247.239C241.222 223.939 191.586 121.168 177.728 113.692L177.722 113.687ZM176.922 176.01C176.922 176.01 176.922 175.993 176.922 175.981L176.933 175.998L176.916 176.01H176.922Z" fill="white"/>
</mask>
<g mask="url(#mask0_1922_27443)">
<path d="M13.2648 132.199C14.2619 138.452 18.9489 143.978 24.9598 145.978C30.9707 147.978 38.035 146.372 42.5812 141.961C45.06 139.556 46.75 135.427 44.5529 132.762C43.0882 130.988 40.2941 130.678 38.2604 131.748C36.2267 132.818 34.9423 135.015 34.5536 137.28C33.6578 142.474 37.1337 147.679 41.7306 150.26C46.3275 152.84 51.8032 153.29 57.0761 153.245C60.3153 153.217 63.656 152.997 66.5572 151.555C69.4584 150.113 71.8301 147.178 71.6893 143.939C71.5484 140.705 68.1515 137.742 65.0812 138.784C62.3997 139.691 61.228 142.959 61.4815 145.775C61.8589 149.933 64.5292 153.617 67.8867 156.096C71.2442 158.575 75.2496 160 79.2381 161.217C100.471 167.684 123.855 168.985 144.631 161.172C149.076 159.498 153.481 157.346 156.681 153.837C159.881 150.327 161.661 145.218 160.18 140.705C159.329 138.119 156.676 135.663 154.124 136.621C151.29 137.68 151.234 141.742 152.377 144.542C154.8 150.451 160.427 154.935 166.731 155.972C173.035 157.008 179.801 154.569 183.992 149.747C185.93 147.516 187.372 144.564 186.809 141.663C186.245 138.762 183.006 136.356 180.28 137.5C178.026 138.446 177.119 141.212 177.136 143.657C177.181 151.206 183.801 157.746 191.242 159.014C198.684 160.276 206.408 156.98 211.788 151.685C217.168 146.389 220.48 139.319 222.7 132.103" stroke="#D5E1B1" stroke-width="1.42" stroke-linecap="round" stroke-linejoin="round"/>
<path d="M-0.272491 164.197C7.40027 172.23 19.7319 175.452 30.3509 172.191C32.6156 171.498 34.8859 170.467 36.3844 168.63C37.8829 166.794 38.3899 163.988 37.0379 162.039C35.314 159.566 31.2072 159.701 29.1398 161.898C27.0723 164.095 26.9033 167.599 28.0694 170.382C29.2355 173.165 31.5002 175.334 33.8944 177.165C42.1643 183.48 52.7552 186.686 63.1376 186.004C65.7515 185.835 68.7598 185.131 69.8583 182.759C71.1878 179.886 68.3148 176.343 65.1488 176.281C61.9828 176.219 59.228 178.748 58.045 181.683C55.617 187.688 58.7435 194.837 63.8362 198.837C68.9288 202.837 75.5312 204.313 81.9477 205.208C88.6008 206.138 95.53 206.538 101.907 204.425C108.284 202.318 114.041 197.231 115.253 190.623C115.613 188.657 115.422 186.314 113.816 185.119C111.591 183.463 108.143 185.412 107.383 188.083C106.622 190.753 107.715 193.575 109 196.037C110.875 199.62 113.337 203.096 116.92 204.977C120.497 206.859 125.393 206.707 128.125 203.727C130.863 200.747 129.939 194.939 126.069 193.767C122.52 192.691 118.774 196.015 118.295 199.693C117.816 203.372 119.759 206.966 122.216 209.738C127.398 215.585 135.223 218.988 143.037 218.791C150.85 218.593 158.495 214.797 163.368 208.695C166.348 204.972 167.728 198.448 163.52 196.2C160.298 194.477 155.96 197.389 155.571 201.023C155.188 204.656 157.949 208.098 161.351 209.422C164.754 210.752 168.607 210.335 172.117 209.315C175.57 208.312 178.984 206.656 181.203 203.828C183.423 200.995 184.161 196.803 182.251 193.756C180.336 190.708 175.469 189.739 173.007 192.364C170.145 195.412 172.449 200.983 176.381 202.397C180.319 203.811 184.741 202.116 188.076 199.592C194.915 194.409 198.769 185.531 197.878 176.99C197.54 173.746 195.912 169.982 192.673 169.605C189.558 169.244 186.961 172.788 187.564 175.864C188.172 178.94 191.135 181.137 194.217 181.706C197.298 182.275 200.47 181.52 203.444 180.523C218.925 175.351 231.989 163.357 238.456 148.372" stroke="#D5E1B1" stroke-width="1.42" stroke-linecap="round" stroke-linejoin="round"/>
<path d="M-11.4828 178.376C-11.5786 187.108 -3.37629 195.609 5.55836 196.042C8.48775 196.183 11.5749 195.462 13.4114 193.35C15.2479 191.237 15.2986 187.525 12.9889 185.621C10.0933 183.232 5.41752 185.237 4.3528 188.606C3.28808 191.969 4.86545 195.789 7.07376 198.797C13.8677 208.047 27.2246 212.143 37.455 208.121C40.7562 206.819 44.0799 203.845 43.0546 200.358C42.1983 197.445 38.3112 195.919 35.5678 197.034C32.8243 198.149 31.3765 201.253 31.5849 204.239C31.7877 207.225 33.3876 210.058 35.3818 212.43C41.0604 219.179 50.4175 222.813 58.879 221.545C61.3295 221.179 63.797 220.368 65.4138 218.599C67.0306 216.824 67.5207 213.9 66.0053 211.856C63.4815 208.442 57.4255 210.346 56.4566 214.261C55.4876 218.176 58.1016 222.373 61.3464 225.156C69.498 232.147 82.3986 232.801 90.37 226.615C92.0656 225.303 93.6148 223.584 93.8796 221.432C94.15 219.28 92.6459 216.717 90.415 216.447C88.5278 216.216 86.866 217.709 86.4266 219.478C85.9871 221.246 86.5279 223.173 87.3448 224.891C91.4347 233.511 103.164 238.012 111.524 234.164C114.357 232.857 116.909 230.463 117.112 227.342C117.315 224.221 114.137 220.773 111.084 221.556C108.493 222.221 107.473 225.488 108.391 228.057C109.31 230.626 111.597 232.553 113.929 234.079C120.605 238.44 128.615 240.671 136.367 240.327C139.815 240.175 143.584 239.279 145.245 236.406C146.907 233.539 144.462 228.621 141.094 229.19C138.164 229.685 137.488 233.865 139.336 236.299C141.189 238.738 144.429 239.685 147.431 240.096C158.095 241.549 169.03 238.107 176.381 230.975C179.08 228.356 181.012 223.353 177.677 221.111C174.697 219.111 170.686 222.52 171.249 225.945C171.813 229.364 175.187 231.866 178.55 233.054C187.964 236.389 199.079 231.691 202.532 222.914C203.523 220.39 203.918 217.466 202.814 214.858C201.709 212.25 198.78 210.171 196.048 210.689C192.538 211.354 191.254 216.109 193.254 219.196C195.254 222.283 199.411 223.539 202.949 222.993C206.487 222.446 209.512 220.43 212.216 218.233C224.762 208.059 232.834 192.837 234.327 176.539" stroke="#D5E1B1" stroke-width="1.42" stroke-linecap="round" stroke-linejoin="round"/>
<path d="M-11.6464 222.914C-5.25806 231.027 6.67922 234.209 16.2561 230.362C18.1658 229.596 20.0474 228.52 21.1854 226.807C22.3289 225.094 22.5261 222.627 21.1966 221.055C19.946 219.579 17.625 219.292 15.8786 220.12C14.1266 220.948 12.938 222.7 12.4197 224.565C11.0451 229.505 14.1773 234.891 18.6559 237.387C23.1345 239.882 28.5764 239.995 33.6409 239.195C36.7675 238.699 40.0462 237.764 42.108 235.364C44.1698 232.964 44.305 228.722 41.6517 226.993C38.666 225.049 34.3507 227.81 33.7029 231.314C33.055 234.818 34.9929 238.305 37.4041 240.93C44.0684 248.18 55.0368 251.132 64.439 248.209" stroke="#D5E1B1" stroke-width="1.42" stroke-linecap="round" stroke-linejoin="round"/>
</g>
<path d="M58.6534 103.704C63.2897 130.728 95.8848 145.397 117.776 144.107C139.668 142.812 155.943 121.788 161.469 106.239" stroke="#2A242D" stroke-width="1.42" stroke-linecap="round" stroke-linejoin="round"/>
<path d="M64.2417 102.735C71.2046 135.618 132.637 158.619 156.867 105.118C123.275 95.9187 81.0068 98.6735 64.2417 102.735Z" fill="#CC887F"/>
<path d="M69.1994 101.705C67.3686 102.032 65.7011 102.376 64.2364 102.731C71.1993 135.613 132.632 158.614 156.862 105.113C154.788 104.544 152.682 104.026 150.552 103.547C127.049 137.004 84.4379 125.135 69.1994 101.705Z" fill="white"/>
<path d="M99.1805 76.9568L93.3274 106.865C101.992 117.461 125.872 117.461 129.145 105.051L125.168 79.9989L99.1805 76.9568Z" fill="#CC887F"/>
<path d="M111.619 165.893C111.619 165.893 117.495 182.495 141.877 176.405C147.921 183.689 151.459 192.286 151.459 192.286L169.655 172.721C169.655 172.721 158.005 160.068 156.495 154.029C154.986 147.99 139.668 134.182 134.271 136.768C128.88 139.359 141.133 145.612 141.133 145.612C141.133 145.612 113.388 129.36 108.166 131.591C102.944 133.822 124.402 145.072 124.402 145.072C124.402 145.072 102.009 131.703 98.8877 135.258C92.7191 142.272 116.149 151.009 116.149 151.009C116.149 151.009 98.375 142.165 94.533 145.184C90.691 148.204 113.152 158.457 113.152 158.457C113.152 158.457 95.0062 151.657 92.4205 154.677C89.8291 157.696 111.625 165.893 111.625 165.893H111.619Z" fill="#CC887F"/>
<path d="M113.23 26.6451C96.6847 25.0058 89.35 39.9908 89.8175 58.4854C90.2851 76.98 96.1383 93.3677 111.354 93.6043C126.57 93.8409 132.891 85.4077 135.702 65.2737C138.513 45.1398 134.53 28.752 113.225 26.6451H113.23Z" fill="#CC887F"/>
<path d="M79.5424 154.749C79.5424 154.749 84.7196 152.738 86.8772 146.265C89.0348 139.793 99.9637 124.689 103.704 125.41C107.445 126.131 99.3891 141.663 99.3891 141.663C99.3891 141.663 129.162 122.965 132.902 126.56C136.643 130.154 116.504 141.376 116.504 141.376C116.504 141.376 138.942 124.689 143.544 129.579C148.147 134.469 119.957 147.555 119.957 147.555C119.957 147.555 143.544 133.601 146.564 138.784C149.583 143.961 119.67 156.761 119.67 156.761C119.67 156.761 141.099 151.009 141.961 156.761C142.823 162.512 120.531 163.808 120.531 163.808C120.531 163.808 110.036 181.784 92.2008 175.024C79.5424 167.115 79.5424 154.749 79.5424 154.749Z" fill="#CC887F"/>
<path d="M145.983 141.471C141.499 147.42 119.67 156.761 119.67 156.761C119.67 156.761 141.099 151.009 141.961 156.761C142.823 162.512 120.531 163.808 120.531 163.808C120.531 163.808 118.306 167.616 114.166 171.07" stroke="#2A242D" stroke-width="1.42" stroke-linecap="round" stroke-linejoin="round"/>
<path d="M138.694 136.992C131.596 142.152 119.957 147.555 119.957 147.555C119.957 147.555 132.897 139.905 140.834 138.034" stroke="#2A242D" stroke-width="1.42" stroke-linecap="round" stroke-linejoin="round"/>
<path d="M101.361 140.446C104.093 138.784 109.309 135.663 114.746 132.762" stroke="#2A242D" stroke-width="1.42" stroke-linecap="round" stroke-linejoin="round"/>
<path d="M166.635 163.307L136.789 190.561C136.789 190.561 138.699 195.288 142.124 202.155L176.939 175.993L166.635 163.301V163.307Z" fill="white"/>
<path d="M81.8182 149.859L68.4951 163.041L90.5951 201.411C96.8426 193.22 100.718 187.451 100.718 187.451L81.8238 149.859H81.8182Z" fill="white"/>
<path d="M100.504 58.9925C102.014 56.5138 107.084 55.6463 108.594 59.5334" stroke="#2A242D" stroke-width="1.42" stroke-linecap="round" stroke-linejoin="round"/>
<path d="M118.954 59.0991C120.79 56.2937 125.534 56.0796 126.182 59.5329" stroke="#2A242D" stroke-width="1.42" stroke-linecap="round" stroke-linejoin="round"/>
<path d="M115.033 64.4898C118.053 62.1181 118.808 65.7855 116.109 68.0501" stroke="#2A242D" stroke-width="1.42" stroke-linecap="round" stroke-linejoin="round"/>
<path d="M109.732 71.8304C109.732 71.8304 114.96 75.8245 118.954 71.2896" stroke="#2A242D" stroke-width="1.42" stroke-linecap="round" stroke-linejoin="round"/>
<path d="M90.5896 59.5329C80.7649 48.204 84.3252 79.3796 92.0881 71.2899L90.5896 59.5329Z" fill="#CC887F"/>
<path d="M136.502 59.8142C143.73 51.6176 142.699 63.2675 141.51 68.0109C140.322 72.7543 135.099 72.8669 135.099 69.4136" fill="#CC887F"/>
<path d="M88.3529 53.1329C87.7445 58.1692 92.0034 63.9209 90.5951 67.5151C96.2285 64.6364 97.0228 48.3839 94.3976 41.7702C105.005 53.4202 128.739 39.4661 134.491 49.6796C131.9 60.4676 130.7 74.078 134.147 76.9567C135.46 63.7181 141.313 48.6768 135.24 36.0184C129.167 23.3601 108.385 21.4898 100.51 25.6642C92.6344 29.8329 87.6713 39.6182 88.3529 53.1385V53.1329Z" fill="#352C38"/>
<path d="M68.4952 163.042L48.812 179.221C48.812 179.221 55.9833 157.363 54.4623 138.868" stroke="#2A242D" stroke-width="1.42" stroke-linecap="round" stroke-linejoin="round"/>
<path d="M48.8117 179.221L30.4974 191.541" stroke="#2A242D" stroke-width="1.42" stroke-linecap="round" stroke-linejoin="round"/>
<path d="M49.5441 245.104L90.5894 201.411" stroke="#2A242D" stroke-width="1.42" stroke-linecap="round" stroke-linejoin="round"/>
<path d="M142.119 202.155C142.119 202.155 159.667 231.775 164.709 236.97" stroke="#2A242D" stroke-width="1.42" stroke-linecap="round" stroke-linejoin="round"/>
<path d="M176.939 175.999L201.8 207.084" stroke="#2A242D" stroke-width="1.42" stroke-linecap="round" stroke-linejoin="round"/>
<path d="M173.75 125.382C173.75 125.382 173.407 163.469 173.108 171.283" stroke="#2A242D" stroke-width="1.42" stroke-linecap="round" stroke-linejoin="round"/>
<path d="M100.285 89.6713C113.512 99.1017 124.835 90.1726 124.835 90.1726" stroke="#2A242D" stroke-width="1.42" stroke-linecap="round" stroke-linejoin="round"/>
<path d="M129.438 132.762C129.438 132.762 121.613 136.486 116.509 141.375" stroke="#2A242D" stroke-width="1.42" stroke-linecap="round" stroke-linejoin="round"/>
<path d="M102.944 133.816L100.476 139.46" stroke="#2A242D" stroke-width="1.42" stroke-linecap="round" stroke-linejoin="round"/>
<path d="M85.711 75.1375C81.5028 71.2166 85.2941 66.5071 87.4461 71.5603C90.567 68.7379 92.5105 74.2024 85.711 75.1375Z" fill="#D35450"/>
<path d="M139.663 75.4749C134.08 74.1059 135.088 68.1457 139.432 71.5089C140.778 67.5204 145.138 71.3455 139.663 75.4749Z" fill="#D35450"/>
<path d="M95.4175 32.9262C95.4175 32.9262 101.631 42.4185 114.166 39.6131C126.7 36.8076 137.437 38.3456 137.674 44.5818" stroke="#4A454C" stroke-width="1.42" stroke-linecap="round" stroke-linejoin="round"/>
<path d="M98.0762 27.1907C98.0762 27.1907 101.13 33.7874 113.163 31.4101C125.19 29.0384 127.41 29.2525 130.074 32.9199" stroke="#4A454C" stroke-width="1.42" stroke-linecap="round" stroke-linejoin="round"/>
<path d="M104.549 23.6647C104.549 23.6647 111.704 27.5292 119.957 22.7859" stroke="#4A454C" stroke-width="1.42" stroke-linecap="round" stroke-linejoin="round"/>
<path d="M142.355 44.5762C142.355 44.5762 151.949 47.1113 150.22 58.2486" stroke="#4A454C" stroke-width="1.42" stroke-linecap="round" stroke-linejoin="round"/>
<path d="M146.783 73.4525C146.783 73.4525 142.22 76.5059 150.428 84.2688" stroke="#4A454C" stroke-width="1.42" stroke-linecap="round" stroke-linejoin="round"/>
<path d="M142.355 82.838C142.355 82.838 143.837 91.1755 143.364 98.7243" stroke="#4A454C" stroke-width="1.42" stroke-linecap="round" stroke-linejoin="round"/>
<path d="M80.534 48.2429C76.8666 52.5581 82.2578 60.8956 75.785 71.2893C69.3121 81.683 70.6078 85.9982 72.9795 88.584" stroke="#4A454C" stroke-width="1.42" stroke-linecap="round" stroke-linejoin="round"/>
<path d="M78.1566 81.6833C78.1566 81.6833 80.5283 91.2827 74.7033 95.1134" stroke="#4A454C" stroke-width="1.42" stroke-linecap="round" stroke-linejoin="round"/>
<path d="M58.2371 65.9329C40.4016 59.3193 51.0432 45.799 56.8006 55.866C57.6625 41.4838 73.1996 52.7 58.2371 65.9329Z" fill="#F5D250"/>
<path d="M169.278 57.5727C165.537 44.0524 178.483 40.8864 176.472 51.5336C194.307 49.5225 181.936 64.9525 169.278 57.5727Z" fill="#F5D250"/>
<path d="M73.6499 18.1834C50.0627 12.7189 62.7943 -4.54195 71.2557 8.97833C74.5175 -10.0064 89.4743 8.11642 73.6499 18.1834Z" fill="#F5D250"/>
<path d="M158.293 30.4644C144.564 10.5219 165.605 6.36446 162.732 22.0536C177.942 10.2346 176.765 33.7036 158.293 30.4644Z" fill="#F5D250"/>
</svg>
