<svg width="547" height="434" viewBox="0 0 547 434" fill="none" xmlns="http://www.w3.org/2000/svg">
<path d="M457.915 64.534C436.164 48.9843 405.948 46.3375 377.768 46.0539C301.211 45.345 118.47 49.5514 88.8971 129.238C83.8611 142.803 83.5932 157.36 83.4325 171.634C82.6289 233.644 81.9324 296.693 101.594 356.34C107.702 374.915 116.863 394.199 135.453 404.88C151.15 413.86 170.919 415.231 189.723 415.751C259.263 417.83 329.123 412.773 397.323 400.768C426.414 395.664 457.969 387.629 474.202 366.171C486.524 349.912 487.327 329.305 487.756 309.88C488.827 261.293 489.845 212.753 490.917 164.166C491.72 128.34 489.899 87.3624 457.915 64.4868V64.534Z" fill="#EC8536"/>
<path d="M210.721 272.722V165.598L279.092 82.615C284.406 76.1646 294.321 76.2759 299.49 82.844L364.607 165.596V272.722H210.721Z" fill="#F0C047" stroke="black" stroke-width="0.331531"/>
<path d="M281.191 128.573L281.2 128.573L281.209 128.572L347.176 123.041L359.457 225.179L223.641 231.325L215.861 137.147L238.147 129.61C241.781 128.381 245.602 127.795 249.437 127.878L281.191 128.573Z" fill="#FDF4F1" stroke="black" stroke-width="0.331531"/>
<path d="M210.555 165.543L258.386 205.013C260.802 207.007 263.847 208.081 266.979 208.045L303.713 207.62C306.547 207.587 309.296 206.648 311.556 204.939L364.647 164.805L364.773 272.892H210.555V165.543Z" fill="#F0C047"/>
<path d="M308.424 206.928L363.559 272.675" stroke="#6B5835" stroke-width="0.663061"/>
<path d="M261.53 207.101L210.815 271.858" stroke="#6B5835" stroke-width="0.663061"/>
<path d="M149.351 256.11C150.146 255.433 151.374 255.897 151.524 256.93L152.015 260.333C154.561 277.98 171.073 290.119 188.677 287.284C189.68 287.122 190.461 288.14 190.045 289.067L176.334 319.591L166.626 347.457L148.776 384.17C144.126 393.732 134.785 400.141 124.19 401.038C120.046 401.388 115.873 400.878 111.936 399.539L96.2581 394.209C92.7377 393.012 89.4436 391.231 86.514 388.942L75.2992 380.176L61.3787 365.893C44.9383 349.025 50.8395 320.873 72.6702 312.027L75.2992 310.962L103.121 295.493L149.351 256.11Z" fill="#9A5232"/>
<path d="M180.557 194.814C181.377 192.172 183.751 190.317 186.513 190.16L210.573 188.79L211.039 217.908L230.374 209.522L246.677 200.708C253.861 196.824 260.346 206.835 253.864 211.804L242.254 220.704L215.931 242.833L183.086 287.792L172.057 286.824C163.342 286.059 156.15 279.689 154.337 271.13L152.56 262.743L168.11 234.91L180.557 194.814Z" fill="#D27750"/>
<path d="M248.585 202.382L249.112 202.296C250.536 202.062 251.986 202.531 253.004 203.555L253.073 203.624C253.536 204.091 253.88 204.663 254.074 205.291C254.369 206.246 254.302 207.276 253.886 208.185L253.388 209.271L246.88 213.809L242.077 206.92L248.585 202.382Z" fill="#E1EFBA"/>
<path d="M133.763 280.89L143.349 301.409C145.072 305.097 147.885 308.168 151.409 310.207L173.374 322.917" stroke="#75351F" stroke-width="0.663061"/>
<line x1="152.752" y1="270.462" x2="136.828" y2="281.74" stroke="#75351F" stroke-width="0.663061"/>
<line x1="162.239" y1="281.713" x2="149.081" y2="293.932" stroke="#75351F" stroke-width="0.663061"/>
<line x1="173.025" y1="287.987" x2="160.672" y2="305.027" stroke="#75351F" stroke-width="0.663061"/>
<line x1="183.256" y1="290.887" x2="172.111" y2="312.505" stroke="#75351F" stroke-width="0.663061"/>
<line x1="211.181" y1="218.003" x2="199.248" y2="214.568" stroke="#75351F" stroke-width="0.663061"/>
<line x1="211.357" y1="205.168" x2="193.91" y2="209.779" stroke="#75351F" stroke-width="0.663061"/>
<line x1="199.614" y1="208.608" x2="205.58" y2="217.286" stroke="#75351F" stroke-width="0.663061"/>
<path d="M210.75 217.971L211.02 205.733" stroke="#75351F" stroke-width="0.663061"/>
<path d="M431.392 255.503C430.876 254.595 429.563 254.612 429.07 255.532L427.447 258.563C419.032 274.283 399.37 280.06 383.789 271.389C382.901 270.895 381.82 271.586 381.895 272.599L384.37 305.969L383.988 335.475L388.242 376.075C389.35 386.651 395.944 395.862 405.598 400.319C409.374 402.063 413.47 403.007 417.628 403.092L434.184 403.43C437.901 403.506 441.605 402.956 445.14 401.803L458.673 397.39L476.631 388.714C497.84 378.467 501.898 349.99 484.395 334.227L482.287 332.329L461.412 308.296L431.392 255.503Z" fill="#9A5232"/>
<path d="M357.299 165.903C357.789 165.115 358.557 164.54 359.45 164.291L360.741 163.931C361.579 163.698 362.454 163.632 363.317 163.736L366.057 164.067L374.372 163.725C375.555 163.676 376.739 163.733 377.911 163.895L392.649 165.93C394.965 166.25 397.206 166.975 399.27 168.073L429.41 184.104C430.688 184.784 431.377 186.214 431.113 187.637L424.521 223.094C424.491 223.252 424.474 223.411 424.467 223.571L423.179 256.576L426.215 266.909C419.32 279.385 404.994 285.782 391.102 282.589L388.739 282.045L385.354 267.71L381.097 252.961L379.454 243.015L377.786 219.985C377.617 217.658 377.041 215.378 376.082 213.251L371.595 203.291L359.903 182.734L356.87 176.883C355.067 173.404 355.23 169.231 357.299 165.903Z" fill="#D27750"/>
<path d="M358.236 171.782L358.125 171.26C357.825 169.848 358.226 168.378 359.201 167.314L359.267 167.242C359.712 166.757 360.267 166.387 360.886 166.164C361.826 165.825 362.858 165.844 363.785 166.218L364.893 166.664L369.729 172.954L363.072 178.072L358.236 171.782Z" fill="#E1EFBA"/>
<path d="M388.605 312.295L411.758 312.755C417.477 312.869 422.968 310.516 426.829 306.296L443.688 287.872" stroke="#75351F" stroke-width="0.663061"/>
<line x1="412.403" y1="284.074" x2="420.913" y2="302.255" stroke="#75351F" stroke-width="0.663061"/>
<line x1="398.37" y1="287.91" x2="403.012" y2="308.382" stroke="#75351F" stroke-width="0.663061"/>
<line x1="425.412" y1="277.214" x2="433.149" y2="290.495" stroke="#75351F" stroke-width="0.663061"/>
<line x1="387.804" y1="290.646" x2="388.579" y2="309.472" stroke="#75351F" stroke-width="0.663061"/>
<line x1="367.654" y1="164.631" x2="388.139" y2="196.59" stroke="#75351F" stroke-width="0.663061"/>
<line x1="387.932" y1="196.443" x2="402.339" y2="199.651" stroke="#75351F" stroke-width="0.663061"/>
<line x1="395.601" y1="198.064" x2="408.409" y2="192.823" stroke="#75351F" stroke-width="0.663061"/>
<line x1="406.548" y1="193.374" x2="390.276" y2="178.316" stroke="#75351F" stroke-width="0.663061"/>
<line x1="390.424" y1="178.396" x2="373.952" y2="174.416" stroke="#75351F" stroke-width="0.663061"/>
<line x1="390.17" y1="178.074" x2="390.17" y2="173.238" stroke="#75351F" stroke-width="0.663061"/>
<line x1="390.387" y1="195.44" x2="402.152" y2="191.109" stroke="#75351F" stroke-width="0.663061"/>
<line x1="394.75" y1="193.24" x2="392.446" y2="186.608" stroke="#75351F" stroke-width="0.663061"/>
<line x1="392.641" y1="186.808" x2="380.329" y2="182.103" stroke="#75351F" stroke-width="0.663061"/>
<path d="M430.639 255.284L425.964 267.011C423.402 273.438 418.104 278.386 411.517 280.502L401.614 283.684C393.034 286.441 384.047 280.774 382.838 271.843V271.843" stroke="#75351F" stroke-width="0.663061"/>
<path d="M393.535 122.942L385.71 118.358L382.896 110.55L386.345 103.836L393.735 100.263L400.847 104.845L404.834 112.506L400.212 119.368L393.535 122.942Z" fill="#878388"/>
<path d="M394.105 81.2727C400.162 75.8648 414.517 79.9127 421.984 88.2768C429.451 96.6409 429.483 106.21 423.426 111.618C417.368 117.026 404.952 116.871 397.485 108.506C390.018 100.142 388.047 86.6807 394.105 81.2727Z" fill="#F4C173"/>
<path d="M401.665 110.706C407.723 105.298 417.043 108.161 424.51 116.525C431.978 124.889 432.01 134.458 425.952 139.866C419.895 145.274 410.041 144.473 402.574 136.109C395.107 127.744 395.608 116.114 401.665 110.706Z" fill="#F4C173"/>
<path d="M353.968 120.865C350.571 113.264 355.943 105.342 366 101.042C376.057 96.7429 385.135 99.9399 388.532 107.541C391.929 115.142 388.359 124.268 378.301 128.567C368.244 132.867 357.365 128.466 353.968 120.865Z" fill="#F4C173"/>
<path d="M362.763 98.206C359.366 90.6051 364.255 82.8891 373.663 78.8672C383.072 74.8452 391.735 78.2194 395.132 85.8203C398.529 93.4212 395.373 102.37 385.965 106.392C376.556 110.414 366.16 105.807 362.763 98.206Z" fill="#F4C173"/>
<path d="M383.031 152.093C375.188 149.406 372.618 140.446 375.715 130.648C378.812 120.85 386.922 116.694 394.766 119.381C402.609 122.068 407.216 130.58 404.119 140.378C401.022 150.176 390.874 154.78 383.031 152.093Z" fill="#F4C173"/>
<path d="M430.518 129.902L420.159 112.847L428.349 101.345L444.989 99.952C449.344 99.5875 453.598 101.391 456.363 104.774L468.312 119.392L455.766 129.523C452.835 131.889 449.036 132.898 445.317 132.296L430.518 129.902Z" fill="#73885B"/>
<path d="M405.909 79.1273L388.329 87.4986L377.409 77.9753L377.057 61.3655C376.962 56.8737 379.163 52.6438 382.903 50.1332L397.803 40.1297L407.29 54.1416C409.339 57.1675 410.043 60.8991 409.237 64.4551L405.909 79.1273Z" fill="#73885B"/>
<path d="M398.223 98.3841L398.8 98.4323C402.836 98.7696 406.087 101.906 406.591 105.948V105.948" stroke="#CB8209" stroke-width="0.331531"/>
<path d="M402.048 88.6844L403.094 88.7718C410.407 89.3831 416.297 95.0649 417.211 102.39V102.39" stroke="#CB8209" stroke-width="0.331531"/>
<path d="M405.275 80.5853L406.76 80.7094C417.144 81.5772 425.507 89.6448 426.805 100.045V100.045" stroke="#CB8209" stroke-width="0.331531"/>
<path d="M383.134 104.308L383.065 103.933C382.565 101.235 384.065 98.5863 386.605 97.6817V97.6817" stroke="#CB8209" stroke-width="0.331531"/>
<path d="M374.708 99.4185L374.582 98.7396C373.677 93.8506 376.395 89.0522 380.997 87.4131V87.4131" stroke="#CB8209" stroke-width="0.331531"/>
<path d="M362.718 96.8819L362.539 95.918C361.254 88.9762 365.113 82.1631 371.648 79.8356V79.8356" stroke="#CB8209" stroke-width="0.331531"/>
<path d="M381.053 117.086L380.755 116.829C378.65 115.013 378.103 112.004 379.45 109.646V109.646" stroke="#CB8209" stroke-width="0.331531"/>
<path d="M370.937 122.574L370.396 122.108C366.582 118.818 365.591 113.365 368.032 109.094V109.094" stroke="#CB8209" stroke-width="0.331531"/>
<path d="M359.663 127.557L358.894 126.894C353.479 122.223 352.072 114.481 355.538 108.416V108.416" stroke="#CB8209" stroke-width="0.331531"/>
<path d="M394.905 125.137L394.56 125.304C392.12 126.481 389.155 125.721 387.495 123.492V123.492" stroke="#CB8209" stroke-width="0.331531"/>
<path d="M396.035 137.16L395.41 137.462C390.99 139.595 385.618 138.217 382.609 134.178V134.178" stroke="#CB8209" stroke-width="0.331531"/>
<path d="M395.558 150.951L394.67 151.379C388.395 154.408 380.766 152.452 376.495 146.717V146.717" stroke="#CB8209" stroke-width="0.331531"/>
<path d="M407.824 117.293L407.735 117.657C407.087 120.289 404.61 122.056 401.899 121.819V121.819" stroke="#CB8209" stroke-width="0.331531"/>
<path d="M419.444 122.946L419.281 123.606C418.108 128.374 413.619 131.575 408.707 131.147V131.147" stroke="#CB8209" stroke-width="0.331531"/>
<path d="M430.677 131.152L430.447 132.088C428.78 138.859 422.407 143.404 415.432 142.796V142.796" stroke="#CB8209" stroke-width="0.331531"/>
<line y1="-0.165765" x2="40.38" y2="-0.165765" transform="matrix(0.212302 -0.977204 0.971364 0.237598 389.676 85.2266)" stroke="#3E502B" stroke-width="0.331531"/>
<line y1="-0.165765" x2="42.0048" y2="-0.165765" transform="matrix(0.993691 0.112148 -0.0848353 0.996395 423.929 114.29)" stroke="#3E502B" stroke-width="0.331531"/>
<path d="M238.571 306.037L242.519 304.597L246.138 305.898L247.517 309.113L246.61 312.807L242.873 313.993L238.96 313.154L237.876 309.477L238.571 306.037Z" fill="#878388"/>
<path d="M253.281 318.548C253.423 322.308 247.738 326.238 242.546 326.433C237.354 326.629 233.928 323.814 233.787 320.054C233.645 316.294 237.367 311.907 242.559 311.711C247.751 311.515 253.14 314.788 253.281 318.548Z" fill="#F4C173"/>
<path d="M240.539 312.554C240.681 316.314 236.906 318.797 231.714 318.992C226.523 319.188 223.096 316.373 222.955 312.613C222.813 308.853 226.009 305.572 231.201 305.376C236.393 305.18 240.397 308.794 240.539 312.554Z" fill="#F4C173"/>
<path d="M251 292.524C254.717 293.556 255.959 297.814 254.524 302.675C253.088 307.536 249.266 309.833 245.548 308.8C241.831 307.768 239.627 303.798 241.063 298.937C242.498 294.077 247.283 291.492 251 292.524Z" fill="#F4C173"/>
<path d="M256.492 302.355C260.21 303.388 261.52 307.412 260.178 311.959C258.835 316.506 255.071 318.603 251.354 317.571C247.637 316.539 245.374 312.769 246.717 308.222C248.06 303.675 252.775 301.323 256.492 302.355Z" fill="#F4C173"/>
<path d="M231.266 293.679C234.542 291.672 238.5 293.401 241.084 297.401C243.667 301.4 242.756 305.523 239.48 307.53C236.204 309.537 231.804 308.668 229.22 304.668C226.637 300.668 227.99 295.686 231.266 293.679Z" fill="#F4C173"/>
<path d="M225.163 317.185L234.313 318.523L236 324.845L233.721 328.122C231.227 331.71 227.125 333.838 222.756 333.812L217.753 333.783L217.804 329.488C217.849 325.721 219.493 322.151 222.327 319.669L225.163 317.185Z" fill="#73885B"/>
<path d="M250.561 323.395L252.764 314.645L259.39 313.559L262.393 315.938C265.915 318.727 267.771 323.12 267.321 327.602L266.879 332.018L262.133 331.562C258.495 331.212 255.171 329.376 252.945 326.488L250.561 323.395Z" fill="#73885B"/>
<path d="M245.956 314.964L245.769 315.156C244.456 316.498 242.376 316.732 240.784 315.718V315.718" stroke="#CB8209" stroke-width="0.331531"/>
<path d="M248.289 319.194L247.949 319.541C245.571 321.972 241.803 322.397 238.918 320.56V320.56" stroke="#CB8209" stroke-width="0.331531"/>
<path d="M250.227 322.737L249.745 323.231C246.368 326.682 241.017 327.285 236.921 324.677V324.677" stroke="#CB8209" stroke-width="0.331531"/>
<path d="M248.297 307.824L248.451 307.91C249.562 308.529 250.065 309.846 249.638 311.021V311.021" stroke="#CB8209" stroke-width="0.331531"/>
<path d="M252.531 306.262L252.811 306.418C254.824 307.538 255.735 309.926 254.96 312.053V312.053" stroke="#CB8209" stroke-width="0.331531"/>
<path d="M256.979 302.729L257.376 302.95C260.234 304.541 261.527 307.931 260.427 310.952V310.952" stroke="#CB8209" stroke-width="0.331531"/>
<path d="M244.349 303.309L244.529 303.278C245.799 303.063 247.035 303.756 247.479 304.934V304.934" stroke="#CB8209" stroke-width="0.331531"/>
<path d="M245.378 298.075L245.704 298.019C248.005 297.629 250.245 298.886 251.049 301.019V301.019" stroke="#CB8209" stroke-width="0.331531"/>
<path d="M246.929 292.579L247.393 292.5C250.66 291.946 253.84 293.731 254.982 296.759V296.759" stroke="#CB8209" stroke-width="0.331531"/>
<path d="M237.383 305.876L237.426 305.704C237.726 304.485 238.873 303.651 240.16 303.717V303.717" stroke="#CB8209" stroke-width="0.331531"/>
<path d="M232.757 302.729L232.834 302.416C233.378 300.208 235.457 298.697 237.787 298.816V298.816" stroke="#CB8209" stroke-width="0.331531"/>
<path d="M227.974 298.484L228.083 298.04C228.855 294.905 231.807 292.759 235.116 292.928V292.928" stroke="#CB8209" stroke-width="0.331531"/>
<path d="M236.368 312.806L236.265 312.666C235.516 311.658 235.617 310.251 236.502 309.353V309.353" stroke="#CB8209" stroke-width="0.331531"/>
<path d="M230.918 315.284L230.731 315.032C229.375 313.204 229.557 310.656 231.161 309.029V309.029" stroke="#CB8209" stroke-width="0.331531"/>
<path d="M224.671 316.873L224.404 316.514C222.479 313.919 222.739 310.301 225.016 307.991V307.991" stroke="#CB8209" stroke-width="0.331531"/>
<line y1="-0.165765" x2="18.711" y2="-0.165765" transform="matrix(0.617646 0.786457 -0.802225 0.597022 253.178 315.797)" stroke="#3E502B" stroke-width="0.331531"/>
<line y1="-0.165765" x2="19.4639" y2="-0.165765" transform="matrix(-0.719794 0.694188 -0.71368 -0.700471 232.684 319.441)" stroke="#3E502B" stroke-width="0.331531"/>
<path d="M286.764 172.729L285.921 175.374L283.538 176.352L280.96 175.224L279.087 172.76L279.993 170.355L282.221 168.984L284.955 170.505L286.764 172.729Z" fill="#878388"/>
<path d="M272.64 172.72C270.268 170.712 270.341 165.879 272.493 163.338C274.644 160.796 277.873 160.744 280.245 162.752C282.618 164.761 283.684 168.927 281.533 171.468C279.381 174.009 275.013 174.729 272.64 172.72Z" fill="#FF4F4F"/>
<path d="M281.899 170.057C279.526 168.048 279.653 164.909 281.805 162.368C283.956 159.826 287.185 159.774 289.557 161.782C291.93 163.791 292.547 167.1 290.396 169.641C288.244 172.183 284.271 172.065 281.899 170.057Z" fill="#FF4F4F"/>
<path d="M289.629 186.013C287.368 187.186 284.209 185.418 281.85 182.063C279.492 178.708 279.753 175.649 282.014 174.476C284.274 173.304 287.678 174.462 290.037 177.817C292.395 181.172 291.89 184.841 289.629 186.013Z" fill="#FF4F4F"/>
<path d="M281.184 183.16C278.923 184.332 275.877 182.726 273.671 179.587C271.464 176.448 271.823 173.527 274.084 172.355C276.344 171.182 279.651 172.202 281.857 175.341C284.064 178.479 283.445 181.987 281.184 183.16Z" fill="#FF4F4F"/>
<path d="M297.556 176.126C297.355 178.769 294.561 179.67 290.973 178.674C287.385 177.677 285.25 174.975 285.451 172.332C285.651 169.689 288.11 168.107 291.699 169.103C295.287 170.099 297.756 173.483 297.556 176.126Z" fill="#FF4F4F"/>
<path d="M285.781 160.293L280.955 163.842L276.332 161.144L276.099 160.483C274.527 156.036 275.58 151.083 278.825 147.66L281.34 149.961C283.729 152.146 285.236 155.131 285.576 158.351L285.781 160.293Z" fill="#73885B"/>
<path d="M270.852 168.77L275.264 174.631L273.032 178.336L271.28 178.396C267.318 178.531 263.492 176.99 260.814 174.18L258.412 171.659L258.537 171.555C261.727 168.886 266.035 167.805 270.179 168.635L270.852 168.77Z" fill="#73885B"/>
<path d="M278.047 171.263L278.018 171.107C277.78 169.816 278.611 168.598 279.847 168.423V168.423" stroke="#CB2009" stroke-width="0.331531"/>
<path d="M274.427 170.022L274.375 169.74C273.944 167.402 275.448 165.193 277.689 164.876V164.876" stroke="#CB2009" stroke-width="0.331531"/>
<path d="M271.401 168.976L271.327 168.575C270.715 165.255 272.852 162.12 276.032 161.669V161.669" stroke="#CB2009" stroke-width="0.331531"/>
<path d="M281.408 176.3L281.27 176.329C280.379 176.513 279.414 176.048 278.858 175.164V175.164" stroke="#CB2009" stroke-width="0.331531"/>
<path d="M280.517 179.148L280.266 179.2C278.652 179.534 276.904 178.691 275.895 177.09V177.09" stroke="#CB2009" stroke-width="0.331531"/>
<path d="M280.741 183.179L280.386 183.253C278.093 183.727 275.611 182.53 274.179 180.258V180.258" stroke="#CB2009" stroke-width="0.331531"/>
<path d="M285.912 176.942L285.858 177.033C285.444 177.731 284.434 177.94 283.544 177.512V177.512" stroke="#CB2009" stroke-width="0.331531"/>
<path d="M288.677 180.31L288.578 180.475C287.828 181.741 285.999 182.119 284.386 181.343V181.343" stroke="#CB2009" stroke-width="0.331531"/>
<path d="M291.375 184.071L291.236 184.306C290.171 186.103 287.573 186.64 285.283 185.538V185.538" stroke="#CB2009" stroke-width="0.331531"/>
<path d="M287.382 172.259L287.464 172.367C288.074 173.17 288.087 174.195 287.494 174.752V174.752" stroke="#CB2009" stroke-width="0.331531"/>
<path d="M291.34 171.826L291.489 172.022C292.593 173.477 292.617 175.334 291.543 176.343V176.343" stroke="#CB2009" stroke-width="0.331531"/>
<path d="M296.04 171.929L296.252 172.208C297.82 174.273 297.853 176.91 296.329 178.342V178.342" stroke="#CB2009" stroke-width="0.331531"/>
<path d="M283.568 167.961L283.724 167.995C284.706 168.208 285.458 168.971 285.631 169.929V169.929" stroke="#CB2009" stroke-width="0.331531"/>
<path d="M284.43 164.037L284.713 164.099C286.491 164.485 287.854 165.868 288.167 167.603V167.603" stroke="#CB2009" stroke-width="0.331531"/>
<path d="M286.188 160.234L286.59 160.321C289.114 160.869 291.049 162.832 291.495 165.297V165.297" stroke="#CB2009" stroke-width="0.331531"/>
<line y1="-0.165765" x2="14.3558" y2="-0.165765" transform="matrix(-0.982098 -0.188374 -0.0223874 -0.999749 274.375 174.189)" stroke="#3E502B" stroke-width="0.331531"/>
<line y1="-0.165765" x2="14.1897" y2="-0.165765" transform="matrix(-0.15304 -0.98822 0.997552 0.0699345 281.102 162.569)" stroke="#3E502B" stroke-width="0.331531"/>
<path d="M27.4176 208.192L25.8602 206.997C25.651 206.817 25.5167 206.593 25.4963 206.32C25.4758 206.048 25.5361 205.809 25.7132 205.56L29.0646 201.199C29.2626 200.969 29.4873 200.835 29.7598 200.814C30.0502 200.773 30.2895 200.833 30.5377 201.01C31.1594 201.472 31.7632 201.955 32.385 202.418C36.9826 205.79 41.4002 209.372 45.6558 213.143C47.6253 214.873 49.5344 216.843 51.4222 219.05C53.2891 221.238 54.8324 223.549 55.9954 226.006C57.1583 228.462 57.6207 230.972 57.4215 233.531C57.2403 236.069 56.0205 238.587 53.8189 241.061C52.0103 243.036 49.8947 244.311 47.493 244.902C45.0913 245.493 42.6312 245.306 40.1335 244.359C39.8493 244.224 39.6791 244.041 39.5628 243.795C39.4465 243.549 39.444 243.256 39.5403 242.975L41.5641 237.872C41.6993 237.588 41.8822 237.418 42.1278 237.301C42.3944 237.203 42.6668 237.183 42.948 237.279C44.5963 237.86 46.0694 237.671 47.2923 236.757C48.5541 235.84 49.3256 234.647 49.6066 233.178C49.7821 232.128 49.6614 231.041 49.2862 229.954C48.911 228.866 48.404 227.848 47.7622 226.859C47.1578 230.016 45.7614 232.528 43.6118 234.392C41.4413 236.237 38.7336 237.184 35.4859 237.193C31.7565 237.043 28.565 235.717 25.8726 233.219C23.1801 230.721 21.4645 227.679 20.6507 224.14C20.034 220.879 20.3388 217.901 21.562 215.167C22.7823 212.395 24.7411 210.076 27.4176 208.192ZM33.8771 213.166C31.9327 214.115 30.3829 215.366 29.2277 216.92C28.0934 218.493 27.7068 220.381 28.1278 222.6C28.5167 224.39 29.3998 225.987 30.7563 227.373C32.1337 228.776 33.7338 229.497 35.5415 229.597C37.7088 229.532 39.1473 228.621 39.8778 226.883C40.5903 225.167 40.594 223.131 39.8679 220.759C39.1239 218.408 37.5922 216.253 35.3148 214.33C35.3148 214.33 35.3148 214.33 35.2939 214.312C34.8336 213.916 34.3554 213.541 33.8771 213.166ZM64.7135 205.293C67.4606 204.089 69.6398 202.359 71.2153 200.147C72.7699 197.917 73.5018 195.416 73.3512 192.629C73.2006 189.842 71.9306 187.002 69.5232 184.13C69.3291 183.89 69.2128 183.644 69.1743 183.393C69.115 183.123 69.1753 182.884 69.3732 182.654L73.0603 178.072C73.2583 177.842 73.483 177.707 73.7735 177.666C74.0639 177.625 74.3062 177.724 74.5154 177.904C78.1902 181.757 80.4848 185.733 81.4202 189.851C82.3766 193.986 81.7616 198.044 79.5782 202.063C78.0047 204.823 75.878 207.253 73.2371 209.349C70.5962 211.446 67.7319 212.913 64.6025 213.716C66.6293 215.168 68.6921 216.579 70.77 217.93C71.0181 218.107 71.1704 218.311 71.2298 218.58C71.2892 218.85 71.2318 219.128 71.0937 219.373L67.8819 224.291C67.7049 224.539 67.501 224.692 67.2315 224.751C66.962 224.81 66.6838 224.753 66.4386 224.615C55.4779 217.552 45.6331 209.191 36.8832 199.516C36.6054 199.204 36.3694 198.929 36.1573 198.71C35.6673 198.179 35.3238 197.774 35.1448 197.475C34.9867 197.193 34.9842 196.9 35.1374 196.595C35.2726 196.31 35.5727 195.877 36.0378 195.294C36.2357 195.064 36.4488 194.774 36.7158 194.421C38.105 192.595 39.7307 190.79 41.5928 189.006C43.4578 187.262 45.5018 185.816 47.7279 184.71C49.951 183.565 52.2987 183.036 54.7501 183.106C57.4228 183.258 59.7021 184.163 61.5431 185.747C63.387 187.369 64.6973 189.443 65.474 191.968C66.1076 194.151 66.3341 196.385 66.1533 198.668C65.9726 200.952 65.4926 203.16 64.7135 205.293ZM55.4111 206.5C56.471 204.718 57.2827 202.759 57.8434 200.584C58.3861 198.43 58.384 196.316 57.8399 194.283C57.599 193.42 57.1903 192.668 56.6376 192.084C56.1029 191.478 55.3342 191.144 54.4094 191.077C52.6882 191.089 51.0318 191.702 49.3803 192.903C47.7108 194.124 46.3196 195.403 45.1468 196.723C48.4003 200.178 51.8157 203.444 55.4111 206.5ZM93.8759 177.996C94.5062 180.395 94.7351 182.921 94.5806 185.555C94.4053 188.171 93.4822 190.471 91.7874 192.399C90.2401 193.944 88.4485 194.841 86.3946 195.113C84.3197 195.367 82.2848 195.109 80.2896 194.339C77.5438 193.214 75.0567 191.366 72.8104 188.814C70.564 186.263 68.8002 183.362 67.4981 180.094C66.1988 176.865 65.624 173.64 65.7166 170.444C65.8301 167.265 66.8709 164.447 68.8239 162.05C69.9577 160.732 71.3305 159.729 72.9422 159.04C72.0853 157.793 71.3243 156.52 70.6563 155.181C70.5191 154.917 70.4986 154.645 70.5769 154.384C70.6552 154.124 70.8352 153.915 71.0988 153.778L76.339 151.114C76.6026 150.977 76.8751 150.956 77.1353 151.035C77.4165 151.131 77.6048 151.293 77.742 151.557C79.0665 154.079 80.7563 156.516 82.7876 158.81C84.8398 161.121 86.9523 163.193 89.1222 164.987C93.931 169.088 99.3162 172.265 105.2 174.523C105.463 174.64 105.672 174.82 105.789 175.066C105.905 175.312 105.925 175.584 105.829 175.865L103.778 181.381C103.681 181.662 103.48 181.854 103.235 181.97C102.989 182.086 102.717 182.107 102.436 182.01C99.4951 180.901 96.6359 179.569 93.8759 177.996ZM79.4463 167.475C78.6932 166.827 77.9396 166.434 77.1257 166.28C76.3507 166.123 75.5928 166.453 74.8699 167.251C74.0148 168.372 73.6292 169.751 73.6741 171.392C73.7579 173.029 73.9857 174.5 74.4145 175.778C75.0841 177.92 76.1847 180.068 77.7373 182.241C79.2928 184.453 81.11 185.98 83.1946 186.9C83.5984 187.065 84.0951 187.165 84.6877 187.237C85.2593 187.292 85.6816 187.182 85.9754 186.926C86.2453 186.612 86.4287 186.187 86.5255 185.651C86.6222 185.116 86.665 184.643 86.6717 184.212C86.6559 181.395 85.9609 178.395 84.5658 175.192C83.1528 172.011 81.4542 169.457 79.4463 167.475ZM92.0786 145.725C89.3886 148.471 86.3761 150.83 83.0978 152.779C82.8162 152.937 82.5647 152.975 82.3044 152.897C82.0261 152.84 81.8169 152.66 81.6617 152.417L78.7165 147.335C78.5793 147.071 78.5588 146.799 78.6162 146.52C78.6945 146.26 78.8356 146.054 79.0963 145.878C82.6382 143.792 85.873 141.005 88.8008 137.517C91.7675 134.026 93.9354 130.321 95.3463 126.439C95.4426 126.158 95.6435 125.966 95.8892 125.85C96.1348 125.734 96.4073 125.713 96.6885 125.81L102.235 127.741C102.498 127.859 102.707 128.038 102.823 128.284C102.94 128.53 102.96 128.802 102.864 129.083C101.504 132.865 99.6537 136.369 97.295 139.619C101.525 142.53 105.683 145.779 109.766 149.328C113.869 152.894 117.61 156.586 120.973 160.462C121.164 160.663 121.263 160.93 121.244 161.205C121.226 161.48 121.088 161.726 120.887 161.917L116.444 165.812C116.222 165.985 115.955 166.084 115.68 166.065C115.405 166.047 115.18 165.927 114.968 165.708C111.712 161.96 108.1 158.415 104.164 154.993C100.21 151.591 96.2013 148.507 92.0786 145.725ZM136.208 143.135C136.438 143.333 136.572 143.557 136.575 143.851C136.595 144.123 136.517 144.383 136.319 144.614L132.485 149.07C132.287 149.3 132.042 149.416 131.769 149.436C131.497 149.457 131.236 149.379 131.006 149.181C120.441 140.092 109.897 131.021 99.3326 121.932C99.1025 121.734 99.0071 121.506 98.9657 121.216C98.9453 120.944 99.0236 120.683 99.2215 120.453L103.055 115.997C103.253 115.767 103.499 115.651 103.771 115.63C104.082 115.607 104.304 115.688 104.534 115.886C109.806 120.421 115.099 124.975 120.371 129.51C125.643 134.046 130.936 138.599 136.208 143.135ZM121.631 111.373C118.941 114.119 115.928 116.478 112.65 118.427C112.369 118.585 112.117 118.624 111.857 118.545C111.578 118.488 111.369 118.308 111.214 118.065L108.269 112.983C108.132 112.72 108.111 112.447 108.169 112.169C108.247 111.909 108.388 111.702 108.649 111.526C112.191 109.44 115.425 106.653 118.353 103.166C121.32 99.6747 123.488 95.9699 124.899 92.0871C124.995 91.806 125.196 91.6147 125.442 91.4984C125.687 91.3822 125.96 91.3617 126.241 91.458L131.787 93.3897C132.05 93.507 132.259 93.6869 132.376 93.9326C132.492 94.1783 132.512 94.4507 132.416 94.7319C131.056 98.513 129.206 102.018 126.847 105.267C131.078 108.178 135.235 111.428 139.318 114.976C143.421 118.543 147.162 122.234 150.526 126.111C150.717 126.312 150.815 126.578 150.797 126.854C150.778 127.129 150.64 127.374 150.439 127.565L145.996 131.46C145.774 131.634 145.508 131.732 145.232 131.714C144.957 131.695 144.733 131.575 144.521 131.356C141.265 127.609 137.652 124.064 133.716 120.641C129.762 117.24 125.754 114.155 121.631 111.373ZM160.941 100.378C161.667 99.3647 161.93 98.1708 161.687 96.7605C161.447 95.3892 161.081 94.1642 160.592 93.1247C158.905 89.4159 156.409 85.8852 153.179 82.488C149.931 79.1116 146.674 76.1274 143.431 73.5921C143.222 73.4122 143.087 73.1874 143.049 72.9359C143.008 72.6455 143.068 72.4061 143.245 72.158L146.705 67.4169C146.885 67.2077 147.089 67.0554 147.379 67.014C147.631 66.9756 147.888 67.0149 148.115 67.174C148.877 67.6842 149.729 68.3443 150.668 69.1153C151.627 69.9043 152.485 70.6422 153.301 71.3441C153.489 71.5061 153.677 71.6681 153.866 71.83C157.945 75.3396 162.091 78.6877 166.321 81.8533C170.53 85.0009 175.029 87.8527 179.838 90.3877C180.104 90.5439 180.256 90.7477 180.355 91.0143C180.453 91.2809 180.414 91.5382 180.278 91.8223L177.539 97.0377C177.401 97.2829 177.2 97.4741 176.951 97.5515C176.664 97.6318 176.407 97.5924 176.143 97.4752C173.76 96.2257 171.407 94.8564 169.128 93.4425C169.872 96.3024 169.897 98.9815 169.204 101.48C168.493 103.999 166.965 106.07 164.586 107.736C162.212 109.226 159.795 109.877 157.308 109.594C154.824 109.35 152.437 108.57 150.126 107.237C147.817 105.943 145.749 104.454 143.902 102.793C141.344 100.519 138.927 98.0393 136.707 95.3294C134.467 92.6014 132.419 89.8199 130.523 86.9878C130.368 86.745 130.309 86.4755 130.366 86.1972C130.424 85.919 130.583 85.6918 130.825 85.5365L135.707 82.2737C135.968 82.0976 136.22 82.0591 136.477 82.0985C136.755 82.1559 136.982 82.3149 137.156 82.5368C138.526 84.6256 140.267 86.9605 142.342 89.5834C144.439 92.2243 146.712 94.6171 149.148 96.8216C151.583 99.0261 154.005 100.527 156.413 101.325C157.296 101.611 158.125 101.705 158.88 101.59C159.634 101.474 160.329 101.089 160.941 100.378ZM181.992 49.7574C184.326 46.7055 186.894 43.8905 189.736 41.3483C189.955 41.1362 190.203 41.0588 190.479 41.0773C190.772 41.0748 190.996 41.1949 191.209 41.4138L195.194 45.7524C195.406 45.9713 195.483 46.2199 195.465 46.4952C195.467 46.7886 195.347 47.0128 195.128 47.225C192.433 49.6387 190.012 52.3253 187.882 55.2249C189.775 57.7637 191.156 60.5171 192.067 63.521C192.974 66.486 193.441 69.5819 193.463 72.7309C193.449 76.9784 192.617 80.2307 191.044 82.4818C189.433 84.7358 187.494 86.0164 185.245 86.3027C182.997 86.589 180.87 85.8877 178.846 84.2197C176.844 82.5698 175.394 79.939 174.517 76.3455L171.832 79.6781C171.652 79.8873 171.428 80.0216 171.137 80.063C170.865 80.0835 170.605 80.0052 170.356 79.8281C168.856 78.6101 167.164 77.1912 165.281 75.5714C163.378 73.9336 161.758 72.431 160.366 71.0875C158.098 68.7725 155.881 66.3559 153.778 63.8916C153.629 63.7267 153.48 63.5618 153.33 63.3969C153.07 63.0642 153.005 62.7168 153.132 62.316L153.808 60.6409C154.906 57.7993 156.416 55.2397 158.378 52.9594C160.322 50.7 162.737 48.9922 165.604 47.818C168.402 46.7664 171.195 46.4392 174.041 46.8126C176.848 47.1888 179.504 48.1635 181.992 49.7574ZM173.995 72.5101C173.88 69.6812 174.124 66.9428 174.803 64.25C175.463 61.5782 176.444 58.9997 177.741 56.4757C176.324 55.5841 174.852 55.0097 173.266 54.7375C171.663 54.4861 170.091 54.6629 168.491 55.2526C167.086 55.8278 165.858 56.6637 164.823 57.7394C163.77 58.8361 162.903 60.0558 162.221 61.3985C164.187 63.5992 166.093 65.5303 167.883 67.2158C169.691 68.8804 171.741 70.6442 173.995 72.5101ZM183.455 63.248C182.736 65.1414 182.263 67.173 182.034 69.3428C181.788 71.5334 181.943 73.5961 182.52 75.5488C182.654 76.0279 182.868 76.5402 183.143 77.0675C183.438 77.6128 183.764 78.0385 184.197 78.3386C184.779 77.747 185.125 76.8795 185.292 75.7124C185.458 74.5454 185.523 73.5816 185.503 72.8003C185.506 69.4538 184.818 66.2767 183.455 63.248ZM197.518 46.478C198.915 47.3516 200.416 48.0607 201.999 48.5485C203.581 49.0363 205.155 49.1529 206.7 48.8803C208.227 48.6286 209.654 47.817 210.925 46.5083C212.137 45.1844 212.906 43.6982 213.271 42.0465C213.615 40.3769 213.684 38.6888 213.397 36.9491C212.98 34.2604 212.099 31.6456 210.774 29.1228C209.468 26.5792 207.999 24.2238 206.372 22.0956C206.217 21.8528 206.157 21.5833 206.176 21.308C206.215 21.0506 206.353 20.8054 206.593 20.6113L211.281 17.1086C211.542 16.9325 211.79 16.8551 212.068 16.9125C212.344 16.9309 212.571 17.09 212.765 17.3298C214.787 20.0155 216.589 22.9133 218.155 26.0441C219.721 29.175 220.769 32.4426 221.296 35.808C221.754 38.7872 221.617 41.6545 220.924 44.4071C220.212 47.1806 218.834 49.6716 216.791 51.9188C213.903 54.8949 210.701 56.5444 207.186 56.9062C203.65 57.2501 200.158 56.6121 196.674 55.0343C193.189 53.4565 190.086 51.2239 187.35 48.3962C184.61 45.5297 182.595 42.413 181.32 38.9863C180.027 35.5806 179.833 32.2097 180.719 28.8948C181.3 26.9921 182.333 25.3686 183.796 24.0063C185.28 22.662 187.012 21.7492 188.976 21.3277C191.348 20.856 193.613 21.0577 195.773 21.9327C197.911 22.7896 199.903 24.0295 201.705 25.6162C203.51 27.2419 205.084 28.924 206.47 30.6985L207.921 32.566C208.247 32.9916 208.222 33.4436 207.922 33.877L197.518 46.478ZM191.598 41.1302L198.108 33.2247C197.49 32.5471 196.689 31.7853 195.67 30.9813C194.668 30.1563 193.628 29.5887 192.524 29.2215C191.402 28.8752 190.375 29.011 189.428 29.6888C189.206 29.862 188.987 30.0741 188.81 30.3223C188.594 30.5733 188.459 30.8574 188.381 31.1177C187.961 32.8321 188.114 34.6014 188.856 36.4048C189.598 38.2081 190.499 39.7842 191.598 41.1302Z" fill="white"/>
<path d="M96.9913 219.502L106.155 227.385C106.27 227.484 106.337 227.596 106.338 227.743C106.348 227.879 106.309 228.009 106.219 228.114L104.293 230.352C104.194 230.467 104.08 230.515 103.935 230.535C103.799 230.546 103.669 230.507 103.554 230.408L94.3906 222.525C94.286 222.435 94.2279 222.312 94.2176 222.175C94.206 222.02 94.2361 221.9 94.3351 221.785L96.2609 219.547C96.3508 219.442 96.4737 219.384 96.6203 219.383C96.7656 219.362 96.8867 219.412 96.9913 219.502ZM90.3176 213.76L94.8992 217.702C95.0038 217.792 95.071 217.904 95.0827 218.06C95.0929 218.196 95.0538 218.326 94.9638 218.431L93.038 220.669C92.939 220.784 92.8252 220.832 92.68 220.853C92.5333 220.854 92.4032 220.815 92.2986 220.725L87.717 216.783C87.6124 216.693 87.5542 216.57 87.5335 216.425C87.5323 216.279 87.5624 216.159 87.6614 216.044L89.5872 213.805C89.6772 213.701 89.8 213.643 89.9362 213.632C90.0919 213.621 90.213 213.67 90.3176 213.76ZM104.005 218.437C104.716 219.049 105.478 219.412 106.299 219.536C107.12 219.661 107.893 219.397 108.607 218.737C109.082 218.29 109.375 217.759 109.485 217.144C109.597 216.549 109.436 215.974 109.024 215.437C108.487 214.793 107.904 214.455 107.274 214.405C106.645 214.373 106.007 214.607 105.351 215.116C105.24 215.203 105.129 215.29 105.018 215.376C104.345 215.926 103.676 216.407 102.995 216.839C102.311 217.253 101.579 217.533 100.816 217.659C100.033 217.786 99.1723 217.665 98.2061 217.307C97.0664 216.854 96.1622 216.149 95.4546 215.194C94.7663 214.238 94.3537 213.173 94.2451 211.988C94.126 210.793 94.3901 209.619 95.0282 208.475C95.8449 207.103 97.0065 206.154 98.5041 205.641C99.6047 205.313 100.651 205.303 101.68 205.588C102.69 205.874 103.636 206.361 104.5 207.049C104.624 207.138 104.682 207.261 104.702 207.387C104.722 207.532 104.683 207.662 104.595 207.786L102.793 210.113C102.703 210.218 102.591 210.285 102.445 210.305C102.309 210.316 102.189 210.286 102.065 210.197C101.483 209.732 100.905 209.472 100.302 209.39C99.7097 209.317 99.154 209.604 98.6335 210.23C98.2614 210.747 98.1332 211.256 98.2311 211.777C98.3289 212.298 98.5571 212.73 98.9067 213.086C99.2563 213.441 99.6136 213.639 99.9967 213.66C100.387 213.65 100.816 213.49 101.292 213.19C101.767 212.871 102.184 212.556 102.58 212.223C102.699 212.126 102.81 212.039 102.912 211.963C103.615 211.421 104.367 211.012 105.188 210.735C106 210.469 106.853 210.366 107.73 210.447C109.518 210.674 110.979 211.494 112.112 212.906C113.106 214.162 113.57 215.507 113.5 216.921C113.449 218.334 112.978 219.622 112.116 220.773C111.244 221.934 110.102 222.754 108.67 223.233C107.341 223.636 106.061 223.664 104.822 223.326C103.593 222.978 102.45 222.36 101.415 221.469C101.31 221.379 101.252 221.256 101.231 221.111C101.23 220.964 101.269 220.834 101.359 220.729L103.276 218.501C103.375 218.386 103.478 218.329 103.634 218.318C103.77 218.307 103.9 218.347 104.005 218.437ZM113.086 198C113.536 198.514 114.16 199.142 114.942 199.905C115.723 200.669 116.56 201.389 117.473 202.083C118.376 202.769 119.243 203.242 120.085 203.511C120.908 203.782 121.613 203.661 122.174 203.178C122.7 202.63 122.927 202.006 122.827 201.319C122.726 200.632 122.47 199.956 122.058 199.293C121.637 198.639 121.215 198.094 120.79 197.656C120.377 197.227 119.925 196.821 119.466 196.444C119.351 196.345 119.284 196.233 119.274 196.097C119.264 195.961 119.303 195.83 119.391 195.706L121.245 193.424C121.335 193.32 121.458 193.262 121.604 193.241C121.729 193.222 121.859 193.261 121.974 193.36C123.067 194.227 124.053 195.239 124.913 196.397C125.773 197.556 126.357 198.823 126.666 200.199C126.896 201.307 126.858 202.367 126.581 203.366C126.295 204.376 125.736 205.279 124.934 206.063C123.771 207.119 122.549 207.651 121.257 207.65C119.946 207.651 118.658 207.307 117.375 206.64C116.082 205.964 114.865 205.136 113.725 204.155C112.586 203.194 111.606 202.26 110.765 201.354C108.883 199.353 107.121 197.254 105.469 195.069C105.392 194.948 105.353 194.823 105.371 194.675C105.391 194.547 105.46 194.424 105.571 194.337L107.891 192.529C108.012 192.451 108.137 192.413 108.274 192.422C108.413 192.451 108.526 192.511 108.623 192.631L110.471 194.967L115.391 189.608C115.49 189.493 115.613 189.435 115.75 189.424C115.887 189.434 116.017 189.473 116.132 189.572L118.287 191.553C118.393 191.662 118.46 191.774 118.461 191.921C118.472 192.057 118.422 192.178 118.323 192.294L113.086 198ZM132.92 188.233L129.504 192.393C130.697 193.292 131.915 194.14 133.162 194.976C133.276 195.055 133.362 195.166 133.383 195.311C133.413 195.446 133.382 195.566 133.304 195.699L131.688 198.149C131.6 198.273 131.487 198.34 131.352 198.37C131.218 198.399 131.079 198.371 130.965 198.291C128.237 196.49 125.52 194.444 122.822 192.142C120.125 189.839 117.706 187.467 115.536 185.018C115.449 184.907 115.391 184.784 115.4 184.646C115.41 184.509 115.479 184.386 115.579 184.29L117.79 182.334C117.901 182.247 118.035 182.198 118.172 182.207C118.31 182.217 118.422 182.277 118.528 182.386C120.952 185.09 123.567 187.595 126.382 189.908L130.023 185.486C127.16 182.932 124.154 180.564 121.015 178.374C120.891 178.285 120.824 178.173 120.803 178.027C120.774 177.893 120.813 177.763 120.892 177.649L122.601 175.26C122.69 175.136 122.802 175.069 122.937 175.039C123.082 175.019 123.202 175.049 123.335 175.127C126.269 177.196 129.075 179.373 131.733 181.678C134.381 183.974 136.889 186.496 139.237 189.226C139.334 189.346 139.373 189.47 139.363 189.608C139.354 189.745 139.285 189.868 139.185 189.964L136.941 191.874C136.83 191.96 136.697 192.01 136.568 191.99C136.43 191.981 136.309 191.931 136.212 191.811C135.161 190.579 134.054 189.39 132.92 188.233ZM135.636 177.501C136.12 177.953 136.714 178.427 137.434 178.902C138.146 179.386 138.908 179.769 139.683 180.054C140.477 180.337 141.217 180.408 141.92 180.267C142.717 180.061 143.196 179.672 143.389 179.11C143.562 178.549 143.565 177.932 143.377 177.262C143.171 176.592 142.92 175.995 142.568 175.473C142.499 175.341 142.47 175.207 142.509 175.076C142.537 174.937 142.608 174.834 142.729 174.757L145.212 173.161C145.334 173.084 145.468 173.054 145.608 173.083C145.738 173.122 145.841 173.192 145.929 173.323C146.583 174.34 147.058 175.459 147.334 176.661C147.591 177.865 147.563 179.061 147.212 180.251C146.869 181.285 146.317 182.139 145.545 182.803C144.782 183.457 143.867 183.908 142.819 184.153C141.142 184.494 139.403 184.272 137.574 183.5C135.754 182.717 134.074 181.581 132.562 180.08C131.041 178.589 129.91 176.942 129.157 175.13C128.405 173.318 128.282 171.556 128.769 169.827C129.319 168.171 130.276 166.974 131.652 166.264C133.036 165.544 134.584 165.437 136.295 165.945C137.408 166.301 138.366 166.816 139.199 167.478C140.031 168.139 140.829 168.862 141.594 169.666C141.636 169.702 141.688 169.747 141.721 169.793C141.827 169.903 141.874 170.017 141.885 170.153C141.884 170.28 141.845 170.41 141.755 170.515L135.636 177.501ZM133.155 174.292L136.516 170.448C136.009 170.085 135.451 169.824 134.823 169.666C134.184 169.498 133.618 169.648 133.104 170.098C132.58 170.685 132.368 171.376 132.466 172.152C132.573 172.936 132.803 173.643 133.155 174.292ZM154.94 157.685C155.756 157.477 156.569 157.485 157.389 157.717C158.208 157.949 158.906 158.386 159.491 158.997C160.4 160.035 160.814 161.246 160.771 162.629C160.704 163.955 160.319 165.207 159.643 166.373C158.948 167.541 158.135 168.57 157.155 169.456C157.036 169.573 156.936 169.668 156.844 169.753C156.645 169.964 156.489 170.103 156.377 170.17C156.264 170.237 156.149 170.265 156.01 170.237C155.88 170.198 155.679 170.134 155.425 170.007C155.314 169.966 155.172 169.899 155.021 169.841C152.886 168.896 150.824 167.632 148.847 166.059C146.88 164.494 145.104 162.856 143.519 161.165C142.829 160.444 142.221 159.776 141.685 159.151C141.159 158.534 140.597 157.833 139.993 157.076C139.861 156.89 139.847 156.696 139.959 156.501C140.471 155.504 141.037 154.571 141.648 153.713C142.259 152.855 143.032 152.083 143.978 151.386C145.682 150.23 147.371 149.79 149.006 150.069C150.642 150.347 152.024 151.173 153.134 152.528C154.244 153.883 154.842 155.599 154.94 157.685ZM144.611 156.426C146.242 158.339 147.99 160.115 149.885 161.764C150.386 160.884 150.717 159.95 150.886 158.949C151.047 157.958 150.953 156.967 150.598 156.025C150.37 155.465 150.051 154.99 149.61 154.593C149.18 154.204 148.646 154 148.029 153.997C147.308 154.032 146.662 154.295 146.084 154.799C145.495 155.293 145.007 155.838 144.611 156.426ZM153.063 164.225C153.805 164.718 154.563 165.169 155.348 165.59C155.708 165.172 156.033 164.687 156.316 164.147C156.589 163.618 156.753 163.068 156.79 162.517C156.791 162.008 156.66 161.695 156.388 161.588C156.126 161.491 155.78 161.575 155.37 161.841C154.941 162.127 154.518 162.492 154.121 162.933C153.733 163.363 153.374 163.801 153.063 164.225ZM158.817 150.555C159.302 151.008 159.895 151.482 160.615 151.956C161.327 152.441 162.089 152.824 162.864 153.108C163.658 153.391 164.398 153.463 165.101 153.322C165.898 153.115 166.378 152.727 166.57 152.164C166.743 151.603 166.746 150.987 166.559 150.316C166.352 149.647 166.101 149.049 165.749 148.528C165.68 148.396 165.651 148.261 165.69 148.131C165.719 147.992 165.789 147.889 165.911 147.811L168.393 146.215C168.515 146.138 168.65 146.108 168.789 146.137C168.919 146.176 169.022 146.247 169.11 146.377C169.764 147.394 170.239 148.513 170.515 149.716C170.772 150.919 170.744 152.115 170.394 153.306C170.05 154.339 169.498 155.193 168.726 155.858C167.963 156.512 167.048 156.962 166 157.207C164.323 157.548 162.584 157.327 160.755 156.554C158.935 155.771 157.255 154.635 155.743 153.134C154.222 151.644 153.091 149.997 152.338 148.184C151.586 146.372 151.463 144.61 151.95 142.881C152.5 141.225 153.458 140.028 154.833 139.318C156.217 138.598 157.765 138.491 159.476 138.999C160.589 139.356 161.547 139.871 162.38 140.532C163.212 141.194 164.01 141.917 164.775 142.72C164.817 142.756 164.869 142.801 164.902 142.848C165.008 142.957 165.056 143.071 165.066 143.207C165.066 143.334 165.026 143.465 164.936 143.569L158.817 150.555ZM156.336 147.346L159.697 143.503C159.19 143.14 158.632 142.878 158.004 142.72C157.365 142.553 156.799 142.703 156.285 143.152C155.762 143.74 155.549 144.431 155.647 145.206C155.755 145.991 155.984 146.697 156.336 147.346ZM170.615 141.01C171.326 141.622 172.087 141.985 172.909 142.109C173.73 142.234 174.503 141.97 175.217 141.31C175.692 140.863 175.985 140.332 176.095 139.717C176.207 139.122 176.046 138.547 175.634 138.01C175.096 137.366 174.513 137.028 173.883 136.978C173.255 136.947 172.617 137.18 171.96 137.69C171.85 137.776 171.739 137.863 171.628 137.949C170.955 138.499 170.286 138.98 169.605 139.412C168.921 139.826 168.189 140.106 167.425 140.232C166.642 140.359 165.782 140.238 164.816 139.88C163.676 139.427 162.772 138.722 162.064 137.767C161.376 136.811 160.964 135.746 160.855 134.561C160.736 133.366 161 132.192 161.638 131.048C162.455 129.676 163.616 128.727 165.114 128.214C166.215 127.886 167.261 127.876 168.29 128.161C169.3 128.447 170.246 128.934 171.11 129.622C171.234 129.711 171.292 129.834 171.311 129.96C171.332 130.105 171.293 130.235 171.204 130.359L169.403 132.686C169.313 132.791 169.2 132.858 169.055 132.878C168.919 132.889 168.799 132.859 168.675 132.77C168.092 132.305 167.515 132.045 166.912 131.963C166.32 131.89 165.764 132.177 165.243 132.803C164.871 133.32 164.743 133.829 164.841 134.35C164.939 134.871 165.167 135.303 165.517 135.659C165.866 136.014 166.223 136.212 166.607 136.233C166.997 136.223 167.426 136.063 167.902 135.763C168.377 135.444 168.794 135.129 169.189 134.796C169.309 134.699 169.42 134.612 169.522 134.536C170.225 133.994 170.977 133.585 171.798 133.308C172.609 133.042 173.463 132.939 174.34 133.02C176.128 133.247 177.588 134.067 178.722 135.479C179.716 136.735 180.179 138.08 180.109 139.494C180.059 140.907 179.588 142.195 178.726 143.346C177.854 144.507 176.712 145.327 175.28 145.806C173.95 146.209 172.671 146.237 171.432 145.899C170.203 145.551 169.06 144.933 168.025 144.042C167.92 143.952 167.862 143.829 167.841 143.684C167.84 143.537 167.879 143.407 167.969 143.302L169.886 141.074C169.985 140.959 170.088 140.902 170.244 140.891C170.38 140.881 170.51 140.92 170.615 141.01ZM175.827 125.071C176.276 125.585 176.901 126.213 177.682 126.976C178.463 127.74 179.3 128.459 180.213 129.154C181.116 129.84 181.983 130.313 182.826 130.582C183.648 130.853 184.353 130.732 184.914 130.249C185.44 129.701 185.667 129.077 185.567 128.39C185.466 127.703 185.21 127.027 184.798 126.364C184.377 125.71 183.955 125.165 183.531 124.727C183.117 124.298 182.666 123.892 182.207 123.515C182.092 123.416 182.025 123.304 182.014 123.168C182.004 123.031 182.043 122.901 182.132 122.777L183.986 120.495C184.076 120.391 184.199 120.333 184.344 120.312C184.47 120.293 184.6 120.332 184.715 120.431C185.807 121.298 186.793 122.31 187.653 123.468C188.513 124.627 189.098 125.894 189.406 127.27C189.636 128.378 189.598 129.437 189.321 130.437C189.035 131.446 188.477 132.349 187.675 133.134C186.511 134.19 185.289 134.722 183.997 134.721C182.686 134.722 181.398 134.378 180.115 133.711C178.822 133.035 177.605 132.207 176.465 131.226C175.326 130.265 174.346 129.331 173.505 128.425C171.623 126.424 169.861 124.325 168.21 122.14C168.132 122.019 168.093 121.894 168.111 121.746C168.131 121.617 168.2 121.495 168.311 121.408L170.631 119.6C170.753 119.522 170.877 119.484 171.015 119.493C171.154 119.522 171.266 119.582 171.363 119.702L173.212 122.038L178.132 116.679C178.231 116.564 178.354 116.505 178.49 116.495C178.628 116.504 178.758 116.544 178.873 116.643L181.027 118.624C181.133 118.733 181.201 118.845 181.202 118.992C181.212 119.128 181.162 119.249 181.063 119.364L175.827 125.071ZM191.892 103.434C191.25 103.482 190.682 103.74 190.188 104.188C189.682 104.628 189.289 105.127 188.998 105.677C188.294 106.982 187.977 108.366 188.06 109.857C188.061 110.004 188.022 110.134 187.932 110.238C187.831 110.334 187.719 110.401 187.563 110.413L184.631 110.584C184.486 110.605 184.364 110.555 184.249 110.456C184.145 110.366 184.097 110.252 184.076 110.107C183.991 108.705 184.168 107.292 184.6 105.88C185.042 104.458 185.72 103.203 186.646 102.106C187.57 100.99 188.724 100.199 190.107 99.7328C191.744 99.2478 193.428 99.3856 195.126 100.119C196.836 100.861 198.494 101.96 200.088 103.386C201.673 104.823 203.127 106.328 204.43 107.923C205.734 109.518 206.808 110.915 207.651 112.113C207.729 112.235 207.758 112.37 207.739 112.498C207.71 112.637 207.65 112.75 207.52 112.838L205.123 114.544C205.012 114.631 204.878 114.66 204.739 114.632C204.601 114.622 204.487 114.543 204.401 114.432C203.842 113.642 203.266 112.873 202.681 112.115C202.549 112.966 202.299 113.807 201.938 114.607C201.588 115.416 201.105 116.147 200.507 116.779C199.415 117.879 198.274 118.444 197.081 118.455C195.897 118.456 194.829 118.047 193.867 117.219C192.915 116.4 192.213 115.269 191.794 113.852C191.391 112.268 191.222 110.539 191.317 108.673C191.401 106.798 191.593 105.052 191.892 103.434ZM195.677 104.98C195.482 106.159 195.356 107.47 195.298 108.912C195.238 110.335 195.345 111.629 195.636 112.771C195.729 113.087 195.861 113.42 196.042 113.739C196.222 114.058 196.454 114.275 196.706 114.384C196.979 114.49 197.283 114.37 197.61 114.032C197.981 113.642 198.258 113.152 198.461 112.598C198.644 112.046 198.77 111.499 198.789 110.969C198.847 109.927 198.677 108.962 198.276 108.053C197.866 107.154 197.287 106.346 196.558 105.628L195.677 104.98ZM200.772 96.0748C201.221 96.589 201.846 97.2172 202.627 97.9804C203.408 98.7437 204.245 99.4636 205.158 100.158C206.061 100.844 206.928 101.317 207.77 101.586C208.593 101.857 209.298 101.736 209.859 101.253C210.385 100.705 210.612 100.081 210.512 99.3941C210.411 98.707 210.155 98.0315 209.743 97.3677C209.322 96.7144 208.9 96.1689 208.476 95.7311C208.062 95.3023 207.61 94.8959 207.152 94.5194C207.037 94.4204 206.969 94.308 206.959 94.1718C206.949 94.0356 206.988 93.9055 207.077 93.7814L208.931 91.4994C209.021 91.3948 209.144 91.3366 209.289 91.3159C209.415 91.2967 209.545 91.3359 209.66 91.4348C210.752 92.3019 211.738 93.3139 212.598 94.4724C213.458 95.6309 214.042 96.8981 214.351 98.2741C214.581 99.382 214.543 100.442 214.266 101.441C213.98 102.451 213.422 103.354 212.62 104.138C211.456 105.194 210.234 105.726 208.942 105.725C207.631 105.726 206.343 105.382 205.06 104.715C203.767 104.039 202.55 103.211 201.41 102.23C200.271 101.269 199.291 100.335 198.45 99.4291C196.568 97.4277 194.806 95.3292 193.154 93.144C193.077 93.0227 193.038 92.8984 193.056 92.7502C193.076 92.6216 193.145 92.499 193.256 92.4124L195.576 90.6041C195.698 90.5265 195.822 90.4878 195.96 90.4971C196.099 90.5257 196.211 90.5858 196.308 90.7057L198.156 93.0424L203.077 87.6828C203.176 87.5677 203.299 87.5096 203.435 87.4993C203.572 87.5086 203.703 87.5477 203.818 87.6467L205.972 89.6277C206.078 89.7371 206.145 89.8495 206.147 89.9962C206.157 90.1324 206.107 90.2535 206.008 90.3686L200.772 96.0748ZM210.58 84.6731C211.03 85.1873 211.654 85.8155 212.436 86.5787C213.217 87.3419 214.054 88.0619 214.967 88.7565C215.87 89.4421 216.737 89.9151 217.579 90.1845C218.402 90.4554 219.107 90.334 219.668 89.8516C220.194 89.3032 220.421 88.6795 220.321 87.9924C220.22 87.3053 219.964 86.6298 219.552 85.966C219.131 85.3127 218.709 84.7672 218.284 84.3294C217.871 83.9006 217.419 83.4942 216.961 83.1177C216.845 83.0187 216.778 82.9063 216.768 82.7701C216.758 82.6339 216.797 82.5038 216.886 82.3797L218.74 80.0977C218.83 79.9931 218.952 79.9349 219.098 79.9142C219.223 79.895 219.353 79.9341 219.469 80.0331C220.561 80.9002 221.547 81.9122 222.407 83.0707C223.267 84.2292 223.851 85.4964 224.16 86.8724C224.39 87.9803 224.352 89.0399 224.075 90.0391C223.789 91.0489 223.23 91.9518 222.428 92.7361C221.265 93.7922 220.043 94.3242 218.751 94.3234C217.44 94.324 216.152 93.9804 214.869 93.3136C213.576 92.6378 212.359 91.8094 211.219 90.8285C210.08 89.8671 209.1 88.9329 208.259 88.0274C206.377 86.026 204.615 83.9275 202.963 81.7423C202.886 81.621 202.847 81.4967 202.865 81.3485C202.885 81.2199 202.954 81.0973 203.065 81.0107L205.385 79.2024C205.506 79.1248 205.631 79.0861 205.768 79.0953C205.907 79.124 206.02 79.1841 206.117 79.304L207.965 81.6406L212.886 76.2811C212.985 76.166 213.107 76.1079 213.244 76.0976C213.381 76.1069 213.511 76.146 213.626 76.245L215.781 78.226C215.887 78.3354 215.954 78.4478 215.955 78.5945C215.966 78.7307 215.916 78.8518 215.817 78.9669L210.58 84.6731ZM221.77 74.4593L230.933 82.3423C231.048 82.4413 231.115 82.5537 231.117 82.7003C231.127 82.8365 231.088 82.9667 230.998 83.0713L229.072 85.3098C228.973 85.4249 228.859 85.4725 228.714 85.4932C228.578 85.5035 228.448 85.4643 228.333 85.3653L219.169 77.4823C219.065 77.3923 219.007 77.2695 218.996 77.1333C218.985 76.9776 219.015 76.8579 219.114 76.7428L221.04 74.5043C221.13 74.3997 221.252 74.3416 221.399 74.3404C221.544 74.3197 221.665 74.3693 221.77 74.4593ZM215.096 68.718L219.678 72.6595C219.783 72.7495 219.85 72.8618 219.861 73.0175C219.872 73.1537 219.832 73.2839 219.742 73.3885L217.817 75.627C217.718 75.742 217.604 75.7897 217.459 75.8104C217.312 75.8116 217.182 75.7725 217.077 75.6825L212.496 71.741C212.391 71.651 212.333 71.5282 212.312 71.383C212.311 71.2363 212.341 71.1166 212.44 71.0015L214.366 68.763C214.456 68.6584 214.579 68.6003 214.715 68.5901C214.871 68.5784 214.992 68.628 215.096 68.718ZM224.259 68.7735C224.708 69.2877 225.333 69.9159 226.114 70.6791C226.896 71.4423 227.732 72.1622 228.646 72.8568C229.548 73.5425 230.415 74.0155 231.258 74.2849C232.08 74.5558 232.785 74.4343 233.346 73.9519C233.872 73.4036 234.099 72.7799 233.999 72.0928C233.898 71.4056 233.642 70.7302 233.23 70.0664C232.809 69.4131 232.387 68.8676 231.963 68.4298C231.549 68.001 231.098 67.5946 230.639 67.2181C230.524 67.1191 230.457 67.0067 230.446 66.8705C230.436 66.7343 230.475 66.6041 230.564 66.4801L232.418 64.198C232.508 64.0934 232.631 64.0353 232.776 64.0146C232.902 63.9954 233.032 64.0345 233.147 64.1335C234.239 65.0006 235.225 66.0126 236.085 67.1711C236.945 68.3295 237.53 69.5968 237.838 70.9728C238.068 72.0807 238.031 73.1403 237.753 74.1395C237.467 75.1492 236.909 76.0522 236.107 76.8365C234.943 77.8925 233.721 78.4246 232.429 78.4238C231.118 78.4244 229.83 78.0808 228.547 77.414C227.254 76.7381 226.037 75.9098 224.897 74.9289C223.758 73.9675 222.778 73.0333 221.937 72.1278C220.055 70.1263 218.293 68.0278 216.642 65.8427C216.564 65.7213 216.525 65.597 216.544 65.4489C216.563 65.3202 216.632 65.1976 216.743 65.111L219.063 63.3028C219.185 63.2252 219.309 63.1865 219.447 63.1957C219.586 63.2244 219.698 63.2845 219.795 63.4044L221.644 65.741L226.564 60.3814C226.663 60.2664 226.786 60.2082 226.922 60.198C227.06 60.2072 227.19 60.2464 227.305 60.3454L229.459 62.3264C229.565 62.4358 229.633 62.5482 229.634 62.6948C229.644 62.8311 229.594 62.9522 229.495 63.0673L224.259 68.7735ZM242.626 61.768C242.988 61.2418 243.11 60.6554 242.989 59.9502C242.869 59.2645 242.686 58.6521 242.45 58.1218C241.598 56.2779 240.359 54.5021 238.735 52.814C237.111 51.1258 235.493 49.6426 233.861 48.366C233.756 48.276 233.689 48.1637 233.679 48.0275C233.66 47.9017 233.679 47.773 233.768 47.649L235.498 45.2784C235.588 45.1738 235.69 45.0977 235.835 45.077C235.961 45.0577 236.089 45.0774 236.203 45.157C236.584 45.4121 237.009 45.7227 237.469 46.1186C237.938 46.5041 238.386 46.8716 238.775 47.224C238.88 47.314 238.984 47.404 239.087 47.4745C241.129 49.2488 243.201 50.9228 245.306 52.4966C247.41 54.0704 249.66 55.4963 252.064 56.7638C252.198 56.8419 252.284 56.9528 252.323 57.0771C252.372 57.2104 252.352 57.3391 252.294 57.4707L250.924 60.0784C250.856 60.2204 250.754 60.2966 250.621 60.3457C250.486 60.3754 250.349 60.3662 250.217 60.3076C249.025 59.6828 247.859 59.0072 246.719 58.2807C247.081 59.7212 247.094 61.0607 246.747 62.3098C246.392 63.5693 245.628 64.6051 244.438 65.4381C243.252 66.1828 242.052 66.4979 240.81 66.3759C239.567 66.2345 238.373 65.8447 237.208 65.1885C236.063 64.5309 235.02 63.7972 234.096 62.9663C232.817 61.8296 231.628 60.5882 230.508 59.2242C229.388 57.8602 228.355 56.4799 227.416 55.0534C227.339 54.932 227.309 54.7973 227.329 54.6686C227.357 54.5294 227.437 54.4158 227.558 54.3382L229.999 52.7068C230.129 52.6188 230.255 52.5995 230.384 52.6192C230.523 52.6479 230.637 52.7274 230.723 52.8383C231.408 53.8828 232.279 55.0502 233.317 56.3617C234.374 57.6717 235.502 58.8785 236.719 59.9808C237.937 61.083 239.148 61.8335 240.352 62.2323C240.804 62.3843 241.208 62.4225 241.585 62.3648C241.962 62.3071 242.31 62.1147 242.626 61.768ZM252.882 54.8825C251.119 54.0756 249.386 53.0218 247.684 51.7212C245.991 50.41 244.377 48.9853 242.862 47.4454C241.337 45.8966 239.979 44.3646 238.769 42.8508C238.629 42.6754 238.614 42.4808 238.708 42.2879L239.161 41.4222C240.032 39.7325 241.174 38.3846 242.596 37.3874C244.007 36.3812 245.688 35.9518 247.633 36.0601C249.447 36.237 251.101 36.8955 252.606 38.0447C254.1 39.1848 255.305 40.6403 256.182 42.4139C257.068 44.1771 257.476 46.0935 257.425 48.1423C257.354 50.1926 256.654 52.2119 255.335 54.1895C255.221 54.3644 255.114 54.5094 255.027 54.6529C254.825 54.9519 254.675 55.1686 254.556 55.2852C254.438 55.4017 254.294 55.4418 254.125 55.4056C253.956 55.3694 253.713 55.2702 253.398 55.108C253.247 55.0508 253.084 54.9652 252.882 54.8825ZM243.376 42.1722C244.693 43.6877 246.175 45.181 247.823 46.6717C249.47 48.1429 251.159 49.3957 252.889 50.4105C253.568 48.6472 253.613 46.9022 253.024 45.1755C252.434 43.4488 251.391 42.0595 249.893 41.0076C248.678 40.1987 247.509 39.8853 246.379 40.0778C245.268 40.2689 244.254 40.9615 243.376 42.1722ZM257.985 35.2826C258.469 35.7355 259.063 36.2095 259.783 36.6837C260.495 37.1684 261.257 37.5515 262.032 37.8358C262.826 38.1186 263.565 38.1902 264.269 38.0493C265.066 37.8427 265.545 37.4545 265.738 36.8921C265.911 36.3312 265.914 35.7145 265.726 35.0437C265.52 34.3743 265.269 33.7767 264.917 33.2552C264.848 33.1234 264.819 32.9886 264.858 32.8585C264.886 32.7194 264.957 32.6162 265.078 32.5386L267.561 30.9432C267.683 30.8656 267.817 30.8359 267.956 30.8646C268.087 30.9037 268.19 30.9743 268.278 31.1046C268.932 32.1221 269.407 33.2409 269.683 34.4432C269.94 35.647 269.912 36.8428 269.561 38.0335C269.218 39.0671 268.666 39.9206 267.894 40.5853C267.131 41.2394 266.216 41.6897 265.168 41.9348C263.491 42.276 261.752 42.0543 259.923 41.2817C258.103 40.4987 256.423 39.3626 254.911 37.8618C253.39 36.3713 252.259 34.7244 251.506 32.9121C250.753 31.0998 250.631 29.338 251.118 27.6088C251.668 25.953 252.625 24.7559 254.001 24.046C255.385 23.3256 256.933 23.2191 258.644 23.7266C259.757 24.0833 260.715 24.5984 261.547 25.26C262.38 25.9215 263.178 26.6443 263.943 27.4479C263.984 27.4839 264.037 27.5289 264.07 27.5754C264.176 27.6848 264.223 27.7987 264.234 27.9349C264.233 28.0621 264.194 28.1922 264.104 28.2968L257.985 35.2826ZM255.504 32.0738L258.865 28.2305C258.358 27.8674 257.8 27.6059 257.172 27.4476C256.533 27.2803 255.967 27.4305 255.453 27.88C254.929 28.4673 254.717 29.1584 254.815 29.9338C254.922 30.7182 255.152 31.4251 255.504 32.0738Z" fill="white"/>
</svg>
