<svg width="332" height="104" viewBox="0 0 332 104" fill="none" xmlns="http://www.w3.org/2000/svg">
<path d="M6.77344 37.7266C6.77344 37.9844 6.70312 38.1953 6.51562 38.3594C6.35156 38.5234 6.14062 38.6172 5.88281 38.6172H0.890625C0.632812 38.6172 0.421875 38.5234 0.257812 38.3594C0.09375 38.1953 0 37.9844 0 37.7266C0 25.8906 0 14.0781 0 2.24219C0 1.98438 0.09375 1.79688 0.257812 1.60938C0.421875 1.44531 0.632812 1.35156 0.890625 1.35156H5.88281C6.14062 1.35156 6.35156 1.44531 6.51562 1.60938C6.70312 1.79688 6.77344 1.98438 6.77344 2.24219C6.77344 8.14844 6.77344 14.0781 6.77344 19.9844C6.77344 25.8906 6.77344 31.8203 6.77344 37.7266ZM16.5579 14.1016C16.3939 15.25 16.2767 16.75 16.1595 18.6016C16.0423 20.4531 16.0423 22.3281 16.1595 24.2734C16.2767 26.1953 16.6283 27.8359 17.2142 29.2188C17.7767 30.5781 18.7142 31.3516 19.9564 31.5391C21.2454 31.6094 22.3001 31.2109 23.0736 30.3203C23.847 29.4297 24.4329 28.3516 24.8314 27.0859C25.2064 25.8203 25.4408 24.6719 25.5345 23.6406C25.6283 22.6328 25.6517 21.6016 25.6283 20.5938C25.6283 20.3359 25.6986 20.125 25.8626 19.9609C26.0267 19.7969 26.2376 19.7031 26.4954 19.6797L31.4876 19.5391C31.722 19.5391 31.9329 19.6328 32.1204 19.7969C32.2845 19.9375 32.3783 20.1484 32.3783 20.4062C32.472 22.7734 32.2611 25.1641 31.722 27.5547C31.1829 29.9453 30.1986 32.1016 28.7689 34.0234C27.597 35.5469 26.1908 36.6719 24.597 37.4219C22.9798 38.1719 21.1986 38.4531 19.3001 38.2891C16.6517 37.9609 14.6126 36.9766 13.1829 35.3125C11.7298 33.625 10.7454 31.5859 10.1829 29.1953C9.62044 26.7812 9.33919 24.2969 9.33919 21.7422C9.31575 19.2109 9.43294 16.9141 9.66731 14.8281C10.1595 10.1875 10.9095 5.59375 11.8939 1.04688C11.9642 0.8125 12.0814 0.625 12.2923 0.484375C12.4798 0.367188 12.7142 0.320312 12.9486 0.367188L17.847 1.35156C18.0814 1.42188 18.2689 1.53906 18.4095 1.72656C18.5267 1.9375 18.5736 2.14844 18.5267 2.40625L17.5658 7.375L29.9173 7.77344C30.1751 7.77344 30.3861 7.86719 30.5501 8.03125C30.6908 8.21875 30.7845 8.42969 30.7845 8.6875L30.6204 13.6562C30.597 13.9141 30.5267 14.125 30.3392 14.2891C30.1751 14.4531 29.9642 14.5234 29.7064 14.5234L16.5579 14.1016ZM36.6549 9.64844H35.4831C35.2956 9.64844 35.1549 9.55469 35.0143 9.39062C34.8737 9.22656 34.8034 9.01562 34.8034 8.75781V2.24219C34.8034 1.98438 34.8737 1.77344 35.0143 1.60938C35.1549 1.44531 35.2956 1.35156 35.4831 1.35156H41.2018C41.3893 1.35156 41.5299 1.44531 41.6706 1.60938C41.8112 1.77344 41.8815 1.98438 41.8815 2.24219V13.8203C41.8815 14.0547 41.8112 14.2656 41.6706 14.4297C41.5299 14.6172 41.3893 14.7109 41.2018 14.7109H37.3346C37.1471 14.7109 36.9831 14.6172 36.8659 14.4297C36.7253 14.2656 36.6549 14.0547 36.6549 13.8203V9.64844ZM50.9394 25.0469C50.9394 26.6406 51.3144 28.0234 52.0644 29.2188C52.8144 30.4141 54.0098 31.1172 55.6504 31.3047C56.7519 31.4219 57.7598 31.2109 58.6738 30.6719C59.5644 30.1562 60.1269 29.3125 60.3613 28.1875C60.5957 26.7812 60.3848 25.6562 59.7519 24.7891C59.0957 23.9453 58.0879 23.3828 56.7051 23.1016C56.4707 23.0547 56.2363 23.0078 56.0019 22.9609C54.5488 22.7031 53.1894 22.375 51.8769 21.9766C50.5879 21.5547 49.416 20.9219 48.4082 20.0781C47.3769 19.2109 46.5801 17.9688 45.9707 16.3281C45.291 14.3594 45.1973 12.4141 45.6426 10.4453C46.1113 8.5 47.0254 6.78906 48.4316 5.33594C49.8379 3.85938 51.6426 2.89844 53.8223 2.45312C56.4941 1.98438 59.0019 2.42969 61.3223 3.78906C62.9629 4.84375 64.1348 6.17969 64.9082 7.82031C65.6582 9.4375 66.0801 11.1953 66.1504 13.0703C66.1738 13.3281 66.0801 13.5391 65.9394 13.7031C65.7754 13.8906 65.5644 13.9844 65.3066 14.0078L60.3144 14.2656C60.0801 14.2656 59.8691 14.1953 59.6816 14.0312C59.5176 13.8672 59.4238 13.6797 59.4004 13.4219C59.3535 12.1562 59.0488 11.125 58.4863 10.2578C57.9238 9.41406 56.9394 9.01562 55.5566 9.03906C54.4785 9.13281 53.6816 9.53125 53.1191 10.2344C52.5566 10.9375 52.2519 11.7109 52.1816 12.5547C52.1113 13.3984 52.2519 14.0781 52.6504 14.5938C53.0957 15.0859 53.7754 15.4609 54.6894 15.7422C55.6269 16 56.4941 16.1875 57.3613 16.3281C57.6191 16.375 57.8535 16.4219 58.0644 16.4688C59.541 16.7734 60.9004 17.2891 62.166 18.0391C63.4082 18.7891 64.4863 19.7734 65.3535 20.9922C67.041 23.5469 67.6035 26.3359 67.041 29.3594C66.5254 32.0312 65.3066 34.1172 63.4082 35.5938C61.5332 37.0938 59.3535 37.9141 56.916 38.0781C54.4551 38.2422 52.1348 37.6797 49.9316 36.3672C47.9394 35.1016 46.4863 33.4844 45.5488 31.5156C44.6348 29.5469 44.166 27.3906 44.166 25.0703C44.166 24.8359 44.2598 24.625 44.4238 24.4375C44.6113 24.2734 44.8223 24.1797 45.0566 24.1797H50.0488C50.3066 24.1797 50.4941 24.25 50.6816 24.4375C50.8457 24.6016 50.9394 24.8125 50.9394 25.0469ZM96.5241 10.8203C95.7506 10.0469 94.7897 9.60156 93.6647 9.46094C92.5397 9.29688 91.4616 9.34375 90.4303 9.57812C87.9694 10.1172 85.8366 11.2422 84.0084 13C83.8209 13.1641 83.61 13.2578 83.3756 13.2578C83.1413 13.2344 82.9303 13.1641 82.7428 12.9766L79.2741 9.39062C79.0866 9.22656 79.0163 9.01562 79.0163 8.75781C79.0163 8.52344 79.11 8.33594 79.2741 8.14844C80.985 6.48438 83.0006 5.14844 85.2975 4.14062C87.6178 3.13281 89.985 2.61719 92.4225 2.59375C94.8834 2.54688 97.1803 3.15625 99.3131 4.42188C101.751 5.99219 103.438 8.3125 104.376 11.3125C105.313 14.3359 105.735 17.6875 105.665 21.3203C105.571 24.9531 105.243 28.4922 104.633 31.9375C104.024 35.3828 103.415 38.3125 102.805 40.7266C102.735 40.9609 102.594 41.1484 102.407 41.2656C102.196 41.3828 101.985 41.4297 101.727 41.3594L96.8756 40.1641C96.6413 40.1172 96.4538 39.9766 96.3366 39.7656C96.1959 39.5781 96.1725 39.3438 96.2194 39.1094C96.6178 37.5156 96.9694 35.9219 97.2975 34.3281C96.0553 35.1016 94.6959 35.7109 93.2663 36.1328C91.8366 36.5781 90.36 36.7656 88.8834 36.6953C86.2584 36.5078 84.2663 35.6641 82.9303 34.1406C81.6178 32.6172 80.9616 30.7891 80.9616 28.6328C80.9616 26.5 81.6413 24.3438 83.0006 22.2344C84.5944 19.9609 86.6334 17.8281 89.1413 15.8828C91.6491 13.9141 94.11 12.2266 96.5241 10.8203ZM98.7272 17.4062C96.9928 18.4609 95.1647 19.75 93.2428 21.2734C91.3444 22.7734 89.7975 24.3438 88.6491 25.9844C88.3444 26.4531 88.0631 26.9922 87.8522 27.5781C87.6413 28.1641 87.6178 28.7031 87.7584 29.1484C87.9225 29.6172 88.4147 29.875 89.2116 29.9219C90.1256 29.9688 91.0631 29.7812 92.0006 29.4297C92.9147 29.0547 93.7584 28.6094 94.4616 28.0469C95.8678 26.9688 96.9225 25.6797 97.6491 24.1562C98.3522 22.6328 98.7506 20.9922 98.8678 19.2578L98.7272 17.4062ZM133.859 4.84375L133.906 1.98438C133.906 1.75 133.976 1.53906 134.14 1.375C134.304 1.1875 134.515 1.09375 134.749 1.09375L139.437 0.929688C139.695 0.929688 139.882 1 140.07 1.16406C140.234 1.32812 140.327 1.51562 140.351 1.77344C140.398 2.66406 140.468 3.625 140.538 4.65625C140.702 7.1875 140.843 9.97656 140.937 13.0469C141.031 16.0938 140.96 19.1641 140.679 22.2344C140.398 25.2812 139.812 28.0938 138.898 30.6484C137.984 33.2031 136.601 35.2188 134.773 36.7422C132.921 38.2422 130.484 38.9922 127.46 38.9453C125.187 38.8516 123.195 38.1953 121.484 36.9766C119.773 35.7578 118.531 34.0703 117.757 31.9375C117.687 31.7031 117.71 31.4688 117.804 31.2578C117.898 31.0469 118.085 30.9062 118.32 30.8125L122.726 29.2656C122.984 29.1953 123.195 29.1953 123.406 29.3125C123.617 29.4062 123.781 29.5703 123.874 29.8281C124.437 31.2109 125.351 32.0547 126.64 32.3359C127.929 32.6406 129.124 32.4766 130.202 31.8672C131.468 31.0234 132.382 29.7578 132.968 28.0234C133.554 26.2891 133.952 24.5547 134.14 22.7969C132.757 23.9922 131.257 24.7422 129.617 25.0703C127.976 25.3984 126.265 25.3281 124.507 24.8828C122.21 24.25 120.452 23.125 119.234 21.4844C118.015 19.8438 117.312 17.9922 117.171 15.9297C117.007 13.8672 117.359 11.875 118.249 9.95312C119.117 8.03125 120.499 6.46094 122.398 5.26562C124.202 4.21094 126.101 3.69531 128.07 3.69531C130.038 3.71875 131.984 4.09375 133.859 4.84375ZM133.015 11.5234C131.96 10.9609 130.835 10.5625 129.687 10.3281C128.515 10.0703 127.413 10.1172 126.406 10.4453C125.398 10.7969 124.601 11.5703 124.038 12.7891C123.64 13.7031 123.499 14.6406 123.593 15.5547C123.71 16.4922 124.085 17.2656 124.742 17.875C125.398 18.5078 126.359 18.8125 127.601 18.8125C128.702 18.7656 129.617 18.3203 130.367 17.5C131.093 16.6562 131.656 15.6953 132.077 14.5703C132.499 13.4688 132.827 12.4375 133.015 11.5234ZM155.409 26.4531C156.393 27.0625 157.424 27.4375 158.526 27.6016C159.628 27.7891 160.753 27.7891 161.854 27.625C162.979 27.4609 164.057 27.1797 165.112 26.7578C165.346 26.6875 165.557 26.6875 165.792 26.7812C166.003 26.875 166.143 27.0391 166.26 27.2734L168.042 31.9375C168.135 32.1719 168.135 32.3828 168.042 32.6172C167.948 32.8281 167.784 32.9688 167.549 33.0859C164.69 34.1875 161.784 34.6562 158.807 34.4688C155.831 34.2578 153.089 33.2266 150.604 31.3281C150.768 33.9062 151.026 36.4844 151.378 39.0625C151.401 39.2969 151.354 39.5312 151.214 39.7188C151.073 39.9062 150.862 40 150.628 40.0469L145.659 40.7266C145.424 40.75 145.19 40.6797 145.003 40.5391C144.815 40.3984 144.721 40.2109 144.674 39.9531C143.198 28.3047 143.174 16.6562 144.651 5.00781C144.698 4.65625 144.721 4.35156 144.745 4.07031C144.815 3.46094 144.885 3.01562 144.979 2.75781C145.073 2.47656 145.26 2.3125 145.542 2.24219C145.799 2.17188 146.268 2.125 146.878 2.125C147.135 2.10156 147.464 2.10156 147.815 2.07812C149.76 1.9375 151.823 1.98438 154.003 2.21875C156.159 2.45312 158.221 2.96875 160.19 3.76562C162.135 4.58594 163.776 5.78125 165.089 7.39844C166.471 9.22656 167.151 11.1719 167.151 13.2578C167.128 15.3438 166.518 17.3359 165.323 19.2344C164.174 20.9688 162.745 22.4453 160.987 23.6406C159.253 24.8594 157.401 25.7734 155.409 26.4531ZM151.003 8.78125C150.581 12.7656 150.37 16.7969 150.323 20.8047C152.081 20.5 153.792 19.9375 155.503 19.0938C157.237 18.25 158.596 17.0781 159.604 15.6016C160.026 14.9453 160.284 14.2891 160.354 13.5859C160.448 12.9062 160.237 12.25 159.768 11.5938C158.807 10.5156 157.495 9.76562 155.807 9.36719C154.12 8.99219 152.503 8.78125 151.003 8.78125ZM175.225 20.4297C175.178 21.5547 175.225 22.8438 175.412 24.2969C175.576 25.75 175.928 27.1562 176.42 28.4688C176.936 29.8047 177.662 30.8359 178.623 31.5859C179.771 32.3828 180.803 32.5703 181.74 32.1953C182.654 31.7969 183.451 31.1172 184.107 30.1328C184.74 29.125 185.232 28.1406 185.514 27.1094C185.607 26.875 185.748 26.6875 185.959 26.5938C186.17 26.4766 186.381 26.4531 186.615 26.5234L191.42 27.9531C191.654 28.0234 191.842 28.1641 191.959 28.375C192.053 28.5859 192.076 28.7969 192.006 29.0547C191.42 31.0234 190.506 32.875 189.264 34.5625C187.998 36.2266 186.428 37.5156 184.506 38.3828C182.795 39.0859 181.084 39.3203 179.373 39.0625C177.686 38.8047 176.092 38.125 174.615 37.0469C172.318 35.2656 170.678 32.7812 169.646 29.5703C168.639 26.3594 168.24 22.9375 168.498 19.3281C168.732 15.7188 169.6 12.4375 171.1 9.46094C172.6 6.48438 174.732 4.375 177.498 3.08594C180.24 1.96094 182.842 1.86719 185.279 2.85156C187.74 3.83594 189.592 5.71094 190.834 8.47656C191.607 10.3047 192.006 12.1094 192.076 13.9141C192.146 15.7188 192.1 17.5469 191.912 19.4219C191.912 19.5156 191.912 19.6328 191.889 19.7266C191.865 19.9844 191.771 20.1719 191.607 20.3359C191.443 20.4766 191.232 20.5703 190.998 20.5703L175.225 20.4297ZM176.607 13.6797L185.279 13.75C185.186 12.6953 184.904 11.6875 184.412 10.7031C183.92 9.69531 183.1 9.13281 181.951 8.96875C180.615 8.94531 179.49 9.4375 178.6 10.4219C177.709 11.4297 177.053 12.5078 176.607 13.6797ZM210.087 10.8203C209.314 10.0469 208.353 9.60156 207.228 9.46094C206.103 9.29688 205.025 9.34375 203.993 9.57812C201.533 10.1172 199.4 11.2422 197.572 13C197.384 13.1641 197.173 13.2578 196.939 13.2578C196.704 13.2344 196.493 13.1641 196.306 12.9766L192.837 9.39062C192.65 9.22656 192.579 9.01562 192.579 8.75781C192.579 8.52344 192.673 8.33594 192.837 8.14844C194.548 6.48438 196.564 5.14844 198.861 4.14062C201.181 3.13281 203.548 2.61719 205.986 2.59375C208.447 2.54688 210.743 3.15625 212.876 4.42188C215.314 5.99219 217.001 8.3125 217.939 11.3125C218.876 14.3359 219.298 17.6875 219.228 21.3203C219.134 24.9531 218.806 28.4922 218.197 31.9375C217.587 35.3828 216.978 38.3125 216.368 40.7266C216.298 40.9609 216.158 41.1484 215.97 41.2656C215.759 41.3828 215.548 41.4297 215.29 41.3594L210.439 40.1641C210.204 40.1172 210.017 39.9766 209.9 39.7656C209.759 39.5781 209.736 39.3438 209.783 39.1094C210.181 37.5156 210.533 35.9219 210.861 34.3281C209.618 35.1016 208.259 35.7109 206.829 36.1328C205.4 36.5781 203.923 36.7656 202.447 36.6953C199.822 36.5078 197.829 35.6641 196.493 34.1406C195.181 32.6172 194.525 30.7891 194.525 28.6328C194.525 26.5 195.204 24.3438 196.564 22.2344C198.158 19.9609 200.197 17.8281 202.704 15.8828C205.212 13.9141 207.673 12.2266 210.087 10.8203ZM212.29 17.4062C210.556 18.4609 208.728 19.75 206.806 21.2734C204.908 22.7734 203.361 24.3438 202.212 25.9844C201.908 26.4531 201.626 26.9922 201.415 27.5781C201.204 28.1641 201.181 28.7031 201.322 29.1484C201.486 29.6172 201.978 29.875 202.775 29.9219C203.689 29.9688 204.626 29.7812 205.564 29.4297C206.478 29.0547 207.322 28.6094 208.025 28.0469C209.431 26.9688 210.486 25.6797 211.212 24.1562C211.915 22.6328 212.314 20.9922 212.431 19.2578L212.29 17.4062ZM228.872 14.1016C228.708 15.25 228.59 16.75 228.473 18.6016C228.356 20.4531 228.356 22.3281 228.473 24.2734C228.59 26.1953 228.942 27.8359 229.528 29.2188C230.09 30.5781 231.028 31.3516 232.27 31.5391C233.559 31.6094 234.614 31.2109 235.387 30.3203C236.161 29.4297 236.747 28.3516 237.145 27.0859C237.52 25.8203 237.755 24.6719 237.848 23.6406C237.942 22.6328 237.965 21.6016 237.942 20.5938C237.942 20.3359 238.012 20.125 238.176 19.9609C238.34 19.7969 238.551 19.7031 238.809 19.6797L243.801 19.5391C244.036 19.5391 244.247 19.6328 244.434 19.7969C244.598 19.9375 244.692 20.1484 244.692 20.4062C244.786 22.7734 244.575 25.1641 244.036 27.5547C243.497 29.9453 242.512 32.1016 241.083 34.0234C239.911 35.5469 238.505 36.6719 236.911 37.4219C235.294 38.1719 233.512 38.4531 231.614 38.2891C228.965 37.9609 226.926 36.9766 225.497 35.3125C224.044 33.625 223.059 31.5859 222.497 29.1953C221.934 26.7812 221.653 24.2969 221.653 21.7422C221.63 19.2109 221.747 16.9141 221.981 14.8281C222.473 10.1875 223.223 5.59375 224.208 1.04688C224.278 0.8125 224.395 0.625 224.606 0.484375C224.794 0.367188 225.028 0.320312 225.262 0.367188L230.161 1.35156C230.395 1.42188 230.583 1.53906 230.723 1.72656C230.84 1.9375 230.887 2.14844 230.84 2.40625L229.88 7.375L242.231 7.77344C242.489 7.77344 242.7 7.86719 242.864 8.03125C243.005 8.21875 243.098 8.42969 243.098 8.6875L242.934 13.6562C242.911 13.9141 242.84 14.125 242.653 14.2891C242.489 14.4531 242.278 14.5234 242.02 14.5234L228.872 14.1016ZM257.956 35.5703C257.042 32.4062 256.48 29.0078 256.269 25.375C256.081 21.7422 256.128 18.0859 256.433 14.4297C256.738 10.75 257.206 7.30469 257.816 4.07031C257.886 3.69531 258.12 3.46094 258.472 3.36719L260.089 2.99219C263.23 2.24219 266.23 2.21875 269.089 2.94531C271.949 3.64844 274.363 5.33594 276.378 7.96094C278.159 10.4922 279.144 13.3516 279.331 16.5625C279.519 19.75 278.98 22.9141 277.667 26.0078C276.378 29.1016 274.363 31.75 271.667 33.9531C268.949 36.1328 265.574 37.4688 261.566 37.9609C261.214 38.0078 260.909 38.0312 260.628 38.0781C260.019 38.1484 259.574 38.1953 259.292 38.1719C259.011 38.1484 258.8 38.0078 258.659 37.75C258.519 37.4922 258.378 37.0703 258.238 36.4844C258.144 36.2266 258.074 35.9219 257.956 35.5703ZM263.792 9.25C263.3 12.625 263.019 16.1875 262.925 19.9609C262.855 23.7109 263.113 27.2734 263.722 30.625C266.745 29.5469 269.042 27.6719 270.613 25C272.183 22.3281 272.816 19.4453 272.511 16.3516C272.206 13.8906 271.316 12.0391 269.816 10.7969C268.339 9.57812 266.324 9.03906 263.792 9.25ZM296.85 10.8203C296.077 10.0469 295.116 9.60156 293.991 9.46094C292.866 9.29688 291.788 9.34375 290.756 9.57812C288.296 10.1172 286.163 11.2422 284.335 13C284.147 13.1641 283.936 13.2578 283.702 13.2578C283.467 13.2344 283.256 13.1641 283.069 12.9766L279.6 9.39062C279.413 9.22656 279.342 9.01562 279.342 8.75781C279.342 8.52344 279.436 8.33594 279.6 8.14844C281.311 6.48438 283.327 5.14844 285.624 4.14062C287.944 3.13281 290.311 2.61719 292.749 2.59375C295.21 2.54688 297.506 3.15625 299.639 4.42188C302.077 5.99219 303.764 8.3125 304.702 11.3125C305.639 14.3359 306.061 17.6875 305.991 21.3203C305.897 24.9531 305.569 28.4922 304.96 31.9375C304.35 35.3828 303.741 38.3125 303.131 40.7266C303.061 40.9609 302.921 41.1484 302.733 41.2656C302.522 41.3828 302.311 41.4297 302.053 41.3594L297.202 40.1641C296.967 40.1172 296.78 39.9766 296.663 39.7656C296.522 39.5781 296.499 39.3438 296.546 39.1094C296.944 37.5156 297.296 35.9219 297.624 34.3281C296.381 35.1016 295.022 35.7109 293.592 36.1328C292.163 36.5781 290.686 36.7656 289.21 36.6953C286.585 36.5078 284.592 35.6641 283.256 34.1406C281.944 32.6172 281.288 30.7891 281.288 28.6328C281.288 26.5 281.967 24.3438 283.327 22.2344C284.921 19.9609 286.96 17.8281 289.467 15.8828C291.975 13.9141 294.436 12.2266 296.85 10.8203ZM299.053 17.4062C297.319 18.4609 295.491 19.75 293.569 21.2734C291.671 22.7734 290.124 24.3438 288.975 25.9844C288.671 26.4531 288.389 26.9922 288.178 27.5781C287.967 28.1641 287.944 28.7031 288.085 29.1484C288.249 29.6172 288.741 29.875 289.538 29.9219C290.452 29.9688 291.389 29.7812 292.327 29.4297C293.241 29.0547 294.085 28.6094 294.788 28.0469C296.194 26.9688 297.249 25.6797 297.975 24.1562C298.678 22.6328 299.077 20.9922 299.194 19.2578L299.053 17.4062ZM324.705 23.8281C323.346 24.9531 321.799 25.6562 320.064 25.9609C318.33 26.2422 316.642 26.125 314.978 25.5625C313.291 24.9766 311.955 24.0625 310.924 22.8438C309.916 21.625 309.142 20.2188 308.65 18.6484C308.158 17.0781 307.853 15.4609 307.76 13.8203C307.549 9.95312 308.064 6.17969 309.283 2.5C309.377 2.26562 309.517 2.10156 309.728 2.00781C309.939 1.89062 310.174 1.89062 310.408 1.96094L314.861 3.46094C315.096 3.55469 315.26 3.69531 315.353 3.90625C315.471 4.11719 315.494 4.35156 315.4 4.58594C314.767 6.4375 314.369 8.64062 314.205 11.1484C314.017 13.6562 314.369 15.8594 315.213 17.7109C316.01 19.2109 317.228 19.8438 318.892 19.5859C319.9 19.4219 320.674 18.9062 321.26 18.0625C321.846 17.2188 322.291 16.3281 322.549 15.4375C323.228 13.3516 323.603 11.0547 323.674 8.59375C323.744 6.13281 323.65 3.8125 323.369 1.60938C323.346 1.35156 323.392 1.14062 323.533 0.953125C323.697 0.765625 323.885 0.648438 324.142 0.625L328.807 0.0625C329.041 0.0390625 329.275 0.109375 329.439 0.25C329.627 0.390625 329.744 0.578125 329.791 0.835938C329.885 1.70312 330.002 2.64062 330.142 3.64844C330.494 6.13281 330.799 8.89844 331.103 11.9219C331.385 14.9688 331.478 18.0156 331.385 21.0625C331.291 24.1328 330.869 26.9453 330.072 29.5469C329.299 32.125 327.986 34.2344 326.182 35.8281C324.377 37.4453 321.892 38.3125 318.752 38.4531C316.478 38.5 314.416 37.9844 312.564 36.8828C310.713 35.8047 309.33 34.2109 308.369 32.125C308.275 31.8906 308.275 31.6562 308.369 31.4453C308.439 31.2109 308.603 31.0703 308.838 30.9531L313.127 29.0781C313.361 28.9844 313.596 28.9844 313.807 29.0781C314.017 29.1484 314.182 29.3125 314.299 29.5469C314.744 30.4844 315.4 31.1641 316.267 31.5391C317.135 31.9375 318.049 32.0781 319.01 31.9609C319.994 31.8672 320.838 31.5625 321.564 31.0234C322.549 30.25 323.275 29.2188 323.744 27.9062C324.236 26.5703 324.541 25.2109 324.705 23.8281ZM7.24219 76.1016C7.07812 77.25 6.96094 78.75 6.84375 80.6016C6.72656 82.4531 6.72656 84.3281 6.84375 86.2734C6.96094 88.1953 7.3125 89.8359 7.89844 91.2188C8.46094 92.5781 9.39844 93.3516 10.6406 93.5391C11.9297 93.6094 12.9844 93.2109 13.7578 92.3203C14.5312 91.4297 15.1172 90.3516 15.5156 89.0859C15.8906 87.8203 16.125 86.6719 16.2188 85.6406C16.3125 84.6328 16.3359 83.6016 16.3125 82.5938C16.3125 82.3359 16.3828 82.125 16.5469 81.9609C16.7109 81.7969 16.9219 81.7031 17.1797 81.6797L22.1719 81.5391C22.4062 81.5391 22.6172 81.6328 22.8047 81.7969C22.9688 81.9375 23.0625 82.1484 23.0625 82.4062C23.1562 84.7734 22.9453 87.1641 22.4062 89.5547C21.8672 91.9453 20.8828 94.1016 19.4531 96.0234C18.2812 97.5469 16.875 98.6719 15.2812 99.4219C13.6641 100.172 11.8828 100.453 9.98438 100.289C7.33594 99.9609 5.29688 98.9766 3.86719 97.3125C2.41406 95.625 1.42969 93.5859 0.867188 91.1953C0.304688 88.7812 0.0234375 86.2969 0.0234375 83.7422C0 81.2109 0.117188 78.9141 0.351562 76.8281C0.84375 72.1875 1.59375 67.5938 2.57812 63.0469C2.64844 62.8125 2.76562 62.625 2.97656 62.4844C3.16406 62.3672 3.39844 62.3203 3.63281 62.3672L8.53125 63.3516C8.76562 63.4219 8.95312 63.5391 9.09375 63.7266C9.21094 63.9375 9.25781 64.1484 9.21094 64.4062L8.25 69.375L20.6016 69.7734C20.8594 69.7734 21.0703 69.8672 21.2344 70.0312C21.375 70.2188 21.4688 70.4297 21.4688 70.6875L21.3047 75.6562C21.2812 75.9141 21.2109 76.125 21.0234 76.2891C20.8594 76.4531 20.6484 76.5234 20.3906 76.5234L7.24219 76.1016ZM29.3314 76.1016C29.1204 74.3672 29.2611 72.6797 29.7767 71.0625C30.2923 69.4453 31.2064 68.0156 32.5189 66.7734C35.097 64.5469 38.0501 63.75 41.3783 64.3828C43.8392 64.9688 45.8783 66.1406 47.472 67.9453C49.0658 69.7266 50.1908 71.8125 50.8939 74.2031C51.6908 76.9453 52.0189 79.9219 51.9017 83.1562C51.7611 86.4141 51.1751 89.3438 50.097 91.9922C48.9954 94.5938 47.472 96.6094 45.5033 98.0391C43.5345 99.4688 41.1439 100.172 38.3548 100.125C35.1439 100.008 32.5658 99.0703 30.5736 97.3594C28.6048 95.6484 27.1986 93.4688 26.3079 90.8203C25.4408 88.1719 25.0658 85.3828 25.1595 82.4531C25.2298 80.3438 25.5345 78.2344 26.0501 76.1953C26.1204 75.9375 26.2611 75.7734 26.472 75.6328C26.6829 75.5156 26.8939 75.4922 27.1517 75.5391L29.3314 76.1016ZM31.9095 82.8984C31.8861 84.4922 32.0501 86.0859 32.4251 87.7031C32.8236 89.3203 33.5267 90.6562 34.5579 91.7344C35.5892 92.8125 37.0423 93.3516 38.9408 93.375C40.1595 93.3281 41.1673 92.9531 41.9408 92.25C42.7376 91.5469 43.347 90.6562 43.8158 89.5312C41.4486 89.25 39.222 88.5469 37.1595 87.4453C35.0736 86.3203 33.3392 84.8203 31.9095 82.8984ZM45.1517 82.8516C45.2454 80.5781 44.9876 78.3516 44.4017 76.1953C44.097 75.0703 43.5579 73.9922 42.8314 72.9844C42.1048 71.9766 41.1439 71.3203 39.9486 71.0156C38.8704 70.8047 37.9095 71.0391 37.0658 71.7422C36.4564 72.3516 36.1048 73.1016 36.0345 73.9922C35.9642 74.8594 36.0579 75.7031 36.2689 76.5C36.8548 78.4688 37.9798 79.9688 39.6673 81.0234C41.3314 82.0781 43.1595 82.6875 45.1517 82.8516ZM81.0098 85.3359C82.1816 86.1562 83.0723 87.2109 83.6816 88.5234C84.291 89.8359 84.5019 91.2188 84.3613 92.6484C84.0332 94.9688 82.9316 96.8438 81.1035 98.3203C79.3223 99.7031 77.2832 100.594 75.0332 101.016C72.7598 101.414 70.5332 101.508 68.3066 101.227C68.0254 101.203 67.791 101.18 67.5801 101.156C67.0879 101.133 66.7363 101.086 66.5254 101.016C66.3144 100.945 66.1504 100.828 66.0332 100.617C65.9394 100.406 65.7988 100.078 65.6816 99.6094C65.6113 99.4219 65.541 99.1641 65.4473 98.9062C64.2988 95.1094 63.6426 91.0547 63.4785 86.7656C63.3144 82.5 63.4551 78.3984 63.8769 74.4844C64.041 72.7969 64.2285 71.2734 64.4394 69.8906C64.6504 68.5312 64.9316 67.0312 65.2363 65.4141C65.3301 65.0391 65.5644 64.8047 65.9394 64.7344C67.791 64.2891 69.6191 63.9844 71.4004 63.8203C73.1816 63.6562 75.0332 63.7969 76.9785 64.2422C80.3535 65.1562 82.791 66.8438 84.2441 69.2578C85.6973 71.6719 86.166 74.3672 85.6504 77.2969C85.1348 80.2266 83.5879 82.8984 81.0098 85.3359ZM71.1894 70.6406C70.5332 74.8594 70.1816 79.0781 70.1582 83.3438C71.8457 83.0156 73.416 82.4062 74.8926 81.5156C76.3457 80.625 77.5176 79.4062 78.3379 77.9062C78.8066 76.9922 79.0644 76.0547 79.0879 75.0469C79.1113 74.0625 78.7832 73.1484 78.1035 72.3516C77.2598 71.4609 76.2051 70.9219 74.916 70.7344C73.6269 70.5234 72.3848 70.5 71.1894 70.6406ZM70.5098 90.1641C70.6973 91.6641 70.9551 93.1406 71.2832 94.6172C72.2207 94.6172 73.2051 94.5 74.2129 94.2656C75.1973 94.0312 76.0879 93.6328 76.8379 93.0703C77.4941 92.5078 77.7519 91.9922 77.5879 91.5234C77.4238 91.0781 76.9316 90.7266 76.1348 90.4922C75.291 90.2578 74.3535 90.1172 73.3457 90.0938C72.3613 90.0703 71.4004 90.0938 70.5098 90.1641ZM93.9583 82.4297C93.9114 83.5547 93.9583 84.8438 94.1458 86.2969C94.3099 87.75 94.6614 89.1562 95.1536 90.4688C95.6693 91.8047 96.3958 92.8359 97.3568 93.5859C98.5052 94.3828 99.5364 94.5703 100.474 94.1953C101.388 93.7969 102.185 93.1172 102.841 92.1328C103.474 91.125 103.966 90.1406 104.247 89.1094C104.341 88.875 104.482 88.6875 104.693 88.5938C104.904 88.4766 105.115 88.4531 105.349 88.5234L110.154 89.9531C110.388 90.0234 110.576 90.1641 110.693 90.375C110.786 90.5859 110.81 90.7969 110.74 91.0547C110.154 93.0234 109.24 94.875 107.997 96.5625C106.732 98.2266 105.161 99.5156 103.24 100.383C101.529 101.086 99.8177 101.32 98.1068 101.062C96.4193 100.805 94.8255 100.125 93.3489 99.0469C91.0521 97.2656 89.4114 94.7812 88.3802 91.5703C87.3724 88.3594 86.9739 84.9375 87.2318 81.3281C87.4661 77.7188 88.3333 74.4375 89.8333 71.4609C91.3333 68.4844 93.4661 66.375 96.2318 65.0859C98.9739 63.9609 101.576 63.8672 104.013 64.8516C106.474 65.8359 108.326 67.7109 109.568 70.4766C110.341 72.3047 110.74 74.1094 110.81 75.9141C110.88 77.7188 110.833 79.5469 110.646 81.4219C110.646 81.5156 110.646 81.6328 110.622 81.7266C110.599 81.9844 110.505 82.1719 110.341 82.3359C110.177 82.4766 109.966 82.5703 109.732 82.5703L93.9583 82.4297ZM95.3411 75.6797L104.013 75.75C103.919 74.6953 103.638 73.6875 103.146 72.7031C102.654 71.6953 101.833 71.1328 100.685 70.9688C99.3489 70.9453 98.2239 71.4375 97.3333 72.4219C96.4427 73.4297 95.7864 74.5078 95.3411 75.6797ZM138.98 66.8438L139.027 63.9844C139.027 63.75 139.098 63.5391 139.262 63.375C139.426 63.1875 139.637 63.0938 139.871 63.0938L144.559 62.9297C144.816 62.9297 145.004 63 145.191 63.1641C145.355 63.3281 145.449 63.5156 145.473 63.7734C145.52 64.6641 145.59 65.625 145.66 66.6562C145.824 69.1875 145.965 71.9766 146.059 75.0469C146.152 78.0938 146.082 81.1641 145.801 84.2344C145.52 87.2812 144.934 90.0938 144.02 92.6484C143.105 95.2031 141.723 97.2188 139.895 98.7422C138.043 100.242 135.605 100.992 132.582 100.945C130.309 100.852 128.316 100.195 126.605 98.9766C124.895 97.7578 123.652 96.0703 122.879 93.9375C122.809 93.7031 122.832 93.4688 122.926 93.2578C123.02 93.0469 123.207 92.9062 123.441 92.8125L127.848 91.2656C128.105 91.1953 128.316 91.1953 128.527 91.3125C128.738 91.4062 128.902 91.5703 128.996 91.8281C129.559 93.2109 130.473 94.0547 131.762 94.3359C133.051 94.6406 134.246 94.4766 135.324 93.8672C136.59 93.0234 137.504 91.7578 138.09 90.0234C138.676 88.2891 139.074 86.5547 139.262 84.7969C137.879 85.9922 136.379 86.7422 134.738 87.0703C133.098 87.3984 131.387 87.3281 129.629 86.8828C127.332 86.25 125.574 85.125 124.355 83.4844C123.137 81.8438 122.434 79.9922 122.293 77.9297C122.129 75.8672 122.48 73.875 123.371 71.9531C124.238 70.0312 125.621 68.4609 127.52 67.2656C129.324 66.2109 131.223 65.6953 133.191 65.6953C135.16 65.7188 137.105 66.0938 138.98 66.8438ZM138.137 73.5234C137.082 72.9609 135.957 72.5625 134.809 72.3281C133.637 72.0703 132.535 72.1172 131.527 72.4453C130.52 72.7969 129.723 73.5703 129.16 74.7891C128.762 75.7031 128.621 76.6406 128.715 77.5547C128.832 78.4922 129.207 79.2656 129.863 79.875C130.52 80.5078 131.48 80.8125 132.723 80.8125C133.824 80.7656 134.738 80.3203 135.488 79.5C136.215 78.6562 136.777 77.6953 137.199 76.5703C137.621 75.4688 137.949 74.4375 138.137 73.5234ZM160.531 88.4531C161.515 89.0625 162.546 89.4375 163.648 89.6016C164.749 89.7891 165.874 89.7891 166.976 89.625C168.101 89.4609 169.179 89.1797 170.234 88.7578C170.468 88.6875 170.679 88.6875 170.913 88.7812C171.124 88.875 171.265 89.0391 171.382 89.2734L173.163 93.9375C173.257 94.1719 173.257 94.3828 173.163 94.6172C173.07 94.8281 172.906 94.9688 172.671 95.0859C169.812 96.1875 166.906 96.6562 163.929 96.4688C160.952 96.2578 158.21 95.2266 155.726 93.3281C155.89 95.9062 156.148 98.4844 156.499 101.062C156.523 101.297 156.476 101.531 156.335 101.719C156.195 101.906 155.984 102 155.749 102.047L150.781 102.727C150.546 102.75 150.312 102.68 150.124 102.539C149.937 102.398 149.843 102.211 149.796 101.953C148.32 90.3047 148.296 78.6562 149.773 67.0078C149.82 66.6562 149.843 66.3516 149.867 66.0703C149.937 65.4609 150.007 65.0156 150.101 64.7578C150.195 64.4766 150.382 64.3125 150.663 64.2422C150.921 64.1719 151.39 64.125 151.999 64.125C152.257 64.1016 152.585 64.1016 152.937 64.0781C154.882 63.9375 156.945 63.9844 159.124 64.2188C161.281 64.4531 163.343 64.9688 165.312 65.7656C167.257 66.5859 168.898 67.7812 170.21 69.3984C171.593 71.2266 172.273 73.1719 172.273 75.2578C172.249 77.3438 171.64 79.3359 170.445 81.2344C169.296 82.9688 167.867 84.4453 166.109 85.6406C164.374 86.8594 162.523 87.7734 160.531 88.4531ZM156.124 70.7812C155.702 74.7656 155.492 78.7969 155.445 82.8047C157.202 82.5 158.913 81.9375 160.624 81.0938C162.359 80.25 163.718 79.0781 164.726 77.6016C165.148 76.9453 165.406 76.2891 165.476 75.5859C165.57 74.9062 165.359 74.25 164.89 73.5938C163.929 72.5156 162.617 71.7656 160.929 71.3672C159.242 70.9922 157.624 70.7812 156.124 70.7812ZM190.518 72.8203C189.745 72.0469 188.784 71.6016 187.659 71.4609C186.534 71.2969 185.456 71.3438 184.424 71.5781C181.964 72.1172 179.831 73.2422 178.003 75C177.815 75.1641 177.604 75.2578 177.37 75.2578C177.135 75.2344 176.924 75.1641 176.737 74.9766L173.268 71.3906C173.081 71.2266 173.01 71.0156 173.01 70.7578C173.01 70.5234 173.104 70.3359 173.268 70.1484C174.979 68.4844 176.995 67.1484 179.292 66.1406C181.612 65.1328 183.979 64.6172 186.417 64.5938C188.878 64.5469 191.174 65.1562 193.307 66.4219C195.745 67.9922 197.432 70.3125 198.37 73.3125C199.307 76.3359 199.729 79.6875 199.659 83.3203C199.565 86.9531 199.237 90.4922 198.628 93.9375C198.018 97.3828 197.409 100.312 196.799 102.727C196.729 102.961 196.589 103.148 196.401 103.266C196.19 103.383 195.979 103.43 195.721 103.359L190.87 102.164C190.635 102.117 190.448 101.977 190.331 101.766C190.19 101.578 190.167 101.344 190.214 101.109C190.612 99.5156 190.964 97.9219 191.292 96.3281C190.049 97.1016 188.69 97.7109 187.26 98.1328C185.831 98.5781 184.354 98.7656 182.878 98.6953C180.253 98.5078 178.26 97.6641 176.924 96.1406C175.612 94.6172 174.956 92.7891 174.956 90.6328C174.956 88.5 175.635 86.3438 176.995 84.2344C178.589 81.9609 180.628 79.8281 183.135 77.8828C185.643 75.9141 188.104 74.2266 190.518 72.8203ZM192.721 79.4062C190.987 80.4609 189.159 81.75 187.237 83.2734C185.339 84.7734 183.792 86.3438 182.643 87.9844C182.339 88.4531 182.057 88.9922 181.846 89.5781C181.635 90.1641 181.612 90.7031 181.753 91.1484C181.917 91.6172 182.409 91.875 183.206 91.9219C184.12 91.9688 185.057 91.7812 185.995 91.4297C186.909 91.0547 187.753 90.6094 188.456 90.0469C189.862 88.9688 190.917 87.6797 191.643 86.1562C192.346 84.6328 192.745 82.9922 192.862 81.2578L192.721 79.4062ZM209.303 76.1016C209.139 77.25 209.021 78.75 208.904 80.6016C208.787 82.4531 208.787 84.3281 208.904 86.2734C209.021 88.1953 209.373 89.8359 209.959 91.2188C210.521 92.5781 211.459 93.3516 212.701 93.5391C213.99 93.6094 215.045 93.2109 215.818 92.3203C216.592 91.4297 217.178 90.3516 217.576 89.0859C217.951 87.8203 218.186 86.6719 218.279 85.6406C218.373 84.6328 218.396 83.6016 218.373 82.5938C218.373 82.3359 218.443 82.125 218.607 81.9609C218.771 81.7969 218.982 81.7031 219.24 81.6797L224.232 81.5391C224.467 81.5391 224.678 81.6328 224.865 81.7969C225.029 81.9375 225.123 82.1484 225.123 82.4062C225.217 84.7734 225.006 87.1641 224.467 89.5547C223.928 91.9453 222.943 94.1016 221.514 96.0234C220.342 97.5469 218.936 98.6719 217.342 99.4219C215.725 100.172 213.943 100.453 212.045 100.289C209.396 99.9609 207.357 98.9766 205.928 97.3125C204.475 95.625 203.49 93.5859 202.928 91.1953C202.365 88.7812 202.084 86.2969 202.084 83.7422C202.061 81.2109 202.178 78.9141 202.412 76.8281C202.904 72.1875 203.654 67.5938 204.639 63.0469C204.709 62.8125 204.826 62.625 205.037 62.4844C205.225 62.3672 205.459 62.3203 205.693 62.3672L210.592 63.3516C210.826 63.4219 211.014 63.5391 211.154 63.7266C211.271 63.9375 211.318 64.1484 211.271 64.4062L210.311 69.375L222.662 69.7734C222.92 69.7734 223.131 69.8672 223.295 70.0312C223.436 70.2188 223.529 70.4297 223.529 70.6875L223.365 75.6562C223.342 75.9141 223.271 76.125 223.084 76.2891C222.92 76.4531 222.709 76.5234 222.451 76.5234L209.303 76.1016ZM233.478 82.4297C233.431 83.5547 233.478 84.8438 233.665 86.2969C233.829 87.75 234.181 89.1562 234.673 90.4688C235.189 91.8047 235.915 92.8359 236.876 93.5859C238.025 94.3828 239.056 94.5703 239.993 94.1953C240.908 93.7969 241.704 93.1172 242.361 92.1328C242.993 91.125 243.486 90.1406 243.767 89.1094C243.861 88.875 244.001 88.6875 244.212 88.5938C244.423 88.4766 244.634 88.4531 244.868 88.5234L249.673 89.9531C249.908 90.0234 250.095 90.1641 250.212 90.375C250.306 90.5859 250.329 90.7969 250.259 91.0547C249.673 93.0234 248.759 94.875 247.517 96.5625C246.251 98.2266 244.681 99.5156 242.759 100.383C241.048 101.086 239.337 101.32 237.626 101.062C235.939 100.805 234.345 100.125 232.868 99.0469C230.572 97.2656 228.931 94.7812 227.9 91.5703C226.892 88.3594 226.493 84.9375 226.751 81.3281C226.986 77.7188 227.853 74.4375 229.353 71.4609C230.853 68.4844 232.986 66.375 235.751 65.0859C238.493 63.9609 241.095 63.8672 243.533 64.8516C245.993 65.8359 247.845 67.7109 249.087 70.4766C249.861 72.3047 250.259 74.1094 250.329 75.9141C250.4 77.7188 250.353 79.5469 250.165 81.4219C250.165 81.5156 250.165 81.6328 250.142 81.7266C250.118 81.9844 250.025 82.1719 249.861 82.3359C249.697 82.4766 249.486 82.5703 249.251 82.5703L233.478 82.4297ZM234.861 75.6797L243.533 75.75C243.439 74.6953 243.158 73.6875 242.665 72.7031C242.173 71.6953 241.353 71.1328 240.204 70.9688C238.868 70.9453 237.743 71.4375 236.853 72.4219C235.962 73.4297 235.306 74.5078 234.861 75.6797ZM270.215 73.2422C269.489 72.75 268.622 72.2109 267.567 71.6719C266.489 71.1094 265.434 70.7812 264.38 70.6641C263.301 70.5234 262.411 70.8516 261.661 71.6484C260.864 72.6328 260.255 73.9688 259.88 75.6328C259.505 77.2969 259.27 79.0078 259.176 80.7422C259.083 82.5 259.059 84 259.083 85.2422L266.583 84.9609C266.84 84.9609 267.051 85.0547 267.215 85.1953C267.38 85.3594 267.473 85.5703 267.497 85.8281L267.684 90.8203C267.684 91.0547 267.59 91.2656 267.45 91.4531C267.286 91.6172 267.075 91.7109 266.817 91.7344L259.575 91.9922C259.88 94.8984 260.325 97.7578 260.887 100.594C260.911 100.852 260.864 101.062 260.747 101.25C260.606 101.461 260.419 101.578 260.184 101.625L255.262 102.562C255.005 102.609 254.794 102.562 254.606 102.445C254.395 102.305 254.278 102.117 254.231 101.859C253.762 99.5625 253.34 96.8672 252.942 93.7266C252.544 90.5859 252.333 87.3516 252.286 84C252.262 80.6484 252.567 77.5078 253.2 74.5547C253.833 71.6016 254.934 69.1406 256.551 67.2188C258.215 65.3438 260.044 64.2656 262.059 63.9844C264.075 63.6797 266.114 63.8906 268.153 64.6406C270.215 65.3672 272.161 66.375 273.965 67.6172C274.176 67.7578 274.294 67.9453 274.34 68.1797C274.387 68.4141 274.34 68.625 274.223 68.8359L271.434 72.9844C271.294 73.1953 271.106 73.3125 270.872 73.3594C270.637 73.4062 270.426 73.3594 270.215 73.2422ZM284.711 91.9922C285.789 91.875 286.68 91.3828 287.453 90.4453C288.203 89.5312 288.789 88.6172 289.211 87.7266C290.641 84.5859 291.555 81.0234 291.93 77.0625C292.305 73.1016 292.422 69.375 292.258 65.8594C292.258 65.625 292.328 65.4141 292.492 65.25C292.633 65.0859 292.82 64.9688 293.078 64.9453L298.047 64.5469C298.281 64.5469 298.492 64.5938 298.68 64.7578C298.844 64.8984 298.961 65.0859 298.984 65.3203C299.078 66.0938 299.148 66.9844 299.148 68.0156C299.172 69.0469 299.195 70.0312 299.172 70.9219C299.172 71.1562 299.172 71.3906 299.195 71.6016C299.172 76.1953 299.312 80.7188 299.617 85.1719C299.922 89.625 300.578 94.1016 301.609 98.6016C301.656 98.8594 301.609 99.0938 301.492 99.2812C301.375 99.4922 301.187 99.6094 300.953 99.6797L296.078 100.805C295.82 100.875 295.609 100.828 295.398 100.711C295.211 100.57 295.07 100.383 295 100.148C294.484 97.9219 294.062 95.6719 293.734 93.3984C292.281 95.4609 290.57 96.9609 288.578 97.8984C286.562 98.8359 284.383 99 281.992 98.3906C279.719 97.6875 277.984 96.4922 276.766 94.7578C275.57 93 274.75 91.0312 274.305 88.8047C273.883 86.6016 273.672 84.4453 273.719 82.3359C273.766 79.4297 274.047 76.5234 274.562 73.5703C275.078 70.6172 275.711 67.7578 276.508 64.9688C276.578 64.7344 276.719 64.5469 276.906 64.4297C277.117 64.3125 277.352 64.2891 277.586 64.3594L282.391 65.6953C282.648 65.7656 282.812 65.9062 282.93 66.0938C283.047 66.3047 283.07 66.5391 283.023 66.7734C282.437 68.8125 281.898 71.2266 281.359 74.0156C280.844 76.8281 280.539 79.6172 280.469 82.4062C280.398 85.1953 280.773 87.5859 281.594 89.5781C281.898 90.3281 282.297 90.8906 282.789 91.3125C283.281 91.7344 283.914 91.9688 284.711 91.9922ZM310.784 91.8984L321.027 91.7344C321.284 91.7344 321.495 91.8047 321.683 91.9688C321.847 92.1328 321.941 92.3438 321.941 92.6016L322.011 97.5938C322.011 97.8281 321.941 98.0391 321.777 98.2266C321.613 98.3906 321.402 98.4844 321.144 98.4844L304.409 98.7656C304.152 98.7656 303.917 98.6719 303.753 98.4844C303.589 98.3203 303.495 98.0859 303.519 97.8047C303.8 94.6875 303.988 91.7109 304.128 88.875C304.269 86.0391 304.316 83.0156 304.245 79.8281C304.128 75.0703 303.753 70.3359 303.073 65.625C303.027 65.3672 303.097 65.1562 303.238 64.9688C303.378 64.7812 303.566 64.6641 303.823 64.6172L308.769 63.9141C309.027 63.8906 309.238 63.9375 309.425 64.0781C309.613 64.2188 309.73 64.4062 309.777 64.6641C311.019 73.7109 311.347 82.7812 310.784 91.8984ZM324.296 88.7812V64.2422C324.296 63.9844 324.389 63.7734 324.553 63.6094C324.717 63.4219 324.928 63.3516 325.186 63.3516H330.202C330.436 63.3516 330.647 63.4219 330.811 63.6094C330.999 63.7734 331.069 63.9844 331.069 64.2422V88.7812C331.069 89.0156 330.999 89.2266 330.811 89.4141C330.647 89.5781 330.436 89.6719 330.202 89.6719H325.186C324.928 89.6719 324.717 89.5781 324.553 89.4141C324.389 89.2266 324.296 89.0156 324.296 88.7812ZM324.296 99.2812V94.2656C324.296 94.0312 324.389 93.8203 324.553 93.6562C324.717 93.4688 324.928 93.3984 325.186 93.3984H330.202C330.436 93.3984 330.647 93.4688 330.811 93.6562C330.999 93.8203 331.069 94.0312 331.069 94.2656V99.2812C331.069 99.5391 330.999 99.7266 330.811 99.9141C330.647 100.078 330.436 100.172 330.202 100.172H325.186C324.928 100.172 324.717 100.078 324.553 99.9141C324.389 99.7266 324.296 99.5391 324.296 99.2812Z" fill="white"/>
</svg>
