<?xml version="1.0" standalone="no"?>
<svg xmlns="http://www.w3.org/2000/svg" width="500" height="500"><defs><clipPath id="clip-path-dot-color"><path d="M 24 145v 11h 5.5a 5.5 5.5, 0, 0, 0, 0 -11" transform="rotate(180,29.5,150.5)"/><circle cx="29.5" cy="183.5" r="5.5" transform="rotate(0,29.5,183.5)"/><path d="M 24 211v 11h 11v -5.5a 5.5 5.5, 0, 0, 0, -5.5 -5.5" transform="rotate(-90,29.5,216.5)"/><path d="M 24 222v 11h 5.5a 5.5 5.5, 0, 0, 0, 0 -11" transform="rotate(90,29.5,227.5)"/><path d="M 24 244v 11h 5.5a 5.5 5.5, 0, 0, 0, 0 -11" transform="rotate(-90,29.5,249.5)"/><rect x="24" y="255" width="11" height="11" transform="rotate(0,29.5,260.5)"/><path d="M 24 266v 11h 5.5a 5.5 5.5, 0, 0, 0, 0 -11" transform="rotate(90,29.5,271.5)"/><circle cx="29.5" cy="315.5" r="5.5" transform="rotate(0,29.5,315.5)"/><path d="M 24 343v 11h 5.5a 5.5 5.5, 0, 0, 0, 0 -11" transform="rotate(-90,29.5,348.5)"/><path d="M 24 354v 11h 11v -5.5a 5.5 5.5, 0, 0, 0, -5.5 -5.5" transform="rotate(180,29.5,359.5)"/><circle cx="40.5" cy="117.5" r="5.5" transform="rotate(0,40.5,117.5)"/><path d="M 35 134v 11h 11v -5.5a 5.5 5.5, 0, 0, 0, -5.5 -5.5" transform="rotate(-90,40.5,139.5)"/><rect x="35" y="145" width="11" height="11" transform="rotate(0,40.5,150.5)"/><rect x="35" y="156" width="11" height="11" transform="rotate(0,40.5,161.5)"/><path d="M 35 167v 11h 11v -5.5a 5.5 5.5, 0, 0, 0, -5.5 -5.5" transform="rotate(180,40.5,172.5)"/><path d="M 35 189v 11h 5.5a 5.5 5.5, 0, 0, 0, 0 -11" transform="rotate(180,40.5,194.5)"/><rect x="35" y="211" width="11" height="11" transform="rotate(0,40.5,216.5)"/><circle cx="40.5" cy="282.5" r="5.5" transform="rotate(0,40.5,282.5)"/><path d="M 35 332v 11h 5.5a 5.5 5.5, 0, 0, 0, 0 -11" transform="rotate(180,40.5,337.5)"/><path d="M 35 354v 11h 11v -5.5a 5.5 5.5, 0, 0, 0, -5.5 -5.5" transform="rotate(0,40.5,359.5)"/><path d="M 35 365v 11h 11v -5.5a 5.5 5.5, 0, 0, 0, -5.5 -5.5" transform="rotate(180,40.5,370.5)"/><rect x="46" y="134" width="11" height="11" transform="rotate(0,51.5,139.5)"/><rect x="46" y="167" width="11" height="11" transform="rotate(0,51.5,172.5)"/><rect x="46" y="178" width="11" height="11" transform="rotate(0,51.5,183.5)"/><path d="M 46 189v 11h 11v -5.5a 5.5 5.5, 0, 0, 0, -5.5 -5.5" transform="rotate(90,51.5,194.5)"/><path d="M 46 211v 11h 11v -5.5a 5.5 5.5, 0, 0, 0, -5.5 -5.5" transform="rotate(0,51.5,216.5)"/><rect x="46" y="222" width="11" height="11" transform="rotate(0,51.5,227.5)"/><path d="M 46 233v 11h 5.5a 5.5 5.5, 0, 0, 0, 0 -11" transform="rotate(90,51.5,238.5)"/><circle cx="51.5" cy="271.5" r="5.5" transform="rotate(0,51.5,271.5)"/><circle cx="51.5" cy="293.5" r="5.5" transform="rotate(0,51.5,293.5)"/><path d="M 46 332v 11h 5.5a 5.5 5.5, 0, 0, 0, 0 -11" transform="rotate(0,51.5,337.5)"/><rect x="46" y="365" width="11" height="11" transform="rotate(0,51.5,370.5)"/><path d="M 46 376v 11h 5.5a 5.5 5.5, 0, 0, 0, 0 -11" transform="rotate(90,51.5,381.5)"/><path d="M 57 112v 11h 11v -5.5a 5.5 5.5, 0, 0, 0, -5.5 -5.5" transform="rotate(-90,62.5,117.5)"/><rect x="57" y="123" width="11" height="11" transform="rotate(0,62.5,128.5)"/><rect x="57" y="134" width="11" height="11" transform="rotate(0,62.5,139.5)"/><path d="M 57 167v 11h 5.5a 5.5 5.5, 0, 0, 0, 0 -11" transform="rotate(0,62.5,172.5)"/><path d="M 57 222v 11h 5.5a 5.5 5.5, 0, 0, 0, 0 -11" transform="rotate(0,62.5,227.5)"/><circle cx="62.5" cy="282.5" r="5.5" transform="rotate(0,62.5,282.5)"/><path d="M 57 354v 11h 5.5a 5.5 5.5, 0, 0, 0, 0 -11" transform="rotate(-90,62.5,359.5)"/><rect x="57" y="365" width="11" height="11" transform="rotate(0,62.5,370.5)"/><path d="M 68 112v 11h 5.5a 5.5 5.5, 0, 0, 0, 0 -11" transform="rotate(0,73.5,117.5)"/><path d="M 68 134v 11h 5.5a 5.5 5.5, 0, 0, 0, 0 -11" transform="rotate(0,73.5,139.5)"/><circle cx="73.5" cy="161.5" r="5.5" transform="rotate(0,73.5,161.5)"/><path d="M 68 178v 11h 5.5a 5.5 5.5, 0, 0, 0, 0 -11" transform="rotate(-90,73.5,183.5)"/><rect x="68" y="189" width="11" height="11" transform="rotate(0,73.5,194.5)"/><rect x="68" y="200" width="11" height="11" transform="rotate(0,73.5,205.5)"/><path d="M 68 211v 11h 5.5a 5.5 5.5, 0, 0, 0, 0 -11" transform="rotate(90,73.5,216.5)"/><path d="M 68 244v 11h 11v -5.5a 5.5 5.5, 0, 0, 0, -5.5 -5.5" transform="rotate(-90,73.5,249.5)"/><path d="M 68 255v 11h 11v -5.5a 5.5 5.5, 0, 0, 0, -5.5 -5.5" transform="rotate(180,73.5,260.5)"/><path d="M 68 288v 11h 5.5a 5.5 5.5, 0, 0, 0, 0 -11" transform="rotate(180,73.5,293.5)"/><path d="M 68 310v 11h 5.5a 5.5 5.5, 0, 0, 0, 0 -11" transform="rotate(180,73.5,315.5)"/><path d="M 68 332v 11h 11v -5.5a 5.5 5.5, 0, 0, 0, -5.5 -5.5" transform="rotate(-90,73.5,337.5)"/><path d="M 68 343v 11h 11v -5.5a 5.5 5.5, 0, 0, 0, -5.5 -5.5" transform="rotate(180,73.5,348.5)"/><path d="M 68 365v 11h 5.5a 5.5 5.5, 0, 0, 0, 0 -11" transform="rotate(0,73.5,370.5)"/><circle cx="84.5" cy="128.5" r="5.5" transform="rotate(0,84.5,128.5)"/><circle cx="84.5" cy="150.5" r="5.5" transform="rotate(0,84.5,150.5)"/><circle cx="84.5" cy="172.5" r="5.5" transform="rotate(0,84.5,172.5)"/><rect x="79" y="244" width="11" height="11" transform="rotate(0,84.5,249.5)"/><path d="M 79 255v 11h 11v -5.5a 5.5 5.5, 0, 0, 0, -5.5 -5.5" transform="rotate(90,84.5,260.5)"/><rect x="79" y="288" width="11" height="11" transform="rotate(0,84.5,293.5)"/><rect x="79" y="299" width="11" height="11" transform="rotate(0,84.5,304.5)"/><rect x="79" y="310" width="11" height="11" transform="rotate(0,84.5,315.5)"/><rect x="79" y="332" width="11" height="11" transform="rotate(0,84.5,337.5)"/><rect x="79" y="343" width="11" height="11" transform="rotate(0,84.5,348.5)"/><path d="M 79 354v 11h 11v -5.5a 5.5 5.5, 0, 0, 0, -5.5 -5.5" transform="rotate(180,84.5,359.5)"/><path d="M 79 376v 11h 5.5a 5.5 5.5, 0, 0, 0, 0 -11" transform="rotate(180,84.5,381.5)"/><path d="M 90 112v 11h 5.5a 5.5 5.5, 0, 0, 0, 0 -11" transform="rotate(180,95.5,117.5)"/><path d="M 90 134v 11h 5.5a 5.5 5.5, 0, 0, 0, 0 -11" transform="rotate(180,95.5,139.5)"/><path d="M 90 156v 11h 5.5a 5.5 5.5, 0, 0, 0, 0 -11" transform="rotate(180,95.5,161.5)"/><circle cx="95.5" cy="183.5" r="5.5" transform="rotate(0,95.5,183.5)"/><path d="M 90 200v 11h 5.5a 5.5 5.5, 0, 0, 0, 0 -11" transform="rotate(180,95.5,205.5)"/><circle cx="95.5" cy="227.5" r="5.5" transform="rotate(0,95.5,227.5)"/><path d="M 90 244v 11h 5.5a 5.5 5.5, 0, 0, 0, 0 -11" transform="rotate(0,95.5,249.5)"/><circle cx="95.5" cy="271.5" r="5.5" transform="rotate(0,95.5,271.5)"/><path d="M 90 288v 11h 5.5a 5.5 5.5, 0, 0, 0, 0 -11" transform="rotate(0,95.5,293.5)"/><path d="M 90 310v 11h 5.5a 5.5 5.5, 0, 0, 0, 0 -11" transform="rotate(0,95.5,315.5)"/><path d="M 90 332v 11h 5.5a 5.5 5.5, 0, 0, 0, 0 -11" transform="rotate(0,95.5,337.5)"/><rect x="90" y="354" width="11" height="11" transform="rotate(0,95.5,359.5)"/><path d="M 90 376v 11h 5.5a 5.5 5.5, 0, 0, 0, 0 -11" transform="rotate(0,95.5,381.5)"/><rect x="101" y="112" width="11" height="11" transform="rotate(0,106.5,117.5)"/><path d="M 101 134v 11h 5.5a 5.5 5.5, 0, 0, 0, 0 -11" transform="rotate(0,106.5,139.5)"/><rect x="101" y="156" width="11" height="11" transform="rotate(0,106.5,161.5)"/><path d="M 101 167v 11h 11v -5.5a 5.5 5.5, 0, 0, 0, -5.5 -5.5" transform="rotate(180,106.5,172.5)"/><path d="M 101 200v 11h 5.5a 5.5 5.5, 0, 0, 0, 0 -11" transform="rotate(0,106.5,205.5)"/><path d="M 101 233v 11h 5.5a 5.5 5.5, 0, 0, 0, 0 -11" transform="rotate(180,106.5,238.5)"/><circle cx="106.5" cy="304.5" r="5.5" transform="rotate(0,106.5,304.5)"/><path d="M 101 354v 11h 5.5a 5.5 5.5, 0, 0, 0, 0 -11" transform="rotate(0,106.5,359.5)"/><circle cx="117.5" cy="40.5" r="5.5" transform="rotate(0,117.5,40.5)"/><path d="M 112 57v 11h 5.5a 5.5 5.5, 0, 0, 0, 0 -11" transform="rotate(-90,117.5,62.5)"/><rect x="112" y="68" width="11" height="11" transform="rotate(0,117.5,73.5)"/><rect x="112" y="79" width="11" height="11" transform="rotate(0,117.5,84.5)"/><path d="M 112 90v 11h 5.5a 5.5 5.5, 0, 0, 0, 0 -11" transform="rotate(90,117.5,95.5)"/><path d="M 112 112v 11h 11v -5.5a 5.5 5.5, 0, 0, 0, -5.5 -5.5" transform="rotate(0,117.5,117.5)"/><path d="M 112 123v 11h 11v -5.5a 5.5 5.5, 0, 0, 0, -5.5 -5.5" transform="rotate(180,117.5,128.5)"/><path d="M 112 145v 11h 11v -5.5a 5.5 5.5, 0, 0, 0, -5.5 -5.5" transform="rotate(-90,117.5,150.5)"/><rect x="112" y="156" width="11" height="11" transform="rotate(0,117.5,161.5)"/><rect x="112" y="167" width="11" height="11" transform="rotate(0,117.5,172.5)"/><path d="M 112 178v 11h 11v -5.5a 5.5 5.5, 0, 0, 0, -5.5 -5.5" transform="rotate(180,117.5,183.5)"/><path d="M 112 211v 11h 11v -5.5a 5.5 5.5, 0, 0, 0, -5.5 -5.5" transform="rotate(-90,117.5,216.5)"/><rect x="112" y="222" width="11" height="11" transform="rotate(0,117.5,227.5)"/><path d="M 112 233v 11h 11v -5.5a 5.5 5.5, 0, 0, 0, -5.5 -5.5" transform="rotate(90,117.5,238.5)"/><path d="M 112 255v 11h 11v -5.5a 5.5 5.5, 0, 0, 0, -5.5 -5.5" transform="rotate(-90,117.5,260.5)"/><rect x="112" y="266" width="11" height="11" transform="rotate(0,117.5,271.5)"/><path d="M 112 277v 11h 11v -5.5a 5.5 5.5, 0, 0, 0, -5.5 -5.5" transform="rotate(180,117.5,282.5)"/><path d="M 112 310v 11h 11v -5.5a 5.5 5.5, 0, 0, 0, -5.5 -5.5" transform="rotate(-90,117.5,315.5)"/><rect x="112" y="321" width="11" height="11" transform="rotate(0,117.5,326.5)"/><rect x="112" y="332" width="11" height="11" transform="rotate(0,117.5,337.5)"/><path d="M 112 343v 11h 5.5a 5.5 5.5, 0, 0, 0, 0 -11" transform="rotate(90,117.5,348.5)"/><path d="M 112 376v 11h 5.5a 5.5 5.5, 0, 0, 0, 0 -11" transform="rotate(-90,117.5,381.5)"/><rect x="112" y="387" width="11" height="11" transform="rotate(0,117.5,392.5)"/><path d="M 112 398v 11h 5.5a 5.5 5.5, 0, 0, 0, 0 -11" transform="rotate(90,117.5,403.5)"/><path d="M 112 420v 11h 11v -5.5a 5.5 5.5, 0, 0, 0, -5.5 -5.5" transform="rotate(-90,117.5,425.5)"/><path d="M 112 431v 11h 5.5a 5.5 5.5, 0, 0, 0, 0 -11" transform="rotate(90,117.5,436.5)"/><circle cx="117.5" cy="458.5" r="5.5" transform="rotate(0,117.5,458.5)"/><path d="M 123 24v 11h 5.5a 5.5 5.5, 0, 0, 0, 0 -11" transform="rotate(180,128.5,29.5)"/><rect x="123" y="68" width="11" height="11" transform="rotate(0,128.5,73.5)"/><rect x="123" y="79" width="11" height="11" transform="rotate(0,128.5,84.5)"/><circle cx="128.5" cy="106.5" r="5.5" transform="rotate(0,128.5,106.5)"/><path d="M 123 123v 11h 5.5a 5.5 5.5, 0, 0, 0, 0 -11" transform="rotate(0,128.5,128.5)"/><path d="M 123 145v 11h 11v -5.5a 5.5 5.5, 0, 0, 0, -5.5 -5.5" transform="rotate(0,128.5,150.5)"/><rect x="123" y="156" width="11" height="11" transform="rotate(0,128.5,161.5)"/><path d="M 123 178v 11h 11v -5.5a 5.5 5.5, 0, 0, 0, -5.5 -5.5" transform="rotate(0,128.5,183.5)"/><path d="M 123 189v 11h 11v -5.5a 5.5 5.5, 0, 0, 0, -5.5 -5.5" transform="rotate(180,128.5,194.5)"/><rect x="123" y="211" width="11" height="11" transform="rotate(0,128.5,216.5)"/><path d="M 123 244v 11h 5.5a 5.5 5.5, 0, 0, 0, 0 -11" transform="rotate(-90,128.5,249.5)"/><rect x="123" y="255" width="11" height="11" transform="rotate(0,128.5,260.5)"/><rect x="123" y="266" width="11" height="11" transform="rotate(0,128.5,271.5)"/><path d="M 123 277v 11h 11v -5.5a 5.5 5.5, 0, 0, 0, -5.5 -5.5" transform="rotate(90,128.5,282.5)"/><rect x="123" y="310" width="11" height="11" transform="rotate(0,128.5,315.5)"/><rect x="123" y="321" width="11" height="11" transform="rotate(0,128.5,326.5)"/><path d="M 123 354v 11h 11v -5.5a 5.5 5.5, 0, 0, 0, -5.5 -5.5" transform="rotate(-90,128.5,359.5)"/><path d="M 123 365v 11h 5.5a 5.5 5.5, 0, 0, 0, 0 -11" transform="rotate(90,128.5,370.5)"/><rect x="123" y="387" width="11" height="11" transform="rotate(0,128.5,392.5)"/><path d="M 123 420v 11h 5.5a 5.5 5.5, 0, 0, 0, 0 -11" transform="rotate(0,128.5,425.5)"/><path d="M 134 24v 11h 11v -5.5a 5.5 5.5, 0, 0, 0, -5.5 -5.5" transform="rotate(0,139.5,29.5)"/><rect x="134" y="35" width="11" height="11" transform="rotate(0,139.5,40.5)"/><rect x="134" y="46" width="11" height="11" transform="rotate(0,139.5,51.5)"/><rect x="134" y="57" width="11" height="11" transform="rotate(0,139.5,62.5)"/><rect x="134" y="68" width="11" height="11" transform="rotate(0,139.5,73.5)"/><rect x="134" y="79" width="11" height="11" transform="rotate(0,139.5,84.5)"/><path d="M 134 90v 11h 5.5a 5.5 5.5, 0, 0, 0, 0 -11" transform="rotate(90,139.5,95.5)"/><circle cx="139.5" cy="117.5" r="5.5" transform="rotate(0,139.5,117.5)"/><circle cx="139.5" cy="139.5" r="5.5" transform="rotate(0,139.5,139.5)"/><rect x="134" y="156" width="11" height="11" transform="rotate(0,139.5,161.5)"/><path d="M 134 167v 11h 5.5a 5.5 5.5, 0, 0, 0, 0 -11" transform="rotate(90,139.5,172.5)"/><path d="M 134 189v 11h 11v -5.5a 5.5 5.5, 0, 0, 0, -5.5 -5.5" transform="rotate(0,139.5,194.5)"/><rect x="134" y="200" width="11" height="11" transform="rotate(0,139.5,205.5)"/><rect x="134" y="211" width="11" height="11" transform="rotate(0,139.5,216.5)"/><rect x="134" y="222" width="11" height="11" transform="rotate(0,139.5,227.5)"/><path d="M 134 233v 11h 11v -5.5a 5.5 5.5, 0, 0, 0, -5.5 -5.5" transform="rotate(180,139.5,238.5)"/><rect x="134" y="255" width="11" height="11" transform="rotate(0,139.5,260.5)"/><circle cx="139.5" cy="293.5" r="5.5" transform="rotate(0,139.5,293.5)"/><path d="M 134 310v 11h 11v -5.5a 5.5 5.5, 0, 0, 0, -5.5 -5.5" transform="rotate(0,139.5,315.5)"/><rect x="134" y="321" width="11" height="11" transform="rotate(0,139.5,326.5)"/><rect x="134" y="354" width="11" height="11" transform="rotate(0,139.5,359.5)"/><rect x="134" y="387" width="11" height="11" transform="rotate(0,139.5,392.5)"/><path d="M 134 398v 11h 11v -5.5a 5.5 5.5, 0, 0, 0, -5.5 -5.5" transform="rotate(180,139.5,403.5)"/><circle cx="139.5" cy="447.5" r="5.5" transform="rotate(0,139.5,447.5)"/><path d="M 145 35v 11h 11v -5.5a 5.5 5.5, 0, 0, 0, -5.5 -5.5" transform="rotate(0,150.5,40.5)"/><rect x="145" y="46" width="11" height="11" transform="rotate(0,150.5,51.5)"/><rect x="145" y="57" width="11" height="11" transform="rotate(0,150.5,62.5)"/><rect x="145" y="79" width="11" height="11" transform="rotate(0,150.5,84.5)"/><path d="M 145 145v 11h 5.5a 5.5 5.5, 0, 0, 0, 0 -11" transform="rotate(-90,150.5,150.5)"/><path d="M 145 156v 11h 11v -5.5a 5.5 5.5, 0, 0, 0, -5.5 -5.5" transform="rotate(90,150.5,161.5)"/><circle cx="150.5" cy="183.5" r="5.5" transform="rotate(0,150.5,183.5)"/><rect x="145" y="200" width="11" height="11" transform="rotate(0,150.5,205.5)"/><path d="M 145 222v 11h 11v -5.5a 5.5 5.5, 0, 0, 0, -5.5 -5.5" transform="rotate(0,150.5,227.5)"/><path d="M 145 233v 11h 11v -5.5a 5.5 5.5, 0, 0, 0, -5.5 -5.5" transform="rotate(90,150.5,238.5)"/><rect x="145" y="255" width="11" height="11" transform="rotate(0,150.5,260.5)"/><path d="M 145 266v 11h 11v -5.5a 5.5 5.5, 0, 0, 0, -5.5 -5.5" transform="rotate(180,150.5,271.5)"/><path d="M 145 321v 11h 5.5a 5.5 5.5, 0, 0, 0, 0 -11" transform="rotate(0,150.5,326.5)"/><path d="M 145 343v 11h 5.5a 5.5 5.5, 0, 0, 0, 0 -11" transform="rotate(-90,150.5,348.5)"/><rect x="145" y="354" width="11" height="11" transform="rotate(0,150.5,359.5)"/><rect x="145" y="365" width="11" height="11" transform="rotate(0,150.5,370.5)"/><rect x="145" y="376" width="11" height="11" transform="rotate(0,150.5,381.5)"/><rect x="145" y="387" width="11" height="11" transform="rotate(0,150.5,392.5)"/><rect x="145" y="398" width="11" height="11" transform="rotate(0,150.5,403.5)"/><rect x="145" y="409" width="11" height="11" transform="rotate(0,150.5,414.5)"/><rect x="145" y="420" width="11" height="11" transform="rotate(0,150.5,425.5)"/><path d="M 145 431v 11h 5.5a 5.5 5.5, 0, 0, 0, 0 -11" transform="rotate(90,150.5,436.5)"/><circle cx="150.5" cy="469.5" r="5.5" transform="rotate(0,150.5,469.5)"/><rect x="156" y="57" width="11" height="11" transform="rotate(0,161.5,62.5)"/><rect x="156" y="68" width="11" height="11" transform="rotate(0,161.5,73.5)"/><rect x="156" y="79" width="11" height="11" transform="rotate(0,161.5,84.5)"/><rect x="156" y="90" width="11" height="11" transform="rotate(0,161.5,95.5)"/><rect x="156" y="101" width="11" height="11" transform="rotate(0,161.5,106.5)"/><rect x="156" y="112" width="11" height="11" transform="rotate(0,161.5,117.5)"/><path d="M 156 123v 11h 5.5a 5.5 5.5, 0, 0, 0, 0 -11" transform="rotate(90,161.5,128.5)"/><path d="M 156 189v 11h 11v -5.5a 5.5 5.5, 0, 0, 0, -5.5 -5.5" transform="rotate(-90,161.5,194.5)"/><rect x="156" y="200" width="11" height="11" transform="rotate(0,161.5,205.5)"/><path d="M 156 211v 11h 5.5a 5.5 5.5, 0, 0, 0, 0 -11" transform="rotate(90,161.5,216.5)"/><path d="M 156 244v 11h 5.5a 5.5 5.5, 0, 0, 0, 0 -11" transform="rotate(-90,161.5,249.5)"/><rect x="156" y="255" width="11" height="11" transform="rotate(0,161.5,260.5)"/><rect x="156" y="266" width="11" height="11" transform="rotate(0,161.5,271.5)"/><rect x="156" y="277" width="11" height="11" transform="rotate(0,161.5,282.5)"/><path d="M 156 288v 11h 5.5a 5.5 5.5, 0, 0, 0, 0 -11" transform="rotate(90,161.5,293.5)"/><path d="M 156 376v 11h 5.5a 5.5 5.5, 0, 0, 0, 0 -11" transform="rotate(0,161.5,381.5)"/><rect x="156" y="398" width="11" height="11" transform="rotate(0,161.5,403.5)"/><path d="M 156 409v 11h 11v -5.5a 5.5 5.5, 0, 0, 0, -5.5 -5.5" transform="rotate(90,161.5,414.5)"/><circle cx="161.5" cy="458.5" r="5.5" transform="rotate(0,161.5,458.5)"/><path d="M 167 57v 11h 5.5a 5.5 5.5, 0, 0, 0, 0 -11" transform="rotate(0,172.5,62.5)"/><path d="M 167 145v 11h 5.5a 5.5 5.5, 0, 0, 0, 0 -11" transform="rotate(-90,172.5,150.5)"/><path d="M 167 156v 11h 5.5a 5.5 5.5, 0, 0, 0, 0 -11" transform="rotate(90,172.5,161.5)"/><path d="M 167 178v 11h 5.5a 5.5 5.5, 0, 0, 0, 0 -11" transform="rotate(-90,172.5,183.5)"/><path d="M 167 189v 11h 11v -5.5a 5.5 5.5, 0, 0, 0, -5.5 -5.5" transform="rotate(90,172.5,194.5)"/><circle cx="172.5" cy="227.5" r="5.5" transform="rotate(0,172.5,227.5)"/><path d="M 167 354v 11h 11v -5.5a 5.5 5.5, 0, 0, 0, -5.5 -5.5" transform="rotate(-90,172.5,359.5)"/><path d="M 167 365v 11h 5.5a 5.5 5.5, 0, 0, 0, 0 -11" transform="rotate(90,172.5,370.5)"/><rect x="167" y="398" width="11" height="11" transform="rotate(0,172.5,403.5)"/><path d="M 167 420v 11h 5.5a 5.5 5.5, 0, 0, 0, 0 -11" transform="rotate(180,172.5,425.5)"/><path d="M 167 464v 11h 5.5a 5.5 5.5, 0, 0, 0, 0 -11" transform="rotate(180,172.5,469.5)"/><path d="M 178 24v 11h 5.5a 5.5 5.5, 0, 0, 0, 0 -11" transform="rotate(180,183.5,29.5)"/><circle cx="183.5" cy="51.5" r="5.5" transform="rotate(0,183.5,51.5)"/><path d="M 178 68v 11h 5.5a 5.5 5.5, 0, 0, 0, 0 -11" transform="rotate(180,183.5,73.5)"/><circle cx="183.5" cy="95.5" r="5.5" transform="rotate(0,183.5,95.5)"/><path d="M 178 112v 11h 5.5a 5.5 5.5, 0, 0, 0, 0 -11" transform="rotate(180,183.5,117.5)"/><circle cx="183.5" cy="139.5" r="5.5" transform="rotate(0,183.5,139.5)"/><circle cx="183.5" cy="216.5" r="5.5" transform="rotate(0,183.5,216.5)"/><circle cx="183.5" cy="249.5" r="5.5" transform="rotate(0,183.5,249.5)"/><path d="M 178 266v 11h 5.5a 5.5 5.5, 0, 0, 0, 0 -11" transform="rotate(-90,183.5,271.5)"/><rect x="178" y="277" width="11" height="11" transform="rotate(0,183.5,282.5)"/><rect x="178" y="288" width="11" height="11" transform="rotate(0,183.5,293.5)"/><path d="M 178 299v 11h 5.5a 5.5 5.5, 0, 0, 0, 0 -11" transform="rotate(90,183.5,304.5)"/><circle cx="183.5" cy="326.5" r="5.5" transform="rotate(0,183.5,326.5)"/><path d="M 178 343v 11h 5.5a 5.5 5.5, 0, 0, 0, 0 -11" transform="rotate(-90,183.5,348.5)"/><path d="M 178 354v 11h 11v -5.5a 5.5 5.5, 0, 0, 0, -5.5 -5.5" transform="rotate(90,183.5,359.5)"/><path d="M 178 387v 11h 11v -5.5a 5.5 5.5, 0, 0, 0, -5.5 -5.5" transform="rotate(-90,183.5,392.5)"/><rect x="178" y="398" width="11" height="11" transform="rotate(0,183.5,403.5)"/><rect x="178" y="409" width="11" height="11" transform="rotate(0,183.5,414.5)"/><rect x="178" y="420" width="11" height="11" transform="rotate(0,183.5,425.5)"/><rect x="178" y="431" width="11" height="11" transform="rotate(0,183.5,436.5)"/><path d="M 178 442v 11h 11v -5.5a 5.5 5.5, 0, 0, 0, -5.5 -5.5" transform="rotate(180,183.5,447.5)"/><rect x="178" y="464" width="11" height="11" transform="rotate(0,183.5,469.5)"/><rect x="189" y="24" width="11" height="11" transform="rotate(0,194.5,29.5)"/><path d="M 189 57v 11h 5.5a 5.5 5.5, 0, 0, 0, 0 -11" transform="rotate(-90,194.5,62.5)"/><path d="M 189 68v 11h 11v -5.5a 5.5 5.5, 0, 0, 0, -5.5 -5.5" transform="rotate(90,194.5,73.5)"/><path d="M 189 101v 11h 11v -5.5a 5.5 5.5, 0, 0, 0, -5.5 -5.5" transform="rotate(-90,194.5,106.5)"/><rect x="189" y="112" width="11" height="11" transform="rotate(0,194.5,117.5)"/><path d="M 189 178v 11h 5.5a 5.5 5.5, 0, 0, 0, 0 -11" transform="rotate(-90,194.5,183.5)"/><path d="M 189 189v 11h 5.5a 5.5 5.5, 0, 0, 0, 0 -11" transform="rotate(90,194.5,194.5)"/><circle cx="194.5" cy="238.5" r="5.5" transform="rotate(0,194.5,238.5)"/><path d="M 189 277v 11h 5.5a 5.5 5.5, 0, 0, 0, 0 -11" transform="rotate(0,194.5,282.5)"/><circle cx="194.5" cy="315.5" r="5.5" transform="rotate(0,194.5,315.5)"/><circle cx="194.5" cy="337.5" r="5.5" transform="rotate(0,194.5,337.5)"/><path d="M 189 365v 11h 5.5a 5.5 5.5, 0, 0, 0, 0 -11" transform="rotate(180,194.5,370.5)"/><rect x="189" y="387" width="11" height="11" transform="rotate(0,194.5,392.5)"/><path d="M 189 409v 11h 5.5a 5.5 5.5, 0, 0, 0, 0 -11" transform="rotate(0,194.5,414.5)"/><path d="M 189 431v 11h 11v -5.5a 5.5 5.5, 0, 0, 0, -5.5 -5.5" transform="rotate(0,194.5,436.5)"/><path d="M 189 442v 11h 11v -5.5a 5.5 5.5, 0, 0, 0, -5.5 -5.5" transform="rotate(90,194.5,447.5)"/><path d="M 189 464v 11h 5.5a 5.5 5.5, 0, 0, 0, 0 -11" transform="rotate(0,194.5,469.5)"/><path d="M 200 24v 11h 11v -5.5a 5.5 5.5, 0, 0, 0, -5.5 -5.5" transform="rotate(0,205.5,29.5)"/><rect x="200" y="35" width="11" height="11" transform="rotate(0,205.5,40.5)"/><path d="M 200 46v 11h 11v -5.5a 5.5 5.5, 0, 0, 0, -5.5 -5.5" transform="rotate(180,205.5,51.5)"/><path d="M 200 79v 11h 11v -5.5a 5.5 5.5, 0, 0, 0, -5.5 -5.5" transform="rotate(-90,205.5,84.5)"/><rect x="200" y="90" width="11" height="11" transform="rotate(0,205.5,95.5)"/><rect x="200" y="101" width="11" height="11" transform="rotate(0,205.5,106.5)"/><rect x="200" y="112" width="11" height="11" transform="rotate(0,205.5,117.5)"/><path d="M 200 123v 11h 5.5a 5.5 5.5, 0, 0, 0, 0 -11" transform="rotate(90,205.5,128.5)"/><path d="M 200 145v 11h 11v -5.5a 5.5 5.5, 0, 0, 0, -5.5 -5.5" transform="rotate(-90,205.5,150.5)"/><path d="M 200 156v 11h 11v -5.5a 5.5 5.5, 0, 0, 0, -5.5 -5.5" transform="rotate(180,205.5,161.5)"/><path d="M 200 211v 11h 5.5a 5.5 5.5, 0, 0, 0, 0 -11" transform="rotate(180,205.5,216.5)"/><path d="M 200 244v 11h 5.5a 5.5 5.5, 0, 0, 0, 0 -11" transform="rotate(-90,205.5,249.5)"/><path d="M 200 255v 11h 5.5a 5.5 5.5, 0, 0, 0, 0 -11" transform="rotate(90,205.5,260.5)"/><path d="M 200 288v 11h 5.5a 5.5 5.5, 0, 0, 0, 0 -11" transform="rotate(-90,205.5,293.5)"/><path d="M 200 299v 11h 5.5a 5.5 5.5, 0, 0, 0, 0 -11" transform="rotate(90,205.5,304.5)"/><path d="M 200 321v 11h 5.5a 5.5 5.5, 0, 0, 0, 0 -11" transform="rotate(180,205.5,326.5)"/><rect x="200" y="365" width="11" height="11" transform="rotate(0,205.5,370.5)"/><rect x="200" y="387" width="11" height="11" transform="rotate(0,205.5,392.5)"/><path d="M 211 46v 11h 5.5a 5.5 5.5, 0, 0, 0, 0 -11" transform="rotate(0,216.5,51.5)"/><rect x="211" y="79" width="11" height="11" transform="rotate(0,216.5,84.5)"/><path d="M 211 101v 11h 11v -5.5a 5.5 5.5, 0, 0, 0, -5.5 -5.5" transform="rotate(0,216.5,106.5)"/><path d="M 211 112v 11h 11v -5.5a 5.5 5.5, 0, 0, 0, -5.5 -5.5" transform="rotate(90,216.5,117.5)"/><path d="M 211 134v 11h 11v -5.5a 5.5 5.5, 0, 0, 0, -5.5 -5.5" transform="rotate(-90,216.5,139.5)"/><rect x="211" y="145" width="11" height="11" transform="rotate(0,216.5,150.5)"/><rect x="211" y="156" width="11" height="11" transform="rotate(0,216.5,161.5)"/><path d="M 211 178v 11h 5.5a 5.5 5.5, 0, 0, 0, 0 -11" transform="rotate(-90,216.5,183.5)"/><rect x="211" y="189" width="11" height="11" transform="rotate(0,216.5,194.5)"/><rect x="211" y="200" width="11" height="11" transform="rotate(0,216.5,205.5)"/><path d="M 211 211v 11h 11v -5.5a 5.5 5.5, 0, 0, 0, -5.5 -5.5" transform="rotate(90,216.5,216.5)"/><circle cx="216.5" cy="238.5" r="5.5" transform="rotate(0,216.5,238.5)"/><path d="M 211 266v 11h 5.5a 5.5 5.5, 0, 0, 0, 0 -11" transform="rotate(-90,216.5,271.5)"/><path d="M 211 277v 11h 11v -5.5a 5.5 5.5, 0, 0, 0, -5.5 -5.5" transform="rotate(180,216.5,282.5)"/><rect x="211" y="321" width="11" height="11" transform="rotate(0,216.5,326.5)"/><path d="M 211 354v 11h 5.5a 5.5 5.5, 0, 0, 0, 0 -11" transform="rotate(-90,216.5,359.5)"/><rect x="211" y="365" width="11" height="11" transform="rotate(0,216.5,370.5)"/><path d="M 211 387v 11h 5.5a 5.5 5.5, 0, 0, 0, 0 -11" transform="rotate(0,216.5,392.5)"/><path d="M 211 420v 11h 5.5a 5.5 5.5, 0, 0, 0, 0 -11" transform="rotate(180,216.5,425.5)"/><circle cx="227.5" cy="40.5" r="5.5" transform="rotate(0,227.5,40.5)"/><path d="M 222 68v 11h 5.5a 5.5 5.5, 0, 0, 0, 0 -11" transform="rotate(-90,227.5,73.5)"/><rect x="222" y="79" width="11" height="11" transform="rotate(0,227.5,84.5)"/><path d="M 222 90v 11h 5.5a 5.5 5.5, 0, 0, 0, 0 -11" transform="rotate(90,227.5,95.5)"/><path d="M 222 123v 11h 5.5a 5.5 5.5, 0, 0, 0, 0 -11" transform="rotate(-90,227.5,128.5)"/><path d="M 222 134v 11h 11v -5.5a 5.5 5.5, 0, 0, 0, -5.5 -5.5" transform="rotate(90,227.5,139.5)"/><rect x="222" y="156" width="11" height="11" transform="rotate(0,227.5,161.5)"/><path d="M 222 167v 11h 11v -5.5a 5.5 5.5, 0, 0, 0, -5.5 -5.5" transform="rotate(180,227.5,172.5)"/><rect x="222" y="189" width="11" height="11" transform="rotate(0,227.5,194.5)"/><circle cx="227.5" cy="227.5" r="5.5" transform="rotate(0,227.5,227.5)"/><rect x="222" y="277" width="11" height="11" transform="rotate(0,227.5,282.5)"/><rect x="222" y="288" width="11" height="11" transform="rotate(0,227.5,293.5)"/><rect x="222" y="299" width="11" height="11" transform="rotate(0,227.5,304.5)"/><rect x="222" y="310" width="11" height="11" transform="rotate(0,227.5,315.5)"/><rect x="222" y="321" width="11" height="11" transform="rotate(0,227.5,326.5)"/><path d="M 222 332v 11h 11v -5.5a 5.5 5.5, 0, 0, 0, -5.5 -5.5" transform="rotate(180,227.5,337.5)"/><rect x="222" y="365" width="11" height="11" transform="rotate(0,227.5,370.5)"/><path d="M 222 376v 11h 5.5a 5.5 5.5, 0, 0, 0, 0 -11" transform="rotate(90,227.5,381.5)"/><path d="M 222 409v 11h 5.5a 5.5 5.5, 0, 0, 0, 0 -11" transform="rotate(-90,227.5,414.5)"/><rect x="222" y="420" width="11" height="11" transform="rotate(0,227.5,425.5)"/><path d="M 222 442v 11h 11v -5.5a 5.5 5.5, 0, 0, 0, -5.5 -5.5" transform="rotate(-90,227.5,447.5)"/><rect x="222" y="453" width="11" height="11" transform="rotate(0,227.5,458.5)"/><path d="M 222 464v 11h 5.5a 5.5 5.5, 0, 0, 0, 0 -11" transform="rotate(90,227.5,469.5)"/><circle cx="238.5" cy="29.5" r="5.5" transform="rotate(0,238.5,29.5)"/><path d="M 233 46v 11h 5.5a 5.5 5.5, 0, 0, 0, 0 -11" transform="rotate(180,238.5,51.5)"/><path d="M 233 79v 11h 5.5a 5.5 5.5, 0, 0, 0, 0 -11" transform="rotate(0,238.5,84.5)"/><path d="M 233 101v 11h 5.5a 5.5 5.5, 0, 0, 0, 0 -11" transform="rotate(180,238.5,106.5)"/><rect x="233" y="156" width="11" height="11" transform="rotate(0,238.5,161.5)"/><rect x="233" y="167" width="11" height="11" transform="rotate(0,238.5,172.5)"/><path d="M 233 189v 11h 11v -5.5a 5.5 5.5, 0, 0, 0, -5.5 -5.5" transform="rotate(0,238.5,194.5)"/><path d="M 233 200v 11h 11v -5.5a 5.5 5.5, 0, 0, 0, -5.5 -5.5" transform="rotate(180,238.5,205.5)"/><circle cx="238.5" cy="260.5" r="5.5" transform="rotate(0,238.5,260.5)"/><path d="M 233 277v 11h 11v -5.5a 5.5 5.5, 0, 0, 0, -5.5 -5.5" transform="rotate(0,238.5,282.5)"/><rect x="233" y="288" width="11" height="11" transform="rotate(0,238.5,293.5)"/><rect x="233" y="299" width="11" height="11" transform="rotate(0,238.5,304.5)"/><path d="M 233 321v 11h 11v -5.5a 5.5 5.5, 0, 0, 0, -5.5 -5.5" transform="rotate(0,238.5,326.5)"/><rect x="233" y="332" width="11" height="11" transform="rotate(0,238.5,337.5)"/><rect x="233" y="343" width="11" height="11" transform="rotate(0,238.5,348.5)"/><rect x="233" y="354" width="11" height="11" transform="rotate(0,238.5,359.5)"/><rect x="233" y="365" width="11" height="11" transform="rotate(0,238.5,370.5)"/><path d="M 233 387v 11h 5.5a 5.5 5.5, 0, 0, 0, 0 -11" transform="rotate(-90,238.5,392.5)"/><path d="M 233 398v 11h 11v -5.5a 5.5 5.5, 0, 0, 0, -5.5 -5.5" transform="rotate(180,238.5,403.5)"/><path d="M 233 420v 11h 5.5a 5.5 5.5, 0, 0, 0, 0 -11" transform="rotate(0,238.5,425.5)"/><rect x="233" y="442" width="11" height="11" transform="rotate(0,238.5,447.5)"/><path d="M 233 453v 11h 11v -5.5a 5.5 5.5, 0, 0, 0, -5.5 -5.5" transform="rotate(90,238.5,458.5)"/><path d="M 244 46v 11h 5.5a 5.5 5.5, 0, 0, 0, 0 -11" transform="rotate(0,249.5,51.5)"/><path d="M 244 68v 11h 5.5a 5.5 5.5, 0, 0, 0, 0 -11" transform="rotate(180,249.5,73.5)"/><path d="M 244 90v 11h 5.5a 5.5 5.5, 0, 0, 0, 0 -11" transform="rotate(-90,249.5,95.5)"/><path d="M 244 101v 11h 11v -5.5a 5.5 5.5, 0, 0, 0, -5.5 -5.5" transform="rotate(90,249.5,106.5)"/><circle cx="249.5" cy="128.5" r="5.5" transform="rotate(0,249.5,128.5)"/><rect x="244" y="156" width="11" height="11" transform="rotate(0,249.5,161.5)"/><rect x="244" y="167" width="11" height="11" transform="rotate(0,249.5,172.5)"/><path d="M 244 178v 11h 5.5a 5.5 5.5, 0, 0, 0, 0 -11" transform="rotate(90,249.5,183.5)"/><path d="M 244 200v 11h 11v -5.5a 5.5 5.5, 0, 0, 0, -5.5 -5.5" transform="rotate(0,249.5,205.5)"/><rect x="244" y="211" width="11" height="11" transform="rotate(0,249.5,216.5)"/><rect x="244" y="222" width="11" height="11" transform="rotate(0,249.5,227.5)"/><rect x="244" y="233" width="11" height="11" transform="rotate(0,249.5,238.5)"/><path d="M 244 244v 11h 5.5a 5.5 5.5, 0, 0, 0, 0 -11" transform="rotate(90,249.5,249.5)"/><circle cx="249.5" cy="271.5" r="5.5" transform="rotate(0,249.5,271.5)"/><path d="M 244 288v 11h 11v -5.5a 5.5 5.5, 0, 0, 0, -5.5 -5.5" transform="rotate(0,249.5,293.5)"/><rect x="244" y="299" width="11" height="11" transform="rotate(0,249.5,304.5)"/><rect x="244" y="365" width="11" height="11" transform="rotate(0,249.5,370.5)"/><path d="M 244 398v 11h 5.5a 5.5 5.5, 0, 0, 0, 0 -11" transform="rotate(0,249.5,403.5)"/><path d="M 244 431v 11h 5.5a 5.5 5.5, 0, 0, 0, 0 -11" transform="rotate(-90,249.5,436.5)"/><rect x="244" y="442" width="11" height="11" transform="rotate(0,249.5,447.5)"/><circle cx="249.5" cy="469.5" r="5.5" transform="rotate(0,249.5,469.5)"/><circle cx="260.5" cy="29.5" r="5.5" transform="rotate(0,260.5,29.5)"/><path d="M 255 57v 11h 11v -5.5a 5.5 5.5, 0, 0, 0, -5.5 -5.5" transform="rotate(-90,260.5,62.5)"/><rect x="255" y="68" width="11" height="11" transform="rotate(0,260.5,73.5)"/><path d="M 255 79v 11h 5.5a 5.5 5.5, 0, 0, 0, 0 -11" transform="rotate(90,260.5,84.5)"/><path d="M 255 134v 11h 11v -5.5a 5.5 5.5, 0, 0, 0, -5.5 -5.5" transform="rotate(-90,260.5,139.5)"/><rect x="255" y="145" width="11" height="11" transform="rotate(0,260.5,150.5)"/><rect x="255" y="156" width="11" height="11" transform="rotate(0,260.5,161.5)"/><path d="M 255 167v 11h 11v -5.5a 5.5 5.5, 0, 0, 0, -5.5 -5.5" transform="rotate(90,260.5,172.5)"/><circle cx="260.5" cy="194.5" r="5.5" transform="rotate(0,260.5,194.5)"/><path d="M 255 211v 11h 5.5a 5.5 5.5, 0, 0, 0, 0 -11" transform="rotate(0,260.5,216.5)"/><circle cx="260.5" cy="260.5" r="5.5" transform="rotate(0,260.5,260.5)"/><path d="M 255 277v 11h 5.5a 5.5 5.5, 0, 0, 0, 0 -11" transform="rotate(180,260.5,282.5)"/><rect x="255" y="299" width="11" height="11" transform="rotate(0,260.5,304.5)"/><path d="M 255 321v 11h 5.5a 5.5 5.5, 0, 0, 0, 0 -11" transform="rotate(180,260.5,326.5)"/><path d="M 255 343v 11h 11v -5.5a 5.5 5.5, 0, 0, 0, -5.5 -5.5" transform="rotate(-90,260.5,348.5)"/><rect x="255" y="354" width="11" height="11" transform="rotate(0,260.5,359.5)"/><path d="M 255 365v 11h 11v -5.5a 5.5 5.5, 0, 0, 0, -5.5 -5.5" transform="rotate(90,260.5,370.5)"/><circle cx="260.5" cy="392.5" r="5.5" transform="rotate(0,260.5,392.5)"/><path d="M 255 409v 11h 11v -5.5a 5.5 5.5, 0, 0, 0, -5.5 -5.5" transform="rotate(-90,260.5,414.5)"/><path d="M 255 420v 11h 11v -5.5a 5.5 5.5, 0, 0, 0, -5.5 -5.5" transform="rotate(180,260.5,425.5)"/><rect x="255" y="442" width="11" height="11" transform="rotate(0,260.5,447.5)"/><path d="M 266 35v 11h 5.5a 5.5 5.5, 0, 0, 0, 0 -11" transform="rotate(-90,271.5,40.5)"/><rect x="266" y="46" width="11" height="11" transform="rotate(0,271.5,51.5)"/><path d="M 266 57v 11h 11v -5.5a 5.5 5.5, 0, 0, 0, -5.5 -5.5" transform="rotate(90,271.5,62.5)"/><path d="M 266 90v 11h 5.5a 5.5 5.5, 0, 0, 0, 0 -11" transform="rotate(-90,271.5,95.5)"/><rect x="266" y="101" width="11" height="11" transform="rotate(0,271.5,106.5)"/><path d="M 266 112v 11h 5.5a 5.5 5.5, 0, 0, 0, 0 -11" transform="rotate(90,271.5,117.5)"/><path d="M 266 134v 11h 11v -5.5a 5.5 5.5, 0, 0, 0, -5.5 -5.5" transform="rotate(0,271.5,139.5)"/><path d="M 266 145v 11h 11v -5.5a 5.5 5.5, 0, 0, 0, -5.5 -5.5" transform="rotate(90,271.5,150.5)"/><path d="M 266 178v 11h 5.5a 5.5 5.5, 0, 0, 0, 0 -11" transform="rotate(180,271.5,183.5)"/><circle cx="271.5" cy="205.5" r="5.5" transform="rotate(0,271.5,205.5)"/><path d="M 266 222v 11h 5.5a 5.5 5.5, 0, 0, 0, 0 -11" transform="rotate(-90,271.5,227.5)"/><rect x="266" y="233" width="11" height="11" transform="rotate(0,271.5,238.5)"/><path d="M 266 244v 11h 11v -5.5a 5.5 5.5, 0, 0, 0, -5.5 -5.5" transform="rotate(180,271.5,249.5)"/><rect x="266" y="277" width="11" height="11" transform="rotate(0,271.5,282.5)"/><rect x="266" y="288" width="11" height="11" transform="rotate(0,271.5,293.5)"/><path d="M 266 299v 11h 11v -5.5a 5.5 5.5, 0, 0, 0, -5.5 -5.5" transform="rotate(90,271.5,304.5)"/><path d="M 266 321v 11h 11v -5.5a 5.5 5.5, 0, 0, 0, -5.5 -5.5" transform="rotate(0,271.5,326.5)"/><rect x="266" y="332" width="11" height="11" transform="rotate(0,271.5,337.5)"/><rect x="266" y="343" width="11" height="11" transform="rotate(0,271.5,348.5)"/><path d="M 266 376v 11h 5.5a 5.5 5.5, 0, 0, 0, 0 -11" transform="rotate(180,271.5,381.5)"/><path d="M 266 398v 11h 5.5a 5.5 5.5, 0, 0, 0, 0 -11" transform="rotate(-90,271.5,403.5)"/><rect x="266" y="409" width="11" height="11" transform="rotate(0,271.5,414.5)"/><rect x="266" y="420" width="11" height="11" transform="rotate(0,271.5,425.5)"/><rect x="266" y="431" width="11" height="11" transform="rotate(0,271.5,436.5)"/><path d="M 266 442v 11h 11v -5.5a 5.5 5.5, 0, 0, 0, -5.5 -5.5" transform="rotate(90,271.5,447.5)"/><circle cx="282.5" cy="84.5" r="5.5" transform="rotate(0,282.5,84.5)"/><rect x="277" y="101" width="11" height="11" transform="rotate(0,282.5,106.5)"/><path d="M 277 167v 11h 11v -5.5a 5.5 5.5, 0, 0, 0, -5.5 -5.5" transform="rotate(-90,282.5,172.5)"/><rect x="277" y="178" width="11" height="11" transform="rotate(0,282.5,183.5)"/><path d="M 277 233v 11h 11v -5.5a 5.5 5.5, 0, 0, 0, -5.5 -5.5" transform="rotate(0,282.5,238.5)"/><rect x="277" y="244" width="11" height="11" transform="rotate(0,282.5,249.5)"/><path d="M 277 255v 11h 5.5a 5.5 5.5, 0, 0, 0, 0 -11" transform="rotate(90,282.5,260.5)"/><rect x="277" y="277" width="11" height="11" transform="rotate(0,282.5,282.5)"/><circle cx="282.5" cy="315.5" r="5.5" transform="rotate(0,282.5,315.5)"/><rect x="277" y="332" width="11" height="11" transform="rotate(0,282.5,337.5)"/><rect x="277" y="343" width="11" height="11" transform="rotate(0,282.5,348.5)"/><path d="M 277 354v 11h 5.5a 5.5 5.5, 0, 0, 0, 0 -11" transform="rotate(90,282.5,359.5)"/><rect x="277" y="376" width="11" height="11" transform="rotate(0,282.5,381.5)"/><path d="M 277 387v 11h 5.5a 5.5 5.5, 0, 0, 0, 0 -11" transform="rotate(90,282.5,392.5)"/><path d="M 277 409v 11h 11v -5.5a 5.5 5.5, 0, 0, 0, -5.5 -5.5" transform="rotate(0,282.5,414.5)"/><rect x="277" y="420" width="11" height="11" transform="rotate(0,282.5,425.5)"/><rect x="277" y="431" width="11" height="11" transform="rotate(0,282.5,436.5)"/><circle cx="282.5" cy="458.5" r="5.5" transform="rotate(0,282.5,458.5)"/><path d="M 288 68v 11h 5.5a 5.5 5.5, 0, 0, 0, 0 -11" transform="rotate(180,293.5,73.5)"/><path d="M 288 90v 11h 5.5a 5.5 5.5, 0, 0, 0, 0 -11" transform="rotate(-90,293.5,95.5)"/><rect x="288" y="101" width="11" height="11" transform="rotate(0,293.5,106.5)"/><rect x="288" y="112" width="11" height="11" transform="rotate(0,293.5,117.5)"/><rect x="288" y="123" width="11" height="11" transform="rotate(0,293.5,128.5)"/><path d="M 288 134v 11h 5.5a 5.5 5.5, 0, 0, 0, 0 -11" transform="rotate(90,293.5,139.5)"/><rect x="288" y="167" width="11" height="11" transform="rotate(0,293.5,172.5)"/><rect x="288" y="178" width="11" height="11" transform="rotate(0,293.5,183.5)"/><rect x="288" y="189" width="11" height="11" transform="rotate(0,293.5,194.5)"/><path d="M 288 200v 11h 11v -5.5a 5.5 5.5, 0, 0, 0, -5.5 -5.5" transform="rotate(180,293.5,205.5)"/><path d="M 288 222v 11h 5.5a 5.5 5.5, 0, 0, 0, 0 -11" transform="rotate(180,293.5,227.5)"/><rect x="288" y="244" width="11" height="11" transform="rotate(0,293.5,249.5)"/><rect x="288" y="277" width="11" height="11" transform="rotate(0,293.5,282.5)"/><path d="M 288 288v 11h 5.5a 5.5 5.5, 0, 0, 0, 0 -11" transform="rotate(90,293.5,293.5)"/><path d="M 288 321v 11h 11v -5.5a 5.5 5.5, 0, 0, 0, -5.5 -5.5" transform="rotate(-90,293.5,326.5)"/><path d="M 288 332v 11h 11v -5.5a 5.5 5.5, 0, 0, 0, -5.5 -5.5" transform="rotate(90,293.5,337.5)"/><path d="M 288 365v 11h 5.5a 5.5 5.5, 0, 0, 0, 0 -11" transform="rotate(-90,293.5,370.5)"/><rect x="288" y="376" width="11" height="11" transform="rotate(0,293.5,381.5)"/><path d="M 288 398v 11h 5.5a 5.5 5.5, 0, 0, 0, 0 -11" transform="rotate(180,293.5,403.5)"/><path d="M 288 431v 11h 5.5a 5.5 5.5, 0, 0, 0, 0 -11" transform="rotate(0,293.5,436.5)"/><circle cx="304.5" cy="29.5" r="5.5" transform="rotate(0,304.5,29.5)"/><rect x="299" y="68" width="11" height="11" transform="rotate(0,304.5,73.5)"/><path d="M 299 156v 11h 11v -5.5a 5.5 5.5, 0, 0, 0, -5.5 -5.5" transform="rotate(-90,304.5,161.5)"/><rect x="299" y="167" width="11" height="11" transform="rotate(0,304.5,172.5)"/><path d="M 299 178v 11h 11v -5.5a 5.5 5.5, 0, 0, 0, -5.5 -5.5" transform="rotate(90,304.5,183.5)"/><rect x="299" y="200" width="11" height="11" transform="rotate(0,304.5,205.5)"/><rect x="299" y="211" width="11" height="11" transform="rotate(0,304.5,216.5)"/><rect x="299" y="222" width="11" height="11" transform="rotate(0,304.5,227.5)"/><rect x="299" y="233" width="11" height="11" transform="rotate(0,304.5,238.5)"/><rect x="299" y="244" width="11" height="11" transform="rotate(0,304.5,249.5)"/><rect x="299" y="255" width="11" height="11" transform="rotate(0,304.5,260.5)"/><rect x="299" y="266" width="11" height="11" transform="rotate(0,304.5,271.5)"/><path d="M 299 277v 11h 11v -5.5a 5.5 5.5, 0, 0, 0, -5.5 -5.5" transform="rotate(90,304.5,282.5)"/><path d="M 299 299v 11h 5.5a 5.5 5.5, 0, 0, 0, 0 -11" transform="rotate(-90,304.5,304.5)"/><rect x="299" y="310" width="11" height="11" transform="rotate(0,304.5,315.5)"/><rect x="299" y="321" width="11" height="11" transform="rotate(0,304.5,326.5)"/><circle cx="304.5" cy="359.5" r="5.5" transform="rotate(0,304.5,359.5)"/><rect x="299" y="376" width="11" height="11" transform="rotate(0,304.5,381.5)"/><path d="M 299 398v 11h 11v -5.5a 5.5 5.5, 0, 0, 0, -5.5 -5.5" transform="rotate(0,304.5,403.5)"/><rect x="299" y="409" width="11" height="11" transform="rotate(0,304.5,414.5)"/><path d="M 299 420v 11h 11v -5.5a 5.5 5.5, 0, 0, 0, -5.5 -5.5" transform="rotate(180,304.5,425.5)"/><circle cx="304.5" cy="447.5" r="5.5" transform="rotate(0,304.5,447.5)"/><path d="M 299 464v 11h 5.5a 5.5 5.5, 0, 0, 0, 0 -11" transform="rotate(180,304.5,469.5)"/><circle cx="315.5" cy="51.5" r="5.5" transform="rotate(0,315.5,51.5)"/><path d="M 310 68v 11h 5.5a 5.5 5.5, 0, 0, 0, 0 -11" transform="rotate(0,315.5,73.5)"/><path d="M 310 90v 11h 5.5a 5.5 5.5, 0, 0, 0, 0 -11" transform="rotate(-90,315.5,95.5)"/><rect x="310" y="101" width="11" height="11" transform="rotate(0,315.5,106.5)"/><path d="M 310 112v 11h 11v -5.5a 5.5 5.5, 0, 0, 0, -5.5 -5.5" transform="rotate(180,315.5,117.5)"/><path d="M 310 134v 11h 5.5a 5.5 5.5, 0, 0, 0, 0 -11" transform="rotate(-90,315.5,139.5)"/><rect x="310" y="145" width="11" height="11" transform="rotate(0,315.5,150.5)"/><path d="M 310 156v 11h 11v -5.5a 5.5 5.5, 0, 0, 0, -5.5 -5.5" transform="rotate(90,315.5,161.5)"/><path d="M 310 189v 11h 11v -5.5a 5.5 5.5, 0, 0, 0, -5.5 -5.5" transform="rotate(-90,315.5,194.5)"/><rect x="310" y="200" width="11" height="11" transform="rotate(0,315.5,205.5)"/><rect x="310" y="222" width="11" height="11" transform="rotate(0,315.5,227.5)"/><rect x="310" y="244" width="11" height="11" transform="rotate(0,315.5,249.5)"/><rect x="310" y="255" width="11" height="11" transform="rotate(0,315.5,260.5)"/><path d="M 310 321v 11h 5.5a 5.5 5.5, 0, 0, 0, 0 -11" transform="rotate(0,315.5,326.5)"/><path d="M 310 365v 11h 11v -5.5a 5.5 5.5, 0, 0, 0, -5.5 -5.5" transform="rotate(-90,315.5,370.5)"/><path d="M 310 376v 11h 11v -5.5a 5.5 5.5, 0, 0, 0, -5.5 -5.5" transform="rotate(90,315.5,381.5)"/><path d="M 310 420v 11h 11v -5.5a 5.5 5.5, 0, 0, 0, -5.5 -5.5" transform="rotate(0,315.5,425.5)"/><path d="M 310 431v 11h 11v -5.5a 5.5 5.5, 0, 0, 0, -5.5 -5.5" transform="rotate(180,315.5,436.5)"/><path d="M 310 464v 11h 5.5a 5.5 5.5, 0, 0, 0, 0 -11" transform="rotate(0,315.5,469.5)"/><path d="M 321 24v 11h 5.5a 5.5 5.5, 0, 0, 0, 0 -11" transform="rotate(-90,326.5,29.5)"/><path d="M 321 35v 11h 5.5a 5.5 5.5, 0, 0, 0, 0 -11" transform="rotate(90,326.5,40.5)"/><path d="M 321 57v 11h 5.5a 5.5 5.5, 0, 0, 0, 0 -11" transform="rotate(180,326.5,62.5)"/><path d="M 321 112v 11h 5.5a 5.5 5.5, 0, 0, 0, 0 -11" transform="rotate(0,326.5,117.5)"/><rect x="321" y="145" width="11" height="11" transform="rotate(0,326.5,150.5)"/><path d="M 321 167v 11h 5.5a 5.5 5.5, 0, 0, 0, 0 -11" transform="rotate(-90,326.5,172.5)"/><rect x="321" y="178" width="11" height="11" transform="rotate(0,326.5,183.5)"/><rect x="321" y="189" width="11" height="11" transform="rotate(0,326.5,194.5)"/><path d="M 321 200v 11h 11v -5.5a 5.5 5.5, 0, 0, 0, -5.5 -5.5" transform="rotate(90,326.5,205.5)"/><path d="M 321 222v 11h 5.5a 5.5 5.5, 0, 0, 0, 0 -11" transform="rotate(0,326.5,227.5)"/><path d="M 321 244v 11h 11v -5.5a 5.5 5.5, 0, 0, 0, -5.5 -5.5" transform="rotate(0,326.5,249.5)"/><rect x="321" y="255" width="11" height="11" transform="rotate(0,326.5,260.5)"/><rect x="321" y="266" width="11" height="11" transform="rotate(0,326.5,271.5)"/><path d="M 321 277v 11h 11v -5.5a 5.5 5.5, 0, 0, 0, -5.5 -5.5" transform="rotate(180,326.5,282.5)"/><circle cx="326.5" cy="337.5" r="5.5" transform="rotate(0,326.5,337.5)"/><rect x="321" y="365" width="11" height="11" transform="rotate(0,326.5,370.5)"/><circle cx="326.5" cy="392.5" r="5.5" transform="rotate(0,326.5,392.5)"/><path d="M 321 409v 11h 5.5a 5.5 5.5, 0, 0, 0, 0 -11" transform="rotate(180,326.5,414.5)"/><rect x="321" y="431" width="11" height="11" transform="rotate(0,326.5,436.5)"/><rect x="321" y="442" width="11" height="11" transform="rotate(0,326.5,447.5)"/><path d="M 321 453v 11h 11v -5.5a 5.5 5.5, 0, 0, 0, -5.5 -5.5" transform="rotate(180,326.5,458.5)"/><path d="M 332 57v 11h 11v -5.5a 5.5 5.5, 0, 0, 0, -5.5 -5.5" transform="rotate(0,337.5,62.5)"/><path d="M 332 68v 11h 5.5a 5.5 5.5, 0, 0, 0, 0 -11" transform="rotate(90,337.5,73.5)"/><circle cx="337.5" cy="95.5" r="5.5" transform="rotate(0,337.5,95.5)"/><path d="M 332 123v 11h 11v -5.5a 5.5 5.5, 0, 0, 0, -5.5 -5.5" transform="rotate(-90,337.5,128.5)"/><rect x="332" y="134" width="11" height="11" transform="rotate(0,337.5,139.5)"/><rect x="332" y="145" width="11" height="11" transform="rotate(0,337.5,150.5)"/><path d="M 332 156v 11h 11v -5.5a 5.5 5.5, 0, 0, 0, -5.5 -5.5" transform="rotate(180,337.5,161.5)"/><rect x="332" y="189" width="11" height="11" transform="rotate(0,337.5,194.5)"/><circle cx="337.5" cy="216.5" r="5.5" transform="rotate(0,337.5,216.5)"/><rect x="332" y="255" width="11" height="11" transform="rotate(0,337.5,260.5)"/><rect x="332" y="277" width="11" height="11" transform="rotate(0,337.5,282.5)"/><path d="M 332 299v 11h 5.5a 5.5 5.5, 0, 0, 0, 0 -11" transform="rotate(-90,337.5,304.5)"/><path d="M 332 310v 11h 5.5a 5.5 5.5, 0, 0, 0, 0 -11" transform="rotate(90,337.5,315.5)"/><path d="M 332 354v 11h 11v -5.5a 5.5 5.5, 0, 0, 0, -5.5 -5.5" transform="rotate(-90,337.5,359.5)"/><rect x="332" y="365" width="11" height="11" transform="rotate(0,337.5,370.5)"/><path d="M 332 376v 11h 5.5a 5.5 5.5, 0, 0, 0, 0 -11" transform="rotate(90,337.5,381.5)"/><path d="M 332 409v 11h 5.5a 5.5 5.5, 0, 0, 0, 0 -11" transform="rotate(0,337.5,414.5)"/><path d="M 332 431v 11h 5.5a 5.5 5.5, 0, 0, 0, 0 -11" transform="rotate(0,337.5,436.5)"/><rect x="332" y="453" width="11" height="11" transform="rotate(0,337.5,458.5)"/><path d="M 343 24v 11h 11v -5.5a 5.5 5.5, 0, 0, 0, -5.5 -5.5" transform="rotate(-90,348.5,29.5)"/><path d="M 343 35v 11h 11v -5.5a 5.5 5.5, 0, 0, 0, -5.5 -5.5" transform="rotate(180,348.5,40.5)"/><path d="M 343 79v 11h 5.5a 5.5 5.5, 0, 0, 0, 0 -11" transform="rotate(180,348.5,84.5)"/><path d="M 343 101v 11h 5.5a 5.5 5.5, 0, 0, 0, 0 -11" transform="rotate(-90,348.5,106.5)"/><rect x="343" y="112" width="11" height="11" transform="rotate(0,348.5,117.5)"/><rect x="343" y="123" width="11" height="11" transform="rotate(0,348.5,128.5)"/><path d="M 343 156v 11h 11v -5.5a 5.5 5.5, 0, 0, 0, -5.5 -5.5" transform="rotate(0,348.5,161.5)"/><path d="M 343 167v 11h 5.5a 5.5 5.5, 0, 0, 0, 0 -11" transform="rotate(90,348.5,172.5)"/><rect x="343" y="189" width="11" height="11" transform="rotate(0,348.5,194.5)"/><path d="M 343 200v 11h 11v -5.5a 5.5 5.5, 0, 0, 0, -5.5 -5.5" transform="rotate(180,348.5,205.5)"/><path d="M 343 222v 11h 11v -5.5a 5.5 5.5, 0, 0, 0, -5.5 -5.5" transform="rotate(-90,348.5,227.5)"/><path d="M 343 233v 11h 11v -5.5a 5.5 5.5, 0, 0, 0, -5.5 -5.5" transform="rotate(180,348.5,238.5)"/><path d="M 343 255v 11h 11v -5.5a 5.5 5.5, 0, 0, 0, -5.5 -5.5" transform="rotate(0,348.5,260.5)"/><rect x="343" y="266" width="11" height="11" transform="rotate(0,348.5,271.5)"/><rect x="343" y="277" width="11" height="11" transform="rotate(0,348.5,282.5)"/><path d="M 343 288v 11h 5.5a 5.5 5.5, 0, 0, 0, 0 -11" transform="rotate(90,348.5,293.5)"/><path d="M 343 354v 11h 5.5a 5.5 5.5, 0, 0, 0, 0 -11" transform="rotate(0,348.5,359.5)"/><circle cx="348.5" cy="425.5" r="5.5" transform="rotate(0,348.5,425.5)"/><path d="M 343 453v 11h 5.5a 5.5 5.5, 0, 0, 0, 0 -11" transform="rotate(0,348.5,458.5)"/><rect x="354" y="24" width="11" height="11" transform="rotate(0,359.5,29.5)"/><rect x="354" y="35" width="11" height="11" transform="rotate(0,359.5,40.5)"/><path d="M 354 46v 11h 5.5a 5.5 5.5, 0, 0, 0, 0 -11" transform="rotate(90,359.5,51.5)"/><path d="M 354 68v 11h 5.5a 5.5 5.5, 0, 0, 0, 0 -11" transform="rotate(-90,359.5,73.5)"/><rect x="354" y="79" width="11" height="11" transform="rotate(0,359.5,84.5)"/><path d="M 354 90v 11h 5.5a 5.5 5.5, 0, 0, 0, 0 -11" transform="rotate(90,359.5,95.5)"/><rect x="354" y="123" width="11" height="11" transform="rotate(0,359.5,128.5)"/><rect x="354" y="134" width="11" height="11" transform="rotate(0,359.5,139.5)"/><path d="M 354 145v 11h 11v -5.5a 5.5 5.5, 0, 0, 0, -5.5 -5.5" transform="rotate(180,359.5,150.5)"/><path d="M 354 178v 11h 11v -5.5a 5.5 5.5, 0, 0, 0, -5.5 -5.5" transform="rotate(-90,359.5,183.5)"/><rect x="354" y="189" width="11" height="11" transform="rotate(0,359.5,194.5)"/><rect x="354" y="200" width="11" height="11" transform="rotate(0,359.5,205.5)"/><rect x="354" y="211" width="11" height="11" transform="rotate(0,359.5,216.5)"/><rect x="354" y="222" width="11" height="11" transform="rotate(0,359.5,227.5)"/><rect x="354" y="233" width="11" height="11" transform="rotate(0,359.5,238.5)"/><path d="M 354 244v 11h 5.5a 5.5 5.5, 0, 0, 0, 0 -11" transform="rotate(90,359.5,249.5)"/><path d="M 354 277v 11h 5.5a 5.5 5.5, 0, 0, 0, 0 -11" transform="rotate(0,359.5,282.5)"/><path d="M 354 299v 11h 5.5a 5.5 5.5, 0, 0, 0, 0 -11" transform="rotate(180,359.5,304.5)"/><path d="M 354 332v 11h 5.5a 5.5 5.5, 0, 0, 0, 0 -11" transform="rotate(180,359.5,337.5)"/><path d="M 354 365v 11h 5.5a 5.5 5.5, 0, 0, 0, 0 -11" transform="rotate(-90,359.5,370.5)"/><rect x="354" y="376" width="11" height="11" transform="rotate(0,359.5,381.5)"/><path d="M 354 387v 11h 5.5a 5.5 5.5, 0, 0, 0, 0 -11" transform="rotate(90,359.5,392.5)"/><circle cx="359.5" cy="469.5" r="5.5" transform="rotate(0,359.5,469.5)"/><rect x="365" y="24" width="11" height="11" transform="rotate(0,370.5,29.5)"/><rect x="365" y="35" width="11" height="11" transform="rotate(0,370.5,40.5)"/><rect x="365" y="123" width="11" height="11" transform="rotate(0,370.5,128.5)"/><rect x="365" y="134" width="11" height="11" transform="rotate(0,370.5,139.5)"/><path d="M 365 145v 11h 11v -5.5a 5.5 5.5, 0, 0, 0, -5.5 -5.5" transform="rotate(90,370.5,150.5)"/><rect x="365" y="178" width="11" height="11" transform="rotate(0,370.5,183.5)"/><rect x="365" y="211" width="11" height="11" transform="rotate(0,370.5,216.5)"/><rect x="365" y="222" width="11" height="11" transform="rotate(0,370.5,227.5)"/><path d="M 365 255v 11h 5.5a 5.5 5.5, 0, 0, 0, 0 -11" transform="rotate(-90,370.5,260.5)"/><path d="M 365 266v 11h 5.5a 5.5 5.5, 0, 0, 0, 0 -11" transform="rotate(90,370.5,271.5)"/><path d="M 365 288v 11h 5.5a 5.5 5.5, 0, 0, 0, 0 -11" transform="rotate(-90,370.5,293.5)"/><path d="M 365 299v 11h 11v -5.5a 5.5 5.5, 0, 0, 0, -5.5 -5.5" transform="rotate(90,370.5,304.5)"/><path d="M 365 321v 11h 5.5a 5.5 5.5, 0, 0, 0, 0 -11" transform="rotate(-90,370.5,326.5)"/><rect x="365" y="332" width="11" height="11" transform="rotate(0,370.5,337.5)"/><path d="M 365 398v 11h 11v -5.5a 5.5 5.5, 0, 0, 0, -5.5 -5.5" transform="rotate(-90,370.5,403.5)"/><path d="M 365 409v 11h 11v -5.5a 5.5 5.5, 0, 0, 0, -5.5 -5.5" transform="rotate(180,370.5,414.5)"/><path d="M 365 442v 11h 11v -5.5a 5.5 5.5, 0, 0, 0, -5.5 -5.5" transform="rotate(-90,370.5,447.5)"/><path d="M 365 453v 11h 5.5a 5.5 5.5, 0, 0, 0, 0 -11" transform="rotate(90,370.5,458.5)"/><path d="M 376 24v 11h 11v -5.5a 5.5 5.5, 0, 0, 0, -5.5 -5.5" transform="rotate(0,381.5,29.5)"/><rect x="376" y="35" width="11" height="11" transform="rotate(0,381.5,40.5)"/><rect x="376" y="46" width="11" height="11" transform="rotate(0,381.5,51.5)"/><path d="M 376 57v 11h 5.5a 5.5 5.5, 0, 0, 0, 0 -11" transform="rotate(90,381.5,62.5)"/><path d="M 376 79v 11h 5.5a 5.5 5.5, 0, 0, 0, 0 -11" transform="rotate(-90,381.5,84.5)"/><rect x="376" y="90" width="11" height="11" transform="rotate(0,381.5,95.5)"/><rect x="376" y="101" width="11" height="11" transform="rotate(0,381.5,106.5)"/><rect x="376" y="112" width="11" height="11" transform="rotate(0,381.5,117.5)"/><rect x="376" y="123" width="11" height="11" transform="rotate(0,381.5,128.5)"/><path d="M 376 156v 11h 11v -5.5a 5.5 5.5, 0, 0, 0, -5.5 -5.5" transform="rotate(-90,381.5,161.5)"/><rect x="376" y="167" width="11" height="11" transform="rotate(0,381.5,172.5)"/><path d="M 376 178v 11h 11v -5.5a 5.5 5.5, 0, 0, 0, -5.5 -5.5" transform="rotate(90,381.5,183.5)"/><path d="M 376 200v 11h 11v -5.5a 5.5 5.5, 0, 0, 0, -5.5 -5.5" transform="rotate(-90,381.5,205.5)"/><rect x="376" y="211" width="11" height="11" transform="rotate(0,381.5,216.5)"/><rect x="376" y="222" width="11" height="11" transform="rotate(0,381.5,227.5)"/><path d="M 376 244v 11h 5.5a 5.5 5.5, 0, 0, 0, 0 -11" transform="rotate(180,381.5,249.5)"/><path d="M 376 310v 11h 5.5a 5.5 5.5, 0, 0, 0, 0 -11" transform="rotate(180,381.5,315.5)"/><rect x="376" y="332" width="11" height="11" transform="rotate(0,381.5,337.5)"/><path d="M 376 343v 11h 5.5a 5.5 5.5, 0, 0, 0, 0 -11" transform="rotate(90,381.5,348.5)"/><path d="M 376 376v 11h 11v -5.5a 5.5 5.5, 0, 0, 0, -5.5 -5.5" transform="rotate(-90,381.5,381.5)"/><rect x="376" y="387" width="11" height="11" transform="rotate(0,381.5,392.5)"/><rect x="376" y="398" width="11" height="11" transform="rotate(0,381.5,403.5)"/><rect x="376" y="409" width="11" height="11" transform="rotate(0,381.5,414.5)"/><rect x="376" y="420" width="11" height="11" transform="rotate(0,381.5,425.5)"/><rect x="376" y="431" width="11" height="11" transform="rotate(0,381.5,436.5)"/><path d="M 376 442v 11h 11v -5.5a 5.5 5.5, 0, 0, 0, -5.5 -5.5" transform="rotate(90,381.5,447.5)"/><circle cx="381.5" cy="469.5" r="5.5" transform="rotate(0,381.5,469.5)"/><path d="M 387 112v 11h 11v -5.5a 5.5 5.5, 0, 0, 0, -5.5 -5.5" transform="rotate(0,392.5,117.5)"/><rect x="387" y="123" width="11" height="11" transform="rotate(0,392.5,128.5)"/><rect x="387" y="156" width="11" height="11" transform="rotate(0,392.5,161.5)"/><rect x="387" y="167" width="11" height="11" transform="rotate(0,392.5,172.5)"/><path d="M 387 200v 11h 11v -5.5a 5.5 5.5, 0, 0, 0, -5.5 -5.5" transform="rotate(0,392.5,205.5)"/><rect x="387" y="211" width="11" height="11" transform="rotate(0,392.5,216.5)"/><path d="M 387 222v 11h 11v -5.5a 5.5 5.5, 0, 0, 0, -5.5 -5.5" transform="rotate(90,392.5,227.5)"/><rect x="387" y="244" width="11" height="11" transform="rotate(0,392.5,249.5)"/><rect x="387" y="255" width="11" height="11" transform="rotate(0,392.5,260.5)"/><rect x="387" y="266" width="11" height="11" transform="rotate(0,392.5,271.5)"/><path d="M 387 277v 11h 11v -5.5a 5.5 5.5, 0, 0, 0, -5.5 -5.5" transform="rotate(180,392.5,282.5)"/><path d="M 387 299v 11h 11v -5.5a 5.5 5.5, 0, 0, 0, -5.5 -5.5" transform="rotate(-90,392.5,304.5)"/><rect x="387" y="310" width="11" height="11" transform="rotate(0,392.5,315.5)"/><rect x="387" y="321" width="11" height="11" transform="rotate(0,392.5,326.5)"/><rect x="387" y="332" width="11" height="11" transform="rotate(0,392.5,337.5)"/><path d="M 387 354v 11h 5.5a 5.5 5.5, 0, 0, 0, 0 -11" transform="rotate(180,392.5,359.5)"/><rect x="387" y="376" width="11" height="11" transform="rotate(0,392.5,381.5)"/><rect x="387" y="420" width="11" height="11" transform="rotate(0,392.5,425.5)"/><rect x="398" y="123" width="11" height="11" transform="rotate(0,403.5,128.5)"/><path d="M 398 145v 11h 5.5a 5.5 5.5, 0, 0, 0, 0 -11" transform="rotate(-90,403.5,150.5)"/><rect x="398" y="156" width="11" height="11" transform="rotate(0,403.5,161.5)"/><rect x="398" y="167" width="11" height="11" transform="rotate(0,403.5,172.5)"/><path d="M 398 178v 11h 11v -5.5a 5.5 5.5, 0, 0, 0, -5.5 -5.5" transform="rotate(180,403.5,183.5)"/><path d="M 398 211v 11h 5.5a 5.5 5.5, 0, 0, 0, 0 -11" transform="rotate(0,403.5,216.5)"/><path d="M 398 244v 11h 11v -5.5a 5.5 5.5, 0, 0, 0, -5.5 -5.5" transform="rotate(0,403.5,249.5)"/><path d="M 398 255v 11h 11v -5.5a 5.5 5.5, 0, 0, 0, -5.5 -5.5" transform="rotate(90,403.5,260.5)"/><rect x="398" y="277" width="11" height="11" transform="rotate(0,403.5,282.5)"/><rect x="398" y="299" width="11" height="11" transform="rotate(0,403.5,304.5)"/><path d="M 398 321v 11h 11v -5.5a 5.5 5.5, 0, 0, 0, -5.5 -5.5" transform="rotate(0,403.5,326.5)"/><rect x="398" y="332" width="11" height="11" transform="rotate(0,403.5,337.5)"/><rect x="398" y="343" width="11" height="11" transform="rotate(0,403.5,348.5)"/><rect x="398" y="354" width="11" height="11" transform="rotate(0,403.5,359.5)"/><rect x="398" y="365" width="11" height="11" transform="rotate(0,403.5,370.5)"/><rect x="398" y="376" width="11" height="11" transform="rotate(0,403.5,381.5)"/><circle cx="403.5" cy="403.5" r="5.5" transform="rotate(0,403.5,403.5)"/><rect x="398" y="420" width="11" height="11" transform="rotate(0,403.5,425.5)"/><rect x="398" y="431" width="11" height="11" transform="rotate(0,403.5,436.5)"/><path d="M 398 442v 11h 5.5a 5.5 5.5, 0, 0, 0, 0 -11" transform="rotate(90,403.5,447.5)"/><path d="M 409 112v 11h 11v -5.5a 5.5 5.5, 0, 0, 0, -5.5 -5.5" transform="rotate(-90,414.5,117.5)"/><rect x="409" y="123" width="11" height="11" transform="rotate(0,414.5,128.5)"/><path d="M 409 134v 11h 5.5a 5.5 5.5, 0, 0, 0, 0 -11" transform="rotate(90,414.5,139.5)"/><rect x="409" y="178" width="11" height="11" transform="rotate(0,414.5,183.5)"/><circle cx="414.5" cy="205.5" r="5.5" transform="rotate(0,414.5,205.5)"/><path d="M 409 233v 11h 5.5a 5.5 5.5, 0, 0, 0, 0 -11" transform="rotate(180,414.5,238.5)"/><rect x="409" y="277" width="11" height="11" transform="rotate(0,414.5,282.5)"/><rect x="409" y="299" width="11" height="11" transform="rotate(0,414.5,304.5)"/><rect x="409" y="343" width="11" height="11" transform="rotate(0,414.5,348.5)"/><rect x="409" y="365" width="11" height="11" transform="rotate(0,414.5,370.5)"/><rect x="409" y="376" width="11" height="11" transform="rotate(0,414.5,381.5)"/><rect x="409" y="420" width="11" height="11" transform="rotate(0,414.5,425.5)"/><rect x="409" y="431" width="11" height="11" transform="rotate(0,414.5,436.5)"/><circle cx="414.5" cy="469.5" r="5.5" transform="rotate(0,414.5,469.5)"/><rect x="420" y="112" width="11" height="11" transform="rotate(0,425.5,117.5)"/><path d="M 420 178v 11h 5.5a 5.5 5.5, 0, 0, 0, 0 -11" transform="rotate(0,425.5,183.5)"/><path d="M 420 211v 11h 11v -5.5a 5.5 5.5, 0, 0, 0, -5.5 -5.5" transform="rotate(-90,425.5,216.5)"/><rect x="420" y="222" width="11" height="11" transform="rotate(0,425.5,227.5)"/><rect x="420" y="233" width="11" height="11" transform="rotate(0,425.5,238.5)"/><path d="M 420 244v 11h 5.5a 5.5 5.5, 0, 0, 0, 0 -11" transform="rotate(90,425.5,249.5)"/><rect x="420" y="277" width="11" height="11" transform="rotate(0,425.5,282.5)"/><rect x="420" y="288" width="11" height="11" transform="rotate(0,425.5,293.5)"/><path d="M 420 299v 11h 11v -5.5a 5.5 5.5, 0, 0, 0, -5.5 -5.5" transform="rotate(90,425.5,304.5)"/><path d="M 420 332v 11h 11v -5.5a 5.5 5.5, 0, 0, 0, -5.5 -5.5" transform="rotate(-90,425.5,337.5)"/><rect x="420" y="343" width="11" height="11" transform="rotate(0,425.5,348.5)"/><rect x="420" y="354" width="11" height="11" transform="rotate(0,425.5,359.5)"/><rect x="420" y="365" width="11" height="11" transform="rotate(0,425.5,370.5)"/><rect x="420" y="376" width="11" height="11" transform="rotate(0,425.5,381.5)"/><rect x="420" y="387" width="11" height="11" transform="rotate(0,425.5,392.5)"/><rect x="420" y="398" width="11" height="11" transform="rotate(0,425.5,403.5)"/><rect x="420" y="409" width="11" height="11" transform="rotate(0,425.5,414.5)"/><rect x="420" y="420" width="11" height="11" transform="rotate(0,425.5,425.5)"/><path d="M 420 431v 11h 11v -5.5a 5.5 5.5, 0, 0, 0, -5.5 -5.5" transform="rotate(90,425.5,436.5)"/><path d="M 431 112v 11h 11v -5.5a 5.5 5.5, 0, 0, 0, -5.5 -5.5" transform="rotate(0,436.5,117.5)"/><path d="M 431 123v 11h 5.5a 5.5 5.5, 0, 0, 0, 0 -11" transform="rotate(90,436.5,128.5)"/><path d="M 431 145v 11h 11v -5.5a 5.5 5.5, 0, 0, 0, -5.5 -5.5" transform="rotate(-90,436.5,150.5)"/><path d="M 431 156v 11h 5.5a 5.5 5.5, 0, 0, 0, 0 -11" transform="rotate(90,436.5,161.5)"/><path d="M 431 189v 11h 11v -5.5a 5.5 5.5, 0, 0, 0, -5.5 -5.5" transform="rotate(-90,436.5,194.5)"/><rect x="431" y="200" width="11" height="11" transform="rotate(0,436.5,205.5)"/><rect x="431" y="211" width="11" height="11" transform="rotate(0,436.5,216.5)"/><rect x="431" y="222" width="11" height="11" transform="rotate(0,436.5,227.5)"/><path d="M 431 233v 11h 11v -5.5a 5.5 5.5, 0, 0, 0, -5.5 -5.5" transform="rotate(90,436.5,238.5)"/><path d="M 431 266v 11h 11v -5.5a 5.5 5.5, 0, 0, 0, -5.5 -5.5" transform="rotate(-90,436.5,271.5)"/><path d="M 431 277v 11h 11v -5.5a 5.5 5.5, 0, 0, 0, -5.5 -5.5" transform="rotate(90,436.5,282.5)"/><path d="M 431 310v 11h 11v -5.5a 5.5 5.5, 0, 0, 0, -5.5 -5.5" transform="rotate(-90,436.5,315.5)"/><rect x="431" y="321" width="11" height="11" transform="rotate(0,436.5,326.5)"/><path d="M 431 332v 11h 11v -5.5a 5.5 5.5, 0, 0, 0, -5.5 -5.5" transform="rotate(90,436.5,337.5)"/><rect x="431" y="376" width="11" height="11" transform="rotate(0,436.5,381.5)"/><rect x="431" y="409" width="11" height="11" transform="rotate(0,436.5,414.5)"/><path d="M 431 453v 11h 11v -5.5a 5.5 5.5, 0, 0, 0, -5.5 -5.5" transform="rotate(-90,436.5,458.5)"/><path d="M 431 464v 11h 11v -5.5a 5.5 5.5, 0, 0, 0, -5.5 -5.5" transform="rotate(180,436.5,469.5)"/><path d="M 442 134v 11h 5.5a 5.5 5.5, 0, 0, 0, 0 -11" transform="rotate(-90,447.5,139.5)"/><path d="M 442 145v 11h 11v -5.5a 5.5 5.5, 0, 0, 0, -5.5 -5.5" transform="rotate(90,447.5,150.5)"/><path d="M 442 167v 11h 11v -5.5a 5.5 5.5, 0, 0, 0, -5.5 -5.5" transform="rotate(-90,447.5,172.5)"/><rect x="442" y="178" width="11" height="11" transform="rotate(0,447.5,183.5)"/><rect x="442" y="189" width="11" height="11" transform="rotate(0,447.5,194.5)"/><path d="M 442 255v 11h 11v -5.5a 5.5 5.5, 0, 0, 0, -5.5 -5.5" transform="rotate(-90,447.5,260.5)"/><path d="M 442 266v 11h 11v -5.5a 5.5 5.5, 0, 0, 0, -5.5 -5.5" transform="rotate(90,447.5,271.5)"/><path d="M 442 310v 11h 11v -5.5a 5.5 5.5, 0, 0, 0, -5.5 -5.5" transform="rotate(0,447.5,315.5)"/><rect x="442" y="321" width="11" height="11" transform="rotate(0,447.5,326.5)"/><path d="M 442 354v 11h 5.5a 5.5 5.5, 0, 0, 0, 0 -11" transform="rotate(-90,447.5,359.5)"/><rect x="442" y="365" width="11" height="11" transform="rotate(0,447.5,370.5)"/><rect x="442" y="376" width="11" height="11" transform="rotate(0,447.5,381.5)"/><path d="M 442 387v 11h 5.5a 5.5 5.5, 0, 0, 0, 0 -11" transform="rotate(90,447.5,392.5)"/><path d="M 442 409v 11h 11v -5.5a 5.5 5.5, 0, 0, 0, -5.5 -5.5" transform="rotate(0,447.5,414.5)"/><path d="M 442 420v 11h 11v -5.5a 5.5 5.5, 0, 0, 0, -5.5 -5.5" transform="rotate(180,447.5,425.5)"/><path d="M 442 453v 11h 11v -5.5a 5.5 5.5, 0, 0, 0, -5.5 -5.5" transform="rotate(0,447.5,458.5)"/><rect x="442" y="464" width="11" height="11" transform="rotate(0,447.5,469.5)"/><path d="M 453 112v 11h 5.5a 5.5 5.5, 0, 0, 0, 0 -11" transform="rotate(-90,458.5,117.5)"/><path d="M 453 123v 11h 11v -5.5a 5.5 5.5, 0, 0, 0, -5.5 -5.5" transform="rotate(180,458.5,128.5)"/><path d="M 453 156v 11h 5.5a 5.5 5.5, 0, 0, 0, 0 -11" transform="rotate(-90,458.5,161.5)"/><rect x="453" y="167" width="11" height="11" transform="rotate(0,458.5,172.5)"/><rect x="453" y="189" width="11" height="11" transform="rotate(0,458.5,194.5)"/><path d="M 453 211v 11h 5.5a 5.5 5.5, 0, 0, 0, 0 -11" transform="rotate(180,458.5,216.5)"/><path d="M 453 244v 11h 5.5a 5.5 5.5, 0, 0, 0, 0 -11" transform="rotate(-90,458.5,249.5)"/><path d="M 453 255v 11h 11v -5.5a 5.5 5.5, 0, 0, 0, -5.5 -5.5" transform="rotate(90,458.5,260.5)"/><circle cx="458.5" cy="282.5" r="5.5" transform="rotate(0,458.5,282.5)"/><path d="M 453 321v 11h 5.5a 5.5 5.5, 0, 0, 0, 0 -11" transform="rotate(0,458.5,326.5)"/><rect x="453" y="365" width="11" height="11" transform="rotate(0,458.5,370.5)"/><path d="M 453 398v 11h 5.5a 5.5 5.5, 0, 0, 0, 0 -11" transform="rotate(180,458.5,403.5)"/><rect x="453" y="420" width="11" height="11" transform="rotate(0,458.5,425.5)"/><rect x="453" y="431" width="11" height="11" transform="rotate(0,458.5,436.5)"/><path d="M 453 442v 11h 5.5a 5.5 5.5, 0, 0, 0, 0 -11" transform="rotate(90,458.5,447.5)"/><path d="M 453 464v 11h 5.5a 5.5 5.5, 0, 0, 0, 0 -11" transform="rotate(0,458.5,469.5)"/><path d="M 464 123v 11h 11v -5.5a 5.5 5.5, 0, 0, 0, -5.5 -5.5" transform="rotate(0,469.5,128.5)"/><rect x="464" y="134" width="11" height="11" transform="rotate(0,469.5,139.5)"/><path d="M 464 145v 11h 5.5a 5.5 5.5, 0, 0, 0, 0 -11" transform="rotate(90,469.5,150.5)"/><path d="M 464 167v 11h 11v -5.5a 5.5 5.5, 0, 0, 0, -5.5 -5.5" transform="rotate(0,469.5,172.5)"/><rect x="464" y="178" width="11" height="11" transform="rotate(0,469.5,183.5)"/><path d="M 464 189v 11h 11v -5.5a 5.5 5.5, 0, 0, 0, -5.5 -5.5" transform="rotate(90,469.5,194.5)"/><path d="M 464 211v 11h 11v -5.5a 5.5 5.5, 0, 0, 0, -5.5 -5.5" transform="rotate(0,469.5,216.5)"/><path d="M 464 222v 11h 5.5a 5.5 5.5, 0, 0, 0, 0 -11" transform="rotate(90,469.5,227.5)"/><path d="M 464 288v 11h 5.5a 5.5 5.5, 0, 0, 0, 0 -11" transform="rotate(-90,469.5,293.5)"/><path d="M 464 299v 11h 5.5a 5.5 5.5, 0, 0, 0, 0 -11" transform="rotate(90,469.5,304.5)"/><circle cx="469.5" cy="337.5" r="5.5" transform="rotate(0,469.5,337.5)"/><path d="M 464 365v 11h 11v -5.5a 5.5 5.5, 0, 0, 0, -5.5 -5.5" transform="rotate(0,469.5,370.5)"/><path d="M 464 376v 11h 5.5a 5.5 5.5, 0, 0, 0, 0 -11" transform="rotate(90,469.5,381.5)"/><path d="M 464 398v 11h 5.5a 5.5 5.5, 0, 0, 0, 0 -11" transform="rotate(0,469.5,403.5)"/><path d="M 464 420v 11h 11v -5.5a 5.5 5.5, 0, 0, 0, -5.5 -5.5" transform="rotate(0,469.5,425.5)"/><path d="M 464 431v 11h 11v -5.5a 5.5 5.5, 0, 0, 0, -5.5 -5.5" transform="rotate(90,469.5,436.5)"/></clipPath><clipPath id="clip-path-corners-square-color-0-0"><path clip-rule="evenodd" d="M 24 51.5v 22a 27.5 27.5, 0, 0, 0, 27.5 27.5h 22a 27.5 27.5, 0, 0, 0, 27.5 -27.5v -22a 27.5 27.5, 0, 0, 0, -27.5 -27.5h -22a 27.5 27.5, 0, 0, 0, -27.5 27.5M 51.5 35h 22a 16.5 16.5, 0, 0, 1, 16.5 16.5v 22a 16.5 16.5, 0, 0, 1, -16.5 16.5h -22a 16.5 16.5, 0, 0, 1, -16.5 -16.5v -22a 16.5 16.5, 0, 0, 1, 16.5 -16.5" transform="rotate(0,62.5,62.5)"/></clipPath><clipPath id="clip-path-corners-dot-color-0-0"><circle cx="62.5" cy="62.5" r="16.5" transform="rotate(0,62.5,62.5)"/></clipPath><clipPath id="clip-path-corners-square-color-1-0"><path clip-rule="evenodd" d="M 398 51.5v 22a 27.5 27.5, 0, 0, 0, 27.5 27.5h 22a 27.5 27.5, 0, 0, 0, 27.5 -27.5v -22a 27.5 27.5, 0, 0, 0, -27.5 -27.5h -22a 27.5 27.5, 0, 0, 0, -27.5 27.5M 425.5 35h 22a 16.5 16.5, 0, 0, 1, 16.5 16.5v 22a 16.5 16.5, 0, 0, 1, -16.5 16.5h -22a 16.5 16.5, 0, 0, 1, -16.5 -16.5v -22a 16.5 16.5, 0, 0, 1, 16.5 -16.5" transform="rotate(90,436.5,62.5)"/></clipPath><clipPath id="clip-path-corners-dot-color-1-0"><circle cx="436.5" cy="62.5" r="16.5" transform="rotate(90,436.5,62.5)"/></clipPath><clipPath id="clip-path-corners-square-color-0-1"><path clip-rule="evenodd" d="M 24 425.5v 22a 27.5 27.5, 0, 0, 0, 27.5 27.5h 22a 27.5 27.5, 0, 0, 0, 27.5 -27.5v -22a 27.5 27.5, 0, 0, 0, -27.5 -27.5h -22a 27.5 27.5, 0, 0, 0, -27.5 27.5M 51.5 409h 22a 16.5 16.5, 0, 0, 1, 16.5 16.5v 22a 16.5 16.5, 0, 0, 1, -16.5 16.5h -22a 16.5 16.5, 0, 0, 1, -16.5 -16.5v -22a 16.5 16.5, 0, 0, 1, 16.5 -16.5" transform="rotate(-90,62.5,436.5)"/></clipPath><clipPath id="clip-path-corners-dot-color-0-1"><circle cx="62.5" cy="436.5" r="16.5" transform="rotate(-90,62.5,436.5)"/></clipPath></defs><rect x="0" y="0" height="500" width="500" clip-path="url('#clip-path-background-color')" fill="#fff"/><rect x="0" y="0" height="500" width="500" clip-path="url('#clip-path-dot-color')" fill="#000000"/><rect x="24" y="24" height="77" width="77" clip-path="url('#clip-path-corners-square-color-0-0')" fill="#000000"/><rect x="46" y="46" height="33" width="33" clip-path="url('#clip-path-corners-dot-color-0-0')" fill="#000000"/><rect x="398" y="24" height="77" width="77" clip-path="url('#clip-path-corners-square-color-1-0')" fill="#000000"/><rect x="420" y="46" height="33" width="33" clip-path="url('#clip-path-corners-dot-color-1-0')" fill="#000000"/><rect x="24" y="398" height="77" width="77" clip-path="url('#clip-path-corners-square-color-0-1')" fill="#000000"/><rect x="46" y="420" height="33" width="33" clip-path="url('#clip-path-corners-dot-color-0-1')" fill="#000000"/></svg>